<svg width="42" height="23" viewBox="0 0 42 23" fill="none" xmlns="http://www.w3.org/2000/svg">
<path d="M18.8889 9.38889L12.2071 2.70711C11.8166 2.31658 11.1834 2.31658 10.7929 2.70711L2.70711 10.7929C2.31658 11.1834 2.31658 11.8166 2.70711 12.2071L10.7929 20.2929C11.1834 20.6834 11.8166 20.6834 12.2071 20.2929L29.7929 2.70711C30.1834 2.31658 30.8166 2.31658 31.2071 2.70711L39.2929 10.7929C39.6834 11.1834 39.6834 11.8166 39.2929 12.2071L31.2071 20.2929C30.8166 20.6834 30.1834 20.6834 29.7929 20.2929L23.463 13.963" stroke="#6D6F71" stroke-width="4"/>
<path d="M13 19.5L29 3.5M13 3.5L19 9.5" stroke="#E9BE41" stroke-width="4"/>
</svg>
