<svg width="24" height="24" viewBox="0 0 24 24" fill="none" xmlns="http://www.w3.org/2000/svg">
<path d="M16.7071 4C16.2617 4 16.0386 4.53857 16.3536 4.85355L17.2175 5.7175L13.9111 9.02395C13.7158 9.21921 13.3992 9.21921 13.2039 9.02395L10.9113 6.73129C10.7159 6.53594 10.3992 6.53604 10.2039 6.73153L5.35308 11.5889C5.15804 11.7842 5.15815 12.1006 5.35332 12.2958L5.70395 12.6464C5.89921 12.8417 6.21579 12.8417 6.41105 12.6464L10.2039 8.85355C10.3992 8.65829 10.7158 8.65829 10.9111 8.85355L13.2042 11.1467C13.3994 11.3419 13.7157 11.342 13.9111 11.147L18.2825 6.7825L19.1464 7.64645C19.4614 7.96143 20 7.73835 20 7.29289V4.5C20 4.22386 19.7761 4 19.5 4H16.7071Z" fill="white"/>
<path d="M4 4V19C4 19.5523 4.44772 20 5 20H20" stroke="white" stroke-linecap="round"/>
<rect x="6" y="16" width="2" height="4" rx="1" fill="white"/>
<rect x="10" y="14" width="2" height="6" rx="1" fill="white"/>
<rect x="14" y="12" width="2" height="8" rx="1" fill="white"/>
<rect x="18" y="11" width="2" height="9" rx="1" fill="white"/>
</svg>
