<svg width="24" height="24" viewBox="0 0 24 24" fill="none" xmlns="http://www.w3.org/2000/svg">
<path fill-rule="evenodd" clip-rule="evenodd" d="M3 6H21C21.3978 6 21.7794 6.15804 22.0607 6.43934C22.342 6.72064 22.5 7.10218 22.5 7.5V19.5C22.5 19.8978 22.342 20.2794 22.0607 20.5607C21.7794 20.842 21.3978 21 21 21H3C2.60218 21 2.22064 20.842 1.93934 20.5607C1.65804 20.2794 1.5 19.8978 1.5 19.5V3.75C1.5 3.35218 1.65804 2.97064 1.93934 2.68934C2.22064 2.40804 2.60218 2.25 3 2.25H19.5V3.75H3V6ZM3 7.5V19.5H21V17.25H15C14.6022 17.25 14.2206 17.092 13.9393 16.8107C13.658 16.5294 13.5 16.1478 13.5 15.75V11.25C13.5 10.8522 13.658 10.4706 13.9393 10.1893C14.2206 9.90804 14.6022 9.75 15 9.75H21V7.5H3ZM21 15.75V11.25H15V15.75H21ZM16.5 12.75H18V14.25H16.5V12.75Z" fill="white"/>
</svg>
