<svg width="24" height="24" viewBox="0 0 24 24" fill="none" xmlns="http://www.w3.org/2000/svg">
<path fill-rule="evenodd" clip-rule="evenodd" d="M8 0C3.58172 0 0 3.58172 0 8V16C0 20.4183 3.58172 24 8 24H16C20.4183 24 24 20.4183 24 16V8C24 3.58172 20.4183 0 16 0H8ZM9.64 13.888L10.144 15.4H11.944L8.992 7H6.94L4 15.4H5.788L6.292 13.888H9.64ZM9.124 12.34H6.82L7.972 8.908L9.124 12.34ZM19.3836 9.4H17.8716V10.144C17.4156 9.536 16.7756 9.232 15.9516 9.232C15.1116 9.232 14.4036 9.532 13.8276 10.132C13.2516 10.732 12.9636 11.456 12.9636 12.304C12.9636 13.16 13.2476 13.888 13.8156 14.488C14.3916 15.08 15.1036 15.376 15.9516 15.376C16.7756 15.376 17.4156 15.072 17.8716 14.464V15.112C17.8716 15.584 17.7316 15.948 17.4516 16.204C17.1716 16.46 16.7876 16.588 16.2996 16.588C15.5556 16.588 15.0316 16.308 14.7276 15.748L13.4076 16.504C13.6716 16.984 14.0476 17.348 14.5356 17.596C15.0316 17.844 15.6036 17.968 16.2516 17.968C17.1156 17.968 17.8516 17.724 18.4596 17.236C19.0756 16.748 19.3836 16.04 19.3836 15.112V9.4ZM16.1916 13.948C15.7036 13.948 15.2996 13.796 14.9796 13.492C14.6676 13.18 14.5116 12.784 14.5116 12.304C14.5116 11.832 14.6676 11.444 14.9796 11.14C15.2996 10.828 15.7036 10.672 16.1916 10.672C16.6796 10.672 17.0796 10.828 17.3916 11.14C17.7116 11.444 17.8716 11.832 17.8716 12.304C17.8716 12.784 17.7116 13.18 17.3916 13.492C17.0796 13.796 16.6796 13.948 16.1916 13.948Z" fill="url(#paint0_linear_1607_33297)"/>
<defs>
<linearGradient id="paint0_linear_1607_33297" x1="12" y1="0" x2="12" y2="24" gradientUnits="userSpaceOnUse">
<stop stop-color="#DFDFDF"/>
<stop offset="1" stop-color="#B7B5B5"/>
</linearGradient>
</defs>
</svg>
