<svg width="24" height="24" viewBox="0 0 24 24" fill="none" xmlns="http://www.w3.org/2000/svg">
<path fill-rule="evenodd" clip-rule="evenodd" d="M8 0C3.58172 0 0 3.58172 0 8V16C0 20.4183 3.58172 24 8 24H16C20.4183 24 24 20.4183 24 16V8C24 3.58172 20.4183 0 16 0H8ZM10.14 14.888L10.644 16.4H12.444L9.492 8H7.44L4.5 16.4H6.288L6.792 14.888H10.14ZM8.472 9.908L9.624 13.34H7.32L8.472 9.908ZM19.389 10.4H17.841V13.64C17.841 14.136 17.721 14.508 17.481 14.756C17.241 15.004 16.921 15.128 16.521 15.128C16.161 15.128 15.873 15.024 15.657 14.816C15.441 14.6 15.333 14.292 15.333 13.892V10.4H13.785V14.084C13.785 14.86 13.997 15.468 14.421 15.908C14.853 16.348 15.397 16.568 16.053 16.568C16.869 16.568 17.465 16.288 17.841 15.728V16.4H19.389V10.4Z" fill="url(#paint0_linear_104_23842)"/>
<defs>
<linearGradient id="paint0_linear_104_23842" x1="12" y1="0" x2="12" y2="24" gradientUnits="userSpaceOnUse">
<stop stop-color="#EBB711"/>
<stop offset="1" stop-color="#D49E00"/>
</linearGradient>
</defs>
</svg>
