<svg width="24" height="24" viewBox="0 0 24 24" fill="none" xmlns="http://www.w3.org/2000/svg">
<rect width="24" height="24" rx="8" fill="url(#paint0_linear_1607_33288)"/>
<path d="M8.36379 7.2002C9.28311 7.2002 10.0568 7.50496 10.6848 8.11448C11.3129 8.72401 11.6269 9.47246 11.6269 10.3599C11.6269 11.2473 11.3129 11.9957 10.6848 12.6052C10.0568 13.2148 9.28311 13.5195 8.36379 13.5195H6.68444V16.612H4.80029V7.2002H8.36379ZM8.36379 11.7851C8.76428 11.7851 9.09651 11.6506 9.36047 11.3817C9.62444 11.1038 9.75642 10.7632 9.75642 10.3599C9.75642 9.94753 9.62444 9.60692 9.36047 9.33801C9.09651 9.0691 8.76428 8.93465 8.36379 8.93465H6.68444V11.7851H8.36379Z" fill="white"/>
<path d="M18.039 7.2002H19.8003V16.612H18.039V15.8187C17.5202 16.473 16.7829 16.8002 15.8272 16.8002C14.9079 16.8002 14.1205 16.4596 13.4652 15.7783C12.8189 15.0882 12.4958 14.2456 12.4958 13.2506C12.4958 12.2557 12.8189 11.4176 13.4652 10.7363C14.1205 10.0461 14.9079 9.70104 15.8272 9.70104C16.7829 9.70104 17.5202 10.0282 18.039 10.6825V7.2002ZM14.7896 14.622C15.1536 14.9716 15.6088 15.1464 16.1549 15.1464C16.701 15.1464 17.1516 14.9716 17.5065 14.622C17.8615 14.2635 18.039 13.8064 18.039 13.2506C18.039 12.6949 17.8615 12.2422 17.5065 11.8926C17.1516 11.5341 16.701 11.3548 16.1549 11.3548C15.6088 11.3548 15.1536 11.5341 14.7896 11.8926C14.4346 12.2422 14.2571 12.6949 14.2571 13.2506C14.2571 13.8064 14.4346 14.2635 14.7896 14.622Z" fill="white"/>
<defs>
<linearGradient id="paint0_linear_1607_33288" x1="19.6757" y1="3.67568" x2="27.6" y2="15.3" gradientUnits="userSpaceOnUse">
<stop stop-color="#BAB5B5"/>
<stop offset="0.994792" stop-color="#5A5757"/>
</linearGradient>
</defs>
</svg>
