<svg width="24" height="24" viewBox="0 0 24 24" fill="none" xmlns="http://www.w3.org/2000/svg">
<rect width="24" height="24" rx="8" fill="url(#paint0_linear_1607_33294)"/>
<path d="M8.72529 7.2002C9.73787 7.2002 10.59 7.52856 11.2818 8.1853C11.9736 8.84203 12.3194 9.64846 12.3194 10.6046C12.3194 11.5607 11.9736 12.3671 11.2818 13.0239C10.59 13.6806 9.73787 14.009 8.72529 14.009H6.87558V17.3409H4.80029V7.2002H8.72529ZM8.72529 12.1402C9.16642 12.1402 9.53235 11.9953 9.82309 11.7056C10.1138 11.4062 10.2592 11.0392 10.2592 10.6046C10.2592 10.1603 10.1138 9.79333 9.82309 9.50359C9.53235 9.21386 9.16642 9.06899 8.72529 9.06899H6.87558V12.1402H8.72529Z" fill="white"/>
<path d="M18.6003 11.8939H16.901V14.9072C16.901 15.1583 16.9661 15.3418 17.0965 15.4577C17.2268 15.5735 17.4173 15.6412 17.6679 15.6605C17.9186 15.6701 18.2293 15.6653 18.6003 15.646V17.3409C17.2669 17.4858 16.3245 17.3651 15.7731 16.9788C15.2317 16.5924 14.961 15.9019 14.961 14.9072V11.8939H13.6527V10.0975H14.961V8.63439L16.901 8.0694V10.0975H18.6003V11.8939Z" fill="white"/>
<defs>
<linearGradient id="paint0_linear_1607_33294" x1="16.2" y1="9.9" x2="5.6993e-07" y2="3.02703" gradientUnits="userSpaceOnUse">
<stop stop-color="#373636"/>
<stop offset="0.994792" stop-color="#3D3D3D" stop-opacity="0.37"/>
</linearGradient>
</defs>
</svg>
