<svg width="40" height="40" viewBox="0 0 40 40" fill="none" xmlns="http://www.w3.org/2000/svg">
<path fill-rule="evenodd" clip-rule="evenodd" d="M8 0C3.58172 0 0 3.58172 0 8V32C0 36.4183 3.58172 40 8 40H32C36.4183 40 40 36.4183 40 32V8C40 3.58172 36.4183 0 32 0H8ZM16.0667 23.1465L16.9067 25.6665H19.9067L14.9867 11.6665H11.5667L6.66675 25.6665H9.64675L10.4867 23.1465H16.0667ZM15.2067 20.5665H11.3667L13.2867 14.8465L15.2067 20.5665ZM32.306 15.6665H29.786V16.9065C29.026 15.8932 27.9594 15.3865 26.586 15.3865C25.186 15.3865 24.006 15.8865 23.046 16.8865C22.086 17.8865 21.606 19.0932 21.606 20.5065C21.606 21.9332 22.0794 23.1465 23.026 24.1465C23.986 25.1332 25.1727 25.6265 26.586 25.6265C27.9594 25.6265 29.026 25.1198 29.786 24.1065V25.1865C29.786 25.9732 29.5527 26.5798 29.086 27.0065C28.6194 27.4332 27.9794 27.6465 27.166 27.6465C25.926 27.6465 25.0527 27.1798 24.546 26.2465L22.346 27.5065C22.786 28.3065 23.4127 28.9132 24.226 29.3265C25.0527 29.7398 26.006 29.9465 27.086 29.9465C28.526 29.9465 29.7527 29.5398 30.766 28.7265C31.7927 27.9132 32.306 26.7332 32.306 25.1865V15.6665ZM26.986 23.2465C26.1727 23.2465 25.4994 22.9932 24.966 22.4865C24.446 21.9665 24.186 21.3065 24.186 20.5065C24.186 19.7198 24.446 19.0732 24.966 18.5665C25.4994 18.0465 26.1727 17.7865 26.986 17.7865C27.7994 17.7865 28.466 18.0465 28.986 18.5665C29.5194 19.0732 29.786 19.7198 29.786 20.5065C29.786 21.3065 29.5194 21.9665 28.986 22.4865C28.466 22.9932 27.7994 23.2465 26.986 23.2465Z" fill="url(#paint0_linear_1734_33071)"/>
<defs>
<linearGradient id="paint0_linear_1734_33071" x1="20" y1="0" x2="20" y2="40" gradientUnits="userSpaceOnUse">
<stop stop-color="#DFDFDF"/>
<stop offset="1" stop-color="#B7B5B5"/>
</linearGradient>
</defs>
</svg>
