<svg width="40" height="40" viewBox="0 0 40 40" fill="none" xmlns="http://www.w3.org/2000/svg">
<path fill-rule="evenodd" clip-rule="evenodd" d="M8 0C3.58172 0 0 3.58172 0 8V32C0 36.4183 3.58172 40 8 40H32C36.4183 40 40 36.4183 40 32V8C40 3.58172 36.4183 0 32 0H8ZM17.7333 24.8135L18.5733 27.3335H21.5733L16.6533 13.3335H13.2333L8.33325 27.3335H11.3133L12.1533 24.8135H17.7333ZM14.9533 16.5135L16.8733 22.2335H13.0333L14.9533 16.5135ZM33.1483 17.3335H30.5683V22.7335C30.5683 23.5602 30.3683 24.1802 29.9683 24.5935C29.5683 25.0068 29.035 25.2135 28.3683 25.2135C27.7683 25.2135 27.2883 25.0402 26.9283 24.6935C26.5683 24.3335 26.3883 23.8202 26.3883 23.1535V17.3335H23.8083V23.4735C23.8083 24.7668 24.1616 25.7802 24.8683 26.5135C25.5883 27.2468 26.495 27.6135 27.5883 27.6135C28.9483 27.6135 29.9416 27.1468 30.5683 26.2135V27.3335H33.1483V17.3335Z" fill="url(#paint0_linear_1734_33066)"/>
<defs>
<linearGradient id="paint0_linear_1734_33066" x1="20" y1="0" x2="20" y2="40" gradientUnits="userSpaceOnUse">
<stop stop-color="#EBB711"/>
<stop offset="1" stop-color="#D49E00"/>
</linearGradient>
</defs>
</svg>
