<svg width="40" height="40" viewBox="0 0 40 40" fill="none" xmlns="http://www.w3.org/2000/svg">
<path d="M15.0314 15.3176C15.1433 14.8078 15.5948 14.4446 16.1167 14.4446H24.2671C24.789 14.4446 25.2406 14.8078 25.3524 15.3176L27.0734 23.1641C27.2254 23.8572 26.6977 24.5132 25.9881 24.5132H14.3957C13.6862 24.5132 13.1584 23.8572 13.3104 23.1641L15.0314 15.3176Z" fill="url(#paint0_linear_1734_33075)"/>
<path d="M7.30195 26.9116C7.41376 26.4018 7.86534 26.0386 8.38726 26.0386H16.5376C17.0595 26.0386 17.5111 26.4018 17.6229 26.9116L19.3439 34.7581C19.4959 35.4512 18.9682 36.1072 18.2586 36.1072H6.66624C5.95666 36.1072 5.42891 35.4512 5.58093 34.7581L7.30195 26.9116Z" fill="url(#paint1_linear_1734_33075)"/>
<path d="M22.7609 26.9116C22.8727 26.4018 23.3243 26.0386 23.8462 26.0386H31.9966C32.5185 26.0386 32.9701 26.4018 33.0819 26.9116L34.8029 34.7581C34.9549 35.4512 34.4272 36.1072 33.7176 36.1072H22.1252C21.4156 36.1072 20.8879 35.4512 21.0399 34.7581L22.7609 26.9116Z" fill="url(#paint2_linear_1734_33075)"/>
<rect width="40" height="40" rx="8" fill="url(#paint3_linear_1734_33075)"/>
<path d="M13.9392 12.0002C15.4714 12.0002 16.7608 12.5082 17.8076 13.5241C18.8543 14.5399 19.3777 15.7874 19.3777 17.2663C19.3777 18.7453 18.8543 19.9928 17.8076 21.0086C16.7608 22.0245 15.4714 22.5325 13.9392 22.5325H11.1402V27.6865H8V12.0002H13.9392ZM13.9392 19.6417C14.6066 19.6417 15.1604 19.4176 15.6003 18.9694C16.0402 18.5063 16.2602 17.9386 16.2602 17.2663C16.2602 16.5791 16.0402 16.0114 15.6003 15.5633C15.1604 15.1151 14.6066 14.891 13.9392 14.891H11.1402V19.6417H13.9392Z" fill="white"/>
<path d="M30.0646 12.0002H33V27.6865H30.0646V26.3644C29.1999 27.455 27.9711 28.0002 26.3782 28.0002C24.846 28.0002 23.5338 27.4326 22.4415 26.2972C21.3644 25.1468 20.8259 23.7425 20.8259 22.0843C20.8259 20.426 21.3644 19.0292 22.4415 17.8938C23.5338 16.7435 24.846 16.1683 26.3782 16.1683C27.9711 16.1683 29.1999 16.7136 30.0646 17.8042V12.0002ZM24.6488 24.37C25.2556 24.9526 26.0141 25.2439 26.9243 25.2439C27.8345 25.2439 28.5855 24.9526 29.1771 24.37C29.7687 23.7724 30.0646 23.0105 30.0646 22.0843C30.0646 21.158 29.7687 20.4036 29.1771 19.821C28.5855 19.2234 27.8345 18.9246 26.9243 18.9246C26.0141 18.9246 25.2556 19.2234 24.6488 19.821C24.0571 20.4036 23.7613 21.158 23.7613 22.0843C23.7613 23.0105 24.0571 23.7724 24.6488 24.37Z" fill="white"/>
<defs>
<linearGradient id="paint0_linear_1734_33075" x1="20.1919" y1="14.4446" x2="20.1919" y2="24.5132" gradientUnits="userSpaceOnUse">
<stop stop-color="#C4C4C4"/>
<stop offset="1" stop-color="#4B4D53"/>
</linearGradient>
<linearGradient id="paint1_linear_1734_33075" x1="12.4624" y1="26.0386" x2="12.4624" y2="36.1072" gradientUnits="userSpaceOnUse">
<stop stop-color="#C4C4C4"/>
<stop offset="1" stop-color="#4B4D53"/>
</linearGradient>
<linearGradient id="paint2_linear_1734_33075" x1="27.9214" y1="26.0386" x2="27.9214" y2="36.1072" gradientUnits="userSpaceOnUse">
<stop stop-color="#C4C4C4"/>
<stop offset="1" stop-color="#4B4D53"/>
</linearGradient>
<linearGradient id="paint3_linear_1734_33075" x1="32.7928" y1="6.12613" x2="46" y2="25.5" gradientUnits="userSpaceOnUse">
<stop stop-color="#BAB5B5"/>
<stop offset="0.994792" stop-color="#5A5757"/>
</linearGradient>
</defs>
</svg>
