<svg width="40" height="40" viewBox="0 0 40 40" fill="none" xmlns="http://www.w3.org/2000/svg">
<rect width="40" height="40" rx="8" fill="url(#paint0_linear_1734_33084)"/>
<path d="M14.5417 12.0002C16.2293 12.0002 17.6496 12.5475 18.8025 13.6421C19.9555 14.7366 20.5319 16.0807 20.5319 17.6742C20.5319 19.2678 19.9555 20.6118 18.8025 21.7064C17.6496 22.8009 16.2293 23.3482 14.5417 23.3482H11.4588V28.9015H8V12.0002H14.5417ZM14.5417 20.2336C15.2769 20.2336 15.8868 19.9921 16.3713 19.5092C16.8559 19.0102 17.0982 18.3986 17.0982 17.6742C17.0982 16.9338 16.8559 16.3221 16.3713 15.8392C15.8868 15.3563 15.2769 15.1149 14.5417 15.1149H11.4588V20.2336H14.5417Z" fill="white"/>
<path d="M31 19.8231H28.1678V24.8452C28.1678 25.2637 28.2764 25.5695 28.4936 25.7627C28.7108 25.9558 29.0283 26.0685 29.446 26.1007C29.8638 26.1168 30.3818 26.1087 31 26.0766V28.9015C28.7777 29.1429 27.207 28.9417 26.288 28.2979C25.3857 27.654 24.9345 26.5031 24.9345 24.8452V19.8231H22.754V16.8292H24.9345V14.3906L28.1678 13.4489V16.8292H31V19.8231Z" fill="white"/>
<defs>
<linearGradient id="paint0_linear_1734_33084" x1="27" y1="16.5" x2="9.49884e-07" y2="5.04504" gradientUnits="userSpaceOnUse">
<stop stop-color="#373636"/>
<stop offset="0.994792" stop-color="#3D3D3D" stop-opacity="0.37"/>
</linearGradient>
</defs>
</svg>
