<svg width="190" height="190" viewBox="0 0 190 190" fill="none" xmlns="http://www.w3.org/2000/svg">
<g id="3325034_shield_icon 2" filter="url(#filter0_i_2_994)">
<path id="Vector" d="M95 174.167C95 174.167 158.333 142.5 158.333 95V39.5833L95 15.8333L31.6667 39.5833V95C31.6667 142.5 95 174.167 95 174.167Z" fill="#F1BE4B" stroke="#FFD472" stroke-width="10" stroke-linecap="round" stroke-linejoin="round"/>
<g id="Vector_2" filter="url(#filter1_i_2_994)">
<path d="M108.375 76H106.062V71.4286C106.062 65.12 100.882 60 94.5 60C88.1175 60 82.9375 65.12 82.9375 71.4286V76H80.625C78.0697 76 76 78.0457 76 80.5714V103.429C76 105.954 78.0697 108 80.625 108H108.375C110.93 108 113 105.954 113 103.429V80.5714C113 78.0457 110.93 76 108.375 76ZM94.5 96.5714C91.9447 96.5714 89.875 94.5257 89.875 92C89.875 89.4743 91.9447 87.4286 94.5 87.4286C97.0553 87.4286 99.125 89.4743 99.125 92C99.125 94.5257 97.0553 96.5714 94.5 96.5714ZM101.669 76H87.3312V71.4286C87.3312 67.52 90.5456 64.3429 94.5 64.3429C98.4544 64.3429 101.669 67.52 101.669 71.4286V76Z" fill="white"/>
</g>
</g>
<defs>
<filter id="filter0_i_2_994" x="0" y="0" width="190" height="190" filterUnits="userSpaceOnUse" color-interpolation-filters="sRGB">
<feFlood flood-opacity="0" result="BackgroundImageFix"/>
<feBlend mode="normal" in="SourceGraphic" in2="BackgroundImageFix" result="shape"/>
<feColorMatrix in="SourceAlpha" type="matrix" values="0 0 0 0 0 0 0 0 0 0 0 0 0 0 0 0 0 0 127 0" result="hardAlpha"/>
<feOffset/>
<feGaussianBlur stdDeviation="5"/>
<feComposite in2="hardAlpha" operator="arithmetic" k2="-1" k3="1"/>
<feColorMatrix type="matrix" values="0 0 0 0 0 0 0 0 0 0 0 0 0 0 0 0 0 0 0.1 0"/>
<feBlend mode="normal" in2="shape" result="effect1_innerShadow_2_994"/>
</filter>
<filter id="filter1_i_2_994" x="76" y="60" width="37" height="48" filterUnits="userSpaceOnUse" color-interpolation-filters="sRGB">
<feFlood flood-opacity="0" result="BackgroundImageFix"/>
<feBlend mode="normal" in="SourceGraphic" in2="BackgroundImageFix" result="shape"/>
<feColorMatrix in="SourceAlpha" type="matrix" values="0 0 0 0 0 0 0 0 0 0 0 0 0 0 0 0 0 0 127 0" result="hardAlpha"/>
<feOffset/>
<feGaussianBlur stdDeviation="5"/>
<feComposite in2="hardAlpha" operator="arithmetic" k2="-1" k3="1"/>
<feColorMatrix type="matrix" values="0 0 0 0 1 0 0 0 0 0.940426 0 0 0 0 0.733333 0 0 0 1 0"/>
<feBlend mode="normal" in2="shape" result="effect1_innerShadow_2_994"/>
</filter>
</defs>
</svg>
