<svg width="202" height="159" viewBox="0 0 202 159" fill="none" xmlns="http://www.w3.org/2000/svg">
<g id="Group 21220">
<g id="Group 21219">
<g id="Rectangle 3307">
<mask id="path-1-inside-1_2_983" fill="white">
<rect x="19.2921" y="26.1011" width="163.416" height="118.022" rx="5"/>
</mask>
<g filter="url(#filter0_i_2_983)">
<rect x="19.2921" y="26.1011" width="163.416" height="118.022" rx="5" fill="#F1BE4B"/>
</g>
<rect x="19.2921" y="26.1011" width="163.416" height="118.022" rx="5" stroke="#FFD472" stroke-width="20" mask="url(#path-1-inside-1_2_983)"/>
</g>
<g id="Polygon 2" filter="url(#filter1_d_2_983)">
<path d="M104.335 101.419C102.436 103.119 99.5635 103.119 97.665 101.419L23.278 34.8265C19.859 31.7657 22.0241 26.1012 26.613 26.1012L175.387 26.1012C179.976 26.1012 182.141 31.7657 178.722 34.8265L104.335 101.419Z" fill="#F1BE4B"/>
<path d="M101 97.6937L26.613 31.1012L175.387 31.1012L101 97.6937Z" stroke="#FFD472" stroke-width="10"/>
</g>
</g>
<g id="Group 21218">
<g id="Ellipse 399" filter="url(#filter2_i_2_983)">
<circle cx="97.5955" cy="127.101" r="31.7753" fill="#1CD17C"/>
</g>
<g id="check_24px">
<path id="icon/navigation/check_24px" d="M95.6148 130.535L86.0983 120.855C85.5859 120.332 84.8902 120.039 84.1648 120.039C83.4393 120.039 82.7437 120.332 82.2313 120.855C81.1617 121.943 81.1617 123.7 82.2313 124.788L93.695 136.45C94.7646 137.538 96.4924 137.538 97.5619 136.45L126.578 106.933C127.647 105.845 127.647 104.088 126.578 103C126.065 102.477 125.37 102.184 124.644 102.184C123.919 102.184 123.223 102.477 122.711 103L95.6148 130.535Z" fill="white"/>
</g>
</g>
</g>
<defs>
<filter id="filter0_i_2_983" x="19.2921" y="26.1011" width="163.416" height="118.022" filterUnits="userSpaceOnUse" color-interpolation-filters="sRGB">
<feFlood flood-opacity="0" result="BackgroundImageFix"/>
<feBlend mode="normal" in="SourceGraphic" in2="BackgroundImageFix" result="shape"/>
<feColorMatrix in="SourceAlpha" type="matrix" values="0 0 0 0 0 0 0 0 0 0 0 0 0 0 0 0 0 0 127 0" result="hardAlpha"/>
<feOffset/>
<feGaussianBlur stdDeviation="5"/>
<feComposite in2="hardAlpha" operator="arithmetic" k2="-1" k3="1"/>
<feColorMatrix type="matrix" values="0 0 0 0 0 0 0 0 0 0 0 0 0 0 0 0 0 0 0.1 0"/>
<feBlend mode="normal" in2="shape" result="effect1_innerShadow_2_983"/>
</filter>
<filter id="filter1_d_2_983" x="11.6029" y="20.1011" width="178.794" height="96.5926" filterUnits="userSpaceOnUse" color-interpolation-filters="sRGB">
<feFlood flood-opacity="0" result="BackgroundImageFix"/>
<feColorMatrix in="SourceAlpha" type="matrix" values="0 0 0 0 0 0 0 0 0 0 0 0 0 0 0 0 0 0 127 0" result="hardAlpha"/>
<feOffset dy="4"/>
<feGaussianBlur stdDeviation="5"/>
<feComposite in2="hardAlpha" operator="out"/>
<feColorMatrix type="matrix" values="0 0 0 0 0 0 0 0 0 0 0 0 0 0 0 0 0 0 0.05 0"/>
<feBlend mode="normal" in2="BackgroundImageFix" result="effect1_dropShadow_2_983"/>
<feBlend mode="normal" in="SourceGraphic" in2="effect1_dropShadow_2_983" result="shape"/>
</filter>
<filter id="filter2_i_2_983" x="65.8203" y="95.3259" width="63.5505" height="63.5505" filterUnits="userSpaceOnUse" color-interpolation-filters="sRGB">
<feFlood flood-opacity="0" result="BackgroundImageFix"/>
<feBlend mode="normal" in="SourceGraphic" in2="BackgroundImageFix" result="shape"/>
<feColorMatrix in="SourceAlpha" type="matrix" values="0 0 0 0 0 0 0 0 0 0 0 0 0 0 0 0 0 0 127 0" result="hardAlpha"/>
<feOffset/>
<feGaussianBlur stdDeviation="5"/>
<feComposite in2="hardAlpha" operator="arithmetic" k2="-1" k3="1"/>
<feColorMatrix type="matrix" values="0 0 0 0 0 0 0 0 0 0 0 0 0 0 0 0 0 0 0.1 0"/>
<feBlend mode="normal" in2="shape" result="effect1_innerShadow_2_983"/>
</filter>
</defs>
</svg>
