<svg width="46" height="46" viewBox="0 0 46 46" fill="none" xmlns="http://www.w3.org/2000/svg">
<path d="M23 46C35.7025 46 46 35.7025 46 23C46 10.2975 35.7025 0 23 0C10.2975 0 0 10.2975 0 23C0 35.7025 10.2975 46 23 46Z" fill="#E11F26"/>
<path d="M3.57812 25.0171H5.04913L5.43013 24.2451H8.09613L8.50613 25.0171H9.97213L7.61412 20.7261H5.89613L3.57812 25.0171ZM6.75212 21.7321L7.60812 23.3421H5.92513L6.75212 21.7321Z" fill="white"/>
<path d="M10.584 20.7261H11.899V22.3011H12.516L14.173 20.7261H15.962L13.634 22.8391L16.234 25.0171H14.377L12.477 23.3751H11.897V25.0171H10.584V20.7261Z" fill="white"/>
<path d="M18.19 21.7651H20.521C20.765 21.7651 20.904 21.8321 20.904 22.1011C20.904 22.3351 20.767 22.4371 20.521 22.4371H18.19V21.7661V21.7651ZM16.875 25.0181H21.065C21.816 25.0181 22.373 24.8181 22.373 23.8771C22.373 23.2411 22.159 22.9381 21.586 22.8381C21.952 22.7381 22.217 22.6041 22.217 21.8661C22.217 20.9941 21.711 20.7251 20.658 20.7251H16.875V25.0181ZM18.19 23.3101H20.547C20.832 23.3101 21.023 23.3771 21.023 23.6791C21.023 23.9131 20.831 23.9791 20.547 23.9791H18.19V23.3101Z" fill="white"/>
<path d="M22.897 25.0171H24.366L24.747 24.2451H27.417L27.823 25.0171H29.285L26.927 20.7261H25.217L22.897 25.0171ZM26.07 21.7321L26.924 23.3421H25.242L26.07 21.7321Z" fill="white"/>
<path d="M29.9023 20.7261H31.9413L34.4093 23.8441H34.4214V20.7261H35.7363V25.0171H33.6974L31.2294 21.8991H31.2204V25.0171H29.9023V20.7261Z" fill="white"/>
<path d="M36.7739 20.7261H38.0889V22.3011H38.7019L40.3609 20.7261H42.1489L39.8289 22.8391L42.4219 25.0171H40.5639L38.6639 23.3751H38.0869V25.0171H36.7739V20.7261Z" fill="white"/>
</svg>
