<svg width="46" height="47" viewBox="0 0 46 47" fill="none" xmlns="http://www.w3.org/2000/svg">
<path d="M23 46.9971C35.7025 46.9971 46 36.6996 46 23.9971C46 11.2945 35.7025 0.99707 23 0.99707C10.2975 0.99707 0 11.2945 0 23.9971C0 36.6996 10.2975 46.9971 23 46.9971Z" fill="#F4F5F9"/>
<path d="M32.5488 18.3651C32.5502 17.964 32.6428 17.5685 32.8198 17.2086C32.9968 16.8487 33.2534 16.5338 33.5703 16.2878C33.8871 16.0418 34.2557 15.8713 34.6483 15.789C35.0409 15.7068 35.447 15.715 35.8359 15.8132C36.2248 15.9113 36.5863 16.0967 36.8928 16.3554C37.1994 16.614 37.443 16.9391 37.6052 17.3059C37.7674 17.6727 37.8439 18.0717 37.829 18.4725C37.814 18.8733 37.7079 19.2654 37.5188 19.6191C37.4808 19.6881 35.1948 23.4941 35.1948 23.4941L34.6208 22.5391L36.0568 18.7391C36.1117 18.6112 36.1374 18.4727 36.1321 18.3336C36.1268 18.1945 36.0907 18.0584 36.0262 17.935C35.9618 17.8116 35.8707 17.7041 35.7596 17.6203C35.6484 17.5365 35.52 17.4785 35.3837 17.4505C35.2474 17.4225 35.1065 17.4251 34.9713 17.4583C34.8361 17.4915 34.71 17.5543 34.6021 17.6423C34.4943 17.7302 34.4073 17.8411 34.3476 17.9668C34.2878 18.0925 34.2569 18.2299 34.2568 18.3691V21.9341C33.6208 20.8751 32.8908 19.6591 32.8698 19.6211C32.6595 19.2359 32.5491 18.8041 32.5488 18.3651Z" fill="#EA8741"/>
<path d="M41.2761 24.1461C41.2759 24.5479 41.1841 24.9443 41.0076 25.3052C40.831 25.6661 40.5745 25.982 40.2575 26.2288C39.9404 26.4756 39.5713 26.6468 39.1781 26.7294C38.7849 26.812 38.3781 26.8038 37.9885 26.7054C37.599 26.607 37.2371 26.4211 36.9302 26.1617C36.6234 25.9024 36.3798 25.5764 36.2179 25.2087C36.0561 24.841 35.9803 24.4412 35.9962 24.0398C36.0122 23.6383 36.1196 23.2458 36.3101 22.8921C36.3481 22.8231 38.6341 19.0171 38.6341 19.0171L39.2081 19.9721L37.7721 23.7721C37.7173 23.9 37.6915 24.0385 37.6968 24.1776C37.7021 24.3167 37.7383 24.4529 37.8027 24.5763C37.8672 24.6996 37.9583 24.8071 38.0694 24.8909C38.1805 24.9747 38.309 25.0327 38.4453 25.0608C38.5816 25.0888 38.7225 25.0861 38.8577 25.0529C38.9929 25.0198 39.119 24.9569 39.2269 24.869C39.3347 24.781 39.4217 24.6702 39.4814 24.5445C39.5411 24.4187 39.5721 24.2813 39.5722 24.1421V20.5751C40.2082 21.6341 40.9382 22.8501 40.9592 22.8881C41.1685 23.2743 41.2775 23.7068 41.2761 24.1461Z" fill="#ED1C24"/>
<path fill-rule="evenodd" clip-rule="evenodd" d="M28.2771 22.5352H29.5011L28.0341 24.0852L29.6341 26.7262H28.4811L27.3491 24.8142L26.6861 25.5142V26.7222H25.7181V21.0122H26.6861V24.2552L28.2771 22.5352ZM32.0441 25.7352C31.5441 26.2232 30.6731 26.0152 30.6371 25.5182C30.6011 25.0212 30.9941 24.8652 31.3871 24.8652H32.0451L32.0441 25.7352ZM30.4181 22.6222C30.8679 22.5499 31.3248 22.5311 31.7791 22.5662C32.4721 22.6372 33.0991 22.9332 33.0991 24.1662V26.3022C33.1011 26.447 33.1289 26.5902 33.1811 26.7252H32.2991L32.1331 26.3892C31.2221 27.2112 29.5921 26.8792 29.5921 25.5382C29.5921 24.1772 31.1471 24.1462 31.5921 24.1462H32.0411V24.0142C32.0411 23.6142 31.7661 23.3462 31.1751 23.3362C30.9186 23.3291 30.6625 23.3597 30.4151 23.4272L30.4181 22.6222ZM11.5101 21.0512V26.7612H13.4101C15.6181 26.7612 16.0151 24.1402 14.2671 23.6612C14.4935 23.5532 14.6817 23.3788 14.8067 23.1612C14.9318 22.9437 14.9877 22.6933 14.9671 22.4432C14.9566 22.2405 14.9046 22.042 14.8141 21.8603C14.7237 21.6785 14.5968 21.5174 14.4413 21.3868C14.2859 21.2562 14.1052 21.159 13.9106 21.1013C13.716 21.0436 13.5116 21.0265 13.3101 21.0512H11.5101ZM12.5651 21.9332H13.1921C13.2912 21.9308 13.3899 21.9484 13.482 21.9853C13.5741 22.0221 13.6577 22.0773 13.7279 22.1474C13.798 22.2175 13.8532 22.3012 13.89 22.3933C13.9268 22.4854 13.9445 22.5841 13.9421 22.6832C13.9421 22.7817 13.9226 22.8792 13.8849 22.9701C13.8472 23.061 13.792 23.1436 13.7223 23.2132C13.6527 23.2828 13.57 23.3379 13.479 23.3755C13.388 23.4131 13.2905 23.4324 13.1921 23.4322H12.5651V21.9332ZM12.5651 24.2992H13.4161C13.5271 24.2912 13.6386 24.3058 13.7438 24.3421C13.849 24.3784 13.9458 24.4357 14.0282 24.5105C14.1107 24.5853 14.1771 24.676 14.2235 24.7772C14.2699 24.8784 14.2952 24.9879 14.2981 25.0992C14.2765 25.3273 14.1655 25.5376 13.9894 25.6841C13.8132 25.8307 13.5863 25.9015 13.3581 25.8812H12.5651V24.2992ZM24.0401 25.7342C23.5401 26.2222 22.6691 26.0142 22.6331 25.5172C22.5971 25.0202 22.9901 24.8642 23.3831 24.8642H24.0411L24.0401 25.7342ZM22.4141 22.6212C22.8639 22.5488 23.3208 22.5301 23.7751 22.5652C24.4691 22.6362 25.0951 22.9322 25.0951 24.1652V26.3012C25.0971 26.446 25.1249 26.5892 25.1771 26.7242H24.2951L24.1291 26.3882C23.2181 27.2102 21.5881 26.8782 21.5881 25.5372C21.5881 24.1762 23.1431 24.1452 23.5881 24.1452H24.0371V24.0132C24.0371 23.6132 23.7621 23.3452 23.1711 23.3352C22.9146 23.3281 22.6586 23.3587 22.4111 23.4262L22.4141 22.6212ZM19.7071 26.7212V23.9382C19.7071 22.9952 20.4461 22.3382 21.8481 22.6222V23.4222C21.0731 23.1672 20.7621 23.5752 20.7621 24.0542V26.7192H19.7071V26.7212ZM18.1071 25.7302C17.6071 26.2182 16.7361 26.0102 16.7001 25.5132C16.6641 25.0162 17.0571 24.8602 17.4501 24.8602H18.1081L18.1071 25.7302ZM16.4811 22.6172C16.9309 22.5449 17.3878 22.5261 17.8421 22.5612C18.5361 22.6322 19.1621 22.9282 19.1621 24.1612V26.2972C19.1641 26.442 19.1919 26.5852 19.2441 26.7202H18.3621L18.1961 26.3842C17.2851 27.2062 15.6551 26.8742 15.6551 25.5332C15.6551 24.1722 17.2101 24.1412 17.6551 24.1412H18.1041V24.0092C18.1041 23.6092 17.8291 23.3412 17.2381 23.3312C16.9816 23.3241 16.7256 23.3547 16.4781 23.4222L16.4811 22.6172ZM8.72705 21.0372V25.3372C8.72705 26.2802 9.37506 26.8102 10.5621 26.7442V25.9662C10.4596 25.9816 10.3551 25.9734 10.2563 25.9423C10.1575 25.9112 10.0671 25.8581 9.99194 25.7868C9.91676 25.7156 9.85879 25.6282 9.82243 25.5312C9.78606 25.4343 9.77225 25.3303 9.78205 25.2272V21.0462L8.72705 21.0372ZM7.17805 25.7302C6.67805 26.2182 5.80706 26.0102 5.77106 25.5132C5.73506 25.0162 6.12806 24.8602 6.52106 24.8602H7.17905L7.17805 25.7302ZM5.55206 22.6172C6.00192 22.5449 6.45877 22.5261 6.91306 22.5612C7.60706 22.6322 8.23306 22.9282 8.23306 24.1612V26.2972C8.2351 26.442 8.26286 26.5852 8.31506 26.7202H7.43405L7.26805 26.3842C6.35705 27.2062 4.72705 26.8742 4.72705 25.5332C4.72705 24.1722 6.28205 24.1412 6.72705 24.1412H7.17606V24.0092C7.17606 23.6092 6.90105 23.3412 6.31005 23.3312C6.05362 23.3241 5.79755 23.3547 5.55006 23.4222L5.55206 22.6172Z" fill="#939598"/>
</svg>
