<svg width="46" height="47" viewBox="0 0 46 47" fill="none" xmlns="http://www.w3.org/2000/svg">
<path d="M23 46.9971C35.7025 46.9971 46 36.6996 46 23.9971C46 11.2945 35.7025 0.99707 23 0.99707C10.2975 0.99707 0 11.2945 0 23.9971C0 36.6996 10.2975 46.9971 23 46.9971Z" fill="#F4F5F9"/>
<path d="M23.2622 40.1621C22.8815 40.1222 22.5316 39.9345 22.2876 39.6395C22.0436 39.3445 21.925 38.9656 21.9572 38.5841V36.0071C19.7283 35.7572 17.6146 34.8857 15.8572 33.4921L13.9912 35.3521C13.6795 35.6761 13.2526 35.8641 12.8032 35.8751C12.6467 35.8782 12.4912 35.8502 12.3456 35.7927C12.2 35.7352 12.0673 35.6494 11.9552 35.5401C11.831 35.4114 11.7372 35.2564 11.6806 35.0867C11.624 34.9169 11.6061 34.7367 11.6282 34.5591C11.6722 34.1566 11.8554 33.782 12.1462 33.5001L13.9912 31.6521C12.5307 29.8637 11.6184 27.6912 11.3642 25.3961H8.56421C8.18204 25.4274 7.80292 25.3071 7.50864 25.0613C7.21436 24.8154 7.02852 24.4638 6.99121 24.0821C7.02999 23.7016 7.21646 23.3514 7.51057 23.1069C7.80468 22.8623 8.18298 22.7429 8.56421 22.7741H11.3572C11.5942 20.5101 12.4695 18.36 13.8812 16.5741L11.9812 14.6741C11.6911 14.4263 11.509 14.0751 11.4735 13.6952C11.438 13.3152 11.552 12.9364 11.7912 12.6391C11.9035 12.5303 12.0363 12.4447 12.1818 12.3874C12.3274 12.33 12.4828 12.3021 12.6392 12.3051C13.0889 12.3158 13.5163 12.503 13.8292 12.8261L15.7122 14.7131C17.4982 13.2478 19.6718 12.3333 21.9682 12.0811L21.9582 9.52815C21.9261 9.14674 22.0449 8.76795 22.2891 8.47323C22.5333 8.17851 22.8835 7.9914 23.2642 7.95215C23.6453 7.99117 23.9959 8.1781 24.2406 8.47278C24.4854 8.76746 24.6048 9.14638 24.5732 9.52815V12.0731C26.8949 12.3177 29.094 13.2377 30.8982 14.7191L32.6482 12.9521C32.9607 12.6273 33.3886 12.4386 33.8392 12.4271C33.995 12.4242 34.1498 12.4522 34.2947 12.5095C34.4396 12.5669 34.5716 12.6524 34.6832 12.7611C34.9251 13.0582 35.041 13.4383 35.006 13.8198C34.9711 14.2013 34.7881 14.554 34.4962 14.8021L32.7252 16.5791C34.1362 18.363 35.0112 20.5111 35.2482 22.7731H37.5592C37.9409 22.7416 38.3197 22.861 38.6142 23.1058C38.9087 23.3506 39.0954 23.7012 39.1342 24.0821C39.0957 24.4633 38.9091 24.8141 38.6145 25.0591C38.32 25.3041 37.941 25.4237 37.5592 25.3921H35.2402C34.9862 27.6857 34.0758 29.8572 32.6182 31.6461L34.3352 33.3761C34.6266 33.6245 34.8092 33.9769 34.8442 34.3581C34.8791 34.7393 34.7636 35.119 34.5222 35.4161C34.4106 35.5249 34.2785 35.6104 34.1337 35.6677C33.9888 35.725 33.834 35.7531 33.6782 35.7501C33.2278 35.7388 32.7999 35.5506 32.4872 35.2261L30.7532 33.4901C28.9761 34.9011 26.8339 35.7767 24.5772 36.0141V38.5851C24.6087 38.968 24.4885 39.3478 24.2425 39.6428C23.9965 39.9378 23.6445 40.1243 23.2622 40.1621ZM23.3042 16.1861C21.4877 16.185 19.7269 16.8138 18.322 17.9654C16.9172 19.117 15.9551 20.7202 15.5998 22.5016C15.2446 24.2831 15.518 26.1327 16.3737 27.7351C17.2293 29.3375 18.6141 30.5937 20.2921 31.2894C21.9702 31.9852 23.8375 32.0776 25.576 31.5508C27.3145 31.024 28.8165 29.9106 29.8261 28.4004C30.8357 26.8902 31.2903 25.0767 31.1125 23.2688C30.9348 21.461 30.1356 19.7708 28.8512 18.4861C28.125 17.7545 27.2607 17.1744 26.3085 16.7796C25.3563 16.3847 24.3351 16.183 23.3042 16.1861Z" fill="#D53647"/>
<path d="M19.3594 24.0464C19.3614 23.2666 19.5944 22.505 20.029 21.8576C20.4636 21.2102 21.0802 20.7061 21.8011 20.409C22.5221 20.1119 23.3149 20.035 24.0794 20.1882C24.8439 20.3414 25.5459 20.7177 26.0967 21.2696C26.6475 21.8215 27.0224 22.5243 27.1741 23.2892C27.3257 24.054 27.2473 24.8466 26.9487 25.5669C26.6502 26.2872 26.1448 26.9029 25.4965 27.3362C24.8483 27.7695 24.0861 28.0009 23.3064 28.0013C22.7875 28.0008 22.2739 27.8981 21.7947 27.6991C21.3156 27.5 20.8803 27.2085 20.5138 26.8413C20.1473 26.474 19.8567 26.0382 19.6586 25.5586C19.4606 25.0791 19.3589 24.5652 19.3594 24.0464Z" fill="#D53647"/>
<path d="M15.2271 16.1894C15.0042 16.4127 14.8789 16.7153 14.8789 17.0309C14.8789 17.3464 15.0042 17.6491 15.2271 17.8724L29.3831 32.0294C29.6062 32.2526 29.909 32.3779 30.2246 32.3779C30.5402 32.3779 30.8429 32.2526 31.0661 32.0294C31.2893 31.8062 31.4147 31.5035 31.4147 31.1879C31.4147 30.8722 31.2893 30.5696 31.0661 30.3464L16.9141 16.1894C16.8036 16.0782 16.6722 15.9899 16.5274 15.9296C16.3826 15.8694 16.2274 15.8384 16.0706 15.8384C15.9138 15.8384 15.7585 15.8694 15.6138 15.9296C15.469 15.9899 15.3376 16.0782 15.2271 16.1894Z" fill="#D53647"/>
<path d="M29.3831 16.1899L15.2221 30.3429C14.9989 30.5661 14.8735 30.8688 14.8735 31.1844C14.8735 31.5001 14.9989 31.8028 15.2221 32.0259C15.4453 32.2491 15.748 32.3745 16.0636 32.3745C16.3792 32.3745 16.6819 32.2491 16.9051 32.0259L31.0621 17.8699C31.2853 17.6468 31.4106 17.3441 31.4106 17.0284C31.4106 16.7128 31.2853 16.4101 31.0621 16.1869C30.8389 15.9637 30.5362 15.8384 30.2206 15.8384C29.905 15.8384 29.6023 15.9637 29.3791 16.1869L29.3831 16.1899Z" fill="#D53647"/>
<path d="M13.1353 22.9199C12.8197 22.9199 12.5171 23.0453 12.2939 23.2685C12.0707 23.4917 11.9453 23.7943 11.9453 24.1099C11.9453 24.4255 12.0707 24.7282 12.2939 24.9514C12.5171 25.1746 12.8197 25.2999 13.1353 25.2999H33.1563C33.4719 25.2999 33.7746 25.1746 33.9977 24.9514C34.2209 24.7282 34.3463 24.4255 34.3463 24.1099C34.3463 23.7943 34.2209 23.4917 33.9977 23.2685C33.7746 23.0453 33.4719 22.9199 33.1563 22.9199H13.1353Z" fill="#D53647"/>
</svg>
