<svg width="46" height="47" viewBox="0 0 46 47" fill="none" xmlns="http://www.w3.org/2000/svg">
<path d="M23 46.9971C35.7025 46.9971 46 36.6996 46 23.9971C46 11.2945 35.7025 0.99707 23 0.99707C10.2975 0.99707 0 11.2945 0 23.9971C0 36.6996 10.2975 46.9971 23 46.9971Z" fill="#F4F5F9"/>
<path d="M24.8808 15.5941C26.0148 14.6941 27.0338 13.1101 28.2628 12.0941C29.3021 12.673 30.2717 13.3689 31.1528 14.1681C29.4058 16.2231 27.5198 18.0631 25.5578 20.1311C24.7848 20.9471 23.9898 22.5671 22.3578 22.0111C21.7358 21.7981 20.9238 20.6941 20.3908 20.1311C18.5288 18.1651 16.5208 16.0581 14.8608 14.1691C15.734 13.36 16.7048 12.6633 17.7508 12.0951C18.9708 13.2271 19.9808 14.5831 21.2548 15.6591C21.3668 14.7121 21.1048 13.9591 21.2548 13.1321C21.3577 12.7139 21.6032 12.3448 21.9491 12.0883C22.295 11.8319 22.7196 11.7042 23.1496 11.7273C23.5796 11.7504 23.988 11.9229 24.3044 12.2149C24.6209 12.507 24.8254 12.9003 24.8828 13.3271C24.9928 14.0311 24.8058 14.5741 24.8808 15.5941Z" fill="#C60352"/>
<path d="M12.1559 29.1413C13.1879 27.8303 14.5089 26.8253 15.5989 25.5773H11.1119C10.8952 24.3133 10.8743 23.0236 11.0499 21.7533H15.5389C14.6329 20.5533 13.2179 19.3173 12.1569 18.0593C12.6412 16.923 13.3054 15.8722 14.1239 14.9473C15.8039 16.6953 17.8239 18.7863 19.7799 20.8473C20.6369 21.7473 21.9079 22.5473 21.5009 24.1533C21.3139 24.8923 20.3469 25.6943 19.7799 26.2923L15.1079 31.2163C14.9389 31.3953 14.2419 32.1873 14.1849 32.1883C13.9039 32.1963 13.2659 31.0533 13.0779 30.7623C12.7395 30.2402 12.4316 29.699 12.1559 29.1413Z" fill="#080A1E"/>
<path d="M33.8598 17.9929C32.8088 19.3489 31.5188 20.4499 30.4168 21.7519H34.9048C35.1197 23.0175 35.1197 24.3102 34.9048 25.5758H30.4788C31.3158 26.7468 32.9918 27.9389 33.7988 29.1399C33.3112 30.2405 32.6694 31.2661 31.8928 32.1858C30.1398 30.4328 28.2248 28.3198 26.3598 26.3528C25.5598 25.5128 23.9138 24.5158 24.5158 22.8528C24.9835 22.0992 25.5639 21.4216 26.2368 20.8438C28.0908 18.8888 30.1538 16.8098 31.8318 14.9438C32.6626 15.8483 33.3468 16.8771 33.8598 17.9929Z" fill="#080A1E"/>
<path d="M31.1538 32.9642C30.2785 33.7524 29.3075 34.4274 28.2638 34.9732C26.9938 33.9362 26.0928 32.5092 24.8818 31.4092V36.1402C23.6783 36.3092 22.4572 36.3092 21.2538 36.1402V31.4742C20.1218 32.3742 18.8818 34.0742 17.7538 34.9742C16.6973 34.4497 15.7236 33.7728 14.8638 32.9652C16.4588 31.0712 18.4478 29.1222 20.2738 27.1972C21.0578 26.3702 22.1088 24.4732 23.7168 25.1882C24.4622 25.7137 25.1251 26.3473 25.6838 27.0682C27.5548 29.0402 29.3968 30.9692 31.1538 32.9642Z" fill="#080A1E"/>
</svg>
