<svg width="46" height="47" viewBox="0 0 46 47" fill="none" xmlns="http://www.w3.org/2000/svg">
<path d="M23 46.9971C35.7025 46.9971 46 36.6996 46 23.9971C46 11.2945 35.7025 0.99707 23 0.99707C10.2975 0.99707 0 11.2945 0 23.9971C0 36.6996 10.2975 46.9971 23 46.9971Z" fill="#005696"/>
<path d="M16.0681 34.8792H15.3031V13.1662H16.0681V34.8792ZM14.5801 32.6172H13.8171V15.4312H14.5841L14.5801 32.6172ZM13.0321 30.4012H12.2671V17.6682H13.0321V30.4012ZM28.8781 37.1412V24.4262H17.5981V37.1412H16.8311V10.9312H17.5981V23.6572H28.8791V10.9312H29.6461V37.1412H28.8781ZM30.4061 13.1932H31.1731V34.9062H30.4061V13.1932ZM31.8951 15.4552H32.6601V32.6442H31.8951V15.4552ZM33.4401 17.6712H34.2071V30.4042H33.4401V17.6712ZM27.3691 22.8712H19.0611L18.3051 22.8612V13.1482H19.0701V22.1022H27.3701L27.3631 13.1482H28.1301V22.8612H27.3631L27.3691 22.8712ZM26.3061 21.3552H20.5841L19.8281 21.3442V15.4062H20.5951V20.5872H25.8651V15.4062H26.6301V21.3442H26.3061V21.3552ZM24.6341 19.8852H22.0611L21.3051 19.8752V17.6612H22.0701V19.1192H24.3401V17.6612H25.1071V19.8772H24.6341V19.8872V19.8852ZM19.0671 25.1262H27.3751L28.1311 25.1362V34.8482H27.3641V25.8942H19.0641L19.0701 34.8482H18.3051V25.1362H19.0701L19.0671 25.1262ZM20.1301 26.6422H25.8521L26.6081 26.6522V32.5932H25.8431V27.4112H20.5721V32.5932H19.8071V26.6522H20.1311L20.1301 26.6422ZM21.8041 28.1122H24.3761L25.1321 28.1222V30.3382H24.3671V28.8792H22.0961V30.3382H21.3311V28.1222H21.8071V28.1122H21.8041Z" fill="white"/>
</svg>
