<svg width="46" height="47" viewBox="0 0 46 47" fill="none" xmlns="http://www.w3.org/2000/svg">
<path d="M23 46.9971C35.7025 46.9971 46 36.6996 46 23.9971C46 11.2945 35.7025 0.99707 23 0.99707C10.2975 0.99707 0 11.2945 0 23.9971C0 36.6996 10.2975 46.9971 23 46.9971Z" fill="#00559F"/>
<path d="M19.3561 33.364C19.5261 33.404 20.3771 33.697 20.3771 33.697C20.9311 33.9479 21.5118 34.1351 22.1081 34.255C21.8544 34.3811 21.6409 34.5755 21.4916 34.8163C21.3424 35.0571 21.2632 35.3347 21.2631 35.618C21.261 35.9149 21.3529 36.2049 21.5257 36.4463C21.6985 36.6877 21.9433 36.8683 22.2251 36.962C22.3072 36.9929 22.3796 37.0451 22.4348 37.1133C22.49 37.1815 22.526 37.2633 22.5391 37.35C22.5375 37.6396 22.4961 37.9277 22.4161 38.206H22.8101C22.8101 38.206 23.0651 37.891 23.4241 37.396C23.5801 37.181 23.8241 36.746 23.9631 36.553C24.1765 36.2877 24.2983 35.9604 24.3101 35.62C24.3099 35.3703 24.2486 35.1244 24.1315 34.9039C24.0143 34.6834 23.8449 34.4949 23.6381 34.355C23.6762 34.3557 23.7143 34.3533 23.7521 34.348C24.3346 34.3022 24.9073 34.1714 25.4521 33.96C26.2531 33.7013 26.9816 33.2569 27.5782 32.6631C28.1748 32.0692 28.6226 31.3428 28.8851 30.543C28.9982 30.1152 29.0557 29.6746 29.0561 29.232C29.0306 28.5093 28.8547 27.7999 28.5396 27.1491C28.2245 26.4982 27.7772 25.9202 27.2261 25.452C27.0412 25.2746 26.8465 25.1077 26.6431 24.952C25.9043 24.4626 25.141 24.0113 24.3561 23.6C24.3561 23.6 21.4281 22.009 20.6901 21.548C20.2988 21.3147 19.9349 21.0383 19.6051 20.724C19.3124 20.4855 19.0769 20.1843 18.9162 19.8426C18.7554 19.501 18.6733 19.1276 18.6761 18.75C18.7419 18.1103 19.0328 17.5147 19.4969 17.0695C19.961 16.6242 20.5681 16.3583 21.2101 16.319C21.2101 16.319 21.3031 16.308 21.4361 16.301V21.265L24.1121 22.742V15.063C24.0717 14.8367 24.1147 14.6034 24.2331 14.4063C24.3515 14.2092 24.5373 14.0617 24.7561 13.991L25.1491 13.891V13.511H20.3851V13.891L20.7591 13.991C20.9832 14.0562 21.1754 14.2019 21.2986 14.4002C21.4219 14.5984 21.4677 14.8351 21.4271 15.065V15.577C21.3155 15.583 21.2043 15.595 21.0941 15.613C19.9732 15.7341 18.9349 16.2594 18.1733 17.0905C17.4117 17.9217 16.979 19.0019 16.9561 20.129C16.9584 20.8793 17.1526 21.6165 17.5202 22.2705C17.8877 22.9246 18.4164 23.4738 19.0561 23.866C19.6677 24.3056 20.3142 24.6946 20.9891 25.029L21.4321 25.276V30.129C21.472 30.3557 21.428 30.5893 21.3084 30.786C21.1888 30.9827 21.0017 31.1291 20.7821 31.198L20.3891 31.304V31.683H25.1461V31.304L24.7711 31.204C24.5469 31.138 24.3551 30.9916 24.2322 30.7928C24.1093 30.5941 24.064 30.357 24.1051 30.127V26.767L24.6261 27.059C25.5544 27.532 26.3129 28.2815 26.7971 29.204C27.4031 30.585 27.0081 32.566 24.5971 33.435C23.6271 33.6649 22.6145 33.6438 21.655 33.3736C20.6954 33.1035 19.8206 32.5932 19.1131 31.891C18.5303 31.2462 18.0747 30.497 17.7701 29.683C17.7001 29.483 17.6211 29.168 17.6211 29.168H17.2441V33.975H17.5641C17.6677 33.8239 17.7877 33.6847 17.9221 33.56C17.9585 33.5277 17.9976 33.4986 18.0391 33.473C18.2261 33.36 18.436 33.2901 18.6535 33.2687C18.871 33.2472 19.0905 33.2747 19.2961 33.349L19.3561 33.364ZM27.4741 16.057V15.835H27.1291L26.9461 16.112C26.8734 16.2122 26.7778 16.2935 26.6674 16.3494C26.557 16.4052 26.4348 16.4339 26.3111 16.433C26.0217 16.4402 25.734 16.386 25.4671 16.274L24.7671 15.995V16.701C24.9742 16.8231 25.1706 16.9626 25.3541 17.118C25.664 17.3716 25.9378 17.6663 26.1681 17.994C26.4503 18.389 26.6758 18.8215 26.8381 19.279C26.9125 19.5353 26.9719 19.7958 27.0161 20.059L27.0641 20.354H27.4751L27.4741 16.057ZM21.2121 11.344C21.2121 11.6512 21.3031 11.9514 21.4738 12.2068C21.6444 12.4622 21.887 12.6613 22.1707 12.7788C22.4545 12.8963 22.7668 12.9271 23.068 12.8672C23.3693 12.8073 23.646 12.6593 23.8632 12.4422C24.0804 12.225 24.2283 11.9482 24.2882 11.647C24.3481 11.3457 24.3174 11.0335 24.1998 10.7497C24.0823 10.4659 23.8832 10.2234 23.6279 10.0527C23.3725 9.8821 23.0722 9.79102 22.7651 9.79102C22.561 9.79102 22.359 9.83122 22.1705 9.90933C21.982 9.98743 21.8108 10.1019 21.6666 10.2462C21.5223 10.3905 21.408 10.5619 21.33 10.7504C21.252 10.9389 21.2119 11.141 21.2121 11.345" fill="white"/>
</svg>
