<svg width="46" height="47" viewBox="0 0 46 47" fill="none" xmlns="http://www.w3.org/2000/svg">
<path d="M23 46.9971C35.7025 46.9971 46 36.6996 46 23.9971C46 11.2945 35.7025 0.99707 23 0.99707C10.2975 0.99707 0 11.2945 0 23.9971C0 36.6996 10.2975 46.9971 23 46.9971Z" fill="#006F51"/>
<path d="M23.0011 46.7423C24.1616 46.7429 25.3202 46.6479 26.4651 46.4583L27.5971 42.5263L20.4061 46.5804C21.2672 46.6848 22.1337 46.7389 23.0011 46.7423ZM33.8151 14.4134L40.3661 18.3583H37.0801C35.7645 18.3655 34.4867 18.7988 33.4381 19.5934L23.8181 26.0693L29.4301 15.4294C29.6322 15.0546 29.9117 14.7271 30.2502 14.4687C30.5886 14.2103 30.9781 14.0269 31.3929 13.9307C31.8077 13.8345 32.2383 13.8277 32.6559 13.9107C33.0735 13.9938 33.4687 14.1648 33.8151 14.4124V14.4134ZM42.7891 27.0013L40.6891 24.3883C38.9651 22.2493 37.3991 20.2134 32.6891 22.6454L24.2361 27.0013H42.7891ZM27.1641 13.7014C27.3444 13.352 27.4268 12.9604 27.4027 12.568C27.3786 12.1756 27.2488 11.797 27.0271 11.4724L23.0011 6.19336L18.9751 11.4724C18.7545 11.7975 18.6256 12.1762 18.602 12.5685C18.5784 12.9607 18.661 13.3521 18.8411 13.7014L23.0041 25.8404L27.1641 13.7014ZM16.5641 15.4254L22.1711 26.0644L12.5511 19.5883C11.5045 18.7943 10.2288 18.361 8.9151 18.3533H5.6301L12.1811 14.4084C12.5278 14.1606 12.9234 13.9895 13.3414 13.9066C13.7594 13.8236 14.1903 13.8306 14.6054 13.9272C15.0205 14.0238 15.4102 14.2078 15.7486 14.4668C16.087 14.7258 16.3664 15.0539 16.5681 15.4294L16.5641 15.4254ZM21.7591 26.9973L13.3121 22.6414C8.6001 20.2094 7.0351 22.2413 5.3121 24.3843L3.2041 26.9973H21.7591ZM24.9891 28.2104L23.0031 29.4424L21.0031 28.2104H24.9891ZM26.5391 30.8983L27.5711 27.8673L20.8011 31.6813L22.9711 32.9063L26.5391 30.8983ZM24.0391 33.5143L26.3281 34.9084L27.5691 31.5254L24.0391 33.5143ZM19.4301 34.5753L18.3981 31.5443L25.1681 35.3614L22.9981 36.5833L19.4301 34.5753ZM21.9301 29.9044L19.6301 31.2983L18.3921 27.9124L21.9301 29.9044ZM18.3971 35.2043L19.6351 38.5873L21.9351 37.1934L18.3971 35.2043ZM22.9711 40.2404L20.8011 39.0154L27.5711 35.1983L26.5391 38.2293L22.9711 40.2404ZM24.0371 40.8404L26.3261 42.2314L27.5671 38.8513L24.0371 40.8404ZM22.9891 43.9053L25.1591 42.6833L18.3891 38.8663L19.4301 41.8994L22.9891 43.9053ZM21.9291 44.5053L19.6291 45.8304L18.3911 42.5154L21.9291 44.5053Z" fill="#8E6D2A"/>
</svg>
