<svg width="46" height="47" viewBox="0 0 46 47" fill="none" xmlns="http://www.w3.org/2000/svg">
<path d="M23 46.9971C35.7025 46.9971 46 36.6996 46 23.9971C46 11.2945 35.7025 0.99707 23 0.99707C10.2975 0.99707 0 11.2945 0 23.9971C0 36.6996 10.2975 46.9971 23 46.9971Z" fill="#00B16E"/>
<path fill-rule="evenodd" clip-rule="evenodd" d="M23.4012 13.272C23.8021 13.272 24.2028 13.2947 24.6012 13.34V18.966H32.5102C32.6772 19.279 33.1822 19.932 33.3182 20.266V21.3849H22.0712V16.157C20.3842 16.4251 18.828 17.2284 17.6323 18.4482C16.4366 19.6681 15.6646 21.24 15.4302 22.932H33.3222V28.067C32.4259 30.2568 30.8301 32.0885 28.7837 33.2764C26.7373 34.4643 24.3553 34.9417 22.0092 34.634V29.555H14.2332C13.7566 28.7728 13.3825 27.9326 13.1202 27.055H24.5562V32.283C26.2432 32.015 27.7994 31.2118 28.9952 29.9919C30.191 28.772 30.9629 27.2 31.1972 25.508H12.7822C12.5675 23.9879 12.6816 22.4394 13.1168 20.9673C13.552 19.4951 14.2982 18.1334 15.3048 16.9744C16.3115 15.8154 17.5553 14.886 18.952 14.249C20.3488 13.6119 21.866 13.2822 23.4012 13.282V13.272Z" fill="white"/>
</svg>
