<svg width="46" height="47" viewBox="0 0 46 47" fill="none" xmlns="http://www.w3.org/2000/svg">
<path d="M23 46.9971C35.7025 46.9971 46 36.6996 46 23.9971C46 11.2945 35.7025 0.99707 23 0.99707C10.2975 0.99707 0 11.2945 0 23.9971C0 36.6996 10.2975 46.9971 23 46.9971Z" fill="#00C4B3"/>
<path d="M19.4221 29.355C19.3861 29.381 19.3511 29.409 19.3221 29.437C19.2872 29.4652 19.2538 29.4952 19.2221 29.527C19.1901 29.558 19.1601 29.59 19.1311 29.627C19.1021 29.664 19.0731 29.695 19.0451 29.727C18.8104 30.0444 18.6645 30.4185 18.6221 30.811C18.575 31.2429 18.6054 31.6798 18.7121 32.101C18.8295 32.5761 19.0105 33.0332 19.2501 33.46C19.514 33.9352 19.8337 34.3773 20.2021 34.777L23.0521 37.884L25.2001 36.267C25.5255 36.019 25.7636 35.6741 25.8801 35.282C26.011 34.8291 26.0363 34.3522 25.9541 33.888C25.8603 33.3281 25.6748 32.7875 25.4051 32.288C25.0992 31.7149 24.7137 31.188 24.2601 30.723C24.2061 30.6663 24.1508 30.6109 24.0941 30.5569C24.0381 30.5029 23.9821 30.451 23.9251 30.399C23.8681 30.347 23.8121 30.299 23.7541 30.25C23.6961 30.201 23.6381 30.1499 23.5811 30.1089L21.8541 31.925L19.4241 29.356" fill="white"/>
<path d="M17.4619 10.111L15.5999 14.711C15.3736 15.2853 15.2474 15.8941 15.2269 16.511C15.2049 17.1364 15.2688 17.7619 15.4169 18.37C15.5634 18.9807 15.7876 19.5702 16.0839 20.124C16.3769 20.6768 16.7473 21.1849 17.1839 21.633C17.2339 21.686 17.2839 21.733 17.3379 21.784C17.3919 21.835 17.4379 21.884 17.4949 21.926C17.5519 21.968 17.5999 22.017 17.6539 22.059C17.7079 22.101 17.7609 22.145 17.8139 22.185L19.3399 19.458L22.1939 22.268C22.2409 22.226 22.2879 22.181 22.3339 22.135C22.3799 22.089 22.4239 22.04 22.4689 21.99C22.5139 21.94 22.5559 21.89 22.5989 21.833C22.6419 21.776 22.6819 21.723 22.7229 21.664C23.0828 21.1317 23.3255 20.5291 23.4349 19.896C23.5607 19.192 23.5665 18.4719 23.4519 17.766C23.3343 17.009 23.0981 16.2753 22.7519 15.592C22.4073 14.9012 21.9436 14.2766 21.3819 13.747L17.4609 10.105" fill="white"/>
<path d="M13.9821 21.502C13.8066 21.5057 13.6324 21.5347 13.4651 21.588C13.3052 21.6395 13.1544 21.7157 13.0181 21.814C12.8793 21.9148 12.7563 22.0358 12.6531 22.173C12.5419 22.3217 12.4508 22.4844 12.3821 22.657L11.3711 25.157L13.8641 27.8759C14.0364 28.0647 14.2212 28.2418 14.4171 28.406C14.597 28.5569 14.7878 28.6943 14.9881 28.817C15.1717 28.9298 15.3648 29.0265 15.5651 29.106C15.7491 29.1792 15.9401 29.2335 16.1351 29.268C16.3068 29.2975 16.4813 29.3069 16.6551 29.296C16.821 29.2858 16.9847 29.2521 17.1411 29.196C17.2976 29.1384 17.4443 29.0571 17.5761 28.955C17.7171 28.8442 17.8405 28.7127 17.9421 28.565C17.9681 28.528 17.9931 28.489 18.0161 28.45C18.0391 28.411 18.0621 28.3699 18.0831 28.3289C18.1041 28.2879 18.1241 28.246 18.1431 28.202C18.1621 28.158 18.1801 28.115 18.1971 28.069L15.8971 25.6349L17.1191 23.45C17.0771 23.394 17.0341 23.337 16.9891 23.282C16.9441 23.227 16.9001 23.172 16.8541 23.118C16.8081 23.064 16.7621 23.01 16.7141 22.959C16.6661 22.908 16.6191 22.859 16.5691 22.805C16.3642 22.5928 16.1429 22.3972 15.9071 22.22C15.697 22.063 15.4731 21.9254 15.2381 21.809C15.0315 21.7064 14.8142 21.6273 14.5901 21.573C14.392 21.5233 14.1883 21.5004 13.9841 21.505" fill="white"/>
<path d="M27.3353 21.543C27.0126 21.5482 26.6911 21.5867 26.3763 21.658C26.0774 21.7258 25.787 21.8264 25.5103 21.958C25.2426 22.0853 24.9905 22.2434 24.7593 22.429C24.5294 22.6139 24.3226 22.8257 24.1433 23.06C24.1013 23.116 24.0583 23.173 24.0203 23.232C23.9823 23.291 23.9433 23.349 23.9073 23.408C23.8713 23.467 23.8383 23.527 23.8073 23.588C23.7763 23.649 23.7443 23.71 23.7163 23.772L26.7553 26.764L24.5743 29.057C24.6203 29.12 24.6743 29.181 24.7183 29.243C24.7623 29.305 24.8183 29.365 24.8693 29.425C24.9203 29.485 24.9743 29.544 25.0293 29.605C25.0843 29.666 25.1393 29.723 25.1973 29.781C25.4463 30.0338 25.7137 30.2678 25.9973 30.481C26.2727 30.6885 26.5636 30.8747 26.8673 31.038C27.1635 31.1971 27.4714 31.3335 27.7883 31.446C28.0995 31.5563 28.4192 31.6405 28.7443 31.698C29.0472 31.7508 29.3539 31.7779 29.6613 31.779C29.9653 31.7805 30.2687 31.7528 30.5673 31.696C30.8658 31.6392 31.1572 31.55 31.4363 31.43C31.7205 31.3073 31.9891 31.1512 32.2363 30.965L36.4683 27.779L31.6683 23.316C31.348 23.0176 31.0005 22.7497 30.6303 22.516C30.2818 22.2959 29.9136 22.1087 29.5303 21.957C29.1702 21.8142 28.7971 21.7063 28.4163 21.635C28.0594 21.5699 27.697 21.5398 27.3343 21.545" fill="white"/>
</svg>
