<svg width="46" height="46" viewBox="0 0 46 46" fill="none" xmlns="http://www.w3.org/2000/svg">
<path d="M23 46C35.7025 46 46 35.7025 46 23C46 10.2975 35.7025 0 23 0C10.2975 0 0 10.2975 0 23C0 35.7025 10.2975 46 23 46Z" fill="#FFE35E"/>
<path fill-rule="evenodd" clip-rule="evenodd" d="M24.169 31.7341L30.71 31.6931C34.143 31.6701 37.029 29.6091 37.142 25.8831C37.042 23.4541 35.272 22.1691 33.053 21.5831V21.5231C35.516 21.4141 38.0011 19.4011 37.8961 16.9911C37.7761 14.2911 34.819 12.6581 32.379 12.6581H31.622L29.89 12.6431H17.1671C16.1102 12.708 15.0859 13.0344 14.1863 13.5929C13.2868 14.1514 12.5399 14.9246 12.013 15.8431C11.8627 16.0935 11.7588 16.3688 11.7061 16.6561L8.33301 31.7341H24.169ZM13.2241 17.7231C12.2534 21.8871 11.2837 26.0514 10.315 30.2161C12.508 30.3851 14.907 30.3701 16.709 28.9161C17.4261 28.338 18.084 27.6902 18.673 26.9821L25.473 18.7701C26.8762 16.8037 28.6979 15.173 30.807 13.9951C28.7451 14.0017 26.7174 14.522 24.907 15.5091C24.3447 15.8282 23.8484 16.2518 23.445 16.7571L14.565 26.6711C15.086 24.2531 15.7041 21.3301 16.3491 18.7321C16.3941 18.5521 16.449 18.3761 16.484 18.2001C17.073 15.1641 19.374 14.2271 19.925 14.2161C16.66 13.5531 14.141 15.1161 13.225 17.7161L13.2241 17.7231Z" fill="#080A1E"/>
</svg>
