<svg width="46" height="47" viewBox="0 0 46 47" fill="none" xmlns="http://www.w3.org/2000/svg">
<path d="M23 46.9971C35.7025 46.9971 46 36.6996 46 23.9971C46 11.2945 35.7025 0.99707 23 0.99707C10.2975 0.99707 0 11.2945 0 23.9971C0 36.6996 10.2975 46.9971 23 46.9971Z" fill="#018AEF"/>
<path d="M39.6741 23.5601H38.3311V24.6481H39.6741V23.5601Z" fill="white"/>
<path d="M14.7902 30.365L14.7312 30.107C14.6045 30.2472 14.4463 30.3552 14.2697 30.4223C14.0931 30.4894 13.903 30.5137 13.7152 30.493C13.5781 30.4856 13.444 30.4502 13.321 30.389C13.1981 30.3279 13.089 30.2422 13.0004 30.1373C12.9118 30.0324 12.8456 29.9105 12.8058 29.7791C12.7661 29.6476 12.7536 29.5095 12.7692 29.373L12.7812 28.493C12.8062 27.068 14.7432 27.5 14.7432 26.437C14.7432 26.214 14.7312 26.028 14.4732 26.028C14.2152 26.028 14.1582 26.214 14.1582 26.437V26.871H12.7812V26.437C12.7812 25.515 13.5742 25.082 14.4732 25.082C15.6202 25.082 16.1452 25.724 16.1452 26.425V30.364L14.7902 30.365ZM14.7182 27.771C14.3912 27.979 14.1582 28.086 14.1582 28.517V29.149C14.1582 29.449 14.2402 29.57 14.4382 29.57C14.6362 29.57 14.7182 29.454 14.7182 29.149V27.771Z" fill="white"/>
<path d="M20.1809 28.9783C20.1809 29.7963 20.0419 30.4783 19.1309 30.4783C18.9385 30.4981 18.7443 30.465 18.5693 30.3825C18.3943 30.3001 18.2451 30.1713 18.1379 30.0103V31.6013H16.7939V25.2013H18.1369L18.1269 25.7263C18.2157 25.521 18.3676 25.3493 18.5605 25.2362C18.7535 25.1231 18.9775 25.0745 19.1999 25.0973C19.9359 25.0973 20.1809 25.7973 20.1809 26.4653V28.9803V28.9783ZM18.7439 26.5683C18.7439 26.3353 18.6149 26.2063 18.4439 26.2063C18.2729 26.2063 18.1289 26.3473 18.1289 26.5903V29.0333C18.1289 29.2663 18.2579 29.3953 18.4289 29.3953C18.5999 29.3953 18.7439 29.2663 18.7439 29.0213V26.5683Z" fill="white"/>
<path d="M22.1682 25.2119H20.8252V30.3649H22.1682V25.2119Z" fill="white"/>
<path d="M25.4629 30.3581L24.5859 27.9751L24.3779 28.3471V30.3591H22.8589V23.5591H24.3779V25.6721L25.3439 23.5591H26.8529L25.4629 26.4201L26.9689 30.3591L25.4629 30.3581Z" fill="white"/>
<path d="M29.9213 26.6082C29.5843 26.4792 28.6853 26.4692 28.6853 27.2972V30.3592H27.3413V25.2082H28.5923L28.5803 25.7562C28.7174 25.5303 28.9147 25.347 29.1502 25.2271C29.3857 25.1071 29.65 25.0552 29.9133 25.0772V26.6082H29.9203H29.9213Z" fill="white"/>
<path d="M33.7014 29.0669C33.7014 30.0949 32.9903 30.4939 32.0213 30.4939C31.1343 30.4939 30.3394 30.0599 30.3394 29.0469V26.6389C30.3394 25.6579 30.9393 25.1079 32.0213 25.1079C32.9083 25.1079 33.7034 25.4699 33.7034 26.6509V28.0089H31.7294V29.2449C31.7294 29.4559 31.8213 29.5739 32.0213 29.5739C32.2213 29.5739 32.3134 29.4579 32.3134 29.2449V28.4869H33.7034V29.0819L33.7014 29.0669ZM32.2894 26.3569C32.2894 26.1459 32.1954 26.0299 32.0094 26.0299C31.8234 26.0299 31.7173 26.1459 31.7173 26.3569V27.0569H32.3024L32.2894 26.3569Z" fill="white"/>
<path d="M36.3472 30.365V29.837C36.2726 30.0477 36.1271 30.226 35.9356 30.3413C35.744 30.4566 35.5183 30.5017 35.2972 30.469C34.4672 30.469 34.3042 29.769 34.3042 29.114V26.614C34.3042 25.796 34.5042 25.085 35.3322 25.085C35.5267 25.0744 35.7208 25.1113 35.8978 25.1924C36.0748 25.2736 36.2294 25.3967 36.3482 25.551V23.564H37.6932V30.364L36.3472 30.365ZM36.3472 26.532C36.3472 26.299 36.2212 26.168 36.0322 26.183C35.8432 26.198 35.7172 26.312 35.7172 26.545L35.7272 29C35.7272 29.233 35.8562 29.359 36.0272 29.359C36.1982 29.359 36.3422 29.22 36.3422 28.985V26.532H36.3472Z" fill="white"/>
<path d="M39.6741 25.2192H38.3311V30.3722H39.6741V25.2192Z" fill="white"/>
<path d="M11.8051 27.419V30.365H10.2861V27.419L8.95312 23.564H10.5661L11.0471 25.457L11.5351 23.564H13.1481L11.8051 27.419Z" fill="white"/>
<path d="M22.212 18.6461C21.9762 18.8694 21.6814 19.0205 21.3624 19.0814C21.0434 19.1424 20.7136 19.1107 20.412 18.9901C20.2515 18.9164 20.1087 18.8091 19.9932 18.6754C19.8778 18.5417 19.7925 18.3847 19.743 18.2151C19.8837 18.3625 20.0546 18.4777 20.244 18.5528C20.4334 18.6279 20.6368 18.661 20.8402 18.65C21.0437 18.639 21.2423 18.584 21.4225 18.4889C21.6027 18.3938 21.7601 18.2609 21.884 18.0991C22.1195 17.8315 22.2747 17.5029 22.3317 17.151C22.3886 16.7991 22.3451 16.4383 22.206 16.1101C22.0614 15.7778 21.8333 15.4887 21.5438 15.2707C21.2543 15.0527 20.9133 14.9133 20.554 14.8661C20.0735 14.7769 19.5774 14.8306 19.127 15.0204C18.6766 15.2102 18.2918 15.5279 18.02 15.9341C17.269 17.0961 17.173 18.3891 16.628 19.6801C16.5897 19.7734 16.5228 19.8522 16.4369 19.9052C16.3511 19.9582 16.2507 19.9827 16.15 19.9751C16.0494 19.9827 15.949 19.9582 15.8631 19.9052C15.7773 19.8522 15.7104 19.7734 15.672 19.6801C15.127 18.3891 15.033 17.0941 14.282 15.9341C14.0106 15.526 13.6249 15.2069 13.1732 15.0167C12.7214 14.8266 12.2236 14.7739 11.742 14.8651C11.3827 14.9115 11.0417 15.0506 10.7524 15.2687C10.4631 15.4868 10.2355 15.7764 10.092 16.1091C9.95383 16.4375 9.91073 16.7981 9.96767 17.1498C10.0246 17.5015 10.1793 17.8301 10.414 18.0981C10.5379 18.2599 10.6954 18.3928 10.8756 18.4879C11.0558 18.583 11.2544 18.638 11.4578 18.649C11.6613 18.66 11.8647 18.6269 12.0541 18.5518C12.2435 18.4767 12.4144 18.3615 12.555 18.2141C12.5055 18.3839 12.4199 18.5411 12.3041 18.6748C12.1883 18.8086 12.045 18.9158 11.884 18.9891C11.5825 19.1097 11.2527 19.1414 10.9337 19.0804C10.6147 19.0195 10.3199 18.8684 10.084 18.6451C9.73538 18.3042 9.49405 17.8687 9.38975 17.3924C9.28545 16.916 9.32275 16.4195 9.49704 15.9641C9.68818 15.477 10.0145 15.0545 10.4375 14.7464C10.8605 14.4384 11.3627 14.2575 11.885 14.2251C12.5033 14.1991 13.1171 14.3396 13.6624 14.6319C14.2078 14.9243 14.6646 15.3578 14.985 15.8871C15.121 16.1421 15.406 16.8041 15.406 16.8041H16.89C16.89 16.8041 17.175 16.1431 17.311 15.8871C17.6315 15.3578 18.0883 14.9243 18.6336 14.6319C19.179 14.3396 19.7928 14.1991 20.411 14.2251C20.9342 14.2566 21.4375 14.437 21.8615 14.7451C22.2855 15.0533 22.6125 15.4762 22.804 15.9641C22.9743 16.4211 23.0082 16.9177 22.9017 17.3936C22.7952 17.8695 22.5528 18.3043 22.204 18.6451L22.212 18.6461ZM23.961 15.6651C23.6929 14.9147 23.2058 14.2621 22.5628 13.7914C21.9198 13.3208 21.1504 13.0539 20.354 13.0251C19.7498 13.0113 19.1488 13.1175 18.5858 13.3373C18.0228 13.5572 17.509 13.8865 17.074 14.3061C16.716 14.6496 16.4038 15.0378 16.145 15.4611C15.8864 15.0383 15.5749 14.6502 15.218 14.3061C14.7831 13.8865 14.2692 13.5572 13.7063 13.3373C13.1433 13.1175 12.5423 13.0113 11.938 13.0251C11.1409 13.0535 10.3705 13.3203 9.72662 13.7911C9.08271 14.262 8.59483 14.9151 8.32604 15.6661C8.17014 16.1413 8.10959 16.6427 8.14786 17.1413C8.18613 17.64 8.32246 18.1262 8.54904 18.5721C8.78538 19.0887 9.16768 19.525 9.64885 19.827C10.13 20.1291 10.689 20.2838 11.257 20.2721C11.7032 20.2575 12.1361 20.1175 12.5063 19.8681C12.8765 19.6187 13.1689 19.2701 13.35 18.8621C13.5074 18.4839 13.5479 18.0673 13.4663 17.6659C13.3846 17.2645 13.1846 16.8968 12.892 16.6101C12.9108 16.7172 12.9079 16.8269 12.8837 16.9328C12.8595 17.0388 12.8144 17.1388 12.751 17.2271C12.6281 17.3969 12.4506 17.5194 12.2482 17.574C12.0457 17.6286 11.8307 17.6121 11.639 17.5271C11.4755 17.4701 11.3372 17.3575 11.2484 17.2089C11.1596 17.0602 11.1258 16.8851 11.153 16.7141C11.1766 16.5667 11.2381 16.4279 11.3316 16.3115C11.4251 16.1951 11.5472 16.105 11.686 16.0501C11.9273 15.9429 12.1967 15.9168 12.454 15.9758C12.7113 16.0347 12.9426 16.1756 13.113 16.3771C13.861 17.2121 13.948 18.4771 14.302 19.4371C14.3745 19.8299 14.5553 20.1946 14.824 20.4901C15.0928 20.7855 15.4388 20.9999 15.823 21.1091C15.9289 21.1319 16.0368 21.1436 16.145 21.1441C16.2533 21.1438 16.3612 21.132 16.467 21.1091C16.8506 20.9988 17.196 20.784 17.4646 20.4888C17.7332 20.1935 17.9144 19.8294 17.988 19.4371C18.342 18.4781 18.429 17.2121 19.177 16.3771C19.3476 16.1757 19.5788 16.035 19.8361 15.976C20.0934 15.9171 20.3628 15.9431 20.604 16.0501C20.7431 16.105 20.8655 16.195 20.9593 16.3114C21.0531 16.4278 21.115 16.5666 21.139 16.7141C21.1663 16.8851 21.1325 17.0602 21.0437 17.2089C20.9548 17.3575 20.8166 17.4701 20.653 17.5271C20.4618 17.6127 20.2468 17.6296 20.0446 17.5749C19.8423 17.5203 19.6651 17.3974 19.543 17.2271C19.4157 17.0484 19.364 16.8267 19.399 16.6101C19.1063 16.8967 18.9062 17.2644 18.8246 17.6659C18.743 18.0673 18.7835 18.484 18.941 18.8621C19.121 19.2709 19.4131 19.6204 19.7835 19.8699C20.154 20.1195 20.5876 20.2589 21.034 20.2721C21.6021 20.2841 22.1612 20.1295 22.6424 19.8274C23.1237 19.5253 23.5059 19.0889 23.742 18.5721C23.9703 18.1269 24.108 17.6408 24.1471 17.142C24.1862 16.6431 24.126 16.1415 23.97 15.6661L23.961 15.6651Z" fill="#BAB9BB"/>
</svg>
