<svg width="46" height="47" viewBox="0 0 46 47" fill="none" xmlns="http://www.w3.org/2000/svg">
<path d="M23 46.9971C35.7025 46.9971 46 36.6996 46 23.9971C46 11.2945 35.7025 0.99707 23 0.99707C10.2975 0.99707 0 11.2945 0 23.9971C0 36.6996 10.2975 46.9971 23 46.9971Z" fill="#ED1C24"/>
<path fill-rule="evenodd" clip-rule="evenodd" d="M27.1138 15.8964L25.0268 17.5384L23.6348 18.6294V23.6194L24.3558 23.0614V25.3804L23.6348 25.9384V30.9284L24.3558 30.3644V32.6774L23.6348 33.2474V38.2374L25.0268 37.1464L27.1138 35.5044L29.8848 33.3354V24.9664C29.8686 24.7875 29.8123 24.6146 29.72 24.4605C29.6277 24.3064 29.5018 24.1751 29.3518 24.0764C29.5293 23.942 29.6709 23.7657 29.7639 23.5633C29.8569 23.3609 29.8984 23.1387 29.8848 22.9164V13.7334L27.1138 15.8964ZM28.8938 28.6154C28.8938 29.0544 28.7178 29.2544 28.3358 29.5554L27.1068 30.5144L25.3328 31.9144V29.5954L27.1068 28.1954L28.1728 27.3744C28.5298 27.0864 28.8938 27.1554 28.8938 27.5504V28.6154ZM28.8938 21.3064C28.8938 21.7454 28.7178 21.9454 28.3358 22.2464L27.1068 23.2054L25.3328 24.6054V22.2924L27.1068 20.8924L28.1728 20.0714C28.5298 19.7834 28.8938 19.8524 28.8938 20.2474V21.3064Z" fill="white"/>
<path fill-rule="evenodd" clip-rule="evenodd" d="M26.4058 14.9812V13.1942L25.0268 14.2942L24.6198 14.6202V12.7532L25.0268 12.4272L26.4058 11.3172V9.5332L25.0268 10.6492L23.6348 11.7592V17.2072L25.0268 16.0912L26.4058 14.9812Z" fill="white"/>
<path fill-rule="evenodd" clip-rule="evenodd" d="M19.811 9.5332V11.3202L20.711 12.0412V13.9972L20.36 13.7152V15.5022L21.194 16.1852L22.04 16.8682V15.0812L21.683 14.7932V12.8252L22.573 13.5462V11.7592L21.194 10.6492L19.811 9.5332Z" fill="white"/>
<path fill-rule="evenodd" clip-rule="evenodd" d="M16.3379 13.7271V18.7271L21.1899 22.545L21.7729 23.0031L21.1899 23.58L20.4749 24.2881L16.3379 21.041V26.041L17.6609 27.069L16.3379 28.354V33.354L21.1879 37.157L22.5669 38.2411V33.251L21.1879 32.157L17.1449 28.972L18.4549 27.687L21.1879 29.843L22.5669 30.927V25.937L21.2669 24.903L22.5669 23.618V18.6281L21.1879 17.537L16.3379 13.7271Z" fill="white"/>
</svg>
