<svg width="20" height="12" viewBox="0 0 30 12" fill="none" xmlns="http://www.w3.org/2000/svg">
<path d="M25.0062 5.27108L15.2701 5.26442C15.2631 5.16222 15.2838 4.89623 15.5225 4.49407L17.8132 0.614617C18.0176 0.260064 18.4611 0.000732422 18.7201 0.000732422H21.5631C21.8085 0.000732422 22.2586 0.266728 22.463 0.614617L24.7538 4.49407C24.9858 4.88923 25.0198 5.15522 25.0061 5.27108L25.0062 5.27108Z" fill="white"/>
<path d="M19.7298 11.8711C17.9776 11.8301 12.2572 11.7006 10.7232 11.8917C10.6549 11.8987 10.5937 11.9054 10.5527 11.8987C10.5937 11.7692 10.7095 11.5238 11.0301 11.1486L13.3962 7.17366C13.5393 6.9283 13.8938 6.68295 14.1665 6.63501H16.389C16.6414 6.68961 17.0026 6.9283 17.18 7.23525L19.4708 11.1077C19.6818 11.4686 19.7298 11.7416 19.7298 11.8711V11.8711Z" fill="white"/>
<path d="M22.395 6.63477L20.4042 10.0099L18.4067 6.63477H22.395Z" fill="white"/>
<path d="M15.2221 5.26616L15.2197 5.26416V5.26616H15.2221Z" fill="white"/>
<path d="M29.9978 11.8847H21.0935V11.8711C21.0865 11.7482 21.1274 11.4689 21.3731 11.0461L23.6639 7.17342C23.807 6.92806 24.1616 6.6827 24.4412 6.63477H26.6571C26.9161 6.68936 27.2706 6.92107 27.4547 7.23501L29.7389 11.1075C29.9636 11.4823 30.0115 11.762 29.9979 11.8848L29.9978 11.8847Z" fill="white"/>
<path d="M14.3504 3.79849L16.5932 0H7.61132C7.35631 0 6.91553 0.262997 6.70751 0.615224L4.41904 4.49229C4.18733 4.88379 4.15671 5.15145 4.16403 5.26397L13.9044 5.26564C13.8951 4.82053 14.0456 4.31487 14.3505 3.79849L14.3504 3.79849Z" fill="white"/>
<path d="M4.1567 6.6314L3.4466 6.63207C3.19658 6.63207 2.74716 6.90039 2.54304 7.24662V7.24729L0.253981 11.1244C0.0269328 11.5085 -0.011683 11.7842 0.00263478 11.8994H9.18139C9.20902 11.4976 9.39578 10.9689 9.95873 10.3034L12.1267 6.63135L4.1567 6.6314Z" fill="white"/>
</svg>
