<svg width="24" height="24" viewBox="0 0 24 24" fill="none" xmlns="http://www.w3.org/2000/svg">
<path fill-rule="evenodd" clip-rule="evenodd" d="M8 0C3.58172 0 0 3.58172 0 8V16C0 20.4183 3.58172 24 8 24H16C20.4183 24 24 20.4183 24 16V8C24 3.58172 20.4183 0 16 0H8ZM10.64 14.888L11.144 16.4H12.944L9.992 8H7.94L5 16.4H6.788L7.292 14.888H10.64ZM8.972 9.908L10.124 13.34H7.82L8.972 9.908ZM19.889 10.4H18.341V13.64C18.341 14.136 18.221 14.508 17.981 14.756C17.741 15.004 17.421 15.128 17.021 15.128C16.661 15.128 16.373 15.024 16.157 14.816C15.941 14.6 15.833 14.292 15.833 13.892V10.4H14.285V14.084C14.285 14.86 14.497 15.468 14.921 15.908C15.353 16.348 15.897 16.568 16.553 16.568C17.369 16.568 17.965 16.288 18.341 15.728V16.4H19.889V10.4Z" fill="url(#paint0_linear_1607_33267)"/>
<defs>
<linearGradient id="paint0_linear_1607_33267" x1="12" y1="0" x2="12" y2="24" gradientUnits="userSpaceOnUse">
<stop stop-color="#EBB711"/>
<stop offset="1" stop-color="#D49E00"/>
</linearGradient>
</defs>
</svg>
