<svg width="457" height="156" viewBox="0 0 457 156" fill="none" xmlns="http://www.w3.org/2000/svg">
<rect width="3.03553" height="1.52124" transform="matrix(0.73873 -0.674001 0.752298 0.658823 30.5117 100.103)" fill="#D39D00"/>
<rect width="2.1508" height="3.29391" transform="matrix(0.941199 0.337854 -0.413652 0.910435 26.4553 92.2995)" fill="#080A1E" fill-opacity="0.5"/>
<path d="M42.3456 94.1289C43.1883 94.4334 44.3939 93.4186 44.0303 94.2966C43.6667 95.1746 42.6888 95.6395 41.8461 95.3349C41.0035 95.0303 40.6151 94.0717 40.9787 93.1937C41.3424 92.3157 41.5029 93.8243 42.3456 94.1289Z" fill="#F1BE4B"/>
<path d="M38.2888 99.2925L41.575 100.862L40.8275 101.918L38.2888 99.2925Z" fill="#DADADA"/>
<rect width="4.24269" height="1.40765" transform="matrix(-0.996291 -0.24791 0.266619 -0.935069 31.3349 86.0284)" fill="#DADADA"/>
<path d="M34.8042 77.9071L34.4822 78.976L35.4708 79.5924L34.2831 79.6366L33.9611 80.7054L33.5491 79.6639L32.3614 79.7081L33.2945 79.0202L32.8825 77.9786L33.8711 78.595L34.8042 77.9071Z" fill="#7C7F97"/>
<path d="M45.8242 84.7819L47.6356 87.9477L46.3388 88.4195L45.8242 84.7819Z" fill="#EAD300"/>
<circle cx="35.4228" cy="91.114" r="1.52409" fill="#D39D00"/>
<circle cx="18.1497" cy="96.1943" r="1.52409" fill="#D39D00"/>
<path d="M39.8973 84.0017C39.8973 85.4046 41.921 86.5419 40.5128 86.5419C39.1046 86.5419 37.963 85.4046 37.963 84.0017C37.963 82.5989 39.1046 81.4616 40.5128 81.4616C41.921 81.4616 39.8973 82.5989 39.8973 84.0017Z" fill="#080A1E" fill-opacity="0.5"/>
<ellipse cx="50.4943" cy="93.8236" rx="1.69343" ry="1.52409" fill="#080A1E" fill-opacity="0.5"/>
<path d="M45.9888 97.9005L46.7613 98.7444L47.8592 98.3188L47.2388 99.266L48.0113 100.11L46.8553 99.8513L46.2349 100.798L46.1409 99.6916L44.985 99.433L46.0828 99.0074L45.9888 97.9005Z" fill="#EAD300"/>
<rect width="3.03553" height="1.52124" transform="matrix(0.520291 0.853989 -0.790529 0.612424 58.2846 97.1772)" fill="#D39D00"/>
<rect width="2.1508" height="3.29391" transform="matrix(-0.511608 0.859219 -0.814528 -0.580124 66.72 94.6882)" fill="#080A1E" fill-opacity="0.5"/>
<rect width="4.24269" height="1.40765" transform="matrix(0.43386 -0.930494 0.866825 0.440516 71.9421 100.677)" fill="#DADADA"/>
<path d="M79.2501 105.635L78.2626 105.115L77.4685 105.967L77.6523 104.793L76.6647 104.272L77.7658 104.067L77.9496 102.893L78.4464 103.94L79.5475 103.735L78.7534 104.588L79.2501 105.635Z" fill="#7C7F97"/>
<path d="M5.1589 66.5224L1.70518 67.695L1.4901 66.3319L5.1589 66.5224Z" fill="#EAD300"/>
<path d="M7.05831 60.854C5.68131 60.5857 4.17804 62.3546 4.44734 60.9723C4.71664 59.5901 6.05123 58.687 7.42823 58.9553C8.80522 59.2236 9.70318 60.5616 9.43387 61.9439C9.16457 63.3261 8.4353 61.1223 7.05831 60.854Z" fill="#080A1E" fill-opacity="0.5"/>
<rect width="3.03553" height="1.52124" transform="matrix(-0.939061 0.343752 -0.446492 -0.894788 66.9087 69.7629)" fill="#D39D00"/>
<rect width="2.1508" height="3.29391" transform="matrix(-0.742944 -0.669353 0.727838 -0.685749 67.705 78.5218)" fill="#080A1E" fill-opacity="0.5"/>
<path d="M53.6937 70.8069C53.0293 70.2057 51.529 70.6879 52.1982 70.0132C52.8675 69.3385 53.9486 69.2789 54.613 69.8801C55.2773 70.4813 55.2734 71.5156 54.6041 72.1903C53.9349 72.865 54.3581 71.4081 53.6937 70.8069Z" fill="#F1BE4B"/>
<path d="M59.4046 67.5658L56.9583 64.868L58.0503 64.1737L59.4046 67.5658Z" fill="#DADADA"/>
<rect width="4.24269" height="1.40765" transform="matrix(0.828014 0.606999 -0.601109 0.764269 60.8127 82.4756)" fill="#DADADA"/>
<path d="M54.5246 88.6764L55.2277 87.8094L54.5464 86.8642L55.6622 87.2735L56.3653 86.4064L56.3518 87.5264L57.4676 87.9356L56.3435 88.2186L56.33 89.3386L55.6487 88.3935L54.5246 88.6764Z" fill="#7C7F97"/>
<path d="M46.9321 78.138L46.4556 74.5219L47.8345 74.5768L46.9321 78.138Z" fill="#EAD300"/>
<circle cx="58.9573" cy="76.2203" r="1.52409" transform="rotate(-157.729 58.9573 76.2203)" fill="#D39D00"/>
<path d="M52.121 81.1066C52.6527 79.8083 51.211 77.9889 52.5142 78.5226C53.8174 79.0563 54.4428 80.5414 53.9111 81.8397C53.3794 83.1379 51.892 83.7577 50.5888 83.2239C49.2856 82.6902 51.5894 82.4048 52.121 81.1066Z" fill="#080A1E" fill-opacity="0.5"/>
<ellipse cx="46.037" cy="68.0009" rx="1.69343" ry="1.52409" transform="rotate(-157.729 46.037 68.0009)" fill="#080A1E" fill-opacity="0.5"/>
<path d="M51.7515 65.9354L51.3564 64.8617L50.1792 64.8395L51.1122 64.1981L50.7172 63.1244L51.6889 63.8017L52.622 63.1604L52.2895 64.2204L53.2612 64.8977L52.084 64.8754L51.7515 65.9354Z" fill="#EAD300"/>
<rect width="3.03553" height="1.52124" transform="matrix(-0.671388 0.741107 -0.811462 -0.584406 90.8743 80.8296)" fill="#D39D00"/>
<rect width="2.1508" height="3.29391" transform="matrix(-0.969029 -0.246949 0.325326 -0.945602 95.6533 88.2127)" fill="#080A1E" fill-opacity="0.5"/>
<path d="M79.6614 87.9004C78.7936 87.6772 77.6898 88.802 77.9684 87.8934C78.247 86.9849 79.1763 86.4292 80.0441 86.6524C80.9119 86.8756 81.3895 87.793 81.1109 88.7016C80.8323 89.6101 80.5292 88.1236 79.6614 87.9004Z" fill="#F1BE4B"/>
<path d="M83.2095 82.3749L79.789 81.1246L80.4328 80.0021L83.2095 82.3749Z" fill="#DADADA"/>
<rect width="4.24269" height="1.40765" transform="matrix(1.01533 0.15218 -0.176618 0.956162 91.3914 94.9185)" fill="#DADADA"/>
<path d="M88.7092 103.333L88.9283 102.238L87.8856 101.719L89.0637 101.562L89.2828 100.467L89.7918 101.465L90.9699 101.308L90.1064 102.082L90.6154 103.079L89.5727 102.56L88.7092 103.333Z" fill="#7C7F97"/>
<path d="M77.086 97.5355L74.9821 94.5561L76.2283 93.9633L77.086 97.5355Z" fill="#EAD300"/>
<circle cx="86.8391" cy="90.2444" r="1.52409" transform="rotate(174.551 86.8391 90.2444)" fill="#D39D00"/>
<path d="M83.0603 97.7494C82.9271 96.3528 80.8045 95.4129 82.2064 95.2791C83.6083 95.1454 84.8527 96.1691 84.9859 97.5657C85.1191 98.9622 84.0907 100.203 82.6888 100.336C81.2869 100.47 83.1935 99.1459 83.0603 97.7494Z" fill="#080A1E" fill-opacity="0.5"/>
<ellipse cx="71.5785" cy="88.9779" rx="1.69343" ry="1.52409" transform="rotate(174.551 71.5785 88.9779)" fill="#080A1E" fill-opacity="0.5"/>
<path d="M75.6763 84.4916L74.8271 83.7249L73.7746 84.2528L74.3023 83.251L73.4531 82.4843L74.6284 82.6319L75.1561 81.6301L75.3548 82.7231L76.53 82.8707L75.4776 83.3986L75.6763 84.4916Z" fill="#EAD300"/>
<rect width="3.03553" height="1.52124" transform="matrix(-0.671388 0.741107 -0.811462 -0.584406 113.279 62.2434)" fill="#D39D00"/>
<ellipse cx="63.5057" cy="51.4264" rx="1.69343" ry="1.52409" transform="rotate(-21.2414 63.5057 51.4264)" fill="#080A1E" fill-opacity="0.5"/>
<rect width="3.03553" height="1.52124" transform="matrix(0.794342 0.607471 -0.514943 0.857225 71.9817 51.7301)" fill="#D39D00"/>
<rect width="2.1508" height="3.29391" transform="matrix(-0.165558 0.9862 -0.969369 -0.24561 78.9422 46.3537)" fill="#080A1E" fill-opacity="0.5"/>
<path d="M79.9602 62.3163C79.8099 63.1996 81.0225 64.2062 80.0939 64.004C79.1654 63.8019 78.5344 62.922 78.6847 62.0387C78.835 61.1553 79.7095 60.6031 80.6381 60.8053C81.5667 61.0074 80.1105 61.433 79.9602 62.3163Z" fill="#F1BE4B"/>
<path d="M74.1588 59.2398L73.1972 62.7523L72.025 62.204L74.1588 59.2398Z" fill="#DADADA"/>
<rect width="4.24269" height="1.40765" transform="matrix(0.0672688 -1.02447 0.967532 0.0965394 85.9792 50.0437)" fill="#DADADA"/>
<path d="M94.5872 52.0172L93.4782 51.8898L93.0469 52.9721L92.7928 51.8111L91.6838 51.6838L92.6357 51.0936L92.3816 49.9326L93.2241 50.7288L94.176 50.1386L93.7448 51.2209L94.5872 52.0172Z" fill="#7C7F97"/>
<path d="M89.7758 64.0818L86.9816 66.426L86.2873 65.2334L89.7758 64.0818Z" fill="#EAD300"/>
<circle cx="81.6993" cy="54.9684" r="1.52409" transform="rotate(79.7835 81.6993 54.9684)" fill="#D39D00"/>
<path d="M89.4926 58.1106C88.1119 58.3594 87.3516 60.5527 87.1019 59.1668C86.8521 57.7809 87.7688 56.4557 89.1495 56.2069C90.5301 55.958 91.8518 56.8798 92.1016 58.2657C92.3514 59.6517 90.8732 57.8617 89.4926 58.1106Z" fill="#080A1E" fill-opacity="0.5"/>
<path d="M68.7404 63.0329C67.3598 63.2817 66.5995 65.475 66.3497 64.0891C66.1 62.7032 67.0167 61.378 68.3973 61.1292C69.778 60.8804 71.0997 61.8021 71.3495 63.1881C71.5993 64.574 70.1211 62.784 68.7404 63.0329Z" fill="#080A1E" fill-opacity="0.5"/>
<ellipse cx="81.706" cy="70.2818" rx="1.69343" ry="1.52409" transform="rotate(79.7835 81.706 70.2818)" fill="#080A1E" fill-opacity="0.5"/>
<path d="M76.8945 66.5708L76.201 67.4808L76.8146 68.4857L75.7724 68.0431L75.079 68.9531L75.1284 67.7696L74.0862 67.3271L75.1589 67.0382L75.2083 65.8547L75.8218 66.8597L76.8945 66.5708Z" fill="#EAD300"/>
<rect width="3.03553" height="1.52124" transform="matrix(0.0407619 0.999169 -0.988363 0.152112 40.5704 73.6393)" fill="#D39D00"/>
<path d="M28.5023 74.2886C27.727 74.7378 27.7283 76.3137 27.2901 75.4705C26.8518 74.6273 27.125 73.5795 27.9003 73.1303C28.6756 72.6811 29.6594 73.0006 30.0976 73.8438C30.5359 74.687 29.2776 73.8394 28.5023 74.2886Z" fill="#F1BE4B"/>
<path d="M31.6821 60.9802L28.3664 62.4865L28.0385 61.2346L31.6821 60.9802Z" fill="#DADADA"/>
<rect width="4.24269" height="1.40765" transform="matrix(0.991675 0.265773 -0.283378 0.930127 23.9665 51.3358)" fill="#DADADA"/>
<path d="M20.352 59.3938L20.6932 58.3309L19.7158 57.6968L20.9041 57.674L21.2453 56.6111L21.6385 57.6599L22.8268 57.6371L21.8815 58.3081L22.2747 59.3569L21.2973 58.7228L20.352 59.3938Z" fill="#7C7F97"/>
<circle cx="34.8548" cy="66.6911" r="1.52409" transform="rotate(130.04 34.8548 66.6911)" fill="#D39D00"/>
<path d="M15.3693 53.2088C15.3945 51.8061 13.3915 50.6327 14.7995 50.658C16.2075 50.6833 17.3285 51.8409 17.3033 53.2435C17.2781 54.6462 16.1162 55.7628 14.7082 55.7375C13.3002 55.7122 15.344 54.6114 15.3693 53.2088Z" fill="#080A1E" fill-opacity="0.5"/>
<rect width="3.03553" height="1.52124" transform="matrix(-0.750723 0.660618 -0.740338 -0.672235 16.7271 69.1149)" fill="#D39D00"/>
<rect width="2.1508" height="3.29391" transform="matrix(-0.934976 -0.354712 0.429945 -0.902855 20.6426 76.9901)" fill="#080A1E" fill-opacity="0.5"/>
<path d="M4.78783 74.8756C3.95077 74.5559 2.72707 75.5489 3.10641 74.6776C3.48576 73.8063 4.47185 73.359 5.3089 73.6787C6.14596 73.9984 6.517 74.9638 6.13766 75.8352C5.75831 76.7065 5.62488 75.1952 4.78783 74.8756Z" fill="#F1BE4B"/>
<path d="M8.93672 69.7859L5.67918 68.1577L6.44554 67.115L8.93672 69.7859Z" fill="#DADADA"/>
<rect width="4.24269" height="1.40765" transform="matrix(0.991675 0.265773 -0.283378 0.930127 15.651 83.1725)" fill="#DADADA"/>
<path d="M12.0366 91.2303L12.3778 90.1674L11.4004 89.5333L12.5887 89.5105L12.9299 88.4476L13.3231 89.4964L14.5114 89.4735L13.5661 90.1445L13.9593 91.1933L12.9819 90.5592L12.0366 91.2303Z" fill="#7C7F97"/>
<circle cx="11.6554" cy="78.0145" r="1.52409" transform="rotate(-178.97 11.6554 78.0145)" fill="#D39D00"/>
<path d="M7.05376 85.0453C7.07897 83.6426 5.07602 82.4692 6.48403 82.4945C7.89204 82.5198 9.01302 83.6774 8.98781 85.08C8.96261 86.4827 7.80075 87.5992 6.39274 87.5739C4.98473 87.5486 7.02855 86.4479 7.05376 85.0453Z" fill="#080A1E" fill-opacity="0.5"/>
<path d="M25.5366 68.0941L24.3935 68.1427L24.0131 69.2569L23.6871 68.1727L22.544 68.2212L23.4856 67.5025L23.1596 66.4182L24.0675 67.0584L25.0091 66.3397L24.6287 67.454L25.5366 68.0941Z" fill="#EAD300"/>
<rect width="3.03553" height="1.52124" transform="matrix(-0.357274 0.934 -0.968062 -0.250712 51.3892 38.9106)" fill="#D39D00"/>
<rect width="2.1508" height="3.29391" transform="matrix(-0.992664 0.120905 -0.0393657 -0.999225 58.5186 44.0604)" fill="#080A1E" fill-opacity="0.5"/>
<path d="M43.5 49.5633C42.6103 49.6697 41.9889 51.118 41.9194 50.1702C41.8499 49.2224 42.5148 48.3678 43.4045 48.2614C44.2942 48.1551 45.0717 48.8371 45.1412 49.7849C45.2107 50.7327 44.3896 49.4569 43.5 49.5633Z" fill="#F1BE4B"/>
<path d="M44.8051 43.1278L41.164 43.2016L41.3574 41.9221L44.8051 43.1278Z" fill="#DADADA"/>
<rect width="4.24269" height="1.40765" transform="matrix(1.00149 -0.226011 0.181796 0.95519 56.9756 51.855)" fill="#DADADA"/>
<path d="M39.2211 65.0518L39.0287 63.9522L37.8686 63.8456L38.9099 63.2726L38.7175 62.173L39.5534 62.9185L40.5947 62.3456L40.07 63.3793L40.906 64.1248L39.7458 64.0181L39.2211 65.0518Z" fill="#7C7F97"/>
<path d="M44.5903 59.4769L41.5499 57.4622L42.4966 56.4581L44.5903 59.4769Z" fill="#EAD300"/>
<circle cx="51.0391" cy="49.1475" r="1.52409" transform="rotate(153.309 51.0391 49.1475)" fill="#D39D00"/>
<path d="M50.2363 57.5117C49.6061 56.2583 47.2872 56.1512 48.5454 55.5187C49.8036 54.8861 51.3344 55.3895 51.9645 56.6429C52.5947 57.8963 52.0855 59.4251 50.8273 60.0577C49.5692 60.6902 50.8664 58.7651 50.2363 57.5117Z" fill="#080A1E" fill-opacity="0.5"/>
<ellipse cx="36.3565" cy="53.4961" rx="1.69343" ry="1.52409" transform="rotate(153.309 36.3565 53.4961)" fill="#080A1E" fill-opacity="0.5"/>
<path d="M38.5506 47.83L37.4813 47.423L36.6916 48.2964L36.8205 47.1715L35.7512 46.7645L36.9001 46.4763L37.029 45.3514L37.6102 46.2981L38.7591 46.0099L37.9694 46.8832L38.5506 47.83Z" fill="#EAD300"/>
<rect width="3.03553" height="1.52124" transform="matrix(-0.357274 0.934 -0.968062 -0.250712 77.6778 75.513)" fill="#D39D00"/>
<path d="M102.066 69.3142C101.198 69.0911 100.095 70.2158 100.373 69.3072C100.652 68.3987 101.581 67.843 102.449 68.0662C103.317 68.2894 103.794 69.2068 103.516 70.1154C103.237 71.024 102.934 69.5374 102.066 69.3142Z" fill="#F1BE4B"/>
<path d="M105.614 63.7889L102.194 62.5387L102.838 61.4161L105.614 63.7889Z" fill="#DADADA"/>
<path d="M111.114 84.7468L111.333 83.6522L110.29 83.1325L111.468 82.9757L111.688 81.8811L112.197 82.8788L113.375 82.7221L112.511 83.4954L113.02 84.4932L111.977 83.9734L111.114 84.7468Z" fill="#7C7F97"/>
<path d="M99.4909 78.9494L97.387 75.9699L98.6332 75.3771L99.4909 78.9494Z" fill="#EAD300"/>
<circle cx="109.244" cy="71.658" r="1.52409" transform="rotate(174.551 109.244 71.658)" fill="#D39D00"/>
<path d="M105.465 79.1634C105.332 77.7669 103.209 76.8269 104.611 76.6932C106.013 76.5595 107.258 77.5832 107.391 78.9797C107.524 80.3763 106.496 81.6168 105.094 81.7505C103.692 81.8843 105.598 80.56 105.465 79.1634Z" fill="#080A1E" fill-opacity="0.5"/>
<ellipse cx="93.9833" cy="70.3919" rx="1.69343" ry="1.52409" transform="rotate(174.551 93.9833 70.3919)" fill="#080A1E" fill-opacity="0.5"/>
<path d="M98.0812 65.9056L97.232 65.1389L96.1795 65.6669L96.7072 64.6651L95.858 63.8984L97.0333 64.046L97.5609 63.0442L97.7596 64.1372L98.9349 64.2848L97.8824 64.8127L98.0812 65.9056Z" fill="#EAD300"/>
<rect width="3.03553" height="1.52124" transform="matrix(0.539114 -0.842233 0.89718 0.441665 146.342 106.031)" fill="#D39D00"/>
<rect width="2.1508" height="3.29391" transform="matrix(0.996571 0.0827413 -0.163919 0.986474 140.404 99.5436)" fill="#080A1E" fill-opacity="0.5"/>
<path d="M156.226 97.1979C157.119 97.274 158.021 95.9817 157.897 96.9239C157.773 97.8661 156.949 98.5682 156.056 98.4921C155.163 98.416 154.54 97.5905 154.664 96.6483C154.788 95.7061 155.333 97.1218 156.226 97.1979Z" fill="#F1BE4B"/>
<path d="M153.644 103.236L157.224 103.901L156.776 105.115L153.644 103.236Z" fill="#DADADA"/>
<rect width="4.24269" height="1.40765" transform="matrix(-1.02651 0.0183962 0.0155202 -0.972213 143.494 92.2232)" fill="#DADADA"/>
<path d="M144.743 83.4808L144.709 84.5965L145.823 84.9361L144.687 85.2861L144.653 86.4019L143.986 85.5025L142.85 85.8525L143.573 84.9466L142.905 84.0472L144.02 84.3867L144.743 83.4808Z" fill="#7C7F97"/>
<path d="M157.167 87.2692L159.736 89.8582L158.605 90.6496L157.167 87.2692Z" fill="#EAD300"/>
<circle cx="148.759" cy="96.0775" r="1.52409" transform="rotate(-15 148.759 96.0775)" fill="#D39D00"/>
<circle cx="133.389" cy="105.455" r="1.52409" transform="rotate(-15 133.389 105.455)" fill="#D39D00"/>
<path d="M151.24 88.0495C151.603 89.4046 153.852 89.9793 152.492 90.3438C151.132 90.7083 149.735 89.9053 149.372 88.5502C149.009 87.1951 149.817 85.8011 151.177 85.4366C152.537 85.0721 150.877 86.6944 151.24 88.0495Z" fill="#080A1E" fill-opacity="0.5"/>
<ellipse cx="164.018" cy="94.794" rx="1.69343" ry="1.52409" transform="rotate(-15 164.018 94.794)" fill="#080A1E" fill-opacity="0.5"/>
<path d="M160.721 99.8981L161.686 100.513L162.636 99.8181L162.282 100.894L163.247 101.509L162.063 101.558L161.709 102.634L161.332 101.589L160.148 101.638L161.099 100.943L160.721 99.8981Z" fill="#EAD300"/>
<rect width="3.03553" height="1.52124" transform="matrix(0.723591 0.690229 -0.605086 0.79616 172.411 96.0171)" fill="#D39D00"/>
<rect width="2.1508" height="3.29391" transform="matrix(-0.271793 0.962356 -0.936921 -0.349542 179.915 91.4296)" fill="#080A1E" fill-opacity="0.5"/>
<rect width="4.24269" height="1.40765" transform="matrix(0.178247 -1.01108 0.951302 0.201155 186.509 95.8625)" fill="#DADADA"/>
<path d="M194.851 98.7604L193.763 98.5133L193.216 99.5423L193.09 98.3605L192.001 98.1133L193.012 97.6301L192.885 96.4484L193.636 97.3315L194.647 96.8483L194.1 97.8773L194.851 98.7604Z" fill="#7C7F97"/>
<path d="M113.161 80.1568L110.129 82.1833L109.568 80.9223L113.161 80.1568Z" fill="#EAD300"/>
<path d="M113.529 74.1898C112.13 74.2871 111.135 76.3848 111.038 74.9799C110.94 73.5751 111.995 72.3574 113.395 72.2601C114.794 72.1629 116.008 73.2229 116.106 74.6277C116.203 76.0326 114.929 74.0926 113.529 74.1898Z" fill="#080A1E" fill-opacity="0.5"/>
<rect width="3.03553" height="1.52124" transform="matrix(-0.818093 0.575085 -0.662866 -0.748738 173.646 67.3048)" fill="#D39D00"/>
<rect width="2.1508" height="3.29391" transform="matrix(-0.89087 -0.454257 0.525553 -0.850761 176.682 75.5591)" fill="#080A1E" fill-opacity="0.5"/>
<path d="M161.151 71.7335C160.354 71.3247 159.03 72.1788 159.501 71.3539C159.973 70.529 161.002 70.1916 161.799 70.6004C162.597 71.0091 162.861 72.0092 162.389 72.8341C161.917 73.6591 161.949 72.1422 161.151 71.7335Z" fill="#F1BE4B"/>
<path d="M165.829 67.1248L162.768 65.152L163.643 64.1988L165.829 67.1248Z" fill="#DADADA"/>
<rect width="4.24269" height="1.40765" transform="matrix(0.956903 0.37201 -0.38282 0.893805 171.048 81.162)" fill="#DADADA"/>
<path d="M166.579 88.7791L167.034 87.7596L166.131 87.023L167.315 87.1295L167.769 86.11L168.046 87.1953L169.23 87.3018L168.217 87.8661L168.494 88.9514L167.592 88.2148L166.579 88.7791Z" fill="#7C7F97"/>
<path d="M156.518 80.5648L155.121 77.1953L156.467 76.8914L156.518 80.5648Z" fill="#EAD300"/>
<circle cx="167.637" cy="75.6001" r="1.52409" transform="rotate(-172.729 167.637 75.6001)" fill="#D39D00"/>
<path d="M162.298 82.0892C162.476 80.6976 160.612 79.3134 162.009 79.4916C163.406 79.6698 164.394 80.9424 164.217 82.334C164.039 83.7256 162.763 84.7093 161.366 84.531C159.969 84.3528 162.121 83.4808 162.298 82.0892Z" fill="#080A1E" fill-opacity="0.5"/>
<ellipse cx="153.029" cy="71.0048" rx="1.69343" ry="1.52409" transform="rotate(-172.729 153.029 71.0048)" fill="#080A1E" fill-opacity="0.5"/>
<path d="M158.014 67.5307L157.355 66.5958L156.212 66.879L156.947 66.0181L156.288 65.0832L157.402 65.4859L158.137 64.6249L158.09 65.7348L159.204 66.1376L158.061 66.4208L158.014 67.5307Z" fill="#EAD300"/>
<rect width="3.03553" height="1.52124" transform="matrix(-0.456698 0.889622 -0.935067 -0.354471 199.659 71.7916)" fill="#D39D00"/>
<rect width="2.1508" height="3.29391" transform="matrix(-0.999925 0.0122689 0.0695006 -0.997582 206.186 77.6863)" fill="#080A1E" fill-opacity="0.5"/>
<path d="M190.658 81.5236C189.762 81.5327 188.987 82.9048 189.021 81.9551C189.055 81.0053 189.809 80.2281 190.705 80.2191C191.601 80.21 192.3 80.9726 192.266 81.9223C192.232 82.8721 191.554 81.5146 190.658 81.5236Z" fill="#F1BE4B"/>
<path d="M192.655 75.2681L189.028 74.9457L189.359 73.6948L192.655 75.2681Z" fill="#DADADA"/>
<rect width="4.24269" height="1.40765" transform="matrix(1.02012 -0.115792 0.0768731 0.969293 203.805 85.2667)" fill="#DADADA"/>
<path d="M203.392 94.0886L203.32 92.9746L202.179 92.7424L203.276 92.2861L203.204 91.1721L203.954 92.0041L205.052 91.5477L204.418 92.5183L205.168 93.3502L204.026 93.1181L203.392 94.0886Z" fill="#7C7F97"/>
<path d="M190.664 91.497L187.861 89.1636L188.911 88.2685L190.664 91.497Z" fill="#EAD300"/>
<circle cx="198.198" cy="81.93" r="1.52409" transform="rotate(159.551 198.198 81.93)" fill="#D39D00"/>
<path d="M196.491 90.1573C196 88.8428 193.707 88.4842 195.026 87.9922C196.346 87.5002 197.813 88.167 198.303 89.4815C198.793 90.7959 198.121 92.2604 196.801 92.7524C195.482 93.2444 196.981 91.4718 196.491 90.1573Z" fill="#080A1E" fill-opacity="0.5"/>
<ellipse cx="183.13" cy="84.6564" rx="1.69343" ry="1.52409" transform="rotate(159.551 183.13 84.6564)" fill="#080A1E" fill-opacity="0.5"/>
<path d="M185.927 79.2624L184.908 78.7416L184.028 79.5239L184.279 78.4197L183.26 77.8989L184.433 77.7373L184.684 76.6331L185.158 77.6374L186.332 77.4757L185.452 78.2581L185.927 79.2624Z" fill="#EAD300"/>
<rect width="3.03553" height="1.52124" transform="matrix(-0.456698 0.889622 -0.935067 -0.354471 216.49 48.0399)" fill="#D39D00"/>
<ellipse cx="165.613" cy="50.4739" rx="1.69343" ry="1.52409" transform="rotate(-36.2414 165.613 50.4739)" fill="#080A1E" fill-opacity="0.5"/>
<rect width="3.03553" height="1.52124" transform="matrix(0.9245 0.381181 -0.27553 0.961292 173.879 48.5734)" fill="#D39D00"/>
<rect width="2.1508" height="3.29391" transform="matrix(0.095331 0.995446 -0.999907 0.0136497 179.211 41.5787)" fill="#080A1E" fill-opacity="0.5"/>
<path d="M184.325 56.7339C184.409 57.6261 185.841 58.2845 184.891 58.3296C183.942 58.3747 183.105 57.688 183.021 56.7959C182.938 55.9038 183.64 55.144 184.589 55.0989C185.538 55.0538 184.242 55.8418 184.325 56.7339Z" fill="#F1BE4B"/>
<path d="M177.925 55.2638L177.906 58.9055L176.631 58.6793L177.925 55.2638Z" fill="#DADADA"/>
<rect width="4.24269" height="1.40765" transform="matrix(-0.200175 -1.00697 0.959551 -0.157166 186.963 43.3217)" fill="#DADADA"/>
<path d="M195.788 43L194.684 43.164L194.548 44.3211L194.002 43.2654L192.898 43.4294L193.664 42.6129L193.118 41.5573L194.138 42.1083L194.905 41.2919L194.769 42.4489L195.788 43Z" fill="#7C7F97"/>
<path d="M194.263 55.8988L192.171 58.8864L191.192 57.9141L194.263 55.8988Z" fill="#EAD300"/>
<circle cx="184.103" cy="49.1863" r="1.52409" transform="rotate(64.7835 184.103 49.1863)" fill="#D39D00"/>
<path d="M192.444 50.2044C191.175 50.802 191.008 53.1174 190.409 51.8434C189.809 50.5693 190.351 49.052 191.62 48.4543C192.889 47.8566 194.405 48.4049 195.005 49.679C195.605 50.953 193.714 49.6067 192.444 50.2044Z" fill="#080A1E" fill-opacity="0.5"/>
<path d="M173.673 60.33C172.404 60.9277 172.237 63.2431 171.637 61.969C171.037 60.695 171.58 59.1776 172.849 58.58C174.118 57.9823 175.634 58.5306 176.234 59.8046C176.834 61.0786 174.943 59.7323 173.673 60.33Z" fill="#080A1E" fill-opacity="0.5"/>
<ellipse cx="188.073" cy="63.9761" rx="1.69343" ry="1.52409" transform="rotate(64.7835 188.073 63.9761)" fill="#080A1E" fill-opacity="0.5"/>
<path d="M182.465 61.6369L182.031 62.6954L182.884 63.5073L181.762 63.3495L181.328 64.408L181.07 63.252L179.948 63.0943L180.91 62.5376L180.651 61.3817L181.504 62.1936L182.465 61.6369Z" fill="#EAD300"/>
<rect width="3.03553" height="1.52124" transform="matrix(0.297977 0.954573 -0.915316 0.402736 149.208 77.866)" fill="#D39D00"/>
<path d="M137.72 81.6166C137.087 82.2511 137.496 83.773 136.855 83.0719C136.213 82.3709 136.206 81.2881 136.838 80.6536C137.471 80.019 138.504 80.0729 139.145 80.774C139.787 81.4751 138.352 80.982 137.72 81.6166Z" fill="#F1BE4B"/>
<path d="M137.346 67.9386L134.534 70.2518L133.893 69.1274L137.346 67.9386Z" fill="#DADADA"/>
<rect width="4.24269" height="1.40765" transform="matrix(1.02667 5.27428e-05 -0.0329879 0.971777 127.398 60.6198)" fill="#DADADA"/>
<path d="M125.992 69.3387L126.046 68.2238L124.938 67.8643L126.08 67.5347L126.134 66.4197L126.786 67.331L127.928 67.0014L127.188 67.8942L127.839 68.8054L126.731 68.4459L125.992 69.3387Z" fill="#7C7F97"/>
<circle cx="141.889" cy="72.6338" r="1.52409" transform="rotate(115.04 141.889 72.6338)" fill="#D39D00"/>
<path d="M119.578 64.6541C119.239 63.2927 117.001 62.6777 118.368 62.3377C119.734 61.9977 121.117 62.8257 121.455 64.1871C121.794 65.5485 120.961 66.9277 119.594 67.2677C118.227 67.6077 119.917 66.0155 119.578 64.6541Z" fill="#080A1E" fill-opacity="0.5"/>
<rect width="3.03553" height="1.52124" transform="matrix(-0.554162 0.832409 -0.889099 -0.457716 125.006 79.6668)" fill="#D39D00"/>
<rect width="2.1508" height="3.29391" transform="matrix(-0.994923 -0.100636 0.181619 -0.983369 130.827 86.2603)" fill="#080A1E" fill-opacity="0.5"/>
<path d="M114.965 88.3213C114.074 88.2292 113.149 89.5051 113.29 88.5652C113.431 87.6254 114.267 86.9382 115.159 87.0303C116.05 87.1224 116.658 87.959 116.517 88.8988C116.376 89.8386 115.856 88.4134 114.965 88.3213Z" fill="#F1BE4B"/>
<path d="M117.655 82.3313L114.087 81.6017L114.558 80.3961L117.655 82.3313Z" fill="#DADADA"/>
<rect width="4.24269" height="1.40765" transform="matrix(1.02667 5.27428e-05 -0.0329879 0.971777 127.605 93.5239)" fill="#DADADA"/>
<path d="M126.2 102.243L126.254 101.128L125.146 100.768L126.288 100.439L126.342 99.3235L126.994 100.235L128.135 99.9052L127.396 100.798L128.047 101.709L126.939 101.35L126.2 102.243Z" fill="#7C7F97"/>
<circle cx="122.411" cy="89.5758" r="1.52409" transform="rotate(166.03 122.411 89.5758)" fill="#D39D00"/>
<path d="M119.786 97.558C119.447 96.1966 117.209 95.5815 118.575 95.2416C119.942 94.9016 121.324 95.7296 121.663 97.091C122.002 98.4524 121.168 99.8316 119.802 100.172C118.435 100.512 120.125 98.9194 119.786 97.558Z" fill="#080A1E" fill-opacity="0.5"/>
<path d="M133.252 76.4007L132.16 76.7435L132.081 77.9183L131.485 76.9553L130.394 77.298L131.117 76.3601L130.522 75.3972L131.565 75.7805L132.288 74.8426L132.209 76.0174L133.252 76.4007Z" fill="#EAD300"/>
<rect width="3.03553" height="1.52124" transform="matrix(-0.103363 0.994644 -0.999965 0.00838364 150.67 41.5205)" fill="#D39D00"/>
<rect width="2.1508" height="3.29391" transform="matrix(-0.927547 0.373706 -0.296643 -0.954989 158.889 44.6496)" fill="#080A1E" fill-opacity="0.5"/>
<path d="M145.807 53.8521C144.975 54.1851 144.75 55.7449 144.437 54.8474C144.125 53.9499 144.546 52.9523 145.378 52.6193C146.209 52.2863 147.137 52.7439 147.449 53.6414C147.762 54.5389 146.639 53.5191 145.807 53.8521Z" fill="#F1BE4B"/>
<path d="M145.402 47.298L141.904 48.3118L141.759 47.0258L145.402 47.298Z" fill="#DADADA"/>
<rect width="4.24269" height="1.40765" transform="matrix(0.908865 -0.477513 0.422823 0.875591 159.416 52.5779)" fill="#DADADA"/>
<path d="M145.682 69.9203L145.212 68.9079L144.064 69.1052L144.921 68.2823L144.451 67.2699L145.451 67.7737L146.309 66.9508L146.07 68.085L147.07 68.5888L145.922 68.786L145.682 69.9203Z" fill="#7C7F97"/>
<path d="M149.426 63.1457L145.967 61.9865L146.622 60.7717L149.426 63.1457Z" fill="#EAD300"/>
<circle cx="152.981" cy="51.4991" r="1.52409" transform="rotate(138.309 152.981 51.4991)" fill="#D39D00"/>
<path d="M154.371 59.7862C153.438 58.7386 151.17 59.2353 152.222 58.2987C153.273 57.3621 154.882 57.452 155.815 58.4996C156.748 59.5472 156.652 61.1558 155.601 62.0924C154.549 63.029 155.304 60.8338 154.371 59.7862Z" fill="#080A1E" fill-opacity="0.5"/>
<ellipse cx="139.925" cy="59.4997" rx="1.69343" ry="1.52409" transform="rotate(138.309 139.925 59.4997)" fill="#080A1E" fill-opacity="0.5"/>
<path d="M140.577 53.4588L139.439 53.3425L138.902 54.3904L138.736 53.2706L137.598 53.1542L138.633 52.5784L138.466 51.4585L139.273 52.2226L140.308 51.6468L139.771 52.6948L140.577 53.4588Z" fill="#EAD300"/>
<rect width="3.03553" height="1.52124" transform="matrix(-0.103363 0.994644 -0.999965 0.00838364 185.536 70.0717)" fill="#D39D00"/>
<path d="M207.489 57.772C206.593 57.781 205.818 59.1531 205.852 58.2034C205.886 57.2537 206.64 56.4765 207.536 56.4674C208.432 56.4584 209.131 57.221 209.097 58.1707C209.063 59.1204 208.385 57.7629 207.489 57.772Z" fill="#F1BE4B"/>
<path d="M209.486 51.5166L205.859 51.1943L206.19 49.9433L209.486 51.5166Z" fill="#DADADA"/>
<path d="M220.223 70.3369L220.151 69.2229L219.01 68.9908L220.107 68.5344L220.035 67.4204L220.785 68.2524L221.883 67.7961L221.249 68.7666L221.999 69.5986L220.857 69.3664L220.223 70.3369Z" fill="#7C7F97"/>
<path d="M207.495 67.7453L204.692 65.412L205.742 64.5168L207.495 67.7453Z" fill="#EAD300"/>
<circle cx="215.029" cy="58.1781" r="1.52409" transform="rotate(159.551 215.029 58.1781)" fill="#D39D00"/>
<path d="M213.322 66.4056C212.831 65.0911 210.538 64.7326 211.857 64.2406C213.177 63.7485 214.644 64.4153 215.134 65.7298C215.624 67.0443 214.952 68.5087 213.632 69.0007C212.313 69.4927 213.812 67.7201 213.322 66.4056Z" fill="#080A1E" fill-opacity="0.5"/>
<ellipse cx="199.961" cy="60.9049" rx="1.69343" ry="1.52409" transform="rotate(159.551 199.961 60.9049)" fill="#080A1E" fill-opacity="0.5"/>
<path d="M202.758 55.5109L201.739 54.9901L200.859 55.7725L201.11 54.6683L200.091 54.1475L201.264 53.9858L201.515 52.8816L201.99 53.8859L203.163 53.7243L202.283 54.5066L202.758 55.5109Z" fill="#EAD300"/>
<rect width="3.03553" height="1.52124" transform="matrix(0.73873 -0.674001 0.752298 0.658823 265.512 100.103)" fill="#D39D00"/>
<rect width="2.1508" height="3.29391" transform="matrix(0.941199 0.337854 -0.413652 0.910435 261.455 92.2995)" fill="#080A1E" fill-opacity="0.5"/>
<path d="M277.346 94.1289C278.188 94.4334 279.394 93.4186 279.03 94.2966C278.667 95.1746 277.689 95.6395 276.846 95.3349C276.003 95.0303 275.615 94.0717 275.979 93.1937C276.342 92.3157 276.503 93.8243 277.346 94.1289Z" fill="#F1BE4B"/>
<path d="M273.289 99.2925L276.575 100.862L275.828 101.918L273.289 99.2925Z" fill="#DADADA"/>
<rect width="4.24269" height="1.40765" transform="matrix(-0.996291 -0.24791 0.266619 -0.935069 266.335 86.0284)" fill="#DADADA"/>
<path d="M269.804 77.9071L269.482 78.976L270.471 79.5924L269.283 79.6366L268.961 80.7054L268.549 79.6639L267.361 79.7081L268.294 79.0202L267.883 77.9786L268.871 78.595L269.804 77.9071Z" fill="#7C7F97"/>
<path d="M280.824 84.7819L282.636 87.9477L281.339 88.4195L280.824 84.7819Z" fill="#EAD300"/>
<circle cx="270.423" cy="91.114" r="1.52409" fill="#D39D00"/>
<circle cx="253.15" cy="96.1943" r="1.52409" fill="#D39D00"/>
<path d="M274.897 84.0017C274.897 85.4046 276.921 86.5419 275.513 86.5419C274.105 86.5419 272.963 85.4046 272.963 84.0017C272.963 82.5989 274.105 81.4616 275.513 81.4616C276.921 81.4616 274.897 82.5989 274.897 84.0017Z" fill="#080A1E" fill-opacity="0.5"/>
<ellipse cx="285.494" cy="93.8236" rx="1.69343" ry="1.52409" fill="#080A1E" fill-opacity="0.5"/>
<path d="M280.989 97.9005L281.761 98.7444L282.859 98.3188L282.239 99.266L283.011 100.11L281.855 99.8513L281.235 100.798L281.141 99.6916L279.985 99.433L281.083 99.0074L280.989 97.9005Z" fill="#EAD300"/>
<rect width="3.03553" height="1.52124" transform="matrix(0.520291 0.853989 -0.790529 0.612424 293.285 97.1772)" fill="#D39D00"/>
<rect width="2.1508" height="3.29391" transform="matrix(-0.511608 0.859219 -0.814528 -0.580124 301.72 94.6882)" fill="#080A1E" fill-opacity="0.5"/>
<rect width="4.24269" height="1.40765" transform="matrix(0.43386 -0.930494 0.866825 0.440516 306.942 100.677)" fill="#DADADA"/>
<path d="M314.25 105.635L313.263 105.115L312.468 105.967L312.652 104.793L311.665 104.272L312.766 104.067L312.95 102.893L313.446 103.94L314.547 103.735L313.753 104.588L314.25 105.635Z" fill="#7C7F97"/>
<path d="M240.159 66.5224L236.705 67.695L236.49 66.3319L240.159 66.5224Z" fill="#EAD300"/>
<path d="M242.058 60.854C240.681 60.5857 239.178 62.3546 239.447 60.9723C239.717 59.5901 241.051 58.687 242.428 58.9553C243.805 59.2236 244.703 60.5616 244.434 61.9439C244.165 63.3261 243.435 61.1223 242.058 60.854Z" fill="#080A1E" fill-opacity="0.5"/>
<rect width="3.03553" height="1.52124" transform="matrix(-0.939061 0.343752 -0.446492 -0.894788 301.909 69.7629)" fill="#D39D00"/>
<rect width="2.1508" height="3.29391" transform="matrix(-0.742944 -0.669353 0.727838 -0.685749 302.705 78.5218)" fill="#080A1E" fill-opacity="0.5"/>
<path d="M288.694 70.8069C288.029 70.2057 286.529 70.6879 287.198 70.0132C287.867 69.3385 288.949 69.2789 289.613 69.8801C290.277 70.4813 290.273 71.5156 289.604 72.1903C288.935 72.865 289.358 71.4081 288.694 70.8069Z" fill="#F1BE4B"/>
<path d="M294.405 67.5658L291.958 64.868L293.05 64.1737L294.405 67.5658Z" fill="#DADADA"/>
<rect width="4.24269" height="1.40765" transform="matrix(0.828014 0.606999 -0.601109 0.764269 295.813 82.4756)" fill="#DADADA"/>
<path d="M289.525 88.6764L290.228 87.8094L289.546 86.8642L290.662 87.2735L291.365 86.4064L291.352 87.5264L292.468 87.9356L291.343 88.2186L291.33 89.3386L290.649 88.3935L289.525 88.6764Z" fill="#7C7F97"/>
<path d="M281.932 78.138L281.456 74.5219L282.834 74.5768L281.932 78.138Z" fill="#EAD300"/>
<circle cx="293.957" cy="76.2203" r="1.52409" transform="rotate(-157.729 293.957 76.2203)" fill="#D39D00"/>
<path d="M287.121 81.1066C287.653 79.8083 286.211 77.9889 287.514 78.5226C288.817 79.0563 289.443 80.5414 288.911 81.8397C288.379 83.1379 286.892 83.7577 285.589 83.2239C284.286 82.6902 286.589 82.4048 287.121 81.1066Z" fill="#080A1E" fill-opacity="0.5"/>
<ellipse cx="281.037" cy="68.0009" rx="1.69343" ry="1.52409" transform="rotate(-157.729 281.037 68.0009)" fill="#080A1E" fill-opacity="0.5"/>
<path d="M286.751 65.9354L286.356 64.8617L285.179 64.8395L286.112 64.1981L285.717 63.1244L286.689 63.8017L287.622 63.1604L287.289 64.2204L288.261 64.8977L287.084 64.8754L286.751 65.9354Z" fill="#EAD300"/>
<rect width="3.03553" height="1.52124" transform="matrix(-0.671388 0.741107 -0.811462 -0.584406 325.874 80.8296)" fill="#D39D00"/>
<rect width="2.1508" height="3.29391" transform="matrix(-0.969029 -0.246949 0.325326 -0.945602 330.653 88.2127)" fill="#080A1E" fill-opacity="0.5"/>
<path d="M314.661 87.9004C313.794 87.6772 312.69 88.802 312.968 87.8934C313.247 86.9849 314.176 86.4292 315.044 86.6524C315.912 86.8756 316.389 87.793 316.111 88.7016C315.832 89.6101 315.529 88.1236 314.661 87.9004Z" fill="#F1BE4B"/>
<path d="M318.209 82.3749L314.789 81.1246L315.433 80.0021L318.209 82.3749Z" fill="#DADADA"/>
<rect width="4.24269" height="1.40765" transform="matrix(1.01533 0.15218 -0.176618 0.956162 326.391 94.9185)" fill="#DADADA"/>
<path d="M323.709 103.333L323.928 102.238L322.886 101.719L324.064 101.562L324.283 100.467L324.792 101.465L325.97 101.308L325.106 102.082L325.615 103.079L324.573 102.56L323.709 103.333Z" fill="#7C7F97"/>
<path d="M312.086 97.5355L309.982 94.5561L311.228 93.9633L312.086 97.5355Z" fill="#EAD300"/>
<circle cx="321.839" cy="90.2444" r="1.52409" transform="rotate(174.551 321.839 90.2444)" fill="#D39D00"/>
<path d="M318.06 97.7494C317.927 96.3528 315.805 95.4129 317.206 95.2791C318.608 95.1454 319.853 96.1691 319.986 97.5657C320.119 98.9622 319.091 100.203 317.689 100.336C316.287 100.47 318.194 99.1459 318.06 97.7494Z" fill="#080A1E" fill-opacity="0.5"/>
<ellipse cx="306.578" cy="88.9779" rx="1.69343" ry="1.52409" transform="rotate(174.551 306.578 88.9779)" fill="#080A1E" fill-opacity="0.5"/>
<path d="M310.676 84.4916L309.827 83.7249L308.775 84.2528L309.302 83.251L308.453 82.4843L309.628 82.6319L310.156 81.6301L310.355 82.7231L311.53 82.8707L310.478 83.3986L310.676 84.4916Z" fill="#EAD300"/>
<rect width="3.03553" height="1.52124" transform="matrix(-0.671388 0.741107 -0.811462 -0.584406 348.279 62.2434)" fill="#D39D00"/>
<ellipse cx="298.506" cy="51.4264" rx="1.69343" ry="1.52409" transform="rotate(-21.2414 298.506 51.4264)" fill="#080A1E" fill-opacity="0.5"/>
<rect width="3.03553" height="1.52124" transform="matrix(0.794342 0.607471 -0.514943 0.857225 306.982 51.7301)" fill="#D39D00"/>
<rect width="2.1508" height="3.29391" transform="matrix(-0.165558 0.9862 -0.969369 -0.24561 313.942 46.3537)" fill="#080A1E" fill-opacity="0.5"/>
<path d="M314.96 62.3163C314.81 63.1996 316.023 64.2062 315.094 64.004C314.165 63.8019 313.534 62.922 313.685 62.0387C313.835 61.1553 314.71 60.6031 315.638 60.8053C316.567 61.0074 315.11 61.433 314.96 62.3163Z" fill="#F1BE4B"/>
<path d="M309.159 59.2398L308.197 62.7523L307.025 62.204L309.159 59.2398Z" fill="#DADADA"/>
<rect width="4.24269" height="1.40765" transform="matrix(0.0672688 -1.02447 0.967532 0.0965394 320.979 50.0437)" fill="#DADADA"/>
<path d="M329.587 52.0172L328.478 51.8898L328.047 52.9721L327.793 51.8111L326.684 51.6838L327.636 51.0936L327.382 49.9326L328.224 50.7288L329.176 50.1386L328.745 51.2209L329.587 52.0172Z" fill="#7C7F97"/>
<path d="M324.776 64.0818L321.982 66.426L321.287 65.2334L324.776 64.0818Z" fill="#EAD300"/>
<circle cx="316.699" cy="54.9684" r="1.52409" transform="rotate(79.7835 316.699 54.9684)" fill="#D39D00"/>
<path d="M324.493 58.1106C323.112 58.3594 322.352 60.5527 322.102 59.1668C321.852 57.7809 322.769 56.4557 324.149 56.2069C325.53 55.958 326.852 56.8798 327.102 58.2657C327.351 59.6517 325.873 57.8617 324.493 58.1106Z" fill="#080A1E" fill-opacity="0.5"/>
<path d="M303.74 63.0329C302.36 63.2817 301.6 65.475 301.35 64.0891C301.1 62.7032 302.017 61.378 303.397 61.1292C304.778 60.8804 306.1 61.8021 306.349 63.1881C306.599 64.574 305.121 62.784 303.74 63.0329Z" fill="#080A1E" fill-opacity="0.5"/>
<ellipse cx="316.706" cy="70.2818" rx="1.69343" ry="1.52409" transform="rotate(79.7835 316.706 70.2818)" fill="#080A1E" fill-opacity="0.5"/>
<path d="M311.895 66.5708L311.201 67.4808L311.815 68.4857L310.772 68.0431L310.079 68.9531L310.128 67.7696L309.086 67.3271L310.159 67.0382L310.208 65.8547L310.822 66.8597L311.895 66.5708Z" fill="#EAD300"/>
<rect width="3.03553" height="1.52124" transform="matrix(0.0407619 0.999169 -0.988363 0.152112 275.57 73.6393)" fill="#D39D00"/>
<path d="M263.502 74.2886C262.727 74.7378 262.728 76.3137 262.29 75.4705C261.852 74.6273 262.125 73.5795 262.9 73.1303C263.676 72.6811 264.659 73.0006 265.098 73.8438C265.536 74.687 264.278 73.8394 263.502 74.2886Z" fill="#F1BE4B"/>
<path d="M266.682 60.9802L263.366 62.4865L263.039 61.2346L266.682 60.9802Z" fill="#DADADA"/>
<rect width="4.24269" height="1.40765" transform="matrix(0.991675 0.265773 -0.283378 0.930127 258.966 51.3358)" fill="#DADADA"/>
<path d="M255.352 59.3938L255.693 58.3309L254.716 57.6968L255.904 57.674L256.245 56.6111L256.638 57.6599L257.827 57.6371L256.881 58.3081L257.275 59.3569L256.297 58.7228L255.352 59.3938Z" fill="#7C7F97"/>
<circle cx="269.855" cy="66.6911" r="1.52409" transform="rotate(130.04 269.855 66.6911)" fill="#D39D00"/>
<path d="M250.369 53.2088C250.394 51.8061 248.392 50.6327 249.8 50.658C251.208 50.6833 252.329 51.8409 252.303 53.2435C252.278 54.6462 251.116 55.7628 249.708 55.7375C248.3 55.7122 250.344 54.6114 250.369 53.2088Z" fill="#080A1E" fill-opacity="0.5"/>
<rect width="3.03553" height="1.52124" transform="matrix(-0.750723 0.660618 -0.740338 -0.672235 251.727 69.1149)" fill="#D39D00"/>
<rect width="2.1508" height="3.29391" transform="matrix(-0.934976 -0.354712 0.429945 -0.902855 255.643 76.9901)" fill="#080A1E" fill-opacity="0.5"/>
<path d="M239.788 74.8756C238.951 74.5559 237.727 75.5489 238.106 74.6776C238.486 73.8063 239.472 73.359 240.309 73.6787C241.146 73.9984 241.517 74.9638 241.138 75.8352C240.758 76.7065 240.625 75.1952 239.788 74.8756Z" fill="#F1BE4B"/>
<path d="M243.937 69.7859L240.679 68.1577L241.446 67.115L243.937 69.7859Z" fill="#DADADA"/>
<rect width="4.24269" height="1.40765" transform="matrix(0.991675 0.265773 -0.283378 0.930127 250.651 83.1725)" fill="#DADADA"/>
<path d="M247.037 91.2303L247.378 90.1674L246.4 89.5333L247.589 89.5105L247.93 88.4476L248.323 89.4964L249.511 89.4735L248.566 90.1445L248.959 91.1933L247.982 90.5592L247.037 91.2303Z" fill="#7C7F97"/>
<circle cx="246.655" cy="78.0145" r="1.52409" transform="rotate(-178.97 246.655 78.0145)" fill="#D39D00"/>
<path d="M242.054 85.0453C242.079 83.6426 240.076 82.4692 241.484 82.4945C242.892 82.5198 244.013 83.6774 243.988 85.08C243.963 86.4827 242.801 87.5992 241.393 87.5739C239.985 87.5486 242.029 86.4479 242.054 85.0453Z" fill="#080A1E" fill-opacity="0.5"/>
<path d="M260.537 68.0941L259.394 68.1427L259.013 69.2569L258.687 68.1727L257.544 68.2212L258.486 67.5025L258.16 66.4182L259.068 67.0584L260.009 66.3397L259.629 67.454L260.537 68.0941Z" fill="#EAD300"/>
<rect width="3.03553" height="1.52124" transform="matrix(-0.357274 0.934 -0.968062 -0.250712 286.389 38.9106)" fill="#D39D00"/>
<rect width="2.1508" height="3.29391" transform="matrix(-0.992664 0.120905 -0.0393657 -0.999225 293.519 44.0604)" fill="#080A1E" fill-opacity="0.5"/>
<path d="M278.5 49.5633C277.61 49.6697 276.989 51.118 276.919 50.1702C276.85 49.2224 277.515 48.3678 278.405 48.2614C279.294 48.1551 280.072 48.8371 280.141 49.7849C280.211 50.7327 279.39 49.4569 278.5 49.5633Z" fill="#F1BE4B"/>
<path d="M279.805 43.1278L276.164 43.2016L276.357 41.9221L279.805 43.1278Z" fill="#DADADA"/>
<rect width="4.24269" height="1.40765" transform="matrix(1.00149 -0.226011 0.181796 0.95519 291.976 51.855)" fill="#DADADA"/>
<path d="M274.221 65.0518L274.029 63.9522L272.869 63.8456L273.91 63.2726L273.717 62.173L274.553 62.9185L275.595 62.3456L275.07 63.3793L275.906 64.1248L274.746 64.0181L274.221 65.0518Z" fill="#7C7F97"/>
<path d="M279.59 59.4769L276.55 57.4622L277.497 56.4581L279.59 59.4769Z" fill="#EAD300"/>
<circle cx="286.039" cy="49.1475" r="1.52409" transform="rotate(153.309 286.039 49.1475)" fill="#D39D00"/>
<path d="M285.236 57.5117C284.606 56.2583 282.287 56.1512 283.545 55.5187C284.804 54.8861 286.334 55.3895 286.965 56.6429C287.595 57.8963 287.086 59.4251 285.827 60.0577C284.569 60.6902 285.866 58.7651 285.236 57.5117Z" fill="#080A1E" fill-opacity="0.5"/>
<ellipse cx="271.356" cy="53.4961" rx="1.69343" ry="1.52409" transform="rotate(153.309 271.356 53.4961)" fill="#080A1E" fill-opacity="0.5"/>
<path d="M273.551 47.83L272.481 47.423L271.692 48.2964L271.82 47.1715L270.751 46.7645L271.9 46.4763L272.029 45.3514L272.61 46.2981L273.759 46.0099L272.969 46.8832L273.551 47.83Z" fill="#EAD300"/>
<rect width="3.03553" height="1.52124" transform="matrix(-0.357274 0.934 -0.968062 -0.250712 312.678 75.513)" fill="#D39D00"/>
<path d="M337.066 69.3142C336.198 69.0911 335.095 70.2158 335.373 69.3072C335.652 68.3987 336.581 67.843 337.449 68.0662C338.317 68.2894 338.794 69.2068 338.516 70.1154C338.237 71.024 337.934 69.5374 337.066 69.3142Z" fill="#F1BE4B"/>
<path d="M340.614 63.7889L337.194 62.5387L337.838 61.4161L340.614 63.7889Z" fill="#DADADA"/>
<path d="M346.114 84.7468L346.333 83.6522L345.29 83.1325L346.468 82.9757L346.688 81.8811L347.197 82.8788L348.375 82.7221L347.511 83.4954L348.02 84.4932L346.977 83.9734L346.114 84.7468Z" fill="#7C7F97"/>
<path d="M334.491 78.9494L332.387 75.9699L333.633 75.3771L334.491 78.9494Z" fill="#EAD300"/>
<circle cx="344.244" cy="71.658" r="1.52409" transform="rotate(174.551 344.244 71.658)" fill="#D39D00"/>
<path d="M340.465 79.1634C340.332 77.7669 338.209 76.8269 339.611 76.6932C341.013 76.5595 342.258 77.5832 342.391 78.9797C342.524 80.3763 341.496 81.6168 340.094 81.7505C338.692 81.8843 340.598 80.56 340.465 79.1634Z" fill="#080A1E" fill-opacity="0.5"/>
<ellipse cx="328.983" cy="70.3919" rx="1.69343" ry="1.52409" transform="rotate(174.551 328.983 70.3919)" fill="#080A1E" fill-opacity="0.5"/>
<path d="M333.081 65.9056L332.232 65.1389L331.18 65.6669L331.707 64.6651L330.858 63.8984L332.033 64.046L332.561 63.0442L332.76 64.1372L333.935 64.2848L332.882 64.8127L333.081 65.9056Z" fill="#EAD300"/>
<rect width="3.03553" height="1.52124" transform="matrix(-0.73873 0.674001 -0.752298 -0.658823 426.488 45.6753)" fill="#D39D00"/>
<rect width="2.1508" height="3.29391" transform="matrix(-0.941199 -0.337853 0.413652 -0.910435 430.545 53.4788)" fill="#080A1E" fill-opacity="0.5"/>
<path d="M414.654 51.6495C413.812 51.3449 412.606 52.3597 412.97 51.4817C413.333 50.6037 414.311 50.1389 415.154 50.4434C415.997 50.748 416.385 51.7067 416.021 52.5847C415.658 53.4627 415.497 51.954 414.654 51.6495Z" fill="#F1BE4B"/>
<path d="M418.711 46.4858L415.425 44.9164L416.172 43.8601L418.711 46.4858Z" fill="#DADADA"/>
<rect width="4.24269" height="1.40765" transform="matrix(0.996291 0.24791 -0.266618 0.935069 425.665 59.7499)" fill="#DADADA"/>
<path d="M422.196 67.8712L422.518 66.8023L421.529 66.1859L422.717 66.1417L423.039 65.0729L423.451 66.1144L424.639 66.0703L423.705 66.7582L424.117 67.7997L423.129 67.1833L422.196 67.8712Z" fill="#7C7F97"/>
<path d="M411.176 60.9964L409.364 57.8306L410.661 57.3588L411.176 60.9964Z" fill="#EAD300"/>
<circle cx="421.577" cy="54.6643" r="1.52409" transform="rotate(180 421.577 54.6643)" fill="#D39D00"/>
<circle cx="438.85" cy="49.584" r="1.52409" transform="rotate(180 438.85 49.584)" fill="#D39D00"/>
<path d="M417.103 61.7766C417.103 60.3737 415.079 59.2364 416.487 59.2364C417.895 59.2364 419.037 60.3737 419.037 61.7766C419.037 63.1795 417.895 64.3167 416.487 64.3167C415.079 64.3167 417.103 63.1795 417.103 61.7766Z" fill="#080A1E" fill-opacity="0.5"/>
<ellipse cx="406.506" cy="51.9547" rx="1.69343" ry="1.52409" transform="rotate(180 406.506 51.9547)" fill="#080A1E" fill-opacity="0.5"/>
<path d="M411.011 47.8778L410.239 47.0339L409.141 47.4595L409.761 46.5124L408.989 45.6685L410.145 45.927L410.765 44.9799L410.859 46.0868L412.015 46.3453L410.917 46.7709L411.011 47.8778Z" fill="#EAD300"/>
<rect width="3.03553" height="1.52124" transform="matrix(-0.520291 -0.853989 0.790529 -0.612424 398.715 48.6011)" fill="#D39D00"/>
<rect width="2.1508" height="3.29391" transform="matrix(0.511608 -0.859219 0.814528 0.580124 390.28 51.0901)" fill="#080A1E" fill-opacity="0.5"/>
<rect width="4.24269" height="1.40765" transform="matrix(-0.43386 0.930494 -0.866825 -0.440516 385.058 45.1016)" fill="#DADADA"/>
<path d="M377.75 40.1433L378.737 40.6638L379.531 39.8112L379.348 40.9854L380.335 41.5059L379.234 41.7111L379.05 42.8853L378.554 41.838L377.452 42.0432L378.247 41.1906L377.75 40.1433Z" fill="#7C7F97"/>
<path d="M451.841 79.2559L455.295 78.0833L455.51 79.4464L451.841 79.2559Z" fill="#EAD300"/>
<path d="M449.942 84.9243C451.319 85.1926 452.822 83.4237 452.553 84.806C452.283 86.1882 450.949 87.0913 449.572 86.823C448.195 86.5547 447.297 85.2167 447.566 83.8345C447.835 82.4522 448.565 84.6561 449.942 84.9243Z" fill="#080A1E" fill-opacity="0.5"/>
<rect width="3.03553" height="1.52124" transform="matrix(0.939061 -0.343752 0.446492 0.894788 390.091 76.0155)" fill="#D39D00"/>
<rect width="2.1508" height="3.29391" transform="matrix(0.742944 0.669353 -0.727838 0.685749 389.295 67.2565)" fill="#080A1E" fill-opacity="0.5"/>
<path d="M403.306 74.9714C403.971 75.5726 405.471 75.0904 404.802 75.7651C404.132 76.4398 403.051 76.4994 402.387 75.8982C401.723 75.297 401.727 74.2627 402.396 73.588C403.065 72.9133 402.642 74.3702 403.306 74.9714Z" fill="#F1BE4B"/>
<path d="M397.595 78.2125L400.042 80.9104L398.95 81.6046L397.595 78.2125Z" fill="#DADADA"/>
<rect width="4.24269" height="1.40765" transform="matrix(-0.828014 -0.606999 0.601109 -0.764269 396.187 63.3027)" fill="#DADADA"/>
<path d="M402.475 57.1019L401.772 57.969L402.454 58.9141L401.338 58.5048L400.635 59.3719L400.648 58.2519L399.532 57.8427L400.656 57.5597L400.67 56.4397L401.351 57.3849L402.475 57.1019Z" fill="#7C7F97"/>
<path d="M410.068 67.6403L410.544 71.2564L409.166 71.2015L410.068 67.6403Z" fill="#EAD300"/>
<circle cx="398.043" cy="69.558" r="1.52409" transform="rotate(22.271 398.043 69.558)" fill="#D39D00"/>
<path d="M404.879 64.6718C404.347 65.97 405.789 67.7894 404.486 67.2557C403.183 66.722 402.557 65.2369 403.089 63.9387C403.62 62.6404 405.108 62.0207 406.411 62.5544C407.714 63.0881 405.411 63.3735 404.879 64.6718Z" fill="#080A1E" fill-opacity="0.5"/>
<ellipse cx="410.963" cy="77.7774" rx="1.69343" ry="1.52409" transform="rotate(22.271 410.963 77.7774)" fill="#080A1E" fill-opacity="0.5"/>
<path d="M405.249 79.8429L405.644 80.9166L406.821 80.9389L405.888 81.5802L406.283 82.6539L405.311 81.9766L404.378 82.6179L404.711 81.558L403.739 80.8806L404.916 80.9029L405.249 79.8429Z" fill="#EAD300"/>
<rect width="3.03553" height="1.52124" transform="matrix(0.671387 -0.741107 0.811462 0.584406 366.126 64.9488)" fill="#D39D00"/>
<rect width="2.1508" height="3.29391" transform="matrix(0.969029 0.246949 -0.325326 0.945602 361.347 57.5656)" fill="#080A1E" fill-opacity="0.5"/>
<path d="M377.339 57.8779C378.206 58.1011 379.31 56.9763 379.032 57.8849C378.753 58.7935 377.824 59.3491 376.956 59.1259C376.088 58.9028 375.61 57.9853 375.889 57.0768C376.168 56.1682 376.471 57.6548 377.339 57.8779Z" fill="#F1BE4B"/>
<path d="M373.79 63.4034L377.211 64.6537L376.567 65.7762L373.79 63.4034Z" fill="#DADADA"/>
<rect width="4.24269" height="1.40765" transform="matrix(-1.01533 -0.15218 0.176618 -0.956162 365.609 50.8598)" fill="#DADADA"/>
<path d="M368.291 42.4453L368.072 43.5399L369.114 44.0597L367.936 44.2165L367.717 45.3111L367.208 44.3133L366.03 44.4701L366.894 43.6967L366.385 42.699L367.427 43.2187L368.291 42.4453Z" fill="#7C7F97"/>
<path d="M379.914 48.2428L382.018 51.2222L380.772 51.815L379.914 48.2428Z" fill="#EAD300"/>
<circle cx="370.161" cy="55.5339" r="1.52409" transform="rotate(-5.44913 370.161 55.5339)" fill="#D39D00"/>
<path d="M373.94 48.029C374.073 49.4255 376.195 50.3655 374.794 50.4992C373.392 50.6329 372.147 49.6092 372.014 48.2127C371.881 46.8161 372.909 45.5756 374.311 45.4419C375.713 45.3081 373.806 46.6324 373.94 48.029Z" fill="#080A1E" fill-opacity="0.5"/>
<ellipse cx="385.422" cy="56.8005" rx="1.69343" ry="1.52409" transform="rotate(-5.44913 385.422 56.8005)" fill="#080A1E" fill-opacity="0.5"/>
<path d="M381.324 61.2867L382.173 62.0535L383.225 61.5255L382.698 62.5273L383.547 63.294L382.372 63.1464L381.844 64.1482L381.645 63.0552L380.47 62.9076L381.522 62.3797L381.324 61.2867Z" fill="#EAD300"/>
<rect width="3.03553" height="1.52124" transform="matrix(0.671387 -0.741107 0.811462 0.584406 343.721 83.5349)" fill="#D39D00"/>
<ellipse cx="393.494" cy="94.3519" rx="1.69343" ry="1.52409" transform="rotate(158.759 393.494 94.3519)" fill="#080A1E" fill-opacity="0.5"/>
<rect width="3.03553" height="1.52124" transform="matrix(-0.794342 -0.607471 0.514943 -0.857225 385.018 94.0483)" fill="#D39D00"/>
<rect width="2.1508" height="3.29391" transform="matrix(0.165558 -0.9862 0.969369 0.24561 378.058 99.4246)" fill="#080A1E" fill-opacity="0.5"/>
<path d="M377.04 83.462C377.19 82.5787 375.977 81.5721 376.906 81.7743C377.835 81.9764 378.466 82.8563 378.315 83.7397C378.165 84.623 377.29 85.1752 376.362 84.9731C375.433 84.7709 376.889 84.3453 377.04 83.462Z" fill="#F1BE4B"/>
<path d="M382.841 86.5385L383.803 83.026L384.975 83.5743L382.841 86.5385Z" fill="#DADADA"/>
<rect width="4.24269" height="1.40765" transform="matrix(-0.0672687 1.02447 -0.967532 -0.0965393 371.021 95.7347)" fill="#DADADA"/>
<path d="M362.413 93.7612L363.522 93.8885L363.953 92.8062L364.207 93.9672L365.316 94.0946L364.364 94.6848L364.618 95.8458L363.776 95.0495L362.824 95.6397L363.255 94.5574L362.413 93.7612Z" fill="#7C7F97"/>
<path d="M367.224 81.6965L370.018 79.3523L370.713 80.5449L367.224 81.6965Z" fill="#EAD300"/>
<circle cx="375.301" cy="90.8099" r="1.52409" transform="rotate(-100.217 375.301 90.8099)" fill="#D39D00"/>
<path d="M367.507 87.6678C368.888 87.4189 369.648 85.2256 369.898 86.6115C370.148 87.9974 369.231 89.3226 367.85 89.5715C366.47 89.8203 365.148 88.8985 364.898 87.5126C364.649 86.1267 366.127 87.9166 367.507 87.6678Z" fill="#080A1E" fill-opacity="0.5"/>
<path d="M388.26 82.7455C389.64 82.4966 390.4 80.3033 390.65 81.6892C390.9 83.0751 389.983 84.4003 388.603 84.6491C387.222 84.898 385.9 83.9762 385.65 82.5903C385.401 81.2044 386.879 82.9943 388.26 82.7455Z" fill="#080A1E" fill-opacity="0.5"/>
<ellipse cx="375.294" cy="75.4966" rx="1.69343" ry="1.52409" transform="rotate(-100.217 375.294 75.4966)" fill="#080A1E" fill-opacity="0.5"/>
<path d="M380.105 79.2075L380.799 78.2976L380.185 77.2926L381.228 77.7352L381.921 76.8252L381.872 78.0087L382.914 78.4513L381.841 78.7401L381.792 79.9236L381.178 78.9187L380.105 79.2075Z" fill="#EAD300"/>
<rect width="3.03553" height="1.52124" transform="matrix(-0.0407619 -0.999169 0.988363 -0.152112 416.43 72.139)" fill="#D39D00"/>
<path d="M428.498 71.4897C429.273 71.0405 429.272 69.4646 429.71 70.3078C430.148 71.1511 429.875 72.1988 429.1 72.648C428.324 73.0972 427.341 72.7778 426.902 71.9345C426.464 71.0913 427.722 71.9389 428.498 71.4897Z" fill="#F1BE4B"/>
<path d="M425.318 84.7981L428.634 83.2919L428.961 84.5437L425.318 84.7981Z" fill="#DADADA"/>
<rect width="4.24269" height="1.40765" transform="matrix(-0.991675 -0.265773 0.283378 -0.930127 433.033 94.4425)" fill="#DADADA"/>
<path d="M436.648 86.3845L436.307 87.4474L437.284 88.0815L436.096 88.1043L435.755 89.1672L435.361 88.1184L434.173 88.1413L435.118 87.4703L434.725 86.4215L435.703 87.0555L436.648 86.3845Z" fill="#7C7F97"/>
<circle cx="422.145" cy="79.0872" r="1.52409" transform="rotate(-49.9595 422.145 79.0872)" fill="#D39D00"/>
<path d="M441.631 92.5695C441.605 93.9722 443.608 95.1456 442.2 95.1203C440.792 95.095 439.671 93.9374 439.697 92.5348C439.722 91.1321 440.884 90.0156 442.292 90.0409C443.7 90.0662 441.656 91.1669 441.631 92.5695Z" fill="#080A1E" fill-opacity="0.5"/>
<rect width="3.03553" height="1.52124" transform="matrix(0.750723 -0.660618 0.740338 0.672235 440.273 76.6634)" fill="#D39D00"/>
<rect width="2.1508" height="3.29391" transform="matrix(0.934976 0.354712 -0.429945 0.902855 436.357 68.7882)" fill="#080A1E" fill-opacity="0.5"/>
<path d="M452.212 70.9028C453.049 71.2224 454.273 70.2294 453.893 71.1007C453.514 71.9721 452.528 72.4193 451.691 72.0996C450.854 71.78 450.483 70.8145 450.862 69.9432C451.242 69.0718 451.375 70.5831 452.212 70.9028Z" fill="#F1BE4B"/>
<path d="M448.063 75.9924L451.321 77.6206L450.554 78.6633L448.063 75.9924Z" fill="#DADADA"/>
<rect width="4.24269" height="1.40765" transform="matrix(-0.991675 -0.265773 0.283378 -0.930127 441.349 62.6058)" fill="#DADADA"/>
<path d="M444.963 54.5481L444.622 55.611L445.6 56.245L444.411 56.2679L444.07 57.3308L443.677 56.282L442.489 56.3048L443.434 55.6338L443.041 54.585L444.018 55.2191L444.963 54.5481Z" fill="#7C7F97"/>
<circle cx="445.345" cy="67.7639" r="1.52409" transform="rotate(1.02963 445.345 67.7639)" fill="#D39D00"/>
<path d="M449.946 60.7331C449.921 62.1357 451.924 63.3092 450.516 63.2839C449.108 63.2586 447.987 62.101 448.012 60.6983C448.037 59.2957 449.199 58.1791 450.607 58.2044C452.015 58.2297 449.971 59.3304 449.946 60.7331Z" fill="#080A1E" fill-opacity="0.5"/>
<path d="M431.463 77.6842L432.606 77.6357L432.987 76.5214L433.313 77.6057L434.456 77.5571L433.514 78.2758L433.84 79.3601L432.932 78.72L431.991 79.4386L432.371 78.3243L431.463 77.6842Z" fill="#EAD300"/>
<rect width="3.03553" height="1.52124" transform="matrix(0.357274 -0.934 0.968062 0.250712 405.611 106.868)" fill="#D39D00"/>
<rect width="2.1508" height="3.29391" transform="matrix(0.992664 -0.120905 0.0393659 0.999225 398.481 101.718)" fill="#080A1E" fill-opacity="0.5"/>
<path d="M413.5 96.215C414.39 96.1086 415.011 94.6604 415.08 95.6081C415.15 96.5559 414.485 97.4105 413.595 97.5169C412.706 97.6233 411.928 96.9412 411.859 95.9934C411.789 95.0456 412.61 96.3214 413.5 96.215Z" fill="#F1BE4B"/>
<path d="M412.195 102.651L415.836 102.577L415.643 103.856L412.195 102.651Z" fill="#DADADA"/>
<rect width="4.24269" height="1.40765" transform="matrix(-1.00149 0.226011 -0.181796 -0.95519 400.024 93.9233)" fill="#DADADA"/>
<path d="M417.779 80.7265L417.971 81.8261L419.131 81.9328L418.09 82.5057L418.282 83.6053L417.447 82.8598L416.405 83.4327L416.93 82.399L416.094 81.6535L417.254 81.7602L417.779 80.7265Z" fill="#7C7F97"/>
<path d="M412.41 86.3014L415.45 88.3162L414.503 89.3202L412.41 86.3014Z" fill="#EAD300"/>
<circle cx="405.961" cy="96.6309" r="1.52409" transform="rotate(-26.6905 405.961 96.6309)" fill="#D39D00"/>
<path d="M406.764 88.2666C407.394 89.52 409.713 89.6271 408.455 90.2596C407.196 90.8922 405.666 90.3889 405.035 89.1355C404.405 87.8821 404.914 86.3532 406.173 85.7207C407.431 85.0881 406.134 87.0132 406.764 88.2666Z" fill="#080A1E" fill-opacity="0.5"/>
<ellipse cx="420.643" cy="92.2823" rx="1.69343" ry="1.52409" transform="rotate(-26.6905 420.643 92.2823)" fill="#080A1E" fill-opacity="0.5"/>
<path d="M418.449 97.9484L419.519 98.3553L420.308 97.482L420.179 98.6068L421.249 99.0138L420.1 99.3021L419.971 100.427L419.39 99.4802L418.241 99.7684L419.031 98.8951L418.449 97.9484Z" fill="#EAD300"/>
<rect width="3.03553" height="1.52124" transform="matrix(0.357274 -0.934 0.968062 0.250712 379.322 70.2653)" fill="#D39D00"/>
<path d="M354.934 76.4641C355.801 76.6873 356.905 75.5625 356.627 76.4711C356.348 77.3796 355.419 77.9353 354.551 77.7121C353.683 77.4889 353.206 76.5715 353.484 75.6629C353.763 74.7544 354.066 76.2409 354.934 76.4641Z" fill="#F1BE4B"/>
<path d="M351.386 81.9894L354.806 83.2397L354.162 84.3622L351.386 81.9894Z" fill="#DADADA"/>
<path d="M345.886 61.0315L345.667 62.1261L346.71 62.6459L345.531 62.8026L345.312 63.8972L344.803 62.8995L343.625 63.0563L344.489 62.2829L343.98 61.2852L345.022 61.8049L345.886 61.0315Z" fill="#7C7F97"/>
<path d="M357.509 66.829L359.613 69.8084L358.367 70.4012L357.509 66.829Z" fill="#EAD300"/>
<circle cx="347.756" cy="74.1203" r="1.52409" transform="rotate(-5.44913 347.756 74.1203)" fill="#D39D00"/>
<path d="M351.535 66.6152C351.668 68.0117 353.791 68.9516 352.389 69.0854C350.987 69.2191 349.742 68.1954 349.609 66.7988C349.476 65.4023 350.504 64.1618 351.906 64.028C353.308 63.8943 351.402 65.2186 351.535 66.6152Z" fill="#080A1E" fill-opacity="0.5"/>
<ellipse cx="363.017" cy="75.3864" rx="1.69343" ry="1.52409" transform="rotate(-5.44913 363.017 75.3864)" fill="#080A1E" fill-opacity="0.5"/>
<path d="M358.919 79.8727L359.768 80.6394L360.82 80.1115L360.293 81.1132L361.142 81.8799L359.967 81.7324L359.439 82.7341L359.24 81.6411L358.065 81.4936L359.117 80.9657L358.919 79.8727Z" fill="#EAD300"/>
<g filter="url(#filter0_di_2_811)">
<ellipse cx="217.5" cy="78" rx="62.5" ry="63" fill="#F1BC00"/>
</g>
<g opacity="0.4" filter="url(#filter1_b_2_811)">
<rect x="265.364" y="21.276" width="27.0306" height="145.695" transform="rotate(45.9525 265.364 21.276)" fill="url(#paint0_linear_2_811)"/>
</g>
<g opacity="0.4" filter="url(#filter2_b_2_811)">
<rect x="255.721" y="13" width="7.20556" height="145.695" transform="rotate(45.9525 255.721 13)" fill="url(#paint1_linear_2_811)"/>
</g>
<g filter="url(#filter3_d_2_811)">
<path d="M207.584 90.9167L196.306 79.35C195.699 78.7258 194.875 78.375 194.015 78.375C193.155 78.375 192.331 78.7258 191.724 79.35C190.456 80.65 190.456 82.75 191.724 84.05L205.309 97.9833C206.576 99.2833 208.624 99.2833 209.891 97.9833L244.276 62.7166C245.544 61.4166 245.544 59.3166 244.276 58.0166C243.669 57.3925 242.845 57.0417 241.985 57.0417C241.125 57.0417 240.301 57.3925 239.694 58.0166L207.584 90.9167Z" fill="white"/>
</g>
<defs>
<filter id="filter0_di_2_811" x="140" y="0" width="155" height="156" filterUnits="userSpaceOnUse" color-interpolation-filters="sRGB">
<feFlood flood-opacity="0" result="BackgroundImageFix"/>
<feColorMatrix in="SourceAlpha" type="matrix" values="0 0 0 0 0 0 0 0 0 0 0 0 0 0 0 0 0 0 127 0" result="hardAlpha"/>
<feOffset/>
<feGaussianBlur stdDeviation="7.5"/>
<feComposite in2="hardAlpha" operator="out"/>
<feColorMatrix type="matrix" values="0 0 0 0 0 0 0 0 0 0 0 0 0 0 0 0 0 0 0.15 0"/>
<feBlend mode="normal" in2="BackgroundImageFix" result="effect1_dropShadow_2_811"/>
<feBlend mode="normal" in="SourceGraphic" in2="effect1_dropShadow_2_811" result="shape"/>
<feColorMatrix in="SourceAlpha" type="matrix" values="0 0 0 0 0 0 0 0 0 0 0 0 0 0 0 0 0 0 127 0" result="hardAlpha"/>
<feOffset/>
<feGaussianBlur stdDeviation="5"/>
<feComposite in2="hardAlpha" operator="arithmetic" k2="-1" k3="1"/>
<feColorMatrix type="matrix" values="0 0 0 0 0.820833 0 0 0 0 0.638426 0 0 0 0 0 0 0 0 1 0"/>
<feBlend mode="normal" in2="shape" result="effect2_innerShadow_2_811"/>
</filter>
<filter id="filter1_b_2_811" x="156.643" y="17.276" width="131.514" height="128.724" filterUnits="userSpaceOnUse" color-interpolation-filters="sRGB">
<feFlood flood-opacity="0" result="BackgroundImageFix"/>
<feGaussianBlur in="BackgroundImage" stdDeviation="2"/>
<feComposite in2="SourceAlpha" operator="in" result="effect1_backgroundBlur_2_811"/>
<feBlend mode="normal" in="SourceGraphic" in2="effect1_backgroundBlur_2_811" result="shape"/>
</filter>
<filter id="filter2_b_2_811" x="147" y="9" width="117.73" height="114.475" filterUnits="userSpaceOnUse" color-interpolation-filters="sRGB">
<feFlood flood-opacity="0" result="BackgroundImageFix"/>
<feGaussianBlur in="BackgroundImage" stdDeviation="2"/>
<feComposite in2="SourceAlpha" operator="in" result="effect1_backgroundBlur_2_811"/>
<feBlend mode="normal" in="SourceGraphic" in2="effect1_backgroundBlur_2_811" result="shape"/>
</filter>
<filter id="filter3_d_2_811" x="180.773" y="47.0417" width="74.4537" height="61.9166" filterUnits="userSpaceOnUse" color-interpolation-filters="sRGB">
<feFlood flood-opacity="0" result="BackgroundImageFix"/>
<feColorMatrix in="SourceAlpha" type="matrix" values="0 0 0 0 0 0 0 0 0 0 0 0 0 0 0 0 0 0 127 0" result="hardAlpha"/>
<feOffset/>
<feGaussianBlur stdDeviation="5"/>
<feComposite in2="hardAlpha" operator="out"/>
<feColorMatrix type="matrix" values="0 0 0 0 0 0 0 0 0 0 0 0 0 0 0 0 0 0 0.15 0"/>
<feBlend mode="normal" in2="BackgroundImageFix" result="effect1_dropShadow_2_811"/>
<feBlend mode="normal" in="SourceGraphic" in2="effect1_dropShadow_2_811" result="shape"/>
</filter>
<linearGradient id="paint0_linear_2_811" x1="278.879" y1="21.276" x2="277.458" y2="182.431" gradientUnits="userSpaceOnUse">
<stop stop-color="white"/>
<stop offset="1" stop-color="white" stop-opacity="0"/>
</linearGradient>
<linearGradient id="paint1_linear_2_811" x1="259.323" y1="13" x2="253.998" y2="173.991" gradientUnits="userSpaceOnUse">
<stop stop-color="white"/>
<stop offset="1" stop-color="white" stop-opacity="0"/>
</linearGradient>
</defs>
</svg>
