<svg width="20" height="20" viewBox="0 0 20 20" fill="none" xmlns="http://www.w3.org/2000/svg">
<path d="M17.5176 12.4824L17.5178 12.4826C17.5201 12.4849 17.5219 12.4876 17.5231 12.4905C17.5235 12.4914 17.5238 12.4922 17.524 12.4931C17.5247 12.4953 17.525 12.4976 17.525 12.5V12.5V14.375C17.525 14.3816 17.5224 14.388 17.5177 14.3927C17.513 14.3974 17.5066 14.4 17.5 14.4H13.125H12.525V15V15.625C12.525 16.2947 12.259 16.9369 11.7854 17.4104C11.3119 17.884 10.6697 18.15 10 18.15C9.33033 18.15 8.68808 17.884 8.21456 17.4104C7.74103 16.9369 7.475 16.2947 7.475 15.625V15V14.4H6.875H2.5C2.49337 14.4 2.48701 14.3974 2.48232 14.3927C2.47763 14.388 2.475 14.3816 2.475 14.375V12.5V12.5C2.475 12.4967 2.47564 12.4935 2.47687 12.4905C2.47811 12.4876 2.47992 12.4849 2.4822 12.4826L2.4824 12.4824L4.17427 10.7904L4.35 10.6147V10.3662V8.12542C4.3519 6.72525 4.87286 5.3755 5.81217 4.33713C6.75155 3.29867 8.04262 2.64541 9.43573 2.50367L9.975 2.4488V1.90675V1.225H10.025V1.90675V2.4488L10.5643 2.50367C11.9574 2.64541 13.2484 3.29867 14.1878 4.33713C15.127 5.37539 15.648 6.72498 15.65 8.125C15.65 8.12502 15.65 8.12505 15.65 8.12507C15.65 8.12531 15.65 8.12554 15.65 8.12578L15.65 10.3662V10.6147L15.8257 10.7904L17.5176 12.4824ZM8.125 14.4H7.525V15V15.625C7.525 16.2814 7.78576 16.9109 8.24991 17.3751C8.71406 17.8392 9.34359 18.1 10 18.1C10.6564 18.1 11.2859 17.8392 11.7501 17.3751C12.2142 16.9109 12.475 16.2814 12.475 15.625V15V14.4H11.875H8.125Z" stroke="black" stroke-width="1.2"/>
</svg>
