<svg width="359" height="179" viewBox="0 0 359 179" fill="none" xmlns="http://www.w3.org/2000/svg">
<path d="M0.255 46.477C0.678333 46.137 1.01 45.8587 1.25 45.642C1.49 45.422 1.69167 45.1937 1.855 44.957C2.02167 44.717 2.105 44.482 2.105 44.252C2.105 44.0354 2.05167 43.8654 1.945 43.742C1.84167 43.6154 1.67333 43.552 1.44 43.552C1.21333 43.552 1.03667 43.6237 0.91 43.767C0.786667 43.907 0.72 44.0954 0.71 44.332H0.27C0.283333 43.9587 0.396667 43.6704 0.61 43.467C0.823333 43.2637 1.09833 43.162 1.435 43.162C1.77833 43.162 2.05 43.257 2.25 43.447C2.45333 43.637 2.555 43.8987 2.555 44.232C2.555 44.5087 2.47167 44.7787 2.305 45.042C2.14167 45.302 1.955 45.532 1.745 45.732C1.535 45.9287 1.26667 46.1587 0.94 46.422H2.66V46.802H0.255V46.477ZM5.20098 44.087C5.12764 43.717 4.89931 43.532 4.51598 43.532C4.21931 43.532 3.99764 43.647 3.85098 43.877C3.70431 44.1037 3.63264 44.4787 3.63598 45.002C3.71264 44.8287 3.83931 44.6937 4.01598 44.597C4.19598 44.497 4.39598 44.447 4.61598 44.447C4.95931 44.447 5.23264 44.5537 5.43598 44.767C5.64264 44.9804 5.74598 45.2754 5.74598 45.652C5.74598 45.8787 5.70098 46.082 5.61098 46.262C5.52431 46.442 5.39098 46.5854 5.21098 46.692C5.03431 46.7987 4.81931 46.852 4.56598 46.852C4.22264 46.852 3.95431 46.7754 3.76098 46.622C3.56764 46.4687 3.43264 46.257 3.35598 45.987C3.27931 45.717 3.24098 45.3837 3.24098 44.987C3.24098 43.7637 3.66764 43.152 4.52098 43.152C4.84764 43.152 5.10431 43.2404 5.29098 43.417C5.47764 43.5937 5.58764 43.817 5.62098 44.087H5.20098ZM4.52098 44.832C4.37764 44.832 4.24264 44.862 4.11598 44.922C3.98931 44.9787 3.88598 45.067 3.80598 45.187C3.72931 45.3037 3.69098 45.447 3.69098 45.617C3.69098 45.8704 3.76431 46.077 3.91098 46.237C4.05764 46.3937 4.26764 46.472 4.54098 46.472C4.77431 46.472 4.95931 46.4004 5.09598 46.257C5.23598 46.1104 5.30598 45.9137 5.30598 45.667C5.30598 45.407 5.23931 45.2037 5.10598 45.057C4.97264 44.907 4.77764 44.832 4.52098 44.832ZM6.3598 44.997C6.3598 44.4237 6.45314 43.977 6.6398 43.657C6.82647 43.3337 7.15314 43.172 7.6198 43.172C8.08314 43.172 8.40814 43.3337 8.5948 43.657C8.78147 43.977 8.8748 44.4237 8.8748 44.997C8.8748 45.5804 8.78147 46.0337 8.5948 46.357C8.40814 46.6804 8.08314 46.842 7.6198 46.842C7.15314 46.842 6.82647 46.6804 6.6398 46.357C6.45314 46.0337 6.3598 45.5804 6.3598 44.997ZM8.4248 44.997C8.4248 44.707 8.4048 44.462 8.3648 44.262C8.32814 44.0587 8.2498 43.8954 8.1298 43.772C8.01314 43.6487 7.84314 43.587 7.6198 43.587C7.39314 43.587 7.2198 43.6487 7.0998 43.772C6.98314 43.8954 6.9048 44.0587 6.8648 44.262C6.82814 44.462 6.8098 44.707 6.8098 44.997C6.8098 45.297 6.82814 45.5487 6.8648 45.752C6.9048 45.9554 6.98314 46.1187 7.0998 46.242C7.2198 46.3654 7.39314 46.427 7.6198 46.427C7.84314 46.427 8.01314 46.3654 8.1298 46.242C8.2498 46.1187 8.32814 45.9554 8.3648 45.752C8.4048 45.5487 8.4248 45.297 8.4248 44.997ZM13.1095 43.382V46.842H12.6545V44.262L11.5045 46.842H11.1845L10.0295 44.257V46.842H9.57445V43.382H10.0645L11.3445 46.242L12.6245 43.382H13.1095Z" fill="#7C7F97"/>
<path d="M0.255 82.1179C0.678333 81.7779 1.01 81.4996 1.25 81.2829C1.49 81.0629 1.69167 80.8346 1.855 80.5979C2.02167 80.3579 2.105 80.1229 2.105 79.8929C2.105 79.6762 2.05167 79.5062 1.945 79.3829C1.84167 79.2562 1.67333 79.1929 1.44 79.1929C1.21333 79.1929 1.03667 79.2646 0.91 79.4079C0.786667 79.5479 0.72 79.7362 0.71 79.9729H0.27C0.283333 79.5996 0.396667 79.3112 0.61 79.1079C0.823333 78.9046 1.09833 78.8029 1.435 78.8029C1.77833 78.8029 2.05 78.8979 2.25 79.0879C2.45333 79.2779 2.555 79.5396 2.555 79.8729C2.555 80.1496 2.47167 80.4196 2.305 80.6829C2.14167 80.9429 1.955 81.1729 1.745 81.3729C1.535 81.5696 1.26667 81.7996 0.94 82.0629H2.66V82.4429H0.255V82.1179ZM3.13098 82.1179C3.55431 81.7779 3.88598 81.4996 4.12598 81.2829C4.36598 81.0629 4.56764 80.8346 4.73098 80.5979C4.89764 80.3579 4.98098 80.1229 4.98098 79.8929C4.98098 79.6762 4.92764 79.5062 4.82098 79.3829C4.71764 79.2562 4.54931 79.1929 4.31598 79.1929C4.08931 79.1929 3.91264 79.2646 3.78598 79.4079C3.66264 79.5479 3.59598 79.7362 3.58598 79.9729H3.14598C3.15931 79.5996 3.27264 79.3112 3.48598 79.1079C3.69931 78.9046 3.97431 78.8029 4.31098 78.8029C4.65431 78.8029 4.92598 78.8979 5.12598 79.0879C5.32931 79.2779 5.43098 79.5396 5.43098 79.8729C5.43098 80.1496 5.34764 80.4196 5.18098 80.6829C5.01764 80.9429 4.83098 81.1729 4.62098 81.3729C4.41098 81.5696 4.14264 81.7996 3.81598 82.0629H5.53598V82.4429H3.13098V82.1179ZM6.06195 80.6379C6.06195 80.0646 6.15529 79.6179 6.34195 79.2979C6.52862 78.9746 6.85529 78.8129 7.32195 78.8129C7.78529 78.8129 8.11029 78.9746 8.29695 79.2979C8.48362 79.6179 8.57695 80.0646 8.57695 80.6379C8.57695 81.2212 8.48362 81.6746 8.29695 81.9979C8.11029 82.3212 7.78529 82.4829 7.32195 82.4829C6.85529 82.4829 6.52862 82.3212 6.34195 81.9979C6.15529 81.6746 6.06195 81.2212 6.06195 80.6379ZM8.12695 80.6379C8.12695 80.3479 8.10695 80.1029 8.06695 79.9029C8.03029 79.6996 7.95195 79.5362 7.83195 79.4129C7.71529 79.2896 7.54529 79.2279 7.32195 79.2279C7.09529 79.2279 6.92195 79.2896 6.80195 79.4129C6.68529 79.5362 6.60695 79.6996 6.56695 79.9029C6.53029 80.1029 6.51195 80.3479 6.51195 80.6379C6.51195 80.9379 6.53029 81.1896 6.56695 81.3929C6.60695 81.5962 6.68529 81.7596 6.80195 81.8829C6.92195 82.0062 7.09529 82.0679 7.32195 82.0679C7.54529 82.0679 7.71529 82.0062 7.83195 81.8829C7.95195 81.7596 8.03029 81.5962 8.06695 81.3929C8.10695 81.1896 8.12695 80.9379 8.12695 80.6379ZM12.8116 79.0229V82.4829H12.3566V79.9029L11.2066 82.4829H10.8866L9.7316 79.8979V82.4829H9.2766V79.0229H9.7666L11.0466 81.8829L12.3266 79.0229H12.8116Z" fill="#7C7F97"/>
<path d="M0.19 114.924V114.509H1.13V118.124H0.67V114.924H0.19ZM2.57156 116.244C2.3849 116.17 2.24156 116.064 2.14156 115.924C2.04156 115.784 1.99156 115.614 1.99156 115.414C1.99156 115.234 2.03656 115.072 2.12656 114.929C2.21656 114.782 2.3499 114.667 2.52656 114.584C2.70656 114.497 2.92323 114.454 3.17656 114.454C3.4299 114.454 3.6449 114.497 3.82156 114.584C4.00156 114.667 4.13656 114.782 4.22656 114.929C4.3199 115.072 4.36656 115.234 4.36656 115.414C4.36656 115.607 4.3149 115.777 4.21156 115.924C4.10823 116.067 3.96656 116.174 3.78656 116.244C3.99323 116.307 4.15656 116.419 4.27656 116.579C4.3999 116.735 4.46156 116.925 4.46156 117.149C4.46156 117.365 4.40823 117.555 4.30156 117.719C4.1949 117.879 4.04323 118.004 3.84656 118.094C3.65323 118.18 3.4299 118.224 3.17656 118.224C2.92323 118.224 2.6999 118.18 2.50656 118.094C2.31656 118.004 2.16823 117.879 2.06156 117.719C1.9549 117.555 1.90156 117.365 1.90156 117.149C1.90156 116.925 1.96156 116.734 2.08156 116.574C2.20156 116.414 2.3649 116.304 2.57156 116.244ZM3.92656 115.469C3.92656 115.265 3.8599 115.109 3.72656 114.999C3.59323 114.889 3.4099 114.834 3.17656 114.834C2.94656 114.834 2.7649 114.889 2.63156 114.999C2.49823 115.109 2.43156 115.267 2.43156 115.474C2.43156 115.66 2.4999 115.81 2.63656 115.924C2.77656 116.037 2.95656 116.094 3.17656 116.094C3.3999 116.094 3.5799 116.037 3.71656 115.924C3.85656 115.807 3.92656 115.655 3.92656 115.469ZM3.17656 116.444C2.9299 116.444 2.72823 116.502 2.57156 116.619C2.4149 116.732 2.33656 116.904 2.33656 117.134C2.33656 117.347 2.41156 117.519 2.56156 117.649C2.7149 117.779 2.9199 117.844 3.17656 117.844C3.43323 117.844 3.63656 117.779 3.78656 117.649C3.93656 117.519 4.01156 117.347 4.01156 117.134C4.01156 116.91 3.9349 116.74 3.78156 116.624C3.62823 116.504 3.42656 116.444 3.17656 116.444ZM5.06586 116.279C5.06586 115.705 5.15919 115.259 5.34586 114.939C5.53253 114.615 5.85919 114.454 6.32586 114.454C6.78919 114.454 7.11419 114.615 7.30086 114.939C7.48753 115.259 7.58086 115.705 7.58086 116.279C7.58086 116.862 7.48753 117.315 7.30086 117.639C7.11419 117.962 6.78919 118.124 6.32586 118.124C5.85919 118.124 5.53253 117.962 5.34586 117.639C5.15919 117.315 5.06586 116.862 5.06586 116.279ZM7.13086 116.279C7.13086 115.989 7.11086 115.744 7.07086 115.544C7.03419 115.34 6.95586 115.177 6.83586 115.054C6.71919 114.93 6.54919 114.869 6.32586 114.869C6.09919 114.869 5.92586 114.93 5.80586 115.054C5.68919 115.177 5.61086 115.34 5.57086 115.544C5.53419 115.744 5.51586 115.989 5.51586 116.279C5.51586 116.579 5.53419 116.83 5.57086 117.034C5.61086 117.237 5.68919 117.4 5.80586 117.524C5.92586 117.647 6.09919 117.709 6.32586 117.709C6.54919 117.709 6.71919 117.647 6.83586 117.524C6.95586 117.4 7.03419 117.237 7.07086 117.034C7.11086 116.83 7.13086 116.579 7.13086 116.279ZM11.8155 114.664V118.124H11.3605V115.544L10.2105 118.124H9.89051L8.73551 115.539V118.124H8.28051V114.664H8.77051L10.0505 117.524L11.3305 114.664H11.8155Z" fill="#7C7F97"/>
<path d="M0.67 153.764H1.13V150.149H0.19V150.564H0.67V153.764ZM3.65156 153.764H4.10156V152.959H4.60156V152.564H4.10156V150.184H3.55656L1.80156 152.614V152.959H3.65156V153.764ZM2.32656 152.564L3.67156 150.659V152.564H2.32656ZM5.05609 151.919C5.05609 152.969 5.31609 153.764 6.31609 153.764C7.31109 153.764 7.57109 152.969 7.57109 151.919C7.57109 150.884 7.31109 150.094 6.31609 150.094C5.31609 150.094 5.05609 150.884 5.05609 151.919ZM7.12109 151.919C7.12109 152.699 7.02609 153.349 6.31609 153.349C5.60109 153.349 5.50609 152.699 5.50609 151.919C5.50609 151.169 5.60109 150.509 6.31609 150.509C7.02609 150.509 7.12109 151.169 7.12109 151.919ZM8.27074 153.764H8.72574V151.179L9.88074 153.764H10.2007L11.3507 151.184V153.764H11.8057V150.304H11.3207L10.0407 153.164L8.76074 150.304H8.27074V153.764Z" fill="#7C7F97"/>
<line x1="24.2241" y1="38.7871" x2="356.756" y2="38.7871" stroke="#ECE9F1"/>
<line x1="24.2241" y1="74.428" x2="356.756" y2="74.428" stroke="#ECE9F1"/>
<line x1="24.2241" y1="110.068" x2="356.756" y2="110.068" stroke="#ECE9F1"/>
<line x1="24.2241" y1="145.709" x2="356.756" y2="145.709" stroke="#ECE9F1"/>
<path d="M24.2241 138.187C38.8341 135.135 50.8481 116.526 68.2804 113.398C77.5716 111.731 85.0149 114.975 93.3196 120.017C101.624 125.059 99.9985 127.236 118.676 131.123C134.089 134.331 138.12 99.7479 153.223 101.077C168.327 102.405 175.312 60.826 191.258 64.2968C207.203 67.7677 210.389 58.7939 225.378 75.8012C240.367 92.8085 254.215 53.1656 273.031 49.6947C291.847 46.2238 296.748 83.0632 305.677 81.6748C314.607 80.2865 322.647 106.537 330.3 110.355C337.954 114.173 340.125 100.303 356.389 100.303" stroke="#F1BC00" stroke-width="4" stroke-linecap="round" stroke-linejoin="round"/>
<path d="M68.2804 113.398C50.8481 116.526 38.8341 135.135 24.2241 138.187V145.714H356.389V100.303C340.125 100.303 337.954 114.173 330.3 110.355C322.647 106.537 314.607 80.2865 305.677 81.6748C296.748 83.0632 291.847 46.2238 273.031 49.6947C254.215 53.1656 240.367 92.8085 225.378 75.8012C210.389 58.7939 207.203 67.7677 191.258 64.2968C175.312 60.826 168.327 102.405 153.223 101.077C138.12 99.7479 134.089 134.331 118.676 131.123C99.9985 127.236 101.624 125.059 93.3195 120.017C85.0149 114.975 77.5716 111.731 68.2804 113.398Z" fill="url(#paint0_linear_924_33435)"/>
<path d="M24.6041 164.71V163.88H26.4841V171.11H25.5641V164.71H24.6041Z" fill="#7C7F97"/>
<path d="M81.553 164.67H78.043V166.95C78.1964 166.737 78.423 166.563 78.723 166.43C79.023 166.29 79.3464 166.22 79.693 166.22C80.2464 166.22 80.6964 166.337 81.043 166.57C81.3897 166.797 81.6364 167.093 81.783 167.46C81.9364 167.82 82.013 168.203 82.013 168.61C82.013 169.09 81.923 169.52 81.743 169.9C81.563 170.28 81.2864 170.58 80.913 170.8C80.5464 171.02 80.0897 171.13 79.543 171.13C78.843 171.13 78.2764 170.95 77.843 170.59C77.4097 170.23 77.1464 169.75 77.053 169.15H77.943C78.0297 169.53 78.213 169.827 78.493 170.04C78.773 170.253 79.1264 170.36 79.553 170.36C80.0797 170.36 80.4764 170.203 80.743 169.89C81.0097 169.57 81.143 169.15 81.143 168.63C81.143 168.11 81.0097 167.71 80.743 167.43C80.4764 167.143 80.083 167 79.563 167C79.2097 167 78.8997 167.087 78.633 167.26C78.373 167.427 78.183 167.657 78.063 167.95H77.203V163.87H81.553V164.67Z" fill="#7C7F97"/>
<path d="M129.404 164.71V163.88H131.284V171.11H130.364V164.71H129.404ZM132.847 167.42C132.847 166.273 133.034 165.38 133.407 164.74C133.78 164.093 134.434 163.77 135.367 163.77C136.294 163.77 136.944 164.093 137.317 164.74C137.69 165.38 137.877 166.273 137.877 167.42C137.877 168.587 137.69 169.493 137.317 170.14C136.944 170.787 136.294 171.11 135.367 171.11C134.434 171.11 133.78 170.787 133.407 170.14C133.034 169.493 132.847 168.587 132.847 167.42ZM136.977 167.42C136.977 166.84 136.937 166.35 136.857 165.95C136.784 165.543 136.627 165.217 136.387 164.97C136.154 164.723 135.814 164.6 135.367 164.6C134.914 164.6 134.567 164.723 134.327 164.97C134.094 165.217 133.937 165.543 133.857 165.95C133.784 166.35 133.747 166.84 133.747 167.42C133.747 168.02 133.784 168.523 133.857 168.93C133.937 169.337 134.094 169.663 134.327 169.91C134.567 170.157 134.914 170.28 135.367 170.28C135.814 170.28 136.154 170.157 136.387 169.91C136.627 169.663 136.784 169.337 136.857 168.93C136.937 168.523 136.977 168.02 136.977 167.42Z" fill="#7C7F97"/>
<path d="M185.419 171.11H186.339V163.88H184.459V164.71H185.419V171.11ZM188.162 163.87V167.95H189.022C189.262 167.38 189.792 167 190.522 167C191.572 167 192.102 167.6 192.102 168.63C192.102 169.62 191.612 170.36 190.512 170.36C189.662 170.36 189.072 169.91 188.902 169.15H188.012C188.192 170.32 189.062 171.13 190.502 171.13C192.192 171.13 192.972 170.01 192.972 168.61C192.972 167.49 192.412 166.22 190.652 166.22C189.942 166.22 189.302 166.54 189.002 166.95V164.67H192.512V163.87H188.162Z" fill="#7C7F97"/>
<path d="M239.502 170.38C240.349 169.7 241.012 169.143 241.492 168.71C241.972 168.27 242.376 167.813 242.702 167.34C243.036 166.86 243.202 166.39 243.202 165.93C243.202 165.497 243.096 165.157 242.882 164.91C242.676 164.657 242.339 164.53 241.872 164.53C241.419 164.53 241.066 164.673 240.812 164.96C240.566 165.24 240.432 165.617 240.412 166.09H239.532C239.559 165.343 239.786 164.767 240.212 164.36C240.639 163.953 241.189 163.75 241.862 163.75C242.549 163.75 243.092 163.94 243.492 164.32C243.899 164.7 244.102 165.223 244.102 165.89C244.102 166.443 243.936 166.983 243.602 167.51C243.276 168.03 242.902 168.49 242.482 168.89C242.062 169.283 241.526 169.743 240.872 170.27H244.312V171.03H239.502V170.38ZM245.364 167.42C245.364 166.273 245.551 165.38 245.924 164.74C246.297 164.093 246.951 163.77 247.884 163.77C248.811 163.77 249.461 164.093 249.834 164.74C250.207 165.38 250.394 166.273 250.394 167.42C250.394 168.587 250.207 169.493 249.834 170.14C249.461 170.787 248.811 171.11 247.884 171.11C246.951 171.11 246.297 170.787 245.924 170.14C245.551 169.493 245.364 168.587 245.364 167.42ZM249.494 167.42C249.494 166.84 249.454 166.35 249.374 165.95C249.301 165.543 249.144 165.217 248.904 164.97C248.671 164.723 248.331 164.6 247.884 164.6C247.431 164.6 247.084 164.723 246.844 164.97C246.611 165.217 246.454 165.543 246.374 165.95C246.301 166.35 246.264 166.84 246.264 167.42C246.264 168.02 246.301 168.523 246.374 168.93C246.454 169.337 246.611 169.663 246.844 169.91C247.084 170.157 247.431 170.28 247.884 170.28C248.331 170.28 248.671 170.157 248.904 169.91C249.144 169.663 249.301 169.337 249.374 168.93C249.454 168.523 249.494 168.02 249.494 167.42Z" fill="#7C7F97"/>
<path d="M299.994 170.27C300.841 169.59 301.504 169.033 301.984 168.6C302.464 168.16 302.868 167.703 303.194 167.23C303.528 166.75 303.694 166.28 303.694 165.82C303.694 165.387 303.588 165.047 303.374 164.8C303.168 164.547 302.831 164.42 302.364 164.42C301.911 164.42 301.558 164.563 301.304 164.85C301.058 165.13 300.924 165.507 300.904 165.98H300.024C300.051 165.233 300.278 164.657 300.704 164.25C301.131 163.843 301.681 163.64 302.354 163.64C303.041 163.64 303.584 163.83 303.984 164.21C304.391 164.59 304.594 165.113 304.594 165.78C304.594 166.333 304.428 166.873 304.094 167.4C303.768 167.92 303.394 168.38 302.974 168.78C302.554 169.173 302.018 169.633 301.364 170.16H304.804V170.92H299.994V170.27ZM310.466 164.56H306.956V166.84C307.11 166.627 307.336 166.453 307.636 166.32C307.936 166.18 308.26 166.11 308.606 166.11C309.16 166.11 309.61 166.227 309.956 166.46C310.303 166.687 310.55 166.983 310.696 167.35C310.85 167.71 310.926 168.093 310.926 168.5C310.926 168.98 310.836 169.41 310.656 169.79C310.476 170.17 310.2 170.47 309.826 170.69C309.46 170.91 309.003 171.02 308.456 171.02C307.756 171.02 307.19 170.84 306.756 170.48C306.323 170.12 306.06 169.64 305.966 169.04H306.856C306.943 169.42 307.126 169.717 307.406 169.93C307.686 170.143 308.04 170.25 308.466 170.25C308.993 170.25 309.39 170.093 309.656 169.78C309.923 169.46 310.056 169.04 310.056 168.52C310.056 168 309.923 167.6 309.656 167.32C309.39 167.033 308.996 166.89 308.476 166.89C308.123 166.89 307.813 166.977 307.546 167.15C307.286 167.317 307.096 167.547 306.976 167.84H306.116V163.76H310.466V164.56Z" fill="#7C7F97"/>
<path d="M343.432 165.59C343.479 164.977 343.715 164.497 344.142 164.15C344.569 163.803 345.122 163.63 345.802 163.63C346.255 163.63 346.645 163.713 346.972 163.88C347.305 164.04 347.555 164.26 347.722 164.54C347.895 164.82 347.982 165.137 347.982 165.49C347.982 165.903 347.862 166.26 347.622 166.56C347.389 166.86 347.082 167.053 346.702 167.14V167.19C347.135 167.297 347.479 167.507 347.732 167.82C347.985 168.133 348.112 168.543 348.112 169.05C348.112 169.43 348.025 169.773 347.852 170.08C347.679 170.38 347.419 170.617 347.072 170.79C346.725 170.963 346.309 171.05 345.822 171.05C345.115 171.05 344.535 170.867 344.082 170.5C343.629 170.127 343.375 169.6 343.322 168.92H344.202C344.249 169.32 344.412 169.647 344.692 169.9C344.972 170.153 345.345 170.28 345.812 170.28C346.279 170.28 346.632 170.16 346.872 169.92C347.119 169.673 347.242 169.357 347.242 168.97C347.242 168.47 347.075 168.11 346.742 167.89C346.409 167.67 345.905 167.56 345.232 167.56H345.002V166.8H345.242C345.855 166.793 346.319 166.693 346.632 166.5C346.945 166.3 347.102 165.993 347.102 165.58C347.102 165.227 346.985 164.943 346.752 164.73C346.525 164.517 346.199 164.41 345.772 164.41C345.359 164.41 345.025 164.517 344.772 164.73C344.519 164.943 344.369 165.23 344.322 165.59H343.432ZM349.341 167.31C349.341 166.163 349.527 165.27 349.901 164.63C350.274 163.983 350.927 163.66 351.861 163.66C352.787 163.66 353.437 163.983 353.811 164.63C354.184 165.27 354.371 166.163 354.371 167.31C354.371 168.477 354.184 169.383 353.811 170.03C353.437 170.677 352.787 171 351.861 171C350.927 171 350.274 170.677 349.901 170.03C349.527 169.383 349.341 168.477 349.341 167.31ZM353.471 167.31C353.471 166.73 353.431 166.24 353.351 165.84C353.277 165.433 353.121 165.107 352.881 164.86C352.647 164.613 352.307 164.49 351.861 164.49C351.407 164.49 351.061 164.613 350.821 164.86C350.587 165.107 350.431 165.433 350.351 165.84C350.277 166.24 350.241 166.73 350.241 167.31C350.241 167.91 350.277 168.413 350.351 168.82C350.431 169.227 350.587 169.553 350.821 169.8C351.061 170.047 351.407 170.17 351.861 170.17C352.307 170.17 352.647 170.047 352.881 169.8C353.121 169.553 353.277 169.227 353.351 168.82C353.431 168.413 353.471 167.91 353.471 167.31Z" fill="#7C7F97"/>
<line x1="172.5" y1="88" x2="172.5" y2="145.421" stroke="#7C7F97" stroke-dasharray="4.4 4.4"/>
<g filter="url(#filter0_dd_924_33435)">
<path fill-rule="evenodd" clip-rule="evenodd" d="M174.887 73.7346C173.346 75.4218 170.848 75.4218 169.307 73.7346L166.318 70.622C165.447 69.7153 165.011 69.262 164.498 68.9375C164.043 68.6498 163.545 68.4374 163.022 68.3086C162.433 68.1633 161.804 68.1633 160.547 68.1633H121.5C116.11 68.1633 114.156 67.6873 112.185 66.7935C110.215 65.8998 108.669 64.5882 107.615 62.917C106.561 61.2458 106 59.5881 106 55.0168V21.1465C106 16.5751 106.561 14.9175 107.615 13.2463C108.669 11.5751 110.215 10.2635 112.185 9.36974C114.156 8.47597 116.11 8 121.5 8H223.5C228.89 8 230.844 8.47597 232.815 9.36974C234.785 10.2635 236.331 11.5751 237.385 13.2463C238.439 14.9175 239 16.5751 239 21.1465V55.0168C239 59.5881 238.439 61.2458 237.385 62.917C236.331 64.5882 234.785 65.8998 232.815 66.7935C230.844 67.6873 228.89 68.1633 223.5 68.1633H187.055C184.541 68.1633 183.284 68.1633 182.105 68.4539C181.06 68.7116 180.063 69.1363 179.154 69.7117C178.127 70.3608 177.257 71.2674 175.515 73.0807L174.887 73.7346Z" fill="white"/>
</g>
<path d="M116.702 28V27.088L119.666 24.064C120.458 23.272 120.854 22.592 120.854 22.024C120.854 21.552 120.71 21.184 120.422 20.92C120.134 20.656 119.782 20.524 119.366 20.524C118.574 20.524 117.998 20.9 117.638 21.652L116.702 21.1C116.966 20.556 117.33 20.144 117.794 19.864C118.266 19.584 118.786 19.444 119.354 19.444C120.058 19.444 120.67 19.676 121.19 20.14C121.71 20.604 121.97 21.228 121.97 22.012C121.97 22.86 121.47 23.784 120.47 24.784L118.322 26.92H122.126V28H116.702ZM123.03 28V27.088L125.994 24.064C126.786 23.272 127.182 22.592 127.182 22.024C127.182 21.552 127.038 21.184 126.75 20.92C126.462 20.656 126.11 20.524 125.694 20.524C124.902 20.524 124.326 20.9 123.966 21.652L123.03 21.1C123.294 20.556 123.658 20.144 124.122 19.864C124.594 19.584 125.114 19.444 125.682 19.444C126.386 19.444 126.998 19.676 127.518 20.14C128.038 20.604 128.298 21.228 128.298 22.012C128.298 22.86 127.798 23.784 126.798 24.784L124.65 26.92H128.454V28H123.03ZM132.826 24.82V23.812H137.206V24.82H132.826ZM141.534 28V27.088L144.498 24.064C145.29 23.272 145.686 22.592 145.686 22.024C145.686 21.552 145.542 21.184 145.254 20.92C144.966 20.656 144.614 20.524 144.198 20.524C143.406 20.524 142.83 20.9 142.47 21.652L141.534 21.1C141.798 20.556 142.162 20.144 142.626 19.864C143.098 19.584 143.618 19.444 144.186 19.444C144.89 19.444 145.502 19.676 146.022 20.14C146.542 20.604 146.802 21.228 146.802 22.012C146.802 22.86 146.302 23.784 145.302 24.784L143.154 26.92H146.958V28H141.534ZM153.515 22.264C153.515 22.912 153.343 23.476 152.999 23.956H153.011L150.299 28H149.039L151.031 25.06C150.855 25.076 150.719 25.084 150.623 25.084C149.775 25.084 149.079 24.824 148.535 24.304C147.999 23.776 147.731 23.096 147.731 22.264C147.731 21.432 147.999 20.756 148.535 20.236C149.079 19.708 149.775 19.444 150.623 19.444C151.471 19.444 152.163 19.708 152.699 20.236C153.243 20.756 153.515 21.432 153.515 22.264ZM149.327 20.992C148.999 21.312 148.835 21.736 148.835 22.264C148.835 22.792 148.999 23.22 149.327 23.548C149.663 23.868 150.095 24.028 150.623 24.028C151.151 24.028 151.579 23.868 151.907 23.548C152.243 23.22 152.411 22.792 152.411 22.264C152.411 21.736 152.247 21.312 151.919 20.992C151.591 20.672 151.159 20.512 150.623 20.512C150.095 20.512 149.663 20.672 149.327 20.992ZM163.284 28L162.6 26.116H158.82L158.136 28H156.948L160.08 19.6H161.34L164.472 28H163.284ZM159.204 25.072H162.216L160.704 20.932L159.204 25.072ZM166.399 23.008C166.743 22.264 167.367 21.892 168.271 21.892V22.984C167.759 22.96 167.319 23.096 166.951 23.392C166.583 23.688 166.399 24.164 166.399 24.82V28H165.354V22H166.399V23.008ZM173.932 22H174.976V28H173.932V26.968C173.412 27.76 172.656 28.156 171.664 28.156C170.824 28.156 170.108 27.852 169.516 27.244C168.924 26.628 168.628 25.88 168.628 25C168.628 24.12 168.924 23.376 169.516 22.768C170.108 22.152 170.824 21.844 171.664 21.844C172.656 21.844 173.412 22.24 173.932 23.032V22ZM171.796 27.148C172.404 27.148 172.912 26.944 173.32 26.536C173.728 26.12 173.932 25.608 173.932 25C173.932 24.392 173.728 23.884 173.32 23.476C172.912 23.06 172.404 22.852 171.796 22.852C171.196 22.852 170.692 23.06 170.284 23.476C169.876 23.884 169.672 24.392 169.672 25C169.672 25.608 169.876 26.12 170.284 26.536C170.692 26.944 171.196 27.148 171.796 27.148ZM176.558 28V19.24H177.602V28H176.558ZM179.194 28V22H180.238V28H179.194ZM186.907 28H185.611L182.875 25.156V28H181.831V19.6H182.875V24.652L185.467 22H186.811L183.943 24.904L186.907 28ZM196.182 19.6H197.286V28H196.182V24.22H192.102V28H190.986V19.6H192.102V23.164H196.182V19.6ZM203.944 22H204.988V28H203.944V26.968C203.424 27.76 202.668 28.156 201.676 28.156C200.836 28.156 200.12 27.852 199.528 27.244C198.936 26.628 198.64 25.88 198.64 25C198.64 24.12 198.936 23.376 199.528 22.768C200.12 22.152 200.836 21.844 201.676 21.844C202.668 21.844 203.424 22.24 203.944 23.032V22ZM201.808 27.148C202.416 27.148 202.924 26.944 203.332 26.536C203.74 26.12 203.944 25.608 203.944 25C203.944 24.392 203.74 23.884 203.332 23.476C202.924 23.06 202.416 22.852 201.808 22.852C201.208 22.852 200.704 23.06 200.296 23.476C199.888 23.884 199.684 24.392 199.684 25C199.684 25.608 199.888 26.12 200.296 26.536C200.704 26.944 201.208 27.148 201.808 27.148ZM209.653 20.452C208.597 20.364 208.069 20.82 208.069 21.82V22H209.653V23.008H208.069V28H207.025V23.008H206.065V22H207.025V21.82C207.025 21.012 207.249 20.4 207.697 19.984C208.153 19.568 208.805 19.388 209.653 19.444V20.452ZM213.935 23.008H212.339V26.26C212.339 26.556 212.395 26.768 212.507 26.896C212.627 27.016 212.807 27.08 213.047 27.088C213.287 27.088 213.583 27.08 213.935 27.064V28C213.023 28.12 212.355 28.048 211.931 27.784C211.507 27.512 211.295 27.004 211.295 26.26V23.008H210.107V22H211.295V20.632L212.339 20.32V22H213.935V23.008ZM219.834 22H220.878V28H219.834V26.968C219.314 27.76 218.558 28.156 217.566 28.156C216.726 28.156 216.01 27.852 215.418 27.244C214.826 26.628 214.53 25.88 214.53 25C214.53 24.12 214.826 23.376 215.418 22.768C216.01 22.152 216.726 21.844 217.566 21.844C218.558 21.844 219.314 22.24 219.834 23.032V22ZM217.698 27.148C218.306 27.148 218.814 26.944 219.222 26.536C219.63 26.12 219.834 25.608 219.834 25C219.834 24.392 219.63 23.884 219.222 23.476C218.814 23.06 218.306 22.852 217.698 22.852C217.098 22.852 216.594 23.06 216.186 23.476C215.778 23.884 215.574 24.392 215.574 25C215.574 25.608 215.778 26.12 216.186 26.536C216.594 26.944 217.098 27.148 217.698 27.148ZM223.348 23.62C223.348 23.852 223.464 24.04 223.696 24.184C223.928 24.32 224.208 24.432 224.536 24.52C224.864 24.6 225.192 24.696 225.52 24.808C225.848 24.912 226.128 25.096 226.36 25.36C226.592 25.616 226.708 25.948 226.708 26.356C226.708 26.9 226.496 27.336 226.072 27.664C225.656 27.992 225.12 28.156 224.464 28.156C223.88 28.156 223.38 28.028 222.964 27.772C222.548 27.516 222.252 27.176 222.076 26.752L222.976 26.236C223.072 26.524 223.252 26.752 223.516 26.92C223.78 27.088 224.096 27.172 224.464 27.172C224.808 27.172 225.092 27.108 225.316 26.98C225.54 26.844 225.652 26.636 225.652 26.356C225.652 26.124 225.536 25.94 225.304 25.804C225.072 25.66 224.792 25.548 224.464 25.468C224.136 25.38 223.808 25.28 223.48 25.168C223.152 25.056 222.872 24.872 222.64 24.616C222.408 24.36 222.292 24.032 222.292 23.632C222.292 23.112 222.492 22.684 222.892 22.348C223.3 22.012 223.808 21.844 224.416 21.844C224.904 21.844 225.336 21.956 225.712 22.18C226.096 22.396 226.384 22.7 226.576 23.092L225.7 23.584C225.484 23.072 225.056 22.816 224.416 22.816C224.12 22.816 223.868 22.888 223.66 23.032C223.452 23.168 223.348 23.364 223.348 23.62ZM227.886 28V22H228.93V28H227.886Z" fill="#7C7F97"/>
<path d="M118.969 43.2H120.649V53H118.717V45.244L116.869 45.762L116.393 44.11L118.969 43.2ZM124.369 52.832C124.136 53.0653 123.856 53.182 123.529 53.182C123.203 53.182 122.923 53.0653 122.689 52.832C122.456 52.5987 122.339 52.3187 122.339 51.992C122.339 51.6653 122.456 51.3853 122.689 51.152C122.923 50.9187 123.203 50.802 123.529 50.802C123.856 50.802 124.136 50.9187 124.369 51.152C124.603 51.3853 124.719 51.6653 124.719 51.992C124.719 52.3187 124.603 52.5987 124.369 52.832ZM130.341 47.176C131.004 47.372 131.541 47.7173 131.951 48.212C132.371 48.6973 132.581 49.2853 132.581 49.976C132.581 50.984 132.241 51.7727 131.559 52.342C130.887 52.9113 130.061 53.196 129.081 53.196C128.316 53.196 127.63 53.0233 127.023 52.678C126.426 52.3233 125.992 51.8053 125.721 51.124L127.373 50.172C127.616 50.928 128.185 51.306 129.081 51.306C129.576 51.306 129.959 51.1893 130.229 50.956C130.509 50.7133 130.649 50.3867 130.649 49.976C130.649 49.5747 130.509 49.2527 130.229 49.01C129.959 48.7673 129.576 48.646 129.081 48.646H128.661L127.919 47.526L129.851 45.006H126.015V43.2H132.175V44.796L130.341 47.176ZM137.438 53.196C136.216 53.196 135.254 52.734 134.554 51.81C133.864 50.8767 133.518 49.64 133.518 48.1C133.518 46.56 133.864 45.328 134.554 44.404C135.254 43.4707 136.216 43.004 137.438 43.004C138.67 43.004 139.632 43.4707 140.322 44.404C141.013 45.328 141.358 46.56 141.358 48.1C141.358 49.64 141.013 50.8767 140.322 51.81C139.632 52.734 138.67 53.196 137.438 53.196ZM135.954 50.494C136.29 51.0353 136.785 51.306 137.438 51.306C138.092 51.306 138.586 51.0307 138.922 50.48C139.268 49.9293 139.44 49.136 139.44 48.1C139.44 47.0547 139.268 46.2567 138.922 45.706C138.586 45.1553 138.092 44.88 137.438 44.88C136.785 44.88 136.29 45.1553 135.954 45.706C135.618 46.2567 135.45 47.0547 135.45 48.1C135.45 49.1453 135.618 49.9433 135.954 50.494ZM147.979 47.904C148.884 48.4453 149.337 49.234 149.337 50.27C149.337 51.1753 149.019 51.8893 148.385 52.412C147.759 52.9347 146.905 53.196 145.823 53.196C144.731 53.196 143.872 52.9347 143.247 52.412C142.621 51.8893 142.309 51.1753 142.309 50.27C142.309 49.234 142.757 48.4453 143.653 47.904C142.971 47.4093 142.631 46.7327 142.631 45.874C142.631 44.9687 142.934 44.264 143.541 43.76C144.157 43.256 144.917 43.004 145.823 43.004C146.728 43.004 147.484 43.256 148.091 43.76C148.697 44.264 149.001 44.9687 149.001 45.874C149.001 46.742 148.66 47.4187 147.979 47.904ZM146.733 45.132C146.499 44.9267 146.196 44.824 145.823 44.824C145.449 44.824 145.146 44.9267 144.913 45.132C144.679 45.3373 144.563 45.6173 144.563 45.972C144.563 46.3267 144.679 46.6113 144.913 46.826C145.146 47.0313 145.449 47.134 145.823 47.134C146.196 47.134 146.499 47.0313 146.733 46.826C146.966 46.6113 147.083 46.3267 147.083 45.972C147.083 45.6173 146.966 45.3373 146.733 45.132ZM144.661 51.026C144.959 51.2593 145.347 51.376 145.823 51.376C146.299 51.376 146.681 51.2593 146.971 51.026C147.269 50.7833 147.419 50.4473 147.419 50.018C147.419 49.598 147.269 49.2713 146.971 49.038C146.681 48.7953 146.299 48.674 145.823 48.674C145.347 48.674 144.959 48.7953 144.661 49.038C144.371 49.2713 144.227 49.598 144.227 50.018C144.227 50.4473 144.371 50.7833 144.661 51.026ZM153.01 51.068L151.96 54.96H150.49L151.05 51.068H153.01ZM156.43 43.2H158.11V53H156.178V45.244L154.33 45.762L153.854 44.11L156.43 43.2ZM163.524 53.196C162.302 53.196 161.34 52.734 160.64 51.81C159.95 50.8767 159.604 49.64 159.604 48.1C159.604 46.56 159.95 45.328 160.64 44.404C161.34 43.4707 162.302 43.004 163.524 43.004C164.756 43.004 165.718 43.4707 166.408 44.404C167.099 45.328 167.444 46.56 167.444 48.1C167.444 49.64 167.099 50.8767 166.408 51.81C165.718 52.734 164.756 53.196 163.524 53.196ZM162.04 50.494C162.376 51.0353 162.871 51.306 163.524 51.306C164.178 51.306 164.672 51.0307 165.008 50.48C165.354 49.9293 165.526 49.136 165.526 48.1C165.526 47.0547 165.354 46.2567 165.008 45.706C164.672 45.1553 164.178 44.88 163.524 44.88C162.871 44.88 162.376 45.1553 162.04 45.706C161.704 46.2567 161.536 47.0547 161.536 48.1C161.536 49.1453 161.704 49.9433 162.04 50.494ZM178.825 43.2V45.048H176.179V53H174.247V45.048H171.615V43.2H178.825ZM181.835 51.152H185.573V53H179.903V43.2H181.835V51.152Z" fill="#080A1E"/>
<g filter="url(#filter1_dd_924_33435)">
<rect x="167" y="78" width="10" height="10" rx="5" fill="#F1BC00"/>
<rect x="167.5" y="78.5" width="9" height="9" rx="4.5" stroke="white"/>
</g>
<defs>
<filter id="filter0_dd_924_33435" x="90" y="0" width="165" height="99" filterUnits="userSpaceOnUse" color-interpolation-filters="sRGB">
<feFlood flood-opacity="0" result="BackgroundImageFix"/>
<feColorMatrix in="SourceAlpha" type="matrix" values="0 0 0 0 0 0 0 0 0 0 0 0 0 0 0 0 0 0 127 0" result="hardAlpha"/>
<feOffset dy="8"/>
<feGaussianBlur stdDeviation="8"/>
<feColorMatrix type="matrix" values="0 0 0 0 0.196487 0 0 0 0 0.196487 0 0 0 0 0.279476 0 0 0 0.06 0"/>
<feBlend mode="multiply" in2="BackgroundImageFix" result="effect1_dropShadow_924_33435"/>
<feColorMatrix in="SourceAlpha" type="matrix" values="0 0 0 0 0 0 0 0 0 0 0 0 0 0 0 0 0 0 127 0" result="hardAlpha"/>
<feOffset dy="8"/>
<feGaussianBlur stdDeviation="4"/>
<feColorMatrix type="matrix" values="0 0 0 0 0.196487 0 0 0 0 0.196487 0 0 0 0 0.279476 0 0 0 0.08 0"/>
<feBlend mode="multiply" in2="effect1_dropShadow_924_33435" result="effect2_dropShadow_924_33435"/>
<feBlend mode="normal" in="SourceGraphic" in2="effect2_dropShadow_924_33435" result="shape"/>
</filter>
<filter id="filter1_dd_924_33435" x="161.667" y="75.3333" width="20.6667" height="20.6667" filterUnits="userSpaceOnUse" color-interpolation-filters="sRGB">
<feFlood flood-opacity="0" result="BackgroundImageFix"/>
<feColorMatrix in="SourceAlpha" type="matrix" values="0 0 0 0 0 0 0 0 0 0 0 0 0 0 0 0 0 0 127 0" result="hardAlpha"/>
<feOffset dy="2.66667"/>
<feGaussianBlur stdDeviation="2.66667"/>
<feColorMatrix type="matrix" values="0 0 0 0 0.196487 0 0 0 0 0.196487 0 0 0 0 0.279476 0 0 0 0.06 0"/>
<feBlend mode="multiply" in2="BackgroundImageFix" result="effect1_dropShadow_924_33435"/>
<feColorMatrix in="SourceAlpha" type="matrix" values="0 0 0 0 0 0 0 0 0 0 0 0 0 0 0 0 0 0 127 0" result="hardAlpha"/>
<feOffset dy="2.66667"/>
<feGaussianBlur stdDeviation="1.33333"/>
<feColorMatrix type="matrix" values="0 0 0 0 0.196487 0 0 0 0 0.196487 0 0 0 0 0.279476 0 0 0 0.06 0"/>
<feBlend mode="multiply" in2="effect1_dropShadow_924_33435" result="effect2_dropShadow_924_33435"/>
<feBlend mode="normal" in="SourceGraphic" in2="effect2_dropShadow_924_33435" result="shape"/>
</filter>
<linearGradient id="paint0_linear_924_33435" x1="190.307" y1="49.4639" x2="190.307" y2="185.976" gradientUnits="userSpaceOnUse">
<stop stop-color="#FFD543"/>
<stop offset="0.998978" stop-color="white" stop-opacity="0"/>
</linearGradient>
</defs>
</svg>
