<svg width="34" height="28" viewBox="0 0 34 28" fill="none" xmlns="http://www.w3.org/2000/svg">
<path d="M29.1487 27.6537L26.4398 27.8507L27.7432 25.0597L29.0256 23.1015L28.3589 21.2895L22.7578 20.4895L20.2592 22.1731L23.1662 27.2328L20.3583 27.197L17.0909 21.606L17.8146 19.4687L12.5892 19.8478L14.6133 24.8149L11.8594 24.1343L10.3669 18.5433L13.5622 17.0746L11.436 15.9522L9.54701 12.4448L5.15641 13.997L3.39057 14.0776L1.69379 13.3582L3.66085 9.78507L3.11728 7.70448L3.3245 7.11343L0.955025 6.03582L2.28882e-05 0.149254L2.35449 4.44478L3.67587 4.65075L3.06923 0L4.81406 3.43284L7.29765 4.3791L12.6192 4.62686L18.6465 1.2L20.6736 1.77313L23.2353 2.80895L26.0012 6.26567L33.0256 6.5L33.0259 21.2895L29.491 25.403L29.1487 27.6537Z" fill="url(#paint0_linear_108_17618)"/>
<defs>
<linearGradient id="paint0_linear_108_17618" x1="-0.801679" y1="13.9254" x2="30.0436" y2="13.9254" gradientUnits="userSpaceOnUse">
<stop stop-color="#059E56"/>
<stop offset="1" stop-color="#009A52"/>
</linearGradient>
</defs>
</svg>
