<svg width="33" height="24" viewBox="0 0 33 24" fill="none" xmlns="http://www.w3.org/2000/svg">
<path d="M11.8339 1.22111L17.2545 0.0151367L22.2367 3.28379L23.5161 2.23305L24.8885 3.90767L26.4201 3.65991L28.7626 2.52559L28.204 5.77633L30.7627 7.96738L30.3032 10.036L33 12.9435L31.4864 14.0838L28.9097 14.5763L22.2367 13.2629L23.7894 19.042L27.291 19.9614L25.7384 21.7584L22.1376 21.2748L19.5519 18.633L17.4137 15.4808L15.9872 15.0868L13.3925 21.242L16.5488 22.5704L14.7679 24.0002L10.1341 23.2122L9.72567 16.0211L4 16.7107L0 17.0002V2.50024L1.12468 1.83603L11.8309 1.22111H11.8339ZM23.6692 4.1017H23.6903L23.6542 4.09275L23.6692 4.1017Z" fill="url(#paint0_linear_108_17617)"/>
<defs>
<linearGradient id="paint0_linear_108_17617" x1="33" y1="12.0002" x2="0.995302" y2="11.1846" gradientUnits="userSpaceOnUse">
<stop offset="0.05" stop-color="#DA2121"/>
<stop offset="1" stop-color="#C61010"/>
</linearGradient>
</defs>
</svg>
