<svg width="375" height="98" viewBox="0 0 375 98" fill="none" xmlns="http://www.w3.org/2000/svg">
<rect width="3.03553" height="1.52124" transform="matrix(0.73873 -0.674001 0.752298 0.658823 0.511719 76.1035)" fill="#D39D00"/>
<path d="M12.3456 70.1296C13.1882 70.4342 14.3939 69.4193 14.0303 70.2973C13.6666 71.1753 12.6888 71.6402 11.8461 71.3356C11.0034 71.0311 10.6151 70.0724 10.9787 69.1944C11.3423 68.3164 11.5029 69.825 12.3456 70.1296Z" fill="#F1BE4B"/>
<path d="M8.2885 75.2925L11.5748 76.8619L10.8273 77.9182L8.2885 75.2925Z" fill="#DADADA"/>
<rect width="4.24269" height="1.40765" transform="matrix(-0.996291 -0.24791 0.266619 -0.935069 1.33496 62.0293)" fill="#DADADA"/>
<path d="M4.80411 53.908L4.48207 54.9768L5.47071 55.5933L4.28304 55.6374L3.961 56.7063L3.54901 55.6647L2.36134 55.7089L3.29439 55.021L2.88241 53.9795L3.87105 54.5959L4.80411 53.908Z" fill="#7C7F97"/>
<path d="M15.8239 60.7823L17.6354 63.948L16.3385 64.4198L15.8239 60.7823Z" fill="#EAD300"/>
<circle cx="5.42301" cy="67.1149" r="1.52409" fill="#D39D00"/>
<path d="M9.89725 60.0021C9.89725 61.4049 11.921 62.5422 10.5127 62.5422C9.10449 62.5422 7.96289 61.4049 7.96289 60.0021C7.96289 58.5992 9.10449 57.4619 10.5127 57.4619C11.921 57.4619 9.89725 58.5992 9.89725 60.0021Z" fill="#080A1E" fill-opacity="0.5"/>
<ellipse cx="20.4942" cy="69.8239" rx="1.69343" ry="1.52409" fill="#080A1E" fill-opacity="0.5"/>
<path d="M15.9886 73.9006L16.7611 74.7444L17.859 74.3189L17.2386 75.266L18.0111 76.1099L16.8551 75.8513L16.2347 76.7985L16.1407 75.6916L14.9848 75.4331L16.0826 75.0075L15.9886 73.9006Z" fill="#EAD300"/>
<rect width="3.03553" height="1.52124" transform="matrix(0.520291 0.853989 -0.790529 0.612424 28.2847 73.1777)" fill="#D39D00"/>
<rect width="2.1508" height="3.29391" transform="matrix(-0.511608 0.859219 -0.814528 -0.580124 36.7197 70.6885)" fill="#080A1E" fill-opacity="0.5"/>
<rect width="4.24269" height="1.40765" transform="matrix(0.43386 -0.930494 0.866825 0.440516 41.9424 76.6777)" fill="#DADADA"/>
<path d="M49.2503 81.6353L48.2627 81.1148L47.4686 81.9673L47.6524 80.7931L46.6649 80.2726L47.766 80.0674L47.9497 78.8932L48.4465 79.9406L49.5476 79.7354L48.7535 80.5879L49.2503 81.6353Z" fill="#7C7F97"/>
<rect width="3.03553" height="1.52124" transform="matrix(-0.939061 0.343752 -0.446492 -0.894788 36.9087 45.7627)" fill="#D39D00"/>
<rect width="2.1508" height="3.29391" transform="matrix(-0.742944 -0.669353 0.727838 -0.685749 37.7051 54.5225)" fill="#080A1E" fill-opacity="0.5"/>
<path d="M23.6937 46.8069C23.0293 46.2057 21.5289 46.6879 22.1982 46.0132C22.8675 45.3386 23.9486 45.279 24.613 45.8802C25.2773 46.4814 25.2734 47.5157 24.6041 48.1904C23.9349 48.8651 24.358 47.4081 23.6937 46.8069Z" fill="#F1BE4B"/>
<path d="M29.4042 43.5659L26.9578 40.868L28.0499 40.1738L29.4042 43.5659Z" fill="#DADADA"/>
<rect width="4.24269" height="1.40765" transform="matrix(0.828014 0.606999 -0.601109 0.764269 30.813 58.4766)" fill="#DADADA"/>
<path d="M24.5247 64.6767L25.2278 63.8096L24.5465 62.8645L25.6623 63.2738L26.3654 62.4067L26.352 63.5267L27.4678 63.9359L26.3436 64.2189L26.3301 65.3389L25.6489 64.3937L24.5247 64.6767Z" fill="#7C7F97"/>
<path d="M16.9324 54.1392L16.4559 50.5231L17.8348 50.578L16.9324 54.1392Z" fill="#EAD300"/>
<circle cx="28.9573" cy="52.221" r="1.52409" transform="rotate(-157.729 28.9573 52.221)" fill="#D39D00"/>
<path d="M22.1209 57.1067C22.6525 55.8084 21.2108 53.9891 22.514 54.5228C23.8172 55.0565 24.4426 56.5415 23.9109 57.8398C23.3793 59.138 21.8918 59.7578 20.5886 59.2241C19.2854 58.6904 21.5892 58.4049 22.1209 57.1067Z" fill="#080A1E" fill-opacity="0.5"/>
<ellipse cx="16.0369" cy="44.0015" rx="1.69343" ry="1.52409" transform="rotate(-157.729 16.0369 44.0015)" fill="#080A1E" fill-opacity="0.5"/>
<path d="M21.7512 41.9362L21.3562 40.8625L20.1789 40.8403L21.112 40.1989L20.7169 39.1252L21.6887 39.8025L22.6217 39.1612L22.2892 40.2211L23.261 40.8985L22.0837 40.8762L21.7512 41.9362Z" fill="#EAD300"/>
<rect width="3.03553" height="1.52124" transform="matrix(-0.671388 0.741107 -0.811462 -0.584406 60.874 56.8301)" fill="#D39D00"/>
<rect width="2.1508" height="3.29391" transform="matrix(-0.969029 -0.246949 0.325326 -0.945602 65.6533 64.2129)" fill="#080A1E" fill-opacity="0.5"/>
<path d="M49.6613 63.9006C48.7935 63.6774 47.6897 64.8022 47.9683 63.8936C48.2469 62.985 49.1762 62.4294 50.044 62.6526C50.9118 62.8757 51.3894 63.7932 51.1108 64.7017C50.8322 65.6103 50.5291 64.1237 49.6613 63.9006Z" fill="#F1BE4B"/>
<path d="M53.2098 58.3756L49.7894 57.1254L50.4332 56.0028L53.2098 58.3756Z" fill="#DADADA"/>
<rect width="4.24269" height="1.40765" transform="matrix(1.01533 0.15218 -0.176618 0.956162 61.3916 70.9189)" fill="#DADADA"/>
<path d="M58.7094 79.3335L58.9284 78.2389L57.8857 77.7191L59.0638 77.5624L59.2829 76.4678L59.792 77.4655L60.9701 77.3087L60.1066 78.0821L60.6156 79.0798L59.5729 78.5601L58.7094 79.3335Z" fill="#7C7F97"/>
<path d="M47.0862 73.5366L44.9823 70.5572L46.2285 69.9644L47.0862 73.5366Z" fill="#EAD300"/>
<circle cx="56.839" cy="66.2447" r="1.52409" transform="rotate(174.551 56.839 66.2447)" fill="#D39D00"/>
<path d="M53.0602 73.7497C52.927 72.3532 50.8044 71.4133 52.2063 71.2795C53.6082 71.1458 54.8526 72.1695 54.9858 73.5661C55.1191 74.9626 54.0906 76.2031 52.6887 76.3369C51.2869 76.4706 53.1934 75.1463 53.0602 73.7497Z" fill="#080A1E" fill-opacity="0.5"/>
<ellipse cx="41.5787" cy="64.9786" rx="1.69343" ry="1.52409" transform="rotate(174.551 41.5787 64.9786)" fill="#080A1E" fill-opacity="0.5"/>
<path d="M45.6764 60.4922L44.8272 59.7255L43.7748 60.2534L44.3024 59.2517L43.4532 58.485L44.6285 58.6326L45.1562 57.6308L45.3549 58.7238L46.5302 58.8713L45.4777 59.3993L45.6764 60.4922Z" fill="#EAD300"/>
<rect width="3.03553" height="1.52124" transform="matrix(-0.671388 0.741107 -0.811462 -0.584406 83.2793 38.2432)" fill="#D39D00"/>
<ellipse cx="33.5056" cy="27.4271" rx="1.69343" ry="1.52409" transform="rotate(-21.2414 33.5056 27.4271)" fill="#080A1E" fill-opacity="0.5"/>
<rect width="3.03553" height="1.52124" transform="matrix(0.794342 0.607471 -0.514943 0.857225 41.9814 27.7305)" fill="#D39D00"/>
<rect width="2.1508" height="3.29391" transform="matrix(-0.165558 0.9862 -0.969369 -0.24561 48.9424 22.3545)" fill="#080A1E" fill-opacity="0.5"/>
<path d="M49.96 38.3165C49.8097 39.1998 51.0223 40.2064 50.0937 40.0042C49.1651 39.8021 48.5342 38.9222 48.6845 38.0389C48.8347 37.1555 49.7093 36.6033 50.6379 36.8054C51.5665 37.0076 50.1102 37.4332 49.96 38.3165Z" fill="#F1BE4B"/>
<path d="M44.1587 35.2404L43.197 38.7529L42.0249 38.2046L44.1587 35.2404Z" fill="#DADADA"/>
<rect width="4.24269" height="1.40765" transform="matrix(0.0672688 -1.02447 0.967532 0.0965394 55.979 26.0439)" fill="#DADADA"/>
<path d="M64.5871 28.018L63.478 27.8906L63.0467 28.9729L62.7926 27.8119L61.6836 27.6846L62.6356 27.0944L62.3814 25.9334L63.2239 26.7296L64.1759 26.1394L63.7446 27.2217L64.5871 28.018Z" fill="#7C7F97"/>
<path d="M59.7759 40.0821L56.9816 42.4263L56.2873 41.2337L59.7759 40.0821Z" fill="#EAD300"/>
<circle cx="51.6991" cy="30.9685" r="1.52409" transform="rotate(79.7835 51.6991 30.9685)" fill="#D39D00"/>
<path d="M59.4926 34.1111C58.112 34.3599 57.3517 36.5532 57.1019 35.1673C56.8522 33.7814 57.7689 32.4562 59.1495 32.2074C60.5302 31.9586 61.8519 32.8803 62.1017 34.2662C62.3515 35.6522 60.8733 33.8622 59.4926 34.1111Z" fill="#080A1E" fill-opacity="0.5"/>
<path d="M38.7402 39.0329C37.3596 39.2818 36.5993 41.4751 36.3495 40.0892C36.0997 38.7033 37.0165 37.3781 38.3971 37.1293C39.7777 36.8804 41.0995 37.8022 41.3492 39.1881C41.599 40.574 40.1208 38.7841 38.7402 39.0329Z" fill="#080A1E" fill-opacity="0.5"/>
<ellipse cx="51.7062" cy="46.2826" rx="1.69343" ry="1.52409" transform="rotate(79.7835 51.7062 46.2826)" fill="#080A1E" fill-opacity="0.5"/>
<path d="M46.8943 42.5717L46.2008 43.4816L46.8144 44.4866L45.7722 44.044L45.0788 44.954L45.1281 43.7705L44.086 43.3279L45.1587 43.0391L45.2081 41.8556L45.8216 42.8605L46.8943 42.5717Z" fill="#EAD300"/>
<rect width="3.03553" height="1.52124" transform="matrix(0.0407619 0.999169 -0.988363 0.152112 10.5703 49.6396)" fill="#D39D00"/>
<path d="M-1.49757 50.289C-2.27285 50.7382 -2.27154 52.3141 -2.7098 51.4709C-3.14806 50.6277 -2.87485 49.5799 -2.09957 49.1307C-1.32429 48.6815 -0.340522 49.001 0.0977373 49.8442C0.535996 50.6874 -0.722295 49.8398 -1.49757 50.289Z" fill="#F1BE4B"/>
<path d="M1.68194 36.9815L-1.63375 38.4878L-1.96157 37.236L1.68194 36.9815Z" fill="#DADADA"/>
<circle cx="4.85464" cy="42.6912" r="1.52409" transform="rotate(130.04 4.85464 42.6912)" fill="#D39D00"/>
<rect width="3.03553" height="1.52124" transform="matrix(-0.357274 0.934 -0.968062 -0.250712 21.3892 14.9111)" fill="#D39D00"/>
<rect width="2.1508" height="3.29391" transform="matrix(-0.992664 0.120905 -0.0393657 -0.999225 28.5186 20.0615)" fill="#080A1E" fill-opacity="0.5"/>
<path d="M13.5002 25.5638C12.6105 25.6702 11.9891 27.1185 11.9197 26.1707C11.8502 25.2229 12.5151 24.3684 13.4047 24.262C14.2944 24.1556 15.072 24.8377 15.1415 25.7854C15.2109 26.7332 14.3899 25.4575 13.5002 25.5638Z" fill="#F1BE4B"/>
<path d="M14.8053 19.1274L11.1643 19.2013L11.3577 17.9218L14.8053 19.1274Z" fill="#DADADA"/>
<rect width="4.24269" height="1.40765" transform="matrix(1.00149 -0.226011 0.181796 0.95519 26.9756 27.8555)" fill="#DADADA"/>
<path d="M9.22103 41.0524L9.02866 39.9528L7.86848 39.8461L8.90977 39.2732L8.71739 38.1736L9.55331 38.9191L10.5946 38.3462L10.0699 39.3799L10.9059 40.1254L9.74568 40.0187L9.22103 41.0524Z" fill="#7C7F97"/>
<path d="M14.5901 35.4781L11.5497 33.4633L12.4965 32.4593L14.5901 35.4781Z" fill="#EAD300"/>
<circle cx="21.0392" cy="25.1481" r="1.52409" transform="rotate(153.309 21.0392 25.1481)" fill="#D39D00"/>
<path d="M20.2363 33.5125C19.6061 32.2591 17.2872 32.152 18.5454 31.5194C19.8036 30.8869 21.3344 31.3902 21.9645 32.6436C22.5946 33.897 22.0855 35.4259 20.8273 36.0584C19.5691 36.6909 20.8664 34.7659 20.2363 33.5125Z" fill="#080A1E" fill-opacity="0.5"/>
<ellipse cx="6.35663" cy="29.4966" rx="1.69343" ry="1.52409" transform="rotate(153.309 6.35663 29.4966)" fill="#080A1E" fill-opacity="0.5"/>
<path d="M8.55076 23.83L7.4815 23.423L6.69179 24.2964L6.82067 23.1715L5.75141 22.7646L6.90031 22.4763L7.02918 21.3514L7.61037 22.2982L8.75927 22.0099L7.96957 22.8833L8.55076 23.83Z" fill="#EAD300"/>
<rect width="3.03553" height="1.52124" transform="matrix(-0.357274 0.934 -0.968062 -0.250712 47.6777 51.5137)" fill="#D39D00"/>
<path d="M72.0661 45.3146C71.1983 45.0915 70.0944 46.2162 70.3731 45.3077C70.6517 44.3991 71.581 43.8435 72.4488 44.0666C73.3165 44.2898 73.7942 45.2072 73.5156 46.1158C73.2369 47.0244 72.9338 45.5378 72.0661 45.3146Z" fill="#F1BE4B"/>
<path d="M75.6146 39.7897L72.1942 38.5394L72.838 37.4169L75.6146 39.7897Z" fill="#DADADA"/>
<path d="M81.1141 60.7475L81.3332 59.6529L80.2905 59.1332L81.4686 58.9764L81.6877 57.8818L82.1967 58.8795L83.3749 58.7228L82.5113 59.4962L83.0204 60.4939L81.9777 59.9741L81.1141 60.7475Z" fill="#7C7F97"/>
<path d="M69.491 54.9507L67.3871 51.9712L68.6333 51.3784L69.491 54.9507Z" fill="#EAD300"/>
<circle cx="79.2438" cy="47.6588" r="1.52409" transform="rotate(174.551 79.2438 47.6588)" fill="#D39D00"/>
<path d="M75.465 55.1638C75.3318 53.7673 73.2092 52.8273 74.6111 52.6936C76.013 52.5599 77.2574 53.5836 77.3906 54.9801C77.5238 56.3767 76.4954 57.6172 75.0935 57.7509C73.6916 57.8847 75.5982 56.5604 75.465 55.1638Z" fill="#080A1E" fill-opacity="0.5"/>
<ellipse cx="63.9835" cy="46.3926" rx="1.69343" ry="1.52409" transform="rotate(174.551 63.9835 46.3926)" fill="#080A1E" fill-opacity="0.5"/>
<path d="M68.0812 41.9063L67.232 41.1396L66.1795 41.6675L66.7072 40.6657L65.858 39.899L67.0333 40.0466L67.561 39.0449L67.7597 40.1378L68.9349 40.2854L67.8825 40.8133L68.0812 41.9063Z" fill="#EAD300"/>
<rect width="3.03553" height="1.52124" transform="matrix(0.539114 -0.842233 0.89718 0.441665 116.342 82.0312)" fill="#D39D00"/>
<rect width="2.1508" height="3.29391" transform="matrix(0.996571 0.0827413 -0.163919 0.986474 110.404 75.5439)" fill="#080A1E" fill-opacity="0.5"/>
<path d="M126.226 73.198C127.119 73.2741 128.021 71.9818 127.897 72.924C127.773 73.8662 126.949 74.5683 126.056 74.4923C125.163 74.4162 124.54 73.5907 124.664 72.6485C124.788 71.7063 125.334 73.122 126.226 73.198Z" fill="#F1BE4B"/>
<path d="M123.644 79.2357L127.225 79.9011L126.776 81.1149L123.644 79.2357Z" fill="#DADADA"/>
<rect width="4.24269" height="1.40765" transform="matrix(-1.02651 0.0183962 0.0155202 -0.972213 113.495 68.2236)" fill="#DADADA"/>
<path d="M114.743 59.481L114.709 60.5968L115.824 60.9363L114.688 61.2864L114.653 62.4021L113.986 61.5027L112.85 61.8528L113.573 60.9468L112.906 60.0474L114.02 60.3869L114.743 59.481Z" fill="#7C7F97"/>
<path d="M127.167 63.2697L129.736 65.8587L128.606 66.6501L127.167 63.2697Z" fill="#EAD300"/>
<circle cx="118.759" cy="72.0777" r="1.52409" transform="rotate(-15 118.759 72.0777)" fill="#D39D00"/>
<circle cx="103.39" cy="81.4556" r="1.52409" transform="rotate(-15 103.39 81.4556)" fill="#D39D00"/>
<path d="M121.24 64.0496C121.603 65.4047 123.852 65.9794 122.492 66.3439C121.132 66.7084 119.735 65.9054 119.372 64.5503C119.009 63.1952 119.817 61.8012 121.177 61.4367C122.538 61.0723 120.877 62.6945 121.24 64.0496Z" fill="#080A1E" fill-opacity="0.5"/>
<ellipse cx="134.018" cy="70.7936" rx="1.69343" ry="1.52409" transform="rotate(-15 134.018 70.7936)" fill="#080A1E" fill-opacity="0.5"/>
<path d="M130.722 75.8986L131.686 76.5138L132.636 75.8185L132.282 76.894L133.247 77.5091L132.063 77.5586L131.709 78.634L131.332 77.5892L130.149 77.6387L131.099 76.9434L130.722 75.8986Z" fill="#EAD300"/>
<rect width="3.03553" height="1.52124" transform="matrix(0.723591 0.690229 -0.605086 0.79616 142.411 72.0166)" fill="#D39D00"/>
<rect width="2.1508" height="3.29391" transform="matrix(-0.271793 0.962356 -0.936921 -0.349542 149.915 67.4297)" fill="#080A1E" fill-opacity="0.5"/>
<rect width="4.24269" height="1.40765" transform="matrix(0.178247 -1.01108 0.951302 0.201155 156.509 71.8633)" fill="#DADADA"/>
<path d="M164.851 74.76L163.763 74.5129L163.216 75.5419L163.09 74.3601L162.001 74.1129L163.012 73.6297L162.886 72.448L163.636 73.3311L164.647 72.8479L164.101 73.8769L164.851 74.76Z" fill="#7C7F97"/>
<path d="M83.1615 56.1568L80.129 58.1833L79.5684 56.9223L83.1615 56.1568Z" fill="#EAD300"/>
<path d="M83.5293 50.1898C82.1297 50.287 81.1355 52.3847 81.0379 50.9799C80.9403 49.575 81.9957 48.3573 83.3952 48.2601C84.7947 48.1628 86.0083 49.2228 86.106 50.6277C86.2036 52.0325 84.9288 50.0925 83.5293 50.1898Z" fill="#080A1E" fill-opacity="0.5"/>
<rect width="3.03553" height="1.52124" transform="matrix(-0.818093 0.575085 -0.662866 -0.748738 143.646 43.3047)" fill="#D39D00"/>
<rect width="2.1508" height="3.29391" transform="matrix(-0.89087 -0.454257 0.525553 -0.850761 146.682 51.5586)" fill="#080A1E" fill-opacity="0.5"/>
<path d="M131.152 47.7338C130.354 47.325 129.03 48.1791 129.502 47.3542C129.974 46.5293 131.003 46.1919 131.8 46.6007C132.597 47.0095 132.861 48.0096 132.389 48.8345C131.918 49.6594 131.949 48.1426 131.152 47.7338Z" fill="#F1BE4B"/>
<path d="M135.829 43.1246L132.768 41.1518L133.643 40.1986L135.829 43.1246Z" fill="#DADADA"/>
<rect width="4.24269" height="1.40765" transform="matrix(0.956903 0.37201 -0.38282 0.893805 141.048 57.1621)" fill="#DADADA"/>
<path d="M136.579 64.7792L137.034 63.7597L136.131 63.0231L137.315 63.1296L137.77 62.1101L138.047 63.1954L139.23 63.3019L138.218 63.8662L138.495 64.9515L137.592 64.2149L136.579 64.7792Z" fill="#7C7F97"/>
<path d="M126.518 56.5651L125.122 53.1955L126.468 52.8917L126.518 56.5651Z" fill="#EAD300"/>
<circle cx="137.637" cy="51.6" r="1.52409" transform="rotate(-172.729 137.637 51.6)" fill="#D39D00"/>
<path d="M132.298 58.089C132.476 56.6974 130.612 55.3131 132.009 55.4914C133.406 55.6696 134.395 56.9422 134.217 58.3338C134.039 59.7254 132.763 60.709 131.366 60.5308C129.969 60.3526 132.121 59.4806 132.298 58.089Z" fill="#080A1E" fill-opacity="0.5"/>
<ellipse cx="123.03" cy="47.0043" rx="1.69343" ry="1.52409" transform="rotate(-172.729 123.03 47.0043)" fill="#080A1E" fill-opacity="0.5"/>
<path d="M128.015 43.5304L127.355 42.5956L126.212 42.8788L126.948 42.0178L126.288 41.0829L127.402 41.4857L128.137 40.6247L128.091 41.7346L129.205 42.1373L128.062 42.4205L128.015 43.5304Z" fill="#EAD300"/>
<rect width="3.03553" height="1.52124" transform="matrix(-0.456698 0.889622 -0.935067 -0.354471 169.659 47.792)" fill="#D39D00"/>
<rect width="2.1508" height="3.29391" transform="matrix(-0.999925 0.0122689 0.0695006 -0.997582 176.186 53.6855)" fill="#080A1E" fill-opacity="0.5"/>
<path d="M160.659 57.524C159.763 57.5331 158.988 58.9052 159.022 57.9555C159.056 57.0057 159.809 56.2285 160.705 56.2195C161.601 56.2105 162.3 56.973 162.266 57.9227C162.232 58.8725 161.555 57.515 160.659 57.524Z" fill="#F1BE4B"/>
<path d="M162.656 51.2671L159.028 50.9448L159.36 49.6938L162.656 51.2671Z" fill="#DADADA"/>
<rect width="4.24269" height="1.40765" transform="matrix(1.02012 -0.115792 0.0768731 0.969293 173.805 61.2666)" fill="#DADADA"/>
<path d="M173.392 70.0887L173.321 68.9747L172.179 68.7425L173.276 68.2862L173.205 67.1721L173.955 68.0041L175.052 67.5478L174.418 68.5183L175.168 69.3503L174.026 69.1181L173.392 70.0887Z" fill="#7C7F97"/>
<path d="M160.665 67.4963L157.861 65.1629L158.912 64.2678L160.665 67.4963Z" fill="#EAD300"/>
<circle cx="168.198" cy="57.9296" r="1.52409" transform="rotate(159.551 168.198 57.9296)" fill="#D39D00"/>
<path d="M166.491 66.1571C166.001 64.8426 163.707 64.484 165.027 63.992C166.346 63.5 167.813 64.1668 168.303 65.4813C168.794 66.7957 168.121 68.2602 166.802 68.7522C165.482 69.2442 166.981 67.4716 166.491 66.1571Z" fill="#080A1E" fill-opacity="0.5"/>
<ellipse cx="153.13" cy="60.6568" rx="1.69343" ry="1.52409" transform="rotate(159.551 153.13 60.6568)" fill="#080A1E" fill-opacity="0.5"/>
<path d="M155.927 55.2623L154.908 54.7415L154.028 55.5239L154.279 54.4197L153.26 53.8989L154.434 53.7372L154.684 52.633L155.159 53.6373L156.332 53.4757L155.452 54.258L155.927 55.2623Z" fill="#EAD300"/>
<rect width="3.03553" height="1.52124" transform="matrix(-0.456698 0.889622 -0.935067 -0.354471 186.49 24.04)" fill="#D39D00"/>
<ellipse cx="135.613" cy="26.4742" rx="1.69343" ry="1.52409" transform="rotate(-36.2414 135.613 26.4742)" fill="#080A1E" fill-opacity="0.5"/>
<rect width="3.03553" height="1.52124" transform="matrix(0.9245 0.381181 -0.27553 0.961292 143.879 24.5742)" fill="#D39D00"/>
<rect width="2.1508" height="3.29391" transform="matrix(0.095331 0.995446 -0.999907 0.0136497 149.211 17.5781)" fill="#080A1E" fill-opacity="0.5"/>
<path d="M154.326 32.7341C154.409 33.6262 155.841 34.2846 154.892 34.3297C153.942 34.3748 153.105 33.6881 153.022 32.796C152.938 31.9039 153.64 31.1441 154.589 31.099C155.539 31.0539 154.242 31.8419 154.326 32.7341Z" fill="#F1BE4B"/>
<path d="M147.926 31.2634L147.906 34.9052L146.632 34.6789L147.926 31.2634Z" fill="#DADADA"/>
<rect width="4.24269" height="1.40765" transform="matrix(-0.200175 -1.00697 0.959551 -0.157166 156.963 19.3213)" fill="#DADADA"/>
<path d="M165.789 18.9998L164.685 19.1638L164.548 20.3208L164.002 19.2652L162.898 19.4292L163.665 18.6127L163.119 17.557L164.139 18.1081L164.905 17.2916L164.769 18.4487L165.789 18.9998Z" fill="#7C7F97"/>
<path d="M164.264 31.8992L162.171 34.8868L161.192 33.9145L164.264 31.8992Z" fill="#EAD300"/>
<circle cx="154.103" cy="25.1864" r="1.52409" transform="rotate(64.7835 154.103 25.1864)" fill="#D39D00"/>
<path d="M162.444 26.2043C161.175 26.802 161.009 29.1174 160.409 27.8433C159.809 26.5693 160.351 25.052 161.62 24.4543C162.89 23.8566 164.405 24.4049 165.005 25.6789C165.605 26.953 163.714 25.6066 162.444 26.2043Z" fill="#080A1E" fill-opacity="0.5"/>
<path d="M143.673 36.3303C142.404 36.928 142.238 39.2433 141.638 37.9693C141.038 36.6953 141.58 35.1779 142.849 34.5803C144.119 33.9826 145.634 34.5309 146.234 35.8049C146.834 37.0789 144.943 35.7326 143.673 36.3303Z" fill="#080A1E" fill-opacity="0.5"/>
<ellipse cx="158.074" cy="39.9763" rx="1.69343" ry="1.52409" transform="rotate(64.7835 158.074 39.9763)" fill="#080A1E" fill-opacity="0.5"/>
<path d="M152.466 37.637L152.031 38.6955L152.884 39.5074L151.763 39.3496L151.329 40.408L151.07 39.2521L149.949 39.0943L150.91 38.5377L150.652 37.3818L151.504 38.1937L152.466 37.637Z" fill="#EAD300"/>
<rect width="3.03553" height="1.52124" transform="matrix(0.297977 0.954573 -0.915316 0.402736 119.208 53.8652)" fill="#D39D00"/>
<path d="M107.72 57.6168C107.087 58.2514 107.496 59.7733 106.855 59.0722C106.213 58.3711 106.206 57.2884 106.838 56.6538C107.471 56.0193 108.504 56.0732 109.146 56.7743C109.787 57.4754 108.352 56.9823 107.72 57.6168Z" fill="#F1BE4B"/>
<path d="M107.346 43.9382L104.534 46.2513L103.893 45.127L107.346 43.9382Z" fill="#DADADA"/>
<rect width="4.24269" height="1.40765" transform="matrix(1.02667 5.27428e-05 -0.0329879 0.971777 97.3979 36.6201)" fill="#DADADA"/>
<path d="M95.9923 45.3392L96.0467 44.2242L94.9385 43.8647L96.0804 43.5351L96.1349 42.4201L96.7861 43.3314L97.928 43.0018L97.1886 43.8946L97.8399 44.8059L96.7316 44.4464L95.9923 45.3392Z" fill="#7C7F97"/>
<circle cx="111.89" cy="48.6342" r="1.52409" transform="rotate(115.04 111.89 48.6342)" fill="#D39D00"/>
<path d="M89.5785 40.6543C89.2398 39.2929 87.0014 38.6779 88.3679 38.3379C89.7345 37.9979 91.1169 38.8259 91.4556 40.1873C91.7943 41.5487 90.961 42.9279 89.5944 43.2679C88.2278 43.6079 89.9171 42.0157 89.5785 40.6543Z" fill="#080A1E" fill-opacity="0.5"/>
<rect width="3.03553" height="1.52124" transform="matrix(-0.554162 0.832409 -0.889099 -0.457716 95.0063 55.667)" fill="#D39D00"/>
<rect width="2.1508" height="3.29391" transform="matrix(-0.994923 -0.100636 0.181619 -0.983369 100.827 62.2607)" fill="#080A1E" fill-opacity="0.5"/>
<path d="M84.9651 64.3214C84.0739 64.2293 83.1489 65.5052 83.2898 64.5654C83.4307 63.6256 84.2674 62.9384 85.1587 63.0305C86.0499 63.1226 86.6582 63.9591 86.5173 64.899C86.3764 65.8388 85.8564 64.4135 84.9651 64.3214Z" fill="#F1BE4B"/>
<path d="M87.6552 58.3308L84.0872 57.6011L84.5576 56.3956L87.6552 58.3308Z" fill="#DADADA"/>
<rect width="4.24269" height="1.40765" transform="matrix(1.02667 5.27428e-05 -0.0329879 0.971777 97.606 69.5244)" fill="#DADADA"/>
<path d="M96.1998 78.2425L96.2542 77.1275L95.146 76.768L96.2879 76.4384L96.3424 75.3234L96.9936 76.2347L98.1355 75.9051L97.3961 76.7979L98.0474 77.7092L96.9392 77.3497L96.1998 78.2425Z" fill="#7C7F97"/>
<circle cx="92.4113" cy="65.5755" r="1.52409" transform="rotate(166.03 92.4113 65.5755)" fill="#D39D00"/>
<path d="M89.786 73.5576C89.4473 72.1963 87.2089 71.5812 88.5755 71.2412C89.942 70.9012 91.3244 71.7293 91.6631 73.0907C92.0018 74.452 91.1685 75.8313 89.8019 76.1712C88.4354 76.5112 90.1247 74.919 89.786 73.5576Z" fill="#080A1E" fill-opacity="0.5"/>
<path d="M103.252 52.4011L102.16 52.7439L102.081 53.9187L101.486 52.9557L100.394 53.2984L101.118 52.3606L100.522 51.3976L101.565 51.7809L102.288 50.843L102.209 52.0178L103.252 52.4011Z" fill="#EAD300"/>
<rect width="3.03553" height="1.52124" transform="matrix(-0.103363 0.994644 -0.999965 0.00838364 120.67 17.5205)" fill="#D39D00"/>
<rect width="2.1508" height="3.29391" transform="matrix(-0.927547 0.373706 -0.296643 -0.954989 128.89 20.6494)" fill="#080A1E" fill-opacity="0.5"/>
<path d="M115.807 29.8524C114.975 30.1854 114.75 31.7452 114.437 30.8477C114.125 29.9502 114.546 28.9526 115.378 28.6196C116.209 28.2866 117.137 28.7442 117.449 29.6417C117.762 30.5392 116.639 29.5194 115.807 29.8524Z" fill="#F1BE4B"/>
<path d="M115.402 23.2981L111.904 24.3119L111.76 23.0259L115.402 23.2981Z" fill="#DADADA"/>
<rect width="4.24269" height="1.40765" transform="matrix(0.908865 -0.477513 0.422823 0.875591 129.417 28.5781)" fill="#DADADA"/>
<path d="M115.683 45.9199L115.212 44.9076L114.064 45.1048L114.922 44.2819L114.451 43.2695L115.452 43.7733L116.309 42.9504L116.07 44.0847L117.07 44.5884L115.922 44.7857L115.683 45.9199Z" fill="#7C7F97"/>
<path d="M119.426 39.1457L115.968 37.9865L116.622 36.7717L119.426 39.1457Z" fill="#EAD300"/>
<circle cx="122.982" cy="27.4996" r="1.52409" transform="rotate(138.309 122.982 27.4996)" fill="#D39D00"/>
<path d="M124.371 35.7862C123.438 34.7386 121.17 35.2353 122.222 34.2987C123.273 33.3621 124.882 33.452 125.815 34.4996C126.748 35.5472 126.652 37.1558 125.601 38.0924C124.549 39.029 125.304 36.8338 124.371 35.7862Z" fill="#080A1E" fill-opacity="0.5"/>
<ellipse cx="109.925" cy="35.4999" rx="1.69343" ry="1.52409" transform="rotate(138.309 109.925 35.4999)" fill="#080A1E" fill-opacity="0.5"/>
<path d="M110.578 29.459L109.439 29.3427L108.903 30.3907L108.736 29.2708L107.598 29.1544L108.633 28.5786L108.466 27.4587L109.273 28.2228L110.308 27.647L109.771 28.695L110.578 29.459Z" fill="#EAD300"/>
<rect width="3.03553" height="1.52124" transform="matrix(-0.103363 0.994644 -0.999965 0.00838364 155.537 46.0723)" fill="#D39D00"/>
<path d="M177.49 33.7721C176.594 33.7811 175.819 35.1532 175.853 34.2035C175.887 33.2538 176.64 32.4766 177.536 32.4675C178.432 32.4585 179.131 33.2211 179.097 34.1708C179.063 35.1205 178.386 33.763 177.49 33.7721Z" fill="#F1BE4B"/>
<path d="M179.487 27.5162L175.859 27.1938L176.191 25.9429L179.487 27.5162Z" fill="#DADADA"/>
<path d="M190.224 46.3367L190.152 45.2227L189.01 44.9905L190.108 44.5342L190.036 43.4202L190.786 44.2522L191.883 43.7958L191.249 44.7664L191.999 45.5983L190.857 45.3662L190.224 46.3367Z" fill="#7C7F97"/>
<path d="M177.496 43.7453L174.692 41.412L175.743 40.5168L177.496 43.7453Z" fill="#EAD300"/>
<circle cx="185.029" cy="34.1777" r="1.52409" transform="rotate(159.551 185.029 34.1777)" fill="#D39D00"/>
<path d="M183.322 42.4051C182.831 41.0906 180.538 40.7321 181.857 40.2401C183.177 39.7481 184.644 40.4148 185.134 41.7293C185.624 43.0438 184.952 44.5082 183.632 45.0002C182.313 45.4922 183.812 43.7196 183.322 42.4051Z" fill="#080A1E" fill-opacity="0.5"/>
<ellipse cx="169.961" cy="36.9048" rx="1.69343" ry="1.52409" transform="rotate(159.551 169.961 36.9048)" fill="#080A1E" fill-opacity="0.5"/>
<path d="M172.758 31.5113L171.739 30.9906L170.859 31.7729L171.11 30.6687L170.091 30.1479L171.265 29.9862L171.515 28.8821L171.99 29.8864L173.163 29.7247L172.283 30.507L172.758 31.5113Z" fill="#EAD300"/>
<rect width="3.03553" height="1.52124" transform="matrix(0.73873 -0.674001 0.752298 0.658823 235.512 76.1035)" fill="#D39D00"/>
<rect width="2.1508" height="3.29391" transform="matrix(0.941199 0.337854 -0.413652 0.910435 231.455 68.2998)" fill="#080A1E" fill-opacity="0.5"/>
<path d="M247.346 70.1296C248.188 70.4342 249.394 69.4193 249.03 70.2973C248.667 71.1753 247.689 71.6402 246.846 71.3356C246.003 71.0311 245.615 70.0724 245.979 69.1944C246.342 68.3164 246.503 69.825 247.346 70.1296Z" fill="#F1BE4B"/>
<path d="M243.289 75.2925L246.575 76.8619L245.827 77.9182L243.289 75.2925Z" fill="#DADADA"/>
<rect width="4.24269" height="1.40765" transform="matrix(-0.996291 -0.24791 0.266619 -0.935069 236.335 62.0293)" fill="#DADADA"/>
<path d="M239.804 53.908L239.482 54.9768L240.471 55.5933L239.283 55.6374L238.961 56.7063L238.549 55.6647L237.361 55.7089L238.294 55.021L237.882 53.9795L238.871 54.5959L239.804 53.908Z" fill="#7C7F97"/>
<path d="M250.824 60.7823L252.635 63.948L251.339 64.4198L250.824 60.7823Z" fill="#EAD300"/>
<circle cx="240.423" cy="67.1149" r="1.52409" fill="#D39D00"/>
<circle cx="223.15" cy="72.195" r="1.52409" fill="#D39D00"/>
<path d="M244.897 60.0021C244.897 61.4049 246.921 62.5422 245.513 62.5422C244.104 62.5422 242.963 61.4049 242.963 60.0021C242.963 58.5992 244.104 57.4619 245.513 57.4619C246.921 57.4619 244.897 58.5992 244.897 60.0021Z" fill="#080A1E" fill-opacity="0.5"/>
<ellipse cx="255.494" cy="69.8239" rx="1.69343" ry="1.52409" fill="#080A1E" fill-opacity="0.5"/>
<path d="M250.989 73.9006L251.761 74.7444L252.859 74.3189L252.239 75.266L253.011 76.1099L251.855 75.8513L251.235 76.7985L251.141 75.6916L249.985 75.4331L251.083 75.0075L250.989 73.9006Z" fill="#EAD300"/>
<rect width="3.03553" height="1.52124" transform="matrix(0.520291 0.853989 -0.790529 0.612424 263.285 73.1777)" fill="#D39D00"/>
<rect width="2.1508" height="3.29391" transform="matrix(-0.511608 0.859219 -0.814528 -0.580124 271.72 70.6885)" fill="#080A1E" fill-opacity="0.5"/>
<rect width="4.24269" height="1.40765" transform="matrix(0.43386 -0.930494 0.866825 0.440516 276.942 76.6777)" fill="#DADADA"/>
<path d="M284.25 81.6353L283.263 81.1148L282.469 81.9673L282.652 80.7931L281.665 80.2726L282.766 80.0674L282.95 78.8932L283.447 79.9406L284.548 79.7354L283.754 80.5879L284.25 81.6353Z" fill="#7C7F97"/>
<path d="M210.159 42.5224L206.705 43.695L206.49 42.3318L210.159 42.5224Z" fill="#EAD300"/>
<path d="M212.058 36.8543C210.681 36.586 209.178 38.3549 209.447 36.9727C209.717 35.5904 211.051 34.6874 212.428 34.9556C213.805 35.2239 214.703 36.5619 214.434 37.9442C214.164 39.3264 213.435 37.1226 212.058 36.8543Z" fill="#080A1E" fill-opacity="0.5"/>
<rect width="3.03553" height="1.52124" transform="matrix(-0.939061 0.343752 -0.446492 -0.894788 271.909 45.7627)" fill="#D39D00"/>
<rect width="2.1508" height="3.29391" transform="matrix(-0.742944 -0.669353 0.727838 -0.685749 272.705 54.5225)" fill="#080A1E" fill-opacity="0.5"/>
<path d="M258.694 46.8069C258.029 46.2057 256.529 46.6879 257.198 46.0132C257.867 45.3386 258.949 45.279 259.613 45.8802C260.277 46.4814 260.273 47.5157 259.604 48.1904C258.935 48.8651 259.358 47.4081 258.694 46.8069Z" fill="#F1BE4B"/>
<path d="M264.404 43.5659L261.958 40.868L263.05 40.1738L264.404 43.5659Z" fill="#DADADA"/>
<rect width="4.24269" height="1.40765" transform="matrix(0.828014 0.606999 -0.601109 0.764269 265.813 58.4766)" fill="#DADADA"/>
<path d="M259.525 64.6767L260.228 63.8096L259.547 62.8645L260.662 63.2738L261.365 62.4067L261.352 63.5267L262.468 63.9359L261.344 64.2189L261.33 65.3389L260.649 64.3937L259.525 64.6767Z" fill="#7C7F97"/>
<path d="M251.932 54.1392L251.456 50.5231L252.835 50.578L251.932 54.1392Z" fill="#EAD300"/>
<circle cx="263.957" cy="52.221" r="1.52409" transform="rotate(-157.729 263.957 52.221)" fill="#D39D00"/>
<path d="M257.121 57.1067C257.653 55.8084 256.211 53.9891 257.514 54.5228C258.817 55.0565 259.443 56.5415 258.911 57.8398C258.379 59.138 256.892 59.7578 255.589 59.2241C254.285 58.6904 256.589 58.4049 257.121 57.1067Z" fill="#080A1E" fill-opacity="0.5"/>
<ellipse cx="251.037" cy="44.0015" rx="1.69343" ry="1.52409" transform="rotate(-157.729 251.037 44.0015)" fill="#080A1E" fill-opacity="0.5"/>
<path d="M256.751 41.9362L256.356 40.8625L255.179 40.8403L256.112 40.1989L255.717 39.1252L256.689 39.8025L257.622 39.1612L257.289 40.2211L258.261 40.8985L257.084 40.8762L256.751 41.9362Z" fill="#EAD300"/>
<rect width="3.03553" height="1.52124" transform="matrix(-0.671388 0.741107 -0.811462 -0.584406 295.874 56.8301)" fill="#D39D00"/>
<rect width="2.1508" height="3.29391" transform="matrix(-0.969029 -0.246949 0.325326 -0.945602 300.653 64.2129)" fill="#080A1E" fill-opacity="0.5"/>
<path d="M284.661 63.9006C283.794 63.6774 282.69 64.8022 282.968 63.8936C283.247 62.985 284.176 62.4294 285.044 62.6526C285.912 62.8757 286.389 63.7932 286.111 64.7017C285.832 65.6103 285.529 64.1237 284.661 63.9006Z" fill="#F1BE4B"/>
<path d="M288.21 58.3756L284.789 57.1254L285.433 56.0028L288.21 58.3756Z" fill="#DADADA"/>
<rect width="4.24269" height="1.40765" transform="matrix(1.01533 0.15218 -0.176618 0.956162 296.392 70.9189)" fill="#DADADA"/>
<path d="M293.709 79.3335L293.928 78.2389L292.886 77.7191L294.064 77.5624L294.283 76.4678L294.792 77.4655L295.97 77.3087L295.107 78.0821L295.616 79.0798L294.573 78.5601L293.709 79.3335Z" fill="#7C7F97"/>
<path d="M282.086 73.5366L279.982 70.5572L281.228 69.9644L282.086 73.5366Z" fill="#EAD300"/>
<circle cx="291.839" cy="66.2447" r="1.52409" transform="rotate(174.551 291.839 66.2447)" fill="#D39D00"/>
<path d="M288.06 73.7497C287.927 72.3532 285.804 71.4133 287.206 71.2795C288.608 71.1458 289.853 72.1695 289.986 73.5661C290.119 74.9626 289.091 76.2031 287.689 76.3369C286.287 76.4706 288.193 75.1463 288.06 73.7497Z" fill="#080A1E" fill-opacity="0.5"/>
<ellipse cx="276.579" cy="64.9786" rx="1.69343" ry="1.52409" transform="rotate(174.551 276.579 64.9786)" fill="#080A1E" fill-opacity="0.5"/>
<path d="M280.676 60.4922L279.827 59.7255L278.775 60.2534L279.302 59.2517L278.453 58.485L279.629 58.6326L280.156 57.6308L280.355 58.7238L281.53 58.8713L280.478 59.3993L280.676 60.4922Z" fill="#EAD300"/>
<rect width="3.03553" height="1.52124" transform="matrix(-0.671388 0.741107 -0.811462 -0.584406 318.279 38.2432)" fill="#D39D00"/>
<ellipse cx="268.506" cy="27.4271" rx="1.69343" ry="1.52409" transform="rotate(-21.2414 268.506 27.4271)" fill="#080A1E" fill-opacity="0.5"/>
<rect width="3.03553" height="1.52124" transform="matrix(0.794342 0.607471 -0.514943 0.857225 276.981 27.7305)" fill="#D39D00"/>
<rect width="2.1508" height="3.29391" transform="matrix(-0.165558 0.9862 -0.969369 -0.24561 283.942 22.3545)" fill="#080A1E" fill-opacity="0.5"/>
<path d="M284.96 38.3165C284.81 39.1998 286.022 40.2064 285.094 40.0042C284.165 39.8021 283.534 38.9222 283.684 38.0389C283.835 37.1555 284.709 36.6033 285.638 36.8054C286.566 37.0076 285.11 37.4332 284.96 38.3165Z" fill="#F1BE4B"/>
<path d="M279.159 35.2404L278.197 38.7529L277.025 38.2046L279.159 35.2404Z" fill="#DADADA"/>
<rect width="4.24269" height="1.40765" transform="matrix(0.0672688 -1.02447 0.967532 0.0965394 290.979 26.0439)" fill="#DADADA"/>
<path d="M299.587 28.018L298.478 27.8906L298.047 28.9729L297.793 27.8119L296.684 27.6846L297.636 27.0944L297.381 25.9334L298.224 26.7296L299.176 26.1394L298.745 27.2217L299.587 28.018Z" fill="#7C7F97"/>
<path d="M294.776 40.0821L291.982 42.4263L291.287 41.2337L294.776 40.0821Z" fill="#EAD300"/>
<circle cx="286.699" cy="30.9685" r="1.52409" transform="rotate(79.7835 286.699 30.9685)" fill="#D39D00"/>
<path d="M294.493 34.1111C293.112 34.3599 292.352 36.5532 292.102 35.1673C291.852 33.7814 292.769 32.4562 294.15 32.2074C295.53 31.9586 296.852 32.8803 297.102 34.2662C297.351 35.6522 295.873 33.8622 294.493 34.1111Z" fill="#080A1E" fill-opacity="0.5"/>
<path d="M273.74 39.0329C272.36 39.2818 271.599 41.4751 271.349 40.0892C271.1 38.7033 272.016 37.3781 273.397 37.1293C274.778 36.8804 276.099 37.8022 276.349 39.1881C276.599 40.574 275.121 38.7841 273.74 39.0329Z" fill="#080A1E" fill-opacity="0.5"/>
<ellipse cx="286.706" cy="46.2826" rx="1.69343" ry="1.52409" transform="rotate(79.7835 286.706 46.2826)" fill="#080A1E" fill-opacity="0.5"/>
<path d="M281.894 42.5717L281.201 43.4816L281.814 44.4866L280.772 44.044L280.079 44.954L280.128 43.7705L279.086 43.3279L280.159 43.0391L280.208 41.8556L280.822 42.8605L281.894 42.5717Z" fill="#EAD300"/>
<rect width="3.03553" height="1.52124" transform="matrix(0.0407619 0.999169 -0.988363 0.152112 245.57 49.6396)" fill="#D39D00"/>
<path d="M233.502 50.289C232.727 50.7382 232.728 52.3141 232.29 51.4709C231.852 50.6277 232.125 49.5799 232.9 49.1307C233.676 48.6815 234.659 49.001 235.098 49.8442C235.536 50.6874 234.278 49.8398 233.502 50.289Z" fill="#F1BE4B"/>
<path d="M236.682 36.9815L233.366 38.4878L233.038 37.236L236.682 36.9815Z" fill="#DADADA"/>
<rect width="4.24269" height="1.40765" transform="matrix(0.991675 0.265773 -0.283378 0.930127 228.966 27.3369)" fill="#DADADA"/>
<path d="M225.352 35.3939L225.693 34.331L224.716 33.6969L225.904 33.6741L226.245 32.6112L226.638 33.66L227.827 33.6371L226.881 34.3082L227.275 35.3569L226.297 34.7229L225.352 35.3939Z" fill="#7C7F97"/>
<circle cx="239.855" cy="42.6912" r="1.52409" transform="rotate(130.04 239.855 42.6912)" fill="#D39D00"/>
<path d="M220.369 29.2097C220.395 27.807 218.392 26.6336 219.8 26.6589C221.208 26.6842 222.329 27.8418 222.303 29.2444C222.278 30.6471 221.116 31.7637 219.708 31.7384C218.3 31.7131 220.344 30.6123 220.369 29.2097Z" fill="#080A1E" fill-opacity="0.5"/>
<rect width="3.03553" height="1.52124" transform="matrix(-0.750723 0.660618 -0.740338 -0.672235 221.727 45.1152)" fill="#D39D00"/>
<rect width="2.1508" height="3.29391" transform="matrix(-0.934976 -0.354712 0.429945 -0.902855 225.643 52.9902)" fill="#080A1E" fill-opacity="0.5"/>
<path d="M209.788 50.8759C208.951 50.5562 207.727 51.5492 208.107 50.6779C208.486 49.8066 209.472 49.3594 210.309 49.679C211.146 49.9987 211.517 50.9642 211.138 51.8355C210.758 52.7068 210.625 51.1955 209.788 50.8759Z" fill="#F1BE4B"/>
<path d="M213.937 45.7856L210.679 44.1574L211.446 43.1147L213.937 45.7856Z" fill="#DADADA"/>
<rect width="4.24269" height="1.40765" transform="matrix(0.991675 0.265773 -0.283378 0.930127 220.651 59.1738)" fill="#DADADA"/>
<path d="M217.037 67.2308L217.378 66.1679L216.4 65.5338L217.589 65.511L217.93 64.4481L218.323 65.4969L219.511 65.4741L218.566 66.1451L218.959 67.1939L217.982 66.5598L217.037 67.2308Z" fill="#7C7F97"/>
<circle cx="216.655" cy="54.0152" r="1.52409" transform="rotate(-178.97 216.655 54.0152)" fill="#D39D00"/>
<path d="M212.054 61.0456C212.079 59.643 210.076 58.4695 211.484 58.4948C212.892 58.5201 214.013 59.6777 213.988 61.0804C213.963 62.483 212.801 63.5996 211.393 63.5743C209.985 63.549 212.029 62.4483 212.054 61.0456Z" fill="#080A1E" fill-opacity="0.5"/>
<path d="M230.536 44.0942L229.393 44.1428L229.013 45.2571L228.687 44.1728L227.544 44.2213L228.485 43.5027L228.159 42.4184L229.067 43.0585L230.009 42.3398L229.628 43.4541L230.536 44.0942Z" fill="#EAD300"/>
<rect width="3.03553" height="1.52124" transform="matrix(-0.357274 0.934 -0.968062 -0.250712 256.389 14.9111)" fill="#D39D00"/>
<rect width="2.1508" height="3.29391" transform="matrix(-0.992664 0.120905 -0.0393657 -0.999225 263.519 20.0615)" fill="#080A1E" fill-opacity="0.5"/>
<path d="M248.5 25.5638C247.611 25.6702 246.989 27.1185 246.92 26.1707C246.85 25.2229 247.515 24.3684 248.405 24.262C249.294 24.1556 250.072 24.8377 250.141 25.7854C250.211 26.7332 249.39 25.4575 248.5 25.5638Z" fill="#F1BE4B"/>
<path d="M249.805 19.1274L246.164 19.2013L246.358 17.9218L249.805 19.1274Z" fill="#DADADA"/>
<rect width="4.24269" height="1.40765" transform="matrix(1.00149 -0.226011 0.181796 0.95519 261.976 27.8555)" fill="#DADADA"/>
<path d="M244.221 41.0524L244.029 39.9528L242.868 39.8461L243.91 39.2732L243.717 38.1736L244.553 38.9191L245.595 38.3462L245.07 39.3799L245.906 40.1254L244.746 40.0187L244.221 41.0524Z" fill="#7C7F97"/>
<path d="M249.59 35.4781L246.55 33.4633L247.496 32.4593L249.59 35.4781Z" fill="#EAD300"/>
<circle cx="256.039" cy="25.1481" r="1.52409" transform="rotate(153.309 256.039 25.1481)" fill="#D39D00"/>
<path d="M255.236 33.5125C254.606 32.2591 252.287 32.152 253.545 31.5194C254.804 30.8869 256.334 31.3902 256.965 32.6436C257.595 33.897 257.086 35.4259 255.827 36.0584C254.569 36.6909 255.866 34.7659 255.236 33.5125Z" fill="#080A1E" fill-opacity="0.5"/>
<ellipse cx="241.357" cy="29.4966" rx="1.69343" ry="1.52409" transform="rotate(153.309 241.357 29.4966)" fill="#080A1E" fill-opacity="0.5"/>
<path d="M243.551 23.83L242.482 23.423L241.692 24.2964L241.821 23.1715L240.751 22.7646L241.9 22.4763L242.029 21.3514L242.61 22.2982L243.759 22.0099L242.97 22.8833L243.551 23.83Z" fill="#EAD300"/>
<rect width="3.03553" height="1.52124" transform="matrix(-0.357274 0.934 -0.968062 -0.250712 282.678 51.5137)" fill="#D39D00"/>
<path d="M307.066 45.3146C306.198 45.0915 305.094 46.2162 305.373 45.3077C305.652 44.3991 306.581 43.8435 307.449 44.0666C308.317 44.2898 308.794 45.2072 308.516 46.1158C308.237 47.0244 307.934 45.5378 307.066 45.3146Z" fill="#F1BE4B"/>
<path d="M310.615 39.7897L307.194 38.5394L307.838 37.4169L310.615 39.7897Z" fill="#DADADA"/>
<path d="M316.114 60.7475L316.333 59.6529L315.291 59.1332L316.469 58.9764L316.688 57.8818L317.197 58.8795L318.375 58.7228L317.511 59.4962L318.02 60.4939L316.978 59.9741L316.114 60.7475Z" fill="#7C7F97"/>
<path d="M304.491 54.9507L302.387 51.9712L303.633 51.3784L304.491 54.9507Z" fill="#EAD300"/>
<circle cx="314.244" cy="47.6588" r="1.52409" transform="rotate(174.551 314.244 47.6588)" fill="#D39D00"/>
<path d="M310.465 55.1638C310.332 53.7673 308.209 52.8273 309.611 52.6936C311.013 52.5599 312.257 53.5836 312.391 54.9801C312.524 56.3767 311.495 57.6172 310.094 57.7509C308.692 57.8847 310.598 56.5604 310.465 55.1638Z" fill="#080A1E" fill-opacity="0.5"/>
<ellipse cx="298.983" cy="46.3926" rx="1.69343" ry="1.52409" transform="rotate(174.551 298.983 46.3926)" fill="#080A1E" fill-opacity="0.5"/>
<path d="M303.081 41.9063L302.232 41.1396L301.18 41.6675L301.707 40.6657L300.858 39.899L302.033 40.0466L302.561 39.0449L302.76 40.1378L303.935 40.2854L302.882 40.8133L303.081 41.9063Z" fill="#EAD300"/>
<ellipse cx="376.506" cy="27.9554" rx="1.69343" ry="1.52409" transform="rotate(180 376.506 27.9554)" fill="#080A1E" fill-opacity="0.5"/>
<rect width="3.03553" height="1.52124" transform="matrix(-0.520291 -0.853989 0.790529 -0.612424 368.715 24.6016)" fill="#D39D00"/>
<rect width="2.1508" height="3.29391" transform="matrix(0.511608 -0.859219 0.814528 0.580124 360.28 27.0908)" fill="#080A1E" fill-opacity="0.5"/>
<rect width="4.24269" height="1.40765" transform="matrix(-0.43386 0.930494 -0.866825 -0.440516 355.058 21.1016)" fill="#DADADA"/>
<path d="M347.75 16.144L348.737 16.6645L349.531 15.812L349.348 16.9862L350.335 17.5067L349.234 17.7119L349.05 18.8861L348.553 17.8387L347.452 18.0439L348.246 17.1914L347.75 16.144Z" fill="#7C7F97"/>
<rect width="3.03553" height="1.52124" transform="matrix(0.939061 -0.343752 0.446492 0.894788 360.091 52.0166)" fill="#D39D00"/>
<rect width="2.1508" height="3.29391" transform="matrix(0.742944 0.669353 -0.727838 0.685749 359.295 43.2568)" fill="#080A1E" fill-opacity="0.5"/>
<path d="M373.306 50.9724C373.971 51.5736 375.471 51.0914 374.802 51.766C374.133 52.4407 373.051 52.5003 372.387 51.8991C371.723 51.2979 371.727 50.2636 372.396 49.5889C373.065 48.9142 372.642 50.3712 373.306 50.9724Z" fill="#F1BE4B"/>
<path d="M367.596 54.2134L370.042 56.9113L368.95 57.6055L367.596 54.2134Z" fill="#DADADA"/>
<rect width="4.24269" height="1.40765" transform="matrix(-0.828014 -0.606999 0.601109 -0.764269 366.187 39.3027)" fill="#DADADA"/>
<path d="M372.475 33.1026L371.772 33.9697L372.453 34.9148L371.338 34.5055L370.635 35.3726L370.648 34.2526L369.532 33.8434L370.656 33.5604L370.67 32.4404L371.351 33.3856L372.475 33.1026Z" fill="#7C7F97"/>
<circle cx="368.043" cy="45.5583" r="1.52409" transform="rotate(22.271 368.043 45.5583)" fill="#D39D00"/>
<path d="M374.879 40.6726C374.347 41.9709 375.789 43.7902 374.486 43.2565C373.182 42.7228 372.557 41.2378 373.089 39.9395C373.62 38.6413 375.108 38.0215 376.411 38.5552C377.714 39.0889 375.41 39.3744 374.879 40.6726Z" fill="#080A1E" fill-opacity="0.5"/>
<path d="M375.249 55.8431L375.644 56.9168L376.821 56.939L375.888 57.5804L376.283 58.6541L375.311 57.9768L374.378 58.6181L374.711 57.5582L373.739 56.8808L374.916 56.9031L375.249 55.8431Z" fill="#EAD300"/>
<rect width="3.03553" height="1.52124" transform="matrix(0.671387 -0.741107 0.811462 0.584406 336.125 40.9492)" fill="#D39D00"/>
<rect width="2.1508" height="3.29391" transform="matrix(0.969029 0.246949 -0.325326 0.945602 331.347 33.5664)" fill="#080A1E" fill-opacity="0.5"/>
<path d="M347.339 33.8787C348.206 34.1019 349.31 32.9771 349.032 33.8857C348.753 34.7943 347.824 35.3499 346.956 35.1267C346.088 34.9036 345.611 33.9861 345.889 33.0775C346.168 32.169 346.471 33.6556 347.339 33.8787Z" fill="#F1BE4B"/>
<path d="M343.79 39.4037L347.211 40.6539L346.567 41.7765L343.79 39.4037Z" fill="#DADADA"/>
<rect width="4.24269" height="1.40765" transform="matrix(-1.01533 -0.15218 0.176618 -0.956162 335.608 26.8604)" fill="#DADADA"/>
<path d="M338.291 18.4458L338.072 19.5404L339.114 20.0602L337.936 20.2169L337.717 21.3115L337.208 20.3138L336.03 20.4706L336.893 19.6972L336.384 18.6995L337.427 19.2192L338.291 18.4458Z" fill="#7C7F97"/>
<path d="M349.914 24.2427L352.018 27.2221L350.772 27.8149L349.914 24.2427Z" fill="#EAD300"/>
<circle cx="340.161" cy="31.5346" r="1.52409" transform="rotate(-5.44913 340.161 31.5346)" fill="#D39D00"/>
<path d="M343.94 24.0295C344.073 25.4261 346.196 26.366 344.794 26.4998C343.392 26.6335 342.147 25.6098 342.014 24.2132C341.881 22.8167 342.909 21.5762 344.311 21.4424C345.713 21.3087 343.807 22.633 343.94 24.0295Z" fill="#080A1E" fill-opacity="0.5"/>
<ellipse cx="355.421" cy="32.8007" rx="1.69343" ry="1.52409" transform="rotate(-5.44913 355.421 32.8007)" fill="#080A1E" fill-opacity="0.5"/>
<path d="M351.324 37.2871L352.173 38.0538L353.225 37.5259L352.698 38.5276L353.547 39.2943L352.371 39.1467L351.844 40.1485L351.645 39.0555L350.47 38.9079L351.522 38.38L351.324 37.2871Z" fill="#EAD300"/>
<rect width="3.03553" height="1.52124" transform="matrix(0.671387 -0.741107 0.811462 0.584406 313.721 59.5361)" fill="#D39D00"/>
<ellipse cx="363.494" cy="70.3522" rx="1.69343" ry="1.52409" transform="rotate(158.759 363.494 70.3522)" fill="#080A1E" fill-opacity="0.5"/>
<rect width="3.03553" height="1.52124" transform="matrix(-0.794342 -0.607471 0.514943 -0.857225 355.019 70.0488)" fill="#D39D00"/>
<rect width="2.1508" height="3.29391" transform="matrix(0.165558 -0.9862 0.969369 0.24561 348.058 75.4248)" fill="#080A1E" fill-opacity="0.5"/>
<path d="M347.04 59.4628C347.19 58.5795 345.977 57.5729 346.906 57.7751C347.834 57.9772 348.465 58.8571 348.315 59.7404C348.165 60.6238 347.29 61.176 346.362 60.9739C345.433 60.7717 346.889 60.3461 347.04 59.4628Z" fill="#F1BE4B"/>
<path d="M352.841 62.5389L353.802 59.0264L354.975 59.5747L352.841 62.5389Z" fill="#DADADA"/>
<rect width="4.24269" height="1.40765" transform="matrix(-0.0672687 1.02447 -0.967532 -0.0965393 341.021 71.7354)" fill="#DADADA"/>
<path d="M332.412 69.7613L333.521 69.8887L333.953 68.8064L334.207 69.9674L335.316 70.0947L334.364 70.6849L334.618 71.8459L333.776 71.0497L332.824 71.6399L333.255 70.5576L332.412 69.7613Z" fill="#7C7F97"/>
<path d="M337.224 57.6972L340.018 55.353L340.713 56.5456L337.224 57.6972Z" fill="#EAD300"/>
<circle cx="345.301" cy="66.8108" r="1.52409" transform="rotate(-100.217 345.301 66.8108)" fill="#D39D00"/>
<path d="M337.507 63.6682C338.888 63.4194 339.648 61.2261 339.898 62.612C340.148 63.9979 339.231 65.3231 337.85 65.5719C336.47 65.8207 335.148 64.899 334.898 63.513C334.649 62.1271 336.127 63.9171 337.507 63.6682Z" fill="#080A1E" fill-opacity="0.5"/>
<path d="M358.259 58.7464C359.64 58.4975 360.4 56.3042 360.65 57.6901C360.9 59.076 359.983 60.4012 358.602 60.65C357.222 60.8989 355.9 59.9771 355.65 58.5912C355.4 57.2053 356.879 58.9952 358.259 58.7464Z" fill="#080A1E" fill-opacity="0.5"/>
<ellipse cx="345.294" cy="51.4967" rx="1.69343" ry="1.52409" transform="rotate(-100.217 345.294 51.4967)" fill="#080A1E" fill-opacity="0.5"/>
<path d="M350.105 55.2076L350.799 54.2977L350.185 53.2927L351.227 53.7353L351.921 52.8253L351.871 54.0088L352.914 54.4514L351.841 54.7402L351.791 55.9237L351.178 54.9188L350.105 55.2076Z" fill="#EAD300"/>
<rect width="2.1508" height="3.29391" transform="matrix(0.992664 -0.120905 0.0393659 0.999225 368.481 77.7178)" fill="#080A1E" fill-opacity="0.5"/>
<rect width="4.24269" height="1.40765" transform="matrix(-1.00149 0.226011 -0.181796 -0.95519 370.024 69.9238)" fill="#DADADA"/>
<circle cx="375.961" cy="72.6312" r="1.52409" transform="rotate(-26.6905 375.961 72.6312)" fill="#D39D00"/>
<path d="M376.764 64.2668C377.394 65.5202 379.713 65.6273 378.455 66.2599C377.196 66.8924 375.666 66.3891 375.035 65.1357C374.405 63.8823 374.914 62.3534 376.173 61.7209C377.431 61.0884 376.134 63.0134 376.764 64.2668Z" fill="#080A1E" fill-opacity="0.5"/>
<rect width="3.03553" height="1.52124" transform="matrix(0.357274 -0.934 0.968062 0.250712 349.322 46.2656)" fill="#D39D00"/>
<path d="M324.934 52.4647C325.802 52.6878 326.906 51.5631 326.627 52.4716C326.348 53.3802 325.419 53.9358 324.551 53.7127C323.683 53.4895 323.206 52.5721 323.484 51.6635C323.763 50.7549 324.066 52.2415 324.934 52.4647Z" fill="#F1BE4B"/>
<path d="M321.385 57.9896L324.806 59.2399L324.162 60.3624L321.385 57.9896Z" fill="#DADADA"/>
<path d="M315.886 37.0318L315.667 38.1264L316.709 38.6461L315.531 38.8029L315.312 39.8975L314.803 38.8998L313.625 39.0565L314.489 38.2831L313.98 37.2854L315.022 37.8052L315.886 37.0318Z" fill="#7C7F97"/>
<path d="M327.509 42.8296L329.613 45.809L328.367 46.4018L327.509 42.8296Z" fill="#EAD300"/>
<circle cx="317.756" cy="50.1205" r="1.52409" transform="rotate(-5.44913 317.756 50.1205)" fill="#D39D00"/>
<path d="M321.535 42.6155C321.668 44.012 323.79 44.952 322.388 45.0857C320.987 45.2194 319.742 44.1957 319.609 42.7992C319.476 41.4026 320.504 40.1621 321.906 40.0284C323.308 39.8946 321.401 41.2189 321.535 42.6155Z" fill="#080A1E" fill-opacity="0.5"/>
<ellipse cx="333.017" cy="51.3867" rx="1.69343" ry="1.52409" transform="rotate(-5.44913 333.017 51.3867)" fill="#080A1E" fill-opacity="0.5"/>
<path d="M328.919 55.873L329.768 56.6397L330.82 56.1118L330.293 57.1136L331.142 57.8803L329.967 57.7327L329.439 58.7344L329.24 57.6415L328.065 57.4939L329.118 56.966L328.919 55.873Z" fill="#EAD300"/>
</svg>
