<svg width="31" height="31" viewBox="0 0 31 31" fill="none" xmlns="http://www.w3.org/2000/svg">
<path d="M1.57942 16.1621L29.4206 16.1621C28.6721 23.1888 22.7252 28.6621 15.5 28.6621C8.27476 28.6621 2.32788 23.1888 1.57942 16.1621Z" fill="#F1BC00" stroke="#F1BC00" stroke-width="3" stroke-linecap="round"/>
<path fill-rule="evenodd" clip-rule="evenodd" d="M23.1264 3.62012L21.8434 4.9004L25.0889 8.15274L26.3719 6.87245L23.1264 3.62012ZM4.62549 6.88039L7.87102 3.62806L9.15399 4.90835L5.90846 8.16068L4.62549 6.88039ZM9.96182 23.6951C11.6012 24.7905 13.5285 25.3751 15.5002 25.3751C18.144 25.3751 20.6796 24.3248 22.5491 22.4553C24.4186 20.5858 25.4689 18.0502 25.4689 15.4064C25.4689 13.4347 24.8843 11.5074 23.7889 9.86802C22.6935 8.22867 21.1366 6.95095 19.315 6.19644C17.4935 5.44193 15.4891 5.24451 13.5554 5.62916C11.6216 6.0138 9.84535 6.96324 8.45119 8.35739C7.05704 9.75154 6.1076 11.5278 5.72296 13.4616C5.33831 15.3953 5.53573 17.3997 6.29024 19.2212C7.04475 21.0428 8.32247 22.5997 9.96182 23.6951ZM10.9688 8.62469C12.3101 7.72847 13.887 7.25011 15.5002 7.25011C17.6633 7.25011 19.7379 8.10943 21.2675 9.63902C22.7971 11.1686 23.6564 13.2432 23.6564 15.4064C23.6564 17.0195 23.1781 18.5964 22.2818 19.9377C21.3856 21.279 20.1118 22.3244 18.6214 22.9418C17.1311 23.5591 15.4911 23.7206 13.909 23.4059C12.3268 23.0912 10.8735 22.3144 9.73282 21.1737C8.59215 20.033 7.81534 18.5797 7.50063 16.9976C7.18592 15.4154 7.34744 13.7755 7.96477 12.2851C8.5821 10.7947 9.6275 9.52091 10.9688 8.62469ZM16.4064 14.5001H20.0314V16.3126H16.4064V19.9376H14.5939V16.3126H10.9689V14.5001H14.5939V10.8751H16.4064V14.5001Z" fill="#000000"/>
</svg>
