<svg width="40" height="40" viewBox="0 0 40 40" fill="none" xmlns="http://www.w3.org/2000/svg">
<rect width="40" height="40" rx="10" fill="url(#paint0_linear_924_33327)"/>
<path d="M23.6997 18.5385L18.1731 20.4231V28.1154C20.3121 28.1154 21.9317 27.4872 23.0318 26.2308C24.1406 24.9744 24.695 23.0812 24.695 20.5513H27C27 22.5769 26.642 24.3077 25.9261 25.7436C25.2189 27.1795 24.2148 28.2479 22.9139 28.9487C21.6218 29.6496 20.0764 30 18.2778 30C17.265 30 16.4618 29.9145 15.8681 29.7436V21.1795L13 22.1538V20.4487L15.8681 19.5V17.4231L13 18.3718V16.6667L15.8681 15.7179V11H18.1731V14.9359L23.6997 13.0769V14.7821L18.1731 16.641V18.7179L23.6997 16.8462V18.5385Z" fill="white"/>
<defs>
<linearGradient id="paint0_linear_924_33327" x1="20" y1="0" x2="20" y2="40" gradientUnits="userSpaceOnUse">
<stop stop-color="#0D7C52"/>
<stop offset="1" stop-color="#2FBD87"/>
</linearGradient>
</defs>
</svg>
