<svg width="27" height="20" viewBox="0 0 27 20" fill="none" xmlns="http://www.w3.org/2000/svg">
<path d="M8.52908 0.785757C8.62971 0.326935 9.03613 0 9.50586 0H16.8411C17.3109 0 17.7173 0.326933 17.8179 0.785755L19.3668 7.84754C19.5037 8.47133 19.0287 9.06178 18.3901 9.06178H7.95694C7.31832 9.06178 6.84334 8.47133 6.98016 7.84754L8.52908 0.785757Z" fill="url(#paint0_linear_923_32658)"/>
<path d="M1.57253 11.2203C1.67317 10.7615 2.07958 10.4346 2.54931 10.4346H9.8846C10.3543 10.4346 10.7607 10.7615 10.8614 11.2203L12.4103 18.2821C12.5471 18.9059 12.0721 19.4964 11.4335 19.4964H1.0004C0.361777 19.4964 -0.113204 18.9059 0.0236171 18.2821L1.57253 11.2203Z" fill="url(#paint1_linear_923_32658)"/>
<path d="M15.4856 11.2203C15.5863 10.7615 15.9927 10.4346 16.4624 10.4346H23.7977C24.2674 10.4346 24.6738 10.7615 24.7745 11.2203L26.3234 18.2821C26.4602 18.9059 25.9852 19.4964 25.3466 19.4964H14.9135C14.2749 19.4964 13.7999 18.9059 13.9367 18.2821L15.4856 11.2203Z" fill="url(#paint2_linear_923_32658)"/>
<defs>
<linearGradient id="paint0_linear_923_32658" x1="13.1735" y1="0" x2="13.1735" y2="9.06178" gradientUnits="userSpaceOnUse">
<stop stop-color="#ECB812"/>
<stop offset="1" stop-color="#D39D00"/>
</linearGradient>
<linearGradient id="paint1_linear_923_32658" x1="6.21696" y1="10.4346" x2="6.21696" y2="19.4964" gradientUnits="userSpaceOnUse">
<stop stop-color="#ECB812"/>
<stop offset="1" stop-color="#D39D00"/>
</linearGradient>
<linearGradient id="paint2_linear_923_32658" x1="20.13" y1="10.4346" x2="20.13" y2="19.4964" gradientUnits="userSpaceOnUse">
<stop stop-color="#ECB812"/>
<stop offset="1" stop-color="#D39D00"/>
</linearGradient>
</defs>
</svg>
