<svg width="40" height="40" viewBox="0 0 40 40" fill="none" xmlns="http://www.w3.org/2000/svg">
<rect width="40" height="40" rx="10" fill="url(#paint0_linear_924_33271)"/>
<path d="M13.9392 12C15.4714 12 16.7608 12.5079 17.8076 13.5238C18.8543 14.5397 19.3777 15.7871 19.3777 17.2661C19.3777 18.7451 18.8543 19.9925 17.8076 21.0084C16.7608 22.0243 15.4714 22.5322 13.9392 22.5322H11.1402V27.6863H8V12H13.9392ZM13.9392 19.6415C14.6066 19.6415 15.1604 19.4174 15.6003 18.9692C16.0402 18.5061 16.2602 17.9384 16.2602 17.2661C16.2602 16.5789 16.0402 16.0112 15.6003 15.563C15.1604 15.1148 14.6066 14.8908 13.9392 14.8908H11.1402V19.6415H13.9392Z" fill="white"/>
<path d="M30.0646 12H33V27.6863H30.0646V26.3641C29.1999 27.4547 27.9711 28 26.3782 28C24.846 28 23.5338 27.4323 22.4415 26.2969C21.3644 25.1466 20.8259 23.7423 20.8259 22.084C20.8259 20.4258 21.3644 19.0289 22.4415 17.8936C23.5338 16.7432 24.846 16.1681 26.3782 16.1681C27.9711 16.1681 29.1999 16.7134 30.0646 17.8039V12ZM24.6488 24.3697C25.2556 24.9524 26.0141 25.2437 26.9243 25.2437C27.8345 25.2437 28.5855 24.9524 29.1771 24.3697C29.7687 23.7722 30.0646 23.0103 30.0646 22.084C30.0646 21.1578 29.7687 20.4034 29.1771 19.8207C28.5855 19.2232 27.8345 18.9244 26.9243 18.9244C26.0141 18.9244 25.2556 19.2232 24.6488 19.8207C24.0571 20.4034 23.7613 21.1578 23.7613 22.084C23.7613 23.0103 24.0571 23.7722 24.6488 24.3697Z" fill="white"/>
<defs>
<linearGradient id="paint0_linear_924_33271" x1="32.7928" y1="6.12613" x2="46" y2="25.5" gradientUnits="userSpaceOnUse">
<stop stop-color="#BAB5B5"/>
<stop offset="0.994792" stop-color="#5A5757"/>
</linearGradient>
</defs>
</svg>
