<svg width="19" height="20" viewBox="0 0 19 20" fill="none" xmlns="http://www.w3.org/2000/svg">
<path d="M6 15C6 15.5523 5.55228 16 5 16H2C1.44772 16 1 15.5523 1 15V9C1 8.44771 1.44772 8 2 8H5C5.55228 8 6 8.44771 6 9V15ZM12 15C12 15.5523 11.5523 16 11 16H8C7.44772 16 7 15.5523 7 15V5C7 4.44771 7.44772 4 8 4H11C11.5523 4 12 4.44772 12 5V15ZM18 15C18 15.5523 17.5523 16 17 16H14C13.4477 16 13 15.5523 13 15V1C13 0.447715 13.4477 0 14 0H17C17.5523 0 18 0.447715 18 1V15ZM19 19C19 19.5523 18.5523 20 18 20H1C0.447715 20 0 19.5523 0 19C0 18.4477 0.447715 18 1 18H18C18.5523 18 19 18.4477 19 19Z" fill="url(#paint0_linear_1246_32762)"/>
<defs>
<linearGradient id="paint0_linear_1246_32762" x1="9.5" y1="0" x2="9.5" y2="20" gradientUnits="userSpaceOnUse">
<stop stop-color="#625A5A"/>
<stop offset="1" stop-color="#343538"/>
</linearGradient>
</defs>
</svg>
