<svg width="40" height="40" viewBox="0 0 40 40" fill="none" xmlns="http://www.w3.org/2000/svg">
<rect width="40" height="40" rx="10" fill="url(#paint0_linear_924_33354)"/>
<path d="M14.5417 12C16.2293 12 17.6496 12.5473 18.8025 13.6418C19.9555 14.7364 20.5319 16.0804 20.5319 17.674C20.5319 19.2675 19.9555 20.6116 18.8025 21.7061C17.6496 22.8007 16.2293 23.348 14.5417 23.348H11.4588V28.9012H8V12H14.5417ZM14.5417 20.2333C15.2769 20.2333 15.8868 19.9919 16.3713 19.509C16.8559 19.01 17.0982 18.3983 17.0982 17.674C17.0982 16.9335 16.8559 16.3219 16.3713 15.839C15.8868 15.3561 15.2769 15.1147 14.5417 15.1147H11.4588V20.2333H14.5417Z" fill="white"/>
<path d="M31 19.8229H28.1678V24.8449C28.1678 25.2634 28.2764 25.5693 28.4936 25.7624C28.7108 25.9556 29.0283 26.0683 29.446 26.1005C29.8638 26.1165 30.3818 26.1085 31 26.0763V28.9012C28.7777 29.1427 27.207 28.9415 26.288 28.2976C25.3857 27.6538 24.9345 26.5029 24.9345 24.8449V19.8229H22.754V16.8289H24.9345V14.3903L28.1678 13.4487V16.8289H31V19.8229Z" fill="white"/>
<defs>
<linearGradient id="paint0_linear_924_33354" x1="27" y1="16.5" x2="9.49884e-07" y2="5.04504" gradientUnits="userSpaceOnUse">
<stop stop-color="#373636"/>
<stop offset="0.994792" stop-color="#3D3D3D" stop-opacity="0.37"/>
</linearGradient>
</defs>
</svg>
