<svg width="40" height="40" viewBox="0 0 40 40" fill="none" xmlns="http://www.w3.org/2000/svg">
<rect width="40" height="40" rx="10" fill="url(#paint0_linear_924_33538)"/>
<path d="M16.7983 12.6263C16.8785 12.2606 17.2025 12 17.5769 12H23.4235C23.7979 12 24.1218 12.2606 24.202 12.6263L25.4366 18.2549C25.5457 18.7521 25.1671 19.2227 24.6581 19.2227H16.3423C15.8333 19.2227 15.4547 18.7521 15.5637 18.2549L16.7983 12.6263Z" fill="white"/>
<path d="M11.2534 20.9432C11.3336 20.5775 11.6575 20.3169 12.0319 20.3169H17.8786C18.253 20.3169 18.5769 20.5775 18.6571 20.9432L19.8917 26.5718C20.0007 27.069 19.6222 27.5396 19.1131 27.5396H10.7974C10.2884 27.5396 9.90977 27.069 10.0188 26.5718L11.2534 20.9432Z" fill="white"/>
<path d="M22.3427 20.9432C22.423 20.5775 22.7469 20.3169 23.1213 20.3169H28.9679C29.3423 20.3169 29.6663 20.5775 29.7465 20.9432L30.981 26.5718C31.0901 27.069 30.7115 27.5396 30.2025 27.5396H21.8867C21.3777 27.5396 20.9991 27.069 21.1082 26.5718L22.3427 20.9432Z" fill="white"/>
<defs>
<linearGradient id="paint0_linear_924_33538" x1="20" y1="0" x2="20" y2="40" gradientUnits="userSpaceOnUse">
<stop stop-color="#EBB711"/>
<stop offset="1" stop-color="#D49E00"/>
</linearGradient>
</defs>
</svg>
