<svg width="261" height="324" viewBox="0 0 261 324" fill="none" xmlns="http://www.w3.org/2000/svg">
<path d="M104.016 129.656C103.248 130.408 102.288 130.784 101.136 130.784C99.984 130.784 99.016 130.4 98.232 129.632C97.464 128.864 97.08 127.928 97.08 126.824C97.08 125.72 97.464 124.784 98.232 124.016C99.016 123.248 99.984 122.864 101.136 122.864C102.288 122.864 103.248 123.248 104.016 124.016C104.784 124.768 105.168 125.704 105.168 126.824C105.168 127.944 104.784 128.888 104.016 129.656ZM98.784 137.456L109.728 125.288L111.192 126.104L100.224 138.296L98.784 137.456ZM100.032 127.928C100.32 128.216 100.68 128.36 101.112 128.36C101.544 128.36 101.904 128.216 102.192 127.928C102.48 127.624 102.624 127.256 102.624 126.824C102.624 126.392 102.48 126.032 102.192 125.744C101.904 125.456 101.544 125.312 101.112 125.312C100.68 125.312 100.32 125.456 100.032 125.744C99.76 126.032 99.624 126.392 99.624 126.824C99.624 127.256 99.76 127.624 100.032 127.928ZM112.128 139.136C111.36 139.904 110.4 140.288 109.248 140.288C108.096 140.288 107.136 139.904 106.368 139.136C105.6 138.368 105.216 137.432 105.216 136.328C105.216 135.224 105.6 134.288 106.368 133.52C107.136 132.752 108.096 132.368 109.248 132.368C110.4 132.368 111.36 132.752 112.128 133.52C112.896 134.288 113.28 135.224 113.28 136.328C113.28 137.432 112.896 138.368 112.128 139.136ZM108.168 137.432C108.456 137.72 108.816 137.864 109.248 137.864C109.68 137.864 110.032 137.712 110.304 137.408C110.592 137.104 110.736 136.744 110.736 136.328C110.736 135.896 110.592 135.536 110.304 135.248C110.032 134.944 109.68 134.792 109.248 134.792C108.816 134.792 108.456 134.944 108.168 135.248C107.896 135.536 107.76 135.896 107.76 136.328C107.76 136.76 107.896 137.128 108.168 137.432ZM127.936 134.072V137.144H126.136V140H122.8V137.144H114.856V134.072L120.448 123.2H124L118.432 134.072H122.8V130.088H126.136V134.072H127.936ZM135.535 128.648C137.279 128.696 138.695 129.264 139.783 130.352C140.871 131.424 141.415 132.8 141.415 134.48C141.415 136.192 140.847 137.6 139.711 138.704C138.575 139.792 137.111 140.336 135.319 140.336C133.527 140.336 132.063 139.792 130.927 138.704C129.807 137.616 129.247 136.208 129.247 134.48C129.247 133.2 129.575 132.072 130.231 131.096L135.463 123.2H139.255L135.535 128.648ZM133.327 136.472C133.855 136.968 134.519 137.216 135.319 137.216C136.119 137.216 136.783 136.968 137.311 136.472C137.855 135.976 138.127 135.312 138.127 134.48C138.127 133.664 137.855 133.008 137.311 132.512C136.783 132.016 136.119 131.768 135.319 131.768C134.519 131.768 133.855 132.016 133.327 132.512C132.799 132.992 132.535 133.648 132.535 134.48C132.535 135.312 132.799 135.976 133.327 136.472ZM146.988 136.688L145.188 143.36H142.668L143.628 136.688H146.988ZM154.892 129.32C156.508 129.32 157.868 129.808 158.972 130.784C160.076 131.744 160.628 133.088 160.628 134.816C160.628 136.544 160.044 137.896 158.876 138.872C157.724 139.848 156.308 140.336 154.628 140.336C153.268 140.336 152.068 140.032 151.028 139.424C149.988 138.816 149.236 137.92 148.772 136.736L151.604 135.08C152.02 136.424 153.028 137.096 154.628 137.096C155.476 137.096 156.132 136.896 156.596 136.496C157.076 136.08 157.316 135.52 157.316 134.816C157.316 134.128 157.084 133.576 156.62 133.16C156.156 132.744 155.524 132.536 154.724 132.536H149.636L150.308 123.2H159.836V126.296H153.38L153.164 129.32H154.892Z" fill="#080A1E"/>
<path d="M78.5 28.5L128 102" stroke="#F1BC00" stroke-width="4"/>
<path d="M6.176 119.6C7.32 119.6 8.268 120.008 9.02 120.824C9.78 121.632 10.16 122.624 10.16 123.8C10.16 124.976 9.78 125.972 9.02 126.788C8.268 127.596 7.32 128 6.176 128H2.9V119.6H6.176ZM6.176 126.944C7.032 126.944 7.732 126.644 8.276 126.044C8.82 125.444 9.092 124.696 9.092 123.8C9.092 122.904 8.82 122.156 8.276 121.556C7.732 120.956 7.032 120.656 6.176 120.656H4.016V126.944H6.176ZM13.2759 121.028C13.1559 121.148 13.0079 121.208 12.8319 121.208C12.6559 121.208 12.5039 121.148 12.3759 121.028C12.2559 120.9 12.1959 120.748 12.1959 120.572C12.1959 120.396 12.2559 120.248 12.3759 120.128C12.5039 120.008 12.6559 119.948 12.8319 119.948C13.0079 119.948 13.1559 120.008 13.2759 120.128C13.3959 120.248 13.4559 120.396 13.4559 120.572C13.4559 120.748 13.3959 120.9 13.2759 121.028ZM15.5559 121.028C15.4359 121.148 15.2879 121.208 15.1119 121.208C14.9359 121.208 14.7839 121.148 14.6559 121.028C14.5359 120.9 14.4759 120.748 14.4759 120.572C14.4759 120.396 14.5359 120.248 14.6559 120.128C14.7839 120.008 14.9359 119.948 15.1119 119.948C15.2879 119.948 15.4359 120.008 15.5559 120.128C15.6759 120.248 15.7359 120.396 15.7359 120.572C15.7359 120.748 15.6759 120.9 15.5559 121.028ZM15.6039 122H16.6479V128H15.6039V127.136C15.1799 127.816 14.5319 128.156 13.6599 128.156C12.9559 128.156 12.3919 127.936 11.9679 127.496C11.5439 127.048 11.3319 126.444 11.3319 125.684V122H12.3759V125.624C12.3759 126.112 12.5079 126.492 12.7719 126.764C13.0359 127.028 13.3999 127.16 13.8639 127.16C14.3839 127.16 14.8039 127 15.1239 126.68C15.4439 126.352 15.6039 125.852 15.6039 125.18V122ZM22.4856 126.356C22.4856 126.836 22.3216 127.236 21.9936 127.556C21.6656 127.868 21.2296 128.06 20.6856 128.132V128.54C20.9896 128.604 21.2336 128.72 21.4176 128.888C21.6096 129.056 21.7056 129.26 21.7056 129.5C21.7056 130.324 20.8656 130.688 19.1856 130.592V129.8C20.2576 129.88 20.7936 129.756 20.7936 129.428C20.7936 129.18 20.4616 129.036 19.7976 128.996V128.132C18.8296 127.996 18.1816 127.536 17.8536 126.752L18.7536 126.236C18.8496 126.524 19.0296 126.752 19.2936 126.92C19.5576 127.088 19.8736 127.172 20.2416 127.172C20.5856 127.172 20.8696 127.108 21.0936 126.98C21.3176 126.844 21.4296 126.636 21.4296 126.356C21.4296 126.124 21.3136 125.94 21.0816 125.804C20.8496 125.66 20.5696 125.548 20.2416 125.468C19.9136 125.38 19.5856 125.28 19.2576 125.168C18.9296 125.056 18.6496 124.872 18.4176 124.616C18.1856 124.36 18.0696 124.032 18.0696 123.632C18.0696 123.112 18.2696 122.684 18.6696 122.348C19.0776 122.012 19.5856 121.844 20.1936 121.844C20.6816 121.844 21.1136 121.956 21.4896 122.18C21.8736 122.396 22.1616 122.7 22.3536 123.092L21.4776 123.584C21.2616 123.072 20.8336 122.816 20.1936 122.816C19.8976 122.816 19.6456 122.888 19.4376 123.032C19.2296 123.168 19.1256 123.364 19.1256 123.62C19.1256 123.852 19.2416 124.04 19.4736 124.184C19.7056 124.32 19.9856 124.432 20.3136 124.52C20.6416 124.6 20.9696 124.696 21.2976 124.808C21.6256 124.912 21.9056 125.096 22.1376 125.36C22.3696 125.616 22.4856 125.948 22.4856 126.356ZM25.4751 121.028C25.3551 121.148 25.2071 121.208 25.0311 121.208C24.8551 121.208 24.7031 121.148 24.5751 121.028C24.4551 120.9 24.3951 120.748 24.3951 120.572C24.3951 120.396 24.4551 120.248 24.5751 120.128C24.7031 120.008 24.8551 119.948 25.0311 119.948C25.2071 119.948 25.3551 120.008 25.4751 120.128C25.5951 120.248 25.6551 120.396 25.6551 120.572C25.6551 120.748 25.5951 120.9 25.4751 121.028ZM27.7551 121.028C27.6351 121.148 27.4871 121.208 27.3111 121.208C27.1351 121.208 26.9831 121.148 26.8551 121.028C26.7351 120.9 26.6751 120.748 26.6751 120.572C26.6751 120.396 26.7351 120.248 26.8551 120.128C26.9831 120.008 27.1351 119.948 27.3111 119.948C27.4871 119.948 27.6351 120.008 27.7551 120.128C27.8751 120.248 27.9351 120.396 27.9351 120.572C27.9351 120.748 27.8751 120.9 27.7551 121.028ZM27.8031 122H28.8471V128H27.8031V127.136C27.3791 127.816 26.7311 128.156 25.8591 128.156C25.1551 128.156 24.5911 127.936 24.1671 127.496C23.7431 127.048 23.5311 126.444 23.5311 125.684V122H24.5751V125.624C24.5751 126.112 24.7071 126.492 24.9711 126.764C25.2351 127.028 25.5991 127.16 26.0631 127.16C26.5831 127.16 27.0031 127 27.3231 126.68C27.6431 126.352 27.8031 125.852 27.8031 125.18V122ZM35.5125 128H34.2165L31.4805 125.156V128H30.4365V119.6H31.4805V124.652L34.0725 122H35.4165L32.5485 124.904L35.5125 128Z" fill="#898A8D"/>
<path d="M9.29538 143.48V144.872H7.93538V147H6.44738V144.872H0.735376V143.48L4.75138 135.8H6.35138L2.33538 143.48H6.44738V140.312H7.93538V143.48H9.29538ZM13.8918 139.672C15.0118 139.672 15.9344 140.024 16.6598 140.728C17.3851 141.421 17.7478 142.323 17.7478 143.432C17.7478 144.541 17.3851 145.448 16.6598 146.152C15.9344 146.856 15.0118 147.208 13.8918 147.208C12.7611 147.208 11.8331 146.856 11.1078 146.152C10.3931 145.448 10.0358 144.541 10.0358 143.432C10.0358 142.568 10.2598 141.821 10.7078 141.192L14.3078 135.8H16.0038L13.3638 139.704C13.5984 139.683 13.7744 139.672 13.8918 139.672ZM12.1638 145.144C12.6118 145.571 13.1878 145.784 13.8918 145.784C14.5958 145.784 15.1664 145.571 15.6038 145.144C16.0518 144.707 16.2758 144.136 16.2758 143.432C16.2758 142.728 16.0518 142.163 15.6038 141.736C15.1664 141.309 14.5958 141.096 13.8918 141.096C13.1771 141.096 12.6011 141.309 12.1638 141.736C11.7264 142.163 11.5078 142.728 11.5078 143.432C11.5078 144.136 11.7264 144.707 12.1638 145.144ZM19.5726 147.176C19.2846 147.176 19.0393 147.075 18.8366 146.872C18.634 146.669 18.5326 146.424 18.5326 146.136C18.5326 145.848 18.634 145.603 18.8366 145.4C19.0393 145.197 19.2846 145.096 19.5726 145.096C19.8713 145.096 20.1166 145.197 20.3086 145.4C20.5113 145.603 20.6126 145.848 20.6126 146.136C20.6126 146.424 20.5113 146.669 20.3086 146.872C20.1166 147.075 19.8713 147.176 19.5726 147.176ZM25.5993 140.168C26.6553 140.168 27.5459 140.483 28.2713 141.112C29.0073 141.731 29.3753 142.589 29.3753 143.688C29.3753 144.776 29.0019 145.635 28.2553 146.264C27.5086 146.893 26.6019 147.208 25.5353 147.208C24.6819 147.208 23.9193 147.005 23.2473 146.6C22.5753 146.184 22.1059 145.587 21.8393 144.808L23.1033 144.088C23.2526 144.632 23.5406 145.048 23.9673 145.336C24.3939 145.613 24.9166 145.752 25.5353 145.752C26.2393 145.752 26.8099 145.571 27.2473 145.208C27.6846 144.845 27.9033 144.339 27.9033 143.688C27.9033 143.037 27.6846 142.531 27.2473 142.168C26.8099 141.795 26.2499 141.608 25.5673 141.608H22.3993L22.8153 135.8H28.9433V137.192H24.1593L23.9673 140.168H25.5993ZM38.6628 143.48V144.872H37.3028V147H35.8148V144.872H30.1028V143.48L34.1188 135.8H35.7188L31.7028 143.48H35.8148V140.312H37.3028V143.48H38.6628Z" fill="#080A1E"/>
<path d="M227.152 119.6L224.176 124.604V128H223.06V124.592L220.096 119.6H221.344L223.624 123.536L225.904 119.6H227.152ZM229.131 121.028C229.011 121.148 228.863 121.208 228.687 121.208C228.511 121.208 228.359 121.148 228.231 121.028C228.111 120.9 228.051 120.748 228.051 120.572C228.051 120.396 228.111 120.248 228.231 120.128C228.359 120.008 228.511 119.948 228.687 119.948C228.863 119.948 229.011 120.008 229.131 120.128C229.251 120.248 229.311 120.396 229.311 120.572C229.311 120.748 229.251 120.9 229.131 121.028ZM231.411 121.028C231.291 121.148 231.143 121.208 230.967 121.208C230.791 121.208 230.639 121.148 230.511 121.028C230.391 120.9 230.331 120.748 230.331 120.572C230.331 120.396 230.391 120.248 230.511 120.128C230.639 120.008 230.791 119.948 230.967 119.948C231.143 119.948 231.291 120.008 231.411 120.128C231.531 120.248 231.591 120.396 231.591 120.572C231.591 120.748 231.531 120.9 231.411 121.028ZM231.459 122H232.503V128H231.459V127.136C231.035 127.816 230.387 128.156 229.515 128.156C228.811 128.156 228.247 127.936 227.823 127.496C227.399 127.048 227.187 126.444 227.187 125.684V122H228.231V125.624C228.231 126.112 228.363 126.492 228.627 126.764C228.891 127.028 229.255 127.16 229.719 127.16C230.239 127.16 230.659 127 230.979 126.68C231.299 126.352 231.459 125.852 231.459 125.18V122ZM239.169 128H237.873L235.137 125.156V128H234.093V119.6H235.137V124.652L237.729 122H239.073L236.205 124.904L239.169 128ZM240.583 123.62C240.583 123.852 240.699 124.04 240.931 124.184C241.163 124.32 241.443 124.432 241.771 124.52C242.099 124.6 242.427 124.696 242.755 124.808C243.083 124.912 243.363 125.096 243.595 125.36C243.827 125.616 243.943 125.948 243.943 126.356C243.943 126.9 243.731 127.336 243.307 127.664C242.891 127.992 242.355 128.156 241.699 128.156C241.115 128.156 240.615 128.028 240.199 127.772C239.783 127.516 239.487 127.176 239.311 126.752L240.211 126.236C240.307 126.524 240.487 126.752 240.751 126.92C241.015 127.088 241.331 127.172 241.699 127.172C242.043 127.172 242.327 127.108 242.551 126.98C242.775 126.844 242.887 126.636 242.887 126.356C242.887 126.124 242.771 125.94 242.539 125.804C242.307 125.66 242.027 125.548 241.699 125.468C241.371 125.38 241.043 125.28 240.715 125.168C240.387 125.056 240.107 124.872 239.875 124.616C239.643 124.36 239.527 124.032 239.527 123.632C239.527 123.112 239.727 122.684 240.127 122.348C240.535 122.012 241.043 121.844 241.651 121.844C242.139 121.844 242.571 121.956 242.947 122.18C243.331 122.396 243.619 122.7 243.811 123.092L242.935 123.584C242.719 123.072 242.291 122.816 241.651 122.816C241.355 122.816 241.103 122.888 240.895 123.032C240.687 123.168 240.583 123.364 240.583 123.62ZM245.747 125.48C245.851 126.016 246.095 126.432 246.479 126.728C246.871 127.024 247.351 127.172 247.919 127.172C248.711 127.172 249.287 126.88 249.647 126.296L250.535 126.8C249.951 127.704 249.071 128.156 247.895 128.156C246.943 128.156 246.167 127.86 245.567 127.268C244.975 126.668 244.679 125.912 244.679 125C244.679 124.096 244.971 123.344 245.555 122.744C246.139 122.144 246.895 121.844 247.823 121.844C248.703 121.844 249.419 122.156 249.971 122.78C250.531 123.396 250.811 124.14 250.811 125.012C250.811 125.164 250.799 125.32 250.775 125.48H245.747ZM247.823 122.828C247.263 122.828 246.799 122.988 246.431 123.308C246.063 123.62 245.835 124.04 245.747 124.568H249.755C249.667 124 249.443 123.568 249.083 123.272C248.723 122.976 248.303 122.828 247.823 122.828ZM257.087 128H255.791L253.055 125.156V128H252.011V119.6H253.055V124.652L255.647 122H256.991L254.123 124.904L257.087 128Z" fill="#898A8D"/>
<path d="M229.176 141.208C229.72 141.485 230.147 141.859 230.456 142.328C230.766 142.797 230.92 143.331 230.92 143.928C230.92 144.952 230.563 145.757 229.848 146.344C229.134 146.92 228.211 147.208 227.08 147.208C225.96 147.208 225.043 146.92 224.328 146.344C223.614 145.757 223.256 144.952 223.256 143.928C223.256 143.331 223.411 142.797 223.72 142.328C224.03 141.859 224.456 141.485 225 141.208C224.083 140.632 223.624 139.816 223.624 138.76C223.624 137.747 223.96 136.968 224.632 136.424C225.315 135.869 226.131 135.592 227.08 135.592C228.04 135.592 228.856 135.869 229.528 136.424C230.211 136.968 230.552 137.747 230.552 138.76C230.552 139.816 230.094 140.632 229.176 141.208ZM227.08 137.016C226.515 137.016 226.04 137.165 225.656 137.464C225.283 137.763 225.096 138.205 225.096 138.792C225.096 139.357 225.288 139.8 225.672 140.12C226.056 140.429 226.526 140.584 227.08 140.584C227.635 140.584 228.104 140.429 228.488 140.12C228.872 139.8 229.064 139.357 229.064 138.792C229.064 138.205 228.878 137.763 228.504 137.464C228.131 137.165 227.656 137.016 227.08 137.016ZM227.08 145.784C227.795 145.784 228.366 145.619 228.792 145.288C229.23 144.947 229.448 144.461 229.448 143.832C229.448 143.213 229.23 142.739 228.792 142.408C228.366 142.067 227.795 141.896 227.08 141.896C226.376 141.896 225.806 142.067 225.368 142.408C224.942 142.739 224.728 143.213 224.728 143.832C224.728 144.461 224.942 144.947 225.368 145.288C225.806 145.619 226.376 145.784 227.08 145.784ZM235.892 139.672C237.012 139.672 237.934 140.024 238.66 140.728C239.385 141.421 239.748 142.323 239.748 143.432C239.748 144.541 239.385 145.448 238.66 146.152C237.934 146.856 237.012 147.208 235.892 147.208C234.761 147.208 233.833 146.856 233.108 146.152C232.393 145.448 232.036 144.541 232.036 143.432C232.036 142.568 232.26 141.821 232.708 141.192L236.308 135.8H238.004L235.364 139.704C235.598 139.683 235.774 139.672 235.892 139.672ZM234.164 145.144C234.612 145.571 235.188 145.784 235.892 145.784C236.596 145.784 237.166 145.571 237.604 145.144C238.052 144.707 238.276 144.136 238.276 143.432C238.276 142.728 238.052 142.163 237.604 141.736C237.166 141.309 236.596 141.096 235.892 141.096C235.177 141.096 234.601 141.309 234.164 141.736C233.726 142.163 233.508 142.728 233.508 143.432C233.508 144.136 233.726 144.707 234.164 145.144ZM241.573 147.176C241.285 147.176 241.039 147.075 240.837 146.872C240.634 146.669 240.533 146.424 240.533 146.136C240.533 145.848 240.634 145.603 240.837 145.4C241.039 145.197 241.285 145.096 241.573 145.096C241.871 145.096 242.117 145.197 242.309 145.4C242.511 145.603 242.613 145.848 242.613 146.136C242.613 146.424 242.511 146.669 242.309 146.872C242.117 147.075 241.871 147.176 241.573 147.176ZM247.599 140.168C248.655 140.168 249.546 140.483 250.271 141.112C251.007 141.731 251.375 142.589 251.375 143.688C251.375 144.776 251.002 145.635 250.255 146.264C249.509 146.893 248.602 147.208 247.535 147.208C246.682 147.208 245.919 147.005 245.247 146.6C244.575 146.184 244.106 145.587 243.839 144.808L245.103 144.088C245.253 144.632 245.541 145.048 245.967 145.336C246.394 145.613 246.917 145.752 247.535 145.752C248.239 145.752 248.81 145.571 249.247 145.208C249.685 144.845 249.903 144.339 249.903 143.688C249.903 143.037 249.685 142.531 249.247 142.168C248.81 141.795 248.25 141.608 247.567 141.608H244.399L244.815 135.8H250.943V137.192H246.159L245.967 140.168H247.599ZM260.663 143.48V144.872H259.303V147H257.815V144.872H252.103V143.48L256.119 135.8H257.719L253.703 143.48H257.815V140.312H259.303V143.48H260.663Z" fill="#080A1E"/>
<path d="M69.9559 186L69.0439 183.488H64.0039L63.0919 186H61.5079L65.6839 174.8H67.3639L71.5399 186H69.9559ZM64.5159 182.096H68.5319L66.5159 176.576L64.5159 182.096ZM77.5531 178H79.0411L75.7771 186.496C75.4358 187.403 74.9558 188.091 74.3371 188.56C73.7291 189.04 73.0251 189.253 72.2251 189.2V187.904C73.2065 187.979 73.9265 187.435 74.3851 186.272L74.5291 185.968L71.0411 178H72.5291L75.2491 184.272L77.5531 178ZM83.9395 177.792C84.8782 177.792 85.6302 178.091 86.1955 178.688C86.7608 179.275 87.0435 180.075 87.0435 181.088V186H85.6515V181.168C85.6515 180.517 85.4755 180.016 85.1235 179.664C84.7715 179.301 84.2862 179.12 83.6675 179.12C82.9742 179.12 82.4142 179.339 81.9875 179.776C81.5608 180.203 81.3475 180.864 81.3475 181.76V186H79.9555V178H81.3475V179.152C81.9128 178.245 82.7768 177.792 83.9395 177.792ZM88.7388 186V178H90.1308V186H88.7388ZM101.342 178H102.83L99.5664 186.496C99.225 187.403 98.745 188.091 98.1264 188.56C97.5184 189.04 96.8144 189.253 96.0144 189.2V187.904C96.9957 187.979 97.7157 187.435 98.1744 186.272L98.3184 185.968L94.8304 178H96.3184L99.0384 184.272L101.342 178ZM106.264 176.656C106.104 176.816 105.907 176.896 105.672 176.896C105.438 176.896 105.235 176.816 105.064 176.656C104.904 176.485 104.824 176.283 104.824 176.048C104.824 175.813 104.904 175.616 105.064 175.456C105.235 175.296 105.438 175.216 105.672 175.216C105.907 175.216 106.104 175.296 106.264 175.456C106.424 175.616 106.504 175.813 106.504 176.048C106.504 176.283 106.424 176.485 106.264 176.656ZM109.304 176.656C109.144 176.816 108.947 176.896 108.712 176.896C108.478 176.896 108.275 176.816 108.104 176.656C107.944 176.485 107.864 176.283 107.864 176.048C107.864 175.813 107.944 175.616 108.104 175.456C108.275 175.296 108.478 175.216 108.712 175.216C108.947 175.216 109.144 175.296 109.304 175.456C109.464 175.616 109.544 175.813 109.544 176.048C109.544 176.283 109.464 176.485 109.304 176.656ZM110.184 184.992C109.363 185.803 108.366 186.208 107.192 186.208C106.019 186.208 105.022 185.803 104.2 184.992C103.39 184.181 102.984 183.184 102.984 182C102.984 180.816 103.39 179.819 104.2 179.008C105.022 178.197 106.019 177.792 107.192 177.792C108.366 177.792 109.363 178.197 110.184 179.008C111.006 179.819 111.416 180.816 111.416 182C111.416 183.184 111.006 184.181 110.184 184.992ZM107.192 184.848C107.992 184.848 108.664 184.576 109.208 184.032C109.752 183.488 110.024 182.811 110.024 182C110.024 181.189 109.752 180.512 109.208 179.968C108.664 179.424 107.992 179.152 107.192 179.152C106.403 179.152 105.736 179.424 105.192 179.968C104.648 180.512 104.376 181.189 104.376 182C104.376 182.811 104.648 183.488 105.192 184.032C105.736 184.576 106.403 184.848 107.192 184.848ZM116.793 177.792C117.732 177.792 118.484 178.091 119.049 178.688C119.615 179.275 119.897 180.075 119.897 181.088V186H118.505V181.168C118.505 180.517 118.329 180.016 117.977 179.664C117.625 179.301 117.14 179.12 116.521 179.12C115.828 179.12 115.268 179.339 114.841 179.776C114.415 180.203 114.201 180.864 114.201 181.76V186H112.809V178H114.201V179.152C114.767 178.245 115.631 177.792 116.793 177.792ZM121.593 186V174.32H122.985V186H121.593ZM127.276 176.704C127.116 176.864 126.919 176.944 126.684 176.944C126.449 176.944 126.247 176.864 126.076 176.704C125.916 176.533 125.836 176.331 125.836 176.096C125.836 175.861 125.916 175.664 126.076 175.504C126.247 175.344 126.449 175.264 126.684 175.264C126.919 175.264 127.116 175.344 127.276 175.504C127.436 175.664 127.516 175.861 127.516 176.096C127.516 176.331 127.436 176.533 127.276 176.704ZM130.316 176.704C130.156 176.864 129.959 176.944 129.724 176.944C129.489 176.944 129.287 176.864 129.116 176.704C128.956 176.533 128.876 176.331 128.876 176.096C128.876 175.861 128.956 175.664 129.116 175.504C129.287 175.344 129.489 175.264 129.724 175.264C129.959 175.264 130.156 175.344 130.316 175.504C130.476 175.664 130.556 175.861 130.556 176.096C130.556 176.331 130.476 176.533 130.316 176.704ZM130.38 178H131.772V186H130.38V184.848C129.815 185.755 128.951 186.208 127.788 186.208C126.849 186.208 126.097 185.915 125.532 185.328C124.967 184.731 124.684 183.925 124.684 182.912V178H126.076V182.832C126.076 183.483 126.252 183.989 126.604 184.352C126.956 184.704 127.441 184.88 128.06 184.88C128.753 184.88 129.313 184.667 129.74 184.24C130.167 183.803 130.38 183.136 130.38 182.24V178ZM144.147 184.992C143.326 185.803 142.329 186.208 141.155 186.208C139.982 186.208 138.985 185.803 138.163 184.992C137.353 184.181 136.947 183.184 136.947 182C136.947 180.816 137.353 179.819 138.163 179.008C138.985 178.197 139.982 177.792 141.155 177.792C142.329 177.792 143.326 178.197 144.147 179.008C144.969 179.819 145.379 180.816 145.379 182C145.379 183.184 144.969 184.181 144.147 184.992ZM141.155 184.848C141.955 184.848 142.627 184.576 143.171 184.032C143.715 183.488 143.987 182.811 143.987 182C143.987 181.189 143.715 180.512 143.171 179.968C142.627 179.424 141.955 179.152 141.155 179.152C140.366 179.152 139.699 179.424 139.155 179.968C138.611 180.512 138.339 181.189 138.339 182C138.339 182.811 138.611 183.488 139.155 184.032C139.699 184.576 140.366 184.848 141.155 184.848ZM148.164 179.344C148.623 178.352 149.455 177.856 150.66 177.856V179.312C149.978 179.28 149.391 179.461 148.9 179.856C148.41 180.251 148.164 180.885 148.164 181.76V186H146.772V178H148.164V179.344ZM156.314 179.344H154.186V183.68C154.186 184.075 154.261 184.357 154.41 184.528C154.57 184.688 154.81 184.773 155.13 184.784C155.45 184.784 155.845 184.773 156.314 184.752V186C155.098 186.16 154.207 186.064 153.642 185.712C153.077 185.349 152.794 184.672 152.794 183.68V179.344H151.21V178H152.794V176.176L154.186 175.76V178H156.314V179.344ZM163.932 178H165.324V186H163.932V184.624C163.238 185.68 162.23 186.208 160.908 186.208C159.788 186.208 158.833 185.803 158.044 184.992C157.254 184.171 156.86 183.173 156.86 182C156.86 180.827 157.254 179.835 158.044 179.024C158.833 178.203 159.788 177.792 160.908 177.792C162.23 177.792 163.238 178.32 163.932 179.376V178ZM161.084 184.864C161.894 184.864 162.572 184.592 163.116 184.048C163.66 183.493 163.932 182.811 163.932 182C163.932 181.189 163.66 180.512 163.116 179.968C162.572 179.413 161.894 179.136 161.084 179.136C160.284 179.136 159.612 179.413 159.068 179.968C158.524 180.512 158.252 181.189 158.252 182C158.252 182.811 158.524 183.493 159.068 184.048C159.612 184.592 160.284 184.864 161.084 184.864ZM171.641 176.544C171.374 176.544 171.15 176.453 170.969 176.272C170.787 176.091 170.697 175.872 170.697 175.616C170.697 175.36 170.787 175.141 170.969 174.96C171.15 174.768 171.374 174.672 171.641 174.672C171.897 174.672 172.115 174.768 172.297 174.96C172.478 175.141 172.569 175.36 172.569 175.616C172.569 175.872 172.478 176.091 172.297 176.272C172.115 176.453 171.897 176.544 171.641 176.544ZM170.937 186V178H172.329V186H170.937ZM174.204 186V174.32H175.596V186H174.204ZM178.176 176.544C177.909 176.544 177.685 176.453 177.504 176.272C177.323 176.091 177.232 175.872 177.232 175.616C177.232 175.36 177.323 175.141 177.504 174.96C177.685 174.768 177.909 174.672 178.176 174.672C178.432 174.672 178.651 174.768 178.832 174.96C179.013 175.141 179.104 175.36 179.104 175.616C179.104 175.872 179.013 176.091 178.832 176.272C178.651 176.453 178.432 176.544 178.176 176.544ZM177.472 186V178H178.864V186H177.472ZM186.404 183.808C186.404 184.448 186.185 184.981 185.748 185.408C185.311 185.824 184.729 186.08 184.004 186.176V186.72C184.409 186.805 184.735 186.96 184.98 187.184C185.236 187.408 185.364 187.68 185.364 188C185.364 189.099 184.244 189.584 182.004 189.456V188.4C183.433 188.507 184.148 188.341 184.148 187.904C184.148 187.573 183.705 187.381 182.82 187.328V186.176C181.529 185.995 180.665 185.381 180.228 184.336L181.428 183.648C181.556 184.032 181.796 184.336 182.148 184.56C182.5 184.784 182.921 184.896 183.412 184.896C183.871 184.896 184.249 184.811 184.548 184.64C184.847 184.459 184.996 184.181 184.996 183.808C184.996 183.499 184.841 183.253 184.532 183.072C184.223 182.88 183.849 182.731 183.412 182.624C182.975 182.507 182.537 182.373 182.1 182.224C181.663 182.075 181.289 181.829 180.98 181.488C180.671 181.147 180.516 180.709 180.516 180.176C180.516 179.483 180.783 178.912 181.316 178.464C181.86 178.016 182.537 177.792 183.348 177.792C183.999 177.792 184.575 177.941 185.076 178.24C185.588 178.528 185.972 178.933 186.228 179.456L185.06 180.112C184.772 179.429 184.201 179.088 183.348 179.088C182.953 179.088 182.617 179.184 182.34 179.376C182.063 179.557 181.924 179.819 181.924 180.16C181.924 180.469 182.079 180.72 182.388 180.912C182.697 181.093 183.071 181.243 183.508 181.36C183.945 181.467 184.383 181.595 184.82 181.744C185.257 181.883 185.631 182.128 185.94 182.48C186.249 182.821 186.404 183.264 186.404 183.808ZM194.494 186H192.766L189.118 182.208V186H187.726V174.8H189.118V181.536L192.574 178H194.366L190.542 181.872L194.494 186ZM196.244 176.544C195.978 176.544 195.754 176.453 195.572 176.272C195.391 176.091 195.3 175.872 195.3 175.616C195.3 175.36 195.391 175.141 195.572 174.96C195.754 174.768 195.978 174.672 196.244 174.672C196.5 174.672 196.719 174.768 196.9 174.96C197.082 175.141 197.172 175.36 197.172 175.616C197.172 175.872 197.082 176.091 196.9 176.272C196.719 176.453 196.5 176.544 196.244 176.544ZM195.54 186V178H196.932V186H195.54Z" fill="#080A1E"/>
<path d="M104.016 129.656C103.248 130.408 102.288 130.784 101.136 130.784C99.984 130.784 99.016 130.4 98.232 129.632C97.464 128.864 97.08 127.928 97.08 126.824C97.08 125.72 97.464 124.784 98.232 124.016C99.016 123.248 99.984 122.864 101.136 122.864C102.288 122.864 103.248 123.248 104.016 124.016C104.784 124.768 105.168 125.704 105.168 126.824C105.168 127.944 104.784 128.888 104.016 129.656ZM98.784 137.456L109.728 125.288L111.192 126.104L100.224 138.296L98.784 137.456ZM100.032 127.928C100.32 128.216 100.68 128.36 101.112 128.36C101.544 128.36 101.904 128.216 102.192 127.928C102.48 127.624 102.624 127.256 102.624 126.824C102.624 126.392 102.48 126.032 102.192 125.744C101.904 125.456 101.544 125.312 101.112 125.312C100.68 125.312 100.32 125.456 100.032 125.744C99.76 126.032 99.624 126.392 99.624 126.824C99.624 127.256 99.76 127.624 100.032 127.928ZM112.128 139.136C111.36 139.904 110.4 140.288 109.248 140.288C108.096 140.288 107.136 139.904 106.368 139.136C105.6 138.368 105.216 137.432 105.216 136.328C105.216 135.224 105.6 134.288 106.368 133.52C107.136 132.752 108.096 132.368 109.248 132.368C110.4 132.368 111.36 132.752 112.128 133.52C112.896 134.288 113.28 135.224 113.28 136.328C113.28 137.432 112.896 138.368 112.128 139.136ZM108.168 137.432C108.456 137.72 108.816 137.864 109.248 137.864C109.68 137.864 110.032 137.712 110.304 137.408C110.592 137.104 110.736 136.744 110.736 136.328C110.736 135.896 110.592 135.536 110.304 135.248C110.032 134.944 109.68 134.792 109.248 134.792C108.816 134.792 108.456 134.944 108.168 135.248C107.896 135.536 107.76 135.896 107.76 136.328C107.76 136.76 107.896 137.128 108.168 137.432ZM127.936 134.072V137.144H126.136V140H122.8V137.144H114.856V134.072L120.448 123.2H124L118.432 134.072H122.8V130.088H126.136V134.072H127.936ZM135.535 128.648C137.279 128.696 138.695 129.264 139.783 130.352C140.871 131.424 141.415 132.8 141.415 134.48C141.415 136.192 140.847 137.6 139.711 138.704C138.575 139.792 137.111 140.336 135.319 140.336C133.527 140.336 132.063 139.792 130.927 138.704C129.807 137.616 129.247 136.208 129.247 134.48C129.247 133.2 129.575 132.072 130.231 131.096L135.463 123.2H139.255L135.535 128.648ZM133.327 136.472C133.855 136.968 134.519 137.216 135.319 137.216C136.119 137.216 136.783 136.968 137.311 136.472C137.855 135.976 138.127 135.312 138.127 134.48C138.127 133.664 137.855 133.008 137.311 132.512C136.783 132.016 136.119 131.768 135.319 131.768C134.519 131.768 133.855 132.016 133.327 132.512C132.799 132.992 132.535 133.648 132.535 134.48C132.535 135.312 132.799 135.976 133.327 136.472ZM146.988 136.688L145.188 143.36H142.668L143.628 136.688H146.988ZM154.892 129.32C156.508 129.32 157.868 129.808 158.972 130.784C160.076 131.744 160.628 133.088 160.628 134.816C160.628 136.544 160.044 137.896 158.876 138.872C157.724 139.848 156.308 140.336 154.628 140.336C153.268 140.336 152.068 140.032 151.028 139.424C149.988 138.816 149.236 137.92 148.772 136.736L151.604 135.08C152.02 136.424 153.028 137.096 154.628 137.096C155.476 137.096 156.132 136.896 156.596 136.496C157.076 136.08 157.316 135.52 157.316 134.816C157.316 134.128 157.084 133.576 156.62 133.16C156.156 132.744 155.524 132.536 154.724 132.536H149.636L150.308 123.2H159.836V126.296H153.38L153.164 129.32H154.892Z" fill="#080A1E"/>
<path d="M71.5135 307.8V309.208H68.2015V319H66.7295V309.208H63.4335V307.8H71.5135ZM72.117 315.64C72.2557 316.355 72.581 316.909 73.093 317.304C73.6157 317.699 74.2557 317.896 75.013 317.896C76.069 317.896 76.837 317.507 77.317 316.728L78.501 317.4C77.7223 318.605 76.549 319.208 74.981 319.208C73.7117 319.208 72.677 318.813 71.877 318.024C71.0877 317.224 70.693 316.216 70.693 315C70.693 313.795 71.0823 312.792 71.861 311.992C72.6397 311.192 73.6477 310.792 74.885 310.792C76.0583 310.792 77.013 311.208 77.749 312.04C78.4957 312.861 78.869 313.853 78.869 315.016C78.869 315.219 78.853 315.427 78.821 315.64H72.117ZM74.885 312.104C74.1383 312.104 73.5197 312.317 73.029 312.744C72.5383 313.16 72.2343 313.72 72.117 314.424H77.461C77.3437 313.667 77.045 313.091 76.565 312.696C76.085 312.301 75.525 312.104 74.885 312.104ZM81.6131 312.344C82.0718 311.352 82.9038 310.856 84.1091 310.856V312.312C83.4265 312.28 82.8398 312.461 82.3491 312.856C81.8585 313.251 81.6131 313.885 81.6131 314.76V319H80.2211V311H81.6131V312.344ZM86.1263 313.16C86.1263 313.469 86.2809 313.72 86.5903 313.912C86.8996 314.093 87.2729 314.243 87.7103 314.36C88.1476 314.467 88.5849 314.595 89.0223 314.744C89.4596 314.883 89.8329 315.128 90.1423 315.48C90.4516 315.821 90.6063 316.264 90.6063 316.808C90.6063 317.533 90.3236 318.115 89.7583 318.552C89.2036 318.989 88.4889 319.208 87.6143 319.208C86.8356 319.208 86.1689 319.037 85.6143 318.696C85.0596 318.355 84.6649 317.901 84.4303 317.336L85.6303 316.648C85.7583 317.032 85.9983 317.336 86.3503 317.56C86.7023 317.784 87.1236 317.896 87.6143 317.896C88.0729 317.896 88.4516 317.811 88.7503 317.64C89.0489 317.459 89.1983 317.181 89.1983 316.808C89.1983 316.499 89.0436 316.253 88.7343 316.072C88.4249 315.88 88.0516 315.731 87.6143 315.624C87.1769 315.507 86.7396 315.373 86.3023 315.224C85.8649 315.075 85.4916 314.829 85.1823 314.488C84.8729 314.147 84.7183 313.709 84.7183 313.176C84.7183 312.483 84.9849 311.912 85.5183 311.464C86.0623 311.016 86.7396 310.792 87.5503 310.792C88.2009 310.792 88.7769 310.941 89.2783 311.24C89.7903 311.528 90.1743 311.933 90.4303 312.456L89.2623 313.112C88.9743 312.429 88.4036 312.088 87.5503 312.088C87.1556 312.088 86.8196 312.184 86.5423 312.376C86.2649 312.557 86.1263 312.819 86.1263 313.16ZM101.342 311H102.83L99.5664 319.496C99.225 320.403 98.745 321.091 98.1264 321.56C97.5184 322.04 96.8144 322.253 96.0144 322.2V320.904C96.9957 320.979 97.7157 320.435 98.1744 319.272L98.3184 318.968L94.8304 311H96.3184L99.0384 317.272L101.342 311ZM106.264 309.656C106.104 309.816 105.907 309.896 105.672 309.896C105.438 309.896 105.235 309.816 105.064 309.656C104.904 309.485 104.824 309.283 104.824 309.048C104.824 308.813 104.904 308.616 105.064 308.456C105.235 308.296 105.438 308.216 105.672 308.216C105.907 308.216 106.104 308.296 106.264 308.456C106.424 308.616 106.504 308.813 106.504 309.048C106.504 309.283 106.424 309.485 106.264 309.656ZM109.304 309.656C109.144 309.816 108.947 309.896 108.712 309.896C108.478 309.896 108.275 309.816 108.104 309.656C107.944 309.485 107.864 309.283 107.864 309.048C107.864 308.813 107.944 308.616 108.104 308.456C108.275 308.296 108.478 308.216 108.712 308.216C108.947 308.216 109.144 308.296 109.304 308.456C109.464 308.616 109.544 308.813 109.544 309.048C109.544 309.283 109.464 309.485 109.304 309.656ZM110.184 317.992C109.363 318.803 108.366 319.208 107.192 319.208C106.019 319.208 105.022 318.803 104.2 317.992C103.39 317.181 102.984 316.184 102.984 315C102.984 313.816 103.39 312.819 104.2 312.008C105.022 311.197 106.019 310.792 107.192 310.792C108.366 310.792 109.363 311.197 110.184 312.008C111.006 312.819 111.416 313.816 111.416 315C111.416 316.184 111.006 317.181 110.184 317.992ZM107.192 317.848C107.992 317.848 108.664 317.576 109.208 317.032C109.752 316.488 110.024 315.811 110.024 315C110.024 314.189 109.752 313.512 109.208 312.968C108.664 312.424 107.992 312.152 107.192 312.152C106.403 312.152 105.736 312.424 105.192 312.968C104.648 313.512 104.376 314.189 104.376 315C104.376 315.811 104.648 316.488 105.192 317.032C105.736 317.576 106.403 317.848 107.192 317.848ZM116.793 310.792C117.732 310.792 118.484 311.091 119.049 311.688C119.615 312.275 119.897 313.075 119.897 314.088V319H118.505V314.168C118.505 313.517 118.329 313.016 117.977 312.664C117.625 312.301 117.14 312.12 116.521 312.12C115.828 312.12 115.268 312.339 114.841 312.776C114.415 313.203 114.201 313.864 114.201 314.76V319H112.809V311H114.201V312.152C114.767 311.245 115.631 310.792 116.793 310.792ZM121.593 319V307.32H122.985V319H121.593ZM127.276 309.704C127.116 309.864 126.919 309.944 126.684 309.944C126.449 309.944 126.247 309.864 126.076 309.704C125.916 309.533 125.836 309.331 125.836 309.096C125.836 308.861 125.916 308.664 126.076 308.504C126.247 308.344 126.449 308.264 126.684 308.264C126.919 308.264 127.116 308.344 127.276 308.504C127.436 308.664 127.516 308.861 127.516 309.096C127.516 309.331 127.436 309.533 127.276 309.704ZM130.316 309.704C130.156 309.864 129.959 309.944 129.724 309.944C129.489 309.944 129.287 309.864 129.116 309.704C128.956 309.533 128.876 309.331 128.876 309.096C128.876 308.861 128.956 308.664 129.116 308.504C129.287 308.344 129.489 308.264 129.724 308.264C129.959 308.264 130.156 308.344 130.316 308.504C130.476 308.664 130.556 308.861 130.556 309.096C130.556 309.331 130.476 309.533 130.316 309.704ZM130.38 311H131.772V319H130.38V317.848C129.815 318.755 128.951 319.208 127.788 319.208C126.849 319.208 126.097 318.915 125.532 318.328C124.967 317.731 124.684 316.925 124.684 315.912V311H126.076V315.832C126.076 316.483 126.252 316.989 126.604 317.352C126.956 317.704 127.441 317.88 128.06 317.88C128.753 317.88 129.313 317.667 129.74 317.24C130.167 316.803 130.38 316.136 130.38 315.24V311ZM144.147 317.992C143.326 318.803 142.329 319.208 141.155 319.208C139.982 319.208 138.985 318.803 138.163 317.992C137.353 317.181 136.947 316.184 136.947 315C136.947 313.816 137.353 312.819 138.163 312.008C138.985 311.197 139.982 310.792 141.155 310.792C142.329 310.792 143.326 311.197 144.147 312.008C144.969 312.819 145.379 313.816 145.379 315C145.379 316.184 144.969 317.181 144.147 317.992ZM141.155 317.848C141.955 317.848 142.627 317.576 143.171 317.032C143.715 316.488 143.987 315.811 143.987 315C143.987 314.189 143.715 313.512 143.171 312.968C142.627 312.424 141.955 312.152 141.155 312.152C140.366 312.152 139.699 312.424 139.155 312.968C138.611 313.512 138.339 314.189 138.339 315C138.339 315.811 138.611 316.488 139.155 317.032C139.699 317.576 140.366 317.848 141.155 317.848ZM148.164 312.344C148.623 311.352 149.455 310.856 150.66 310.856V312.312C149.978 312.28 149.391 312.461 148.9 312.856C148.41 313.251 148.164 313.885 148.164 314.76V319H146.772V311H148.164V312.344ZM156.314 312.344H154.186V316.68C154.186 317.075 154.261 317.357 154.41 317.528C154.57 317.688 154.81 317.773 155.13 317.784C155.45 317.784 155.845 317.773 156.314 317.752V319C155.098 319.16 154.207 319.064 153.642 318.712C153.077 318.349 152.794 317.672 152.794 316.68V312.344H151.21V311H152.794V309.176L154.186 308.76V311H156.314V312.344ZM163.932 311H165.324V319H163.932V317.624C163.238 318.68 162.23 319.208 160.908 319.208C159.788 319.208 158.833 318.803 158.044 317.992C157.254 317.171 156.86 316.173 156.86 315C156.86 313.827 157.254 312.835 158.044 312.024C158.833 311.203 159.788 310.792 160.908 310.792C162.23 310.792 163.238 311.32 163.932 312.376V311ZM161.084 317.864C161.894 317.864 162.572 317.592 163.116 317.048C163.66 316.493 163.932 315.811 163.932 315C163.932 314.189 163.66 313.512 163.116 312.968C162.572 312.413 161.894 312.136 161.084 312.136C160.284 312.136 159.612 312.413 159.068 312.968C158.524 313.512 158.252 314.189 158.252 315C158.252 315.811 158.524 316.493 159.068 317.048C159.612 317.592 160.284 317.864 161.084 317.864ZM171.641 309.544C171.374 309.544 171.15 309.453 170.969 309.272C170.787 309.091 170.697 308.872 170.697 308.616C170.697 308.36 170.787 308.141 170.969 307.96C171.15 307.768 171.374 307.672 171.641 307.672C171.897 307.672 172.115 307.768 172.297 307.96C172.478 308.141 172.569 308.36 172.569 308.616C172.569 308.872 172.478 309.091 172.297 309.272C172.115 309.453 171.897 309.544 171.641 309.544ZM170.937 319V311H172.329V319H170.937ZM174.204 319V307.32H175.596V319H174.204ZM178.176 309.544C177.909 309.544 177.685 309.453 177.504 309.272C177.323 309.091 177.232 308.872 177.232 308.616C177.232 308.36 177.323 308.141 177.504 307.96C177.685 307.768 177.909 307.672 178.176 307.672C178.432 307.672 178.651 307.768 178.832 307.96C179.013 308.141 179.104 308.36 179.104 308.616C179.104 308.872 179.013 309.091 178.832 309.272C178.651 309.453 178.432 309.544 178.176 309.544ZM177.472 319V311H178.864V319H177.472ZM186.404 316.808C186.404 317.448 186.185 317.981 185.748 318.408C185.311 318.824 184.729 319.08 184.004 319.176V319.72C184.409 319.805 184.735 319.96 184.98 320.184C185.236 320.408 185.364 320.68 185.364 321C185.364 322.099 184.244 322.584 182.004 322.456V321.4C183.433 321.507 184.148 321.341 184.148 320.904C184.148 320.573 183.705 320.381 182.82 320.328V319.176C181.529 318.995 180.665 318.381 180.228 317.336L181.428 316.648C181.556 317.032 181.796 317.336 182.148 317.56C182.5 317.784 182.921 317.896 183.412 317.896C183.871 317.896 184.249 317.811 184.548 317.64C184.847 317.459 184.996 317.181 184.996 316.808C184.996 316.499 184.841 316.253 184.532 316.072C184.223 315.88 183.849 315.731 183.412 315.624C182.975 315.507 182.537 315.373 182.1 315.224C181.663 315.075 181.289 314.829 180.98 314.488C180.671 314.147 180.516 313.709 180.516 313.176C180.516 312.483 180.783 311.912 181.316 311.464C181.86 311.016 182.537 310.792 183.348 310.792C183.999 310.792 184.575 310.941 185.076 311.24C185.588 311.528 185.972 311.933 186.228 312.456L185.06 313.112C184.772 312.429 184.201 312.088 183.348 312.088C182.953 312.088 182.617 312.184 182.34 312.376C182.063 312.557 181.924 312.819 181.924 313.16C181.924 313.469 182.079 313.72 182.388 313.912C182.697 314.093 183.071 314.243 183.508 314.36C183.945 314.467 184.383 314.595 184.82 314.744C185.257 314.883 185.631 315.128 185.94 315.48C186.249 315.821 186.404 316.264 186.404 316.808ZM194.494 319H192.766L189.118 315.208V319H187.726V307.8H189.118V314.536L192.574 311H194.366L190.542 314.872L194.494 319ZM196.244 309.544C195.978 309.544 195.754 309.453 195.572 309.272C195.391 309.091 195.3 308.872 195.3 308.616C195.3 308.36 195.391 308.141 195.572 307.96C195.754 307.768 195.978 307.672 196.244 307.672C196.5 307.672 196.719 307.768 196.9 307.96C197.082 308.141 197.172 308.36 197.172 308.616C197.172 308.872 197.082 309.091 196.9 309.272C196.719 309.453 196.5 309.544 196.244 309.544ZM195.54 319V311H196.932V319H195.54Z" fill="#080A1E"/>
<path d="M97.56 267.24V264.264H106.56V267.24H97.56ZM116.133 262.656C115.365 263.408 114.405 263.784 113.253 263.784C112.101 263.784 111.133 263.4 110.349 262.632C109.581 261.864 109.197 260.928 109.197 259.824C109.197 258.72 109.581 257.784 110.349 257.016C111.133 256.248 112.101 255.864 113.253 255.864C114.405 255.864 115.365 256.248 116.133 257.016C116.901 257.768 117.285 258.704 117.285 259.824C117.285 260.944 116.901 261.888 116.133 262.656ZM110.901 270.456L121.845 258.288L123.309 259.104L112.341 271.296L110.901 270.456ZM112.149 260.928C112.437 261.216 112.797 261.36 113.229 261.36C113.661 261.36 114.021 261.216 114.309 260.928C114.597 260.624 114.741 260.256 114.741 259.824C114.741 259.392 114.597 259.032 114.309 258.744C114.021 258.456 113.661 258.312 113.229 258.312C112.797 258.312 112.437 258.456 112.149 258.744C111.877 259.032 111.741 259.392 111.741 259.824C111.741 260.256 111.877 260.624 112.149 260.928ZM124.245 272.136C123.477 272.904 122.517 273.288 121.365 273.288C120.213 273.288 119.253 272.904 118.485 272.136C117.717 271.368 117.333 270.432 117.333 269.328C117.333 268.224 117.717 267.288 118.485 266.52C119.253 265.752 120.213 265.368 121.365 265.368C122.517 265.368 123.477 265.752 124.245 266.52C125.013 267.288 125.397 268.224 125.397 269.328C125.397 270.432 125.013 271.368 124.245 272.136ZM120.285 270.432C120.573 270.72 120.933 270.864 121.365 270.864C121.797 270.864 122.149 270.712 122.421 270.408C122.709 270.104 122.853 269.744 122.853 269.328C122.853 268.896 122.709 268.536 122.421 268.248C122.149 267.944 121.797 267.792 121.365 267.792C120.933 267.792 120.573 267.944 120.285 268.248C120.013 268.536 119.877 268.896 119.877 269.328C119.877 269.76 120.013 270.128 120.285 270.432ZM140.053 267.072V270.144H138.253V273H134.917V270.144H126.973V267.072L132.565 256.2H136.117L130.549 267.072H134.917V263.088H138.253V267.072H140.053ZM147.653 261.648C149.397 261.696 150.813 262.264 151.901 263.352C152.989 264.424 153.533 265.8 153.533 267.48C153.533 269.192 152.965 270.6 151.829 271.704C150.693 272.792 149.229 273.336 147.437 273.336C145.645 273.336 144.181 272.792 143.045 271.704C141.925 270.616 141.365 269.208 141.365 267.48C141.365 266.2 141.693 265.072 142.349 264.096L147.581 256.2H151.373L147.653 261.648ZM145.445 269.472C145.973 269.968 146.637 270.216 147.437 270.216C148.237 270.216 148.901 269.968 149.429 269.472C149.973 268.976 150.245 268.312 150.245 267.48C150.245 266.664 149.973 266.008 149.429 265.512C148.901 265.016 148.237 264.768 147.437 264.768C146.637 264.768 145.973 265.016 145.445 265.512C144.917 265.992 144.653 266.648 144.653 267.48C144.653 268.312 144.917 268.976 145.445 269.472ZM159.105 269.688L157.305 276.36H154.785L155.745 269.688H159.105ZM167.009 262.32C168.625 262.32 169.985 262.808 171.089 263.784C172.193 264.744 172.745 266.088 172.745 267.816C172.745 269.544 172.161 270.896 170.993 271.872C169.841 272.848 168.425 273.336 166.745 273.336C165.385 273.336 164.185 273.032 163.145 272.424C162.105 271.816 161.353 270.92 160.889 269.736L163.721 268.08C164.137 269.424 165.145 270.096 166.745 270.096C167.593 270.096 168.249 269.896 168.713 269.496C169.193 269.08 169.433 268.52 169.433 267.816C169.433 267.128 169.201 266.576 168.737 266.16C168.273 265.744 167.641 265.536 166.841 265.536H161.753L162.425 256.2H171.953V259.296H165.497L165.281 262.32H167.009Z" fill="#080A1E"/>
<path d="M239 112C239 51.2487 189.751 2 129 2C68.2487 2 19 51.2487 19 112" stroke="#DADADA" stroke-width="4"/>
<path d="M19 112C19 51.2487 71 17.5 74.5 17.5" stroke="#F1BC00" stroke-width="4"/>
<g filter="url(#filter0_dd_270_23999)">
<rect x="69" y="13" width="10" height="10" rx="5" fill="#F1BC00"/>
<rect x="69.5" y="13.5" width="9" height="9" rx="4.5" stroke="white"/>
</g>
<defs>
<filter id="filter0_dd_270_23999" x="63.6667" y="10.3333" width="20.6667" height="20.6667" filterUnits="userSpaceOnUse" color-interpolation-filters="sRGB">
<feFlood flood-opacity="0" result="BackgroundImageFix"/>
<feColorMatrix in="SourceAlpha" type="matrix" values="0 0 0 0 0 0 0 0 0 0 0 0 0 0 0 0 0 0 127 0" result="hardAlpha"/>
<feOffset dy="2.66667"/>
<feGaussianBlur stdDeviation="2.66667"/>
<feColorMatrix type="matrix" values="0 0 0 0 0.196487 0 0 0 0 0.196487 0 0 0 0 0.279476 0 0 0 0.06 0"/>
<feBlend mode="multiply" in2="BackgroundImageFix" result="effect1_dropShadow_270_23999"/>
<feColorMatrix in="SourceAlpha" type="matrix" values="0 0 0 0 0 0 0 0 0 0 0 0 0 0 0 0 0 0 127 0" result="hardAlpha"/>
<feOffset dy="2.66667"/>
<feGaussianBlur stdDeviation="1.33333"/>
<feColorMatrix type="matrix" values="0 0 0 0 0.196487 0 0 0 0 0.196487 0 0 0 0 0.279476 0 0 0 0.06 0"/>
<feBlend mode="multiply" in2="effect1_dropShadow_270_23999" result="effect2_dropShadow_270_23999"/>
<feBlend mode="normal" in="SourceGraphic" in2="effect2_dropShadow_270_23999" result="shape"/>
</filter>
</defs>
</svg>
