<svg width="14" height="14" viewBox="0 0 14 14" fill="none" xmlns="http://www.w3.org/2000/svg">
<path fill-rule="evenodd" clip-rule="evenodd" d="M3.11101 12.8203C4.26216 13.5895 5.61553 14 7 14C8.85652 14 10.637 13.2625 11.9497 11.9497C13.2625 10.637 14 8.85652 14 7C14 5.61553 13.5895 4.26216 12.8203 3.11101C12.0511 1.95987 10.9579 1.06266 9.67879 0.532846C8.3997 0.00303298 6.99224 -0.13559 5.63437 0.134506C4.2765 0.404603 3.02922 1.07129 2.05026 2.05026C1.07129 3.02922 0.404603 4.2765 0.134506 5.63437C-0.13559 6.99224 0.00303298 8.3997 0.532846 9.67879C1.06266 10.9579 1.95987 12.0511 3.11101 12.8203ZM3.66658 2.01119C4.65328 1.3519 5.81332 1 7 1C8.5913 1 10.1174 1.63214 11.2426 2.75736C12.3679 3.88258 13 5.4087 13 7C13 8.18669 12.6481 9.34673 11.9888 10.3334C11.3295 11.3201 10.3925 12.0892 9.2961 12.5433C8.19975 12.9974 6.99335 13.1162 5.82946 12.8847C4.66558 12.6532 3.59648 12.0818 2.75736 11.2426C1.91825 10.4035 1.3468 9.33443 1.11529 8.17054C0.88378 7.00666 1.0026 5.80026 1.45673 4.7039C1.91085 3.60755 2.67989 2.67047 3.66658 2.01119ZM6.5 7.205L9.295 10L10 9.295L7.5 6.79V2.5H6.5V7.205Z" fill="#080A1E"/>
</svg>
