<svg width="16" height="16" viewBox="0 0 16 16" fill="none" xmlns="http://www.w3.org/2000/svg">
<path d="M1.3025 15H14.6975C14.7777 15 14.8547 14.9681 14.9114 14.9114C14.9681 14.8547 15 14.7777 15 14.6975C15 14.5125 14.9265 14.3351 14.7957 14.2043C14.6649 14.0735 14.4875 14 14.3025 14H14.25C14.1837 14 14.1201 13.9737 14.0732 13.9268C14.0263 13.8799 14 13.8163 14 13.75V13.7075C14.0013 13.6151 13.9843 13.5233 13.9498 13.4375C13.9153 13.3517 13.8642 13.2736 13.7993 13.2078C13.7344 13.142 13.657 13.0897 13.5718 13.054C13.4865 13.0184 13.3949 13 13.3025 13H2.6975C2.51251 13 2.3351 13.0735 2.20429 13.2043C2.07349 13.3351 2 13.5125 2 13.6975V13.75C2 13.8163 1.97366 13.8799 1.92678 13.9268C1.87989 13.9737 1.8163 14 1.75 14H1.6975C1.51251 14 1.3351 14.0735 1.20429 14.2043C1.07349 14.3351 1 14.5125 1 14.6975C1 14.7777 1.03187 14.8547 1.0886 14.9114C1.14533 14.9681 1.22227 15 1.3025 15Z" fill="#080A1E"/>
<path d="M4.19023 7.5H3.81023C3.72557 7.50017 3.64398 7.53169 3.5812 7.58848C3.51841 7.64526 3.47888 7.72329 3.47023 7.8075L3.07773 11.73C3.06794 11.8274 3.07869 11.9258 3.1093 12.0188C3.13991 12.1118 3.18969 12.1974 3.25542 12.2699C3.32116 12.3425 3.40139 12.4005 3.49092 12.4401C3.58046 12.4797 3.67731 12.5001 3.77523 12.5H4.22523C4.32314 12.5001 4.42 12.4797 4.50953 12.4401C4.59907 12.4005 4.6793 12.3425 4.74503 12.2699C4.81077 12.1974 4.86055 12.1118 4.89115 12.0188C4.92176 11.9258 4.93252 11.8274 4.92273 11.73L4.53023 7.8075C4.52158 7.72329 4.48204 7.64526 4.41926 7.58848C4.35647 7.53169 4.27488 7.50017 4.19023 7.5Z" fill="#080A1E"/>
<path d="M5 6.6325C5 6.59736 4.98604 6.56366 4.96119 6.53881C4.93634 6.51396 4.90264 6.5 4.8675 6.5H3.1325C3.09736 6.5 3.06366 6.51396 3.03881 6.53881C3.01396 6.56366 3 6.59736 3 6.6325V6.695C3 6.77589 3.03213 6.85347 3.08933 6.91067C3.14653 6.96787 3.22411 7 3.305 7H4.6975C4.77796 6.99934 4.85489 6.96692 4.91155 6.90979C4.96821 6.85266 5 6.77546 5 6.695V6.6325Z" fill="#080A1E"/>
<path d="M8.19023 7.5H7.81023C7.72557 7.50017 7.64398 7.53169 7.5812 7.58848C7.51841 7.64526 7.47888 7.72329 7.47023 7.8075L7.07773 11.73C7.06794 11.8274 7.07869 11.9258 7.1093 12.0188C7.13991 12.1118 7.18969 12.1974 7.25542 12.2699C7.32116 12.3425 7.40139 12.4005 7.49092 12.4401C7.58046 12.4797 7.67731 12.5001 7.77523 12.5H8.22523C8.32314 12.5001 8.42 12.4797 8.50953 12.4401C8.59907 12.4005 8.6793 12.3425 8.74503 12.2699C8.81077 12.1974 8.86055 12.1118 8.89116 12.0188C8.92176 11.9258 8.93252 11.8274 8.92273 11.73L8.53023 7.8075C8.52158 7.72329 8.48205 7.64526 8.41926 7.58848C8.35647 7.53169 8.27488 7.50017 8.19023 7.5Z" fill="#080A1E"/>
<path d="M9 6.6325C9 6.59736 8.98604 6.56366 8.96119 6.53881C8.93634 6.51396 8.90264 6.5 8.8675 6.5H7.1325C7.09736 6.5 7.06366 6.51396 7.03881 6.53881C7.01396 6.56366 7 6.59736 7 6.6325V6.695C7 6.77589 7.03213 6.85347 7.08933 6.91067C7.14653 6.96787 7.22411 7 7.305 7H8.6975C8.77796 6.99934 8.85489 6.96692 8.91155 6.90979C8.96821 6.85266 9 6.77546 9 6.695V6.6325Z" fill="#080A1E"/>
<path d="M12.1902 7.5H11.8102C11.7256 7.50017 11.644 7.53169 11.5812 7.58848C11.5184 7.64526 11.4789 7.72329 11.4702 7.8075L11.0777 11.73C11.0679 11.8274 11.0787 11.9258 11.1093 12.0188C11.1399 12.1118 11.1897 12.1974 11.2554 12.2699C11.3212 12.3425 11.4014 12.4005 11.4909 12.4401C11.5805 12.4797 11.6773 12.5001 11.7752 12.5H12.2252C12.3231 12.5001 12.42 12.4797 12.5095 12.4401C12.5991 12.4005 12.6793 12.3425 12.745 12.2699C12.8108 12.1974 12.8605 12.1118 12.8912 12.0188C12.9218 11.9258 12.9325 11.8274 12.9227 11.73L12.5302 7.8075C12.5216 7.72329 12.482 7.64526 12.4193 7.58848C12.3565 7.53169 12.2749 7.50017 12.1902 7.5Z" fill="#080A1E"/>
<path d="M13 6.6325C13 6.59736 12.986 6.56366 12.9612 6.53881C12.9363 6.51396 12.9026 6.5 12.8675 6.5H11.1325C11.0974 6.5 11.0637 6.51396 11.0388 6.53881C11.014 6.56366 11 6.59736 11 6.6325V6.695C11 6.77589 11.0321 6.85347 11.0893 6.91067C11.1465 6.96787 11.2241 7 11.305 7H12.6975C12.778 6.99934 12.8549 6.96692 12.9116 6.90979C12.9682 6.85266 13 6.77546 13 6.695V6.6325Z" fill="#080A1E"/>
<path d="M1.90482 6.00021H14.0948C14.2041 5.99971 14.3104 5.96464 14.3985 5.90001C14.4867 5.83538 14.5521 5.74451 14.5854 5.64043C14.6187 5.53635 14.6182 5.4244 14.584 5.32061C14.5497 5.21683 14.4835 5.12655 14.3948 5.06271L9.28732 1.41271C8.91189 1.14491 8.46223 1.00098 8.00107 1.00098C7.53991 1.00098 7.09026 1.14491 6.71482 1.41271L1.60482 5.06271C1.51613 5.12655 1.44992 5.21683 1.41569 5.32061C1.38146 5.4244 1.38096 5.53635 1.41427 5.64043C1.44758 5.74451 1.51298 5.83538 1.6011 5.90001C1.68922 5.96464 1.79554 5.99971 1.90482 6.00021ZM7.99982 3.22521C8.1531 3.22521 8.30294 3.27066 8.43039 3.35582C8.55784 3.44097 8.65717 3.56201 8.71583 3.70363C8.77449 3.84524 8.78983 4.00107 8.75993 4.1514C8.73003 4.30174 8.65621 4.43983 8.54783 4.54821C8.43944 4.6566 8.30135 4.73041 8.15102 4.76031C8.00068 4.79022 7.84485 4.77487 7.70324 4.71621C7.56163 4.65755 7.44059 4.55822 7.35543 4.43077C7.27027 4.30332 7.22482 4.15349 7.22482 4.00021C7.22482 3.79466 7.30647 3.59754 7.45181 3.4522C7.59715 3.30686 7.79428 3.22521 7.99982 3.22521Z" fill="#080A1E"/>
</svg>
