<svg width="336" height="36" viewBox="0 0 336 36" fill="none" xmlns="http://www.w3.org/2000/svg">
<rect x="1" y="1" width="34" height="34" rx="9" fill="url(#paint0_linear_929_33882)" stroke="#080A1E" stroke-width="2"/>
<path d="M15.1184 11.364C15.1906 11.0348 15.4821 10.8003 15.8191 10.8003H21.0811C21.418 10.8003 21.7096 11.0348 21.7818 11.364L22.8929 16.4297C22.991 16.8772 22.6503 17.3008 22.1922 17.3008H14.708C14.2499 17.3008 13.9091 16.8772 14.0073 16.4297L15.1184 11.364Z" fill="white"/>
<path d="M10.1281 18.8493C10.2002 18.5202 10.4918 18.2856 10.8287 18.2856H16.0907C16.4277 18.2856 16.7192 18.5202 16.7914 18.8493L17.9025 23.9151C18.0007 24.3625 17.6599 24.7861 17.2018 24.7861H9.71763C9.25952 24.7861 8.91879 24.3625 9.01694 23.9151L10.1281 18.8493Z" fill="white"/>
<path d="M20.1084 18.8493C20.1806 18.5202 20.4721 18.2856 20.8091 18.2856H26.0711C26.408 18.2856 26.6996 18.5202 26.7718 18.8493L27.8829 23.9151C27.981 24.3625 27.6403 24.7861 27.1822 24.7861H19.698C19.2399 24.7861 18.8991 24.3625 18.9973 23.9151L20.1084 18.8493Z" fill="white"/>
<rect x="120" width="36" height="36" rx="10" fill="url(#paint1_linear_929_33882)"/>
<path d="M132.545 10.8003C133.924 10.8003 135.085 11.2574 136.027 12.1717C136.969 13.086 137.44 14.2087 137.44 15.5398C137.44 16.8709 136.969 17.9936 136.027 18.9079C135.085 19.8221 133.924 20.2793 132.545 20.2793H130.026V24.9179H127.2V10.8003H132.545ZM132.545 17.6776C133.146 17.6776 133.644 17.4759 134.04 17.0726C134.436 16.6558 134.634 16.1448 134.634 15.5398C134.634 14.9213 134.436 14.4104 134.04 14.007C133.644 13.6037 133.146 13.402 132.545 13.402H130.026V17.6776H132.545Z" fill="white"/>
<path d="M147.058 10.8003H149.7V24.9179H147.058V23.728C146.28 24.7095 145.174 25.2003 143.74 25.2003C142.361 25.2003 141.18 24.6894 140.197 23.6675C139.228 22.6322 138.743 21.3684 138.743 19.8759C138.743 18.3835 139.228 17.1263 140.197 16.1045C141.18 15.0692 142.361 14.5516 143.74 14.5516C145.174 14.5516 146.28 15.0423 147.058 16.0238V10.8003ZM142.184 21.9331C142.73 22.4574 143.413 22.7196 144.232 22.7196C145.051 22.7196 145.727 22.4574 146.259 21.9331C146.792 21.3953 147.058 20.7095 147.058 19.8759C147.058 19.0423 146.792 18.3633 146.259 17.8389C145.727 17.3011 145.051 17.0322 144.232 17.0322C143.413 17.0322 142.73 17.3011 142.184 17.8389C141.651 18.3633 141.385 19.0423 141.385 19.8759C141.385 20.7095 141.651 21.3953 142.184 21.9331Z" fill="white"/>
<rect x="60" width="36" height="36" rx="10" fill="url(#paint2_linear_929_33882)"/>
<path d="M75.1184 11.364C75.1906 11.0348 75.4821 10.8003 75.8191 10.8003H81.0811C81.418 10.8003 81.7096 11.0348 81.7818 11.364L82.8929 16.4297C82.991 16.8772 82.6503 17.3008 82.1922 17.3008H74.708C74.2499 17.3008 73.9091 16.8772 74.0073 16.4297L75.1184 11.364Z" fill="white"/>
<path d="M70.1281 18.8493C70.2002 18.5202 70.4918 18.2856 70.8287 18.2856H76.0907C76.4277 18.2856 76.7192 18.5202 76.7914 18.8493L77.9025 23.9151C78.0007 24.3625 77.6599 24.7861 77.2018 24.7861H69.7176C69.2595 24.7861 68.9188 24.3625 69.0169 23.9151L70.1281 18.8493Z" fill="white"/>
<path d="M80.1084 18.8493C80.1806 18.5202 80.4721 18.2856 80.8091 18.2856H86.0711C86.408 18.2856 86.6996 18.5202 86.7718 18.8493L87.8829 23.9151C87.981 24.3625 87.6403 24.7861 87.1822 24.7861H79.698C79.2399 24.7861 78.8991 24.3625 78.9973 23.9151L80.1084 18.8493Z" fill="white"/>
<rect x="180" width="36" height="36" rx="10" fill="url(#paint3_linear_929_33882)"/>
<path d="M193.088 10.8003C194.606 10.8003 195.885 11.2928 196.922 12.2779C197.96 13.263 198.479 14.4727 198.479 15.9069C198.479 17.3411 197.96 18.5507 196.922 19.5358C195.885 20.5209 194.606 21.0135 193.088 21.0135H190.313V26.0114H187.2V10.8003H193.088ZM193.088 18.2103C193.749 18.2103 194.298 17.993 194.734 17.5584C195.17 17.1093 195.388 16.5588 195.388 15.9069C195.388 15.2405 195.17 14.69 194.734 14.2554C194.298 13.8208 193.749 13.6035 193.088 13.6035H190.313V18.2103H193.088Z" fill="white"/>
<path d="M207.9 17.8409H205.351V22.3607C205.351 22.7374 205.449 23.0126 205.644 23.1865C205.84 23.3603 206.126 23.4617 206.502 23.4907C206.877 23.5052 207.344 23.4979 207.9 23.469V26.0114C205.9 26.2287 204.486 26.0476 203.659 25.4681C202.847 24.8887 202.441 23.8529 202.441 22.3607V17.8409H200.479V15.1463H202.441V12.9516L205.351 12.1041V15.1463H207.9V17.8409Z" fill="white"/>
<rect x="240" width="36" height="36" rx="10" fill="url(#paint4_linear_929_33882)"/>
<path d="M255.118 11.364C255.191 11.0348 255.482 10.8003 255.819 10.8003H261.081C261.418 10.8003 261.71 11.0348 261.782 11.364L262.893 16.4297C262.991 16.8772 262.65 17.3008 262.192 17.3008H254.708C254.25 17.3008 253.909 16.8772 254.007 16.4297L255.118 11.364Z" fill="white"/>
<path d="M250.128 18.8493C250.2 18.5202 250.492 18.2856 250.829 18.2856H256.091C256.428 18.2856 256.719 18.5202 256.791 18.8493L257.903 23.9151C258.001 24.3625 257.66 24.7861 257.202 24.7861H249.718C249.26 24.7861 248.919 24.3625 249.017 23.9151L250.128 18.8493Z" fill="white"/>
<path d="M260.108 18.8493C260.181 18.5202 260.472 18.2856 260.809 18.2856H266.071C266.408 18.2856 266.7 18.5202 266.772 18.8493L267.883 23.9151C267.981 24.3625 267.64 24.7861 267.182 24.7861H259.698C259.24 24.7861 258.899 24.3625 258.997 23.9151L260.108 18.8493Z" fill="white"/>
<rect x="300" width="36" height="36" rx="10" fill="url(#paint5_linear_929_33882)"/>
<path d="M315.118 11.364C315.191 11.0348 315.482 10.8003 315.819 10.8003H321.081C321.418 10.8003 321.71 11.0348 321.782 11.364L322.893 16.4297C322.991 16.8772 322.65 17.3008 322.192 17.3008H314.708C314.25 17.3008 313.909 16.8772 314.007 16.4297L315.118 11.364Z" fill="white"/>
<path d="M310.128 18.8493C310.2 18.5202 310.492 18.2856 310.829 18.2856H316.091C316.428 18.2856 316.719 18.5202 316.791 18.8493L317.903 23.9151C318.001 24.3625 317.66 24.7861 317.202 24.7861H309.718C309.26 24.7861 308.919 24.3625 309.017 23.9151L310.128 18.8493Z" fill="white"/>
<path d="M320.108 18.8493C320.181 18.5202 320.472 18.2856 320.809 18.2856H326.071C326.408 18.2856 326.7 18.5202 326.772 18.8493L327.883 23.9151C327.981 24.3625 327.64 24.7861 327.182 24.7861H319.698C319.24 24.7861 318.899 24.3625 318.997 23.9151L320.108 18.8493Z" fill="white"/>
<defs>
<linearGradient id="paint0_linear_929_33882" x1="18" y1="0" x2="18" y2="36" gradientUnits="userSpaceOnUse">
<stop stop-color="#EBB711"/>
<stop offset="1" stop-color="#D49E00"/>
</linearGradient>
<linearGradient id="paint1_linear_929_33882" x1="149.514" y1="5.51352" x2="161.4" y2="22.95" gradientUnits="userSpaceOnUse">
<stop stop-color="#BAB5B5"/>
<stop offset="0.994792" stop-color="#5A5757"/>
</linearGradient>
<linearGradient id="paint2_linear_929_33882" x1="78" y1="0" x2="78" y2="36" gradientUnits="userSpaceOnUse">
<stop stop-color="#EDEDED"/>
<stop offset="1" stop-color="#C8C8C8"/>
</linearGradient>
<linearGradient id="paint3_linear_929_33882" x1="204.3" y1="14.85" x2="180" y2="4.54054" gradientUnits="userSpaceOnUse">
<stop stop-color="#373636"/>
<stop offset="0.994792" stop-color="#3D3D3D" stop-opacity="0.37"/>
</linearGradient>
<linearGradient id="paint4_linear_929_33882" x1="258" y1="0" x2="258" y2="36" gradientUnits="userSpaceOnUse">
<stop stop-color="#EBB711"/>
<stop offset="1" stop-color="#D49E00"/>
</linearGradient>
<linearGradient id="paint5_linear_929_33882" x1="318" y1="0" x2="318" y2="36" gradientUnits="userSpaceOnUse">
<stop stop-color="#EDEDED"/>
<stop offset="1" stop-color="#C8C8C8"/>
</linearGradient>
</defs>
</svg>
