<svg width="18" height="19" viewBox="0 0 18 19" fill="none" xmlns="http://www.w3.org/2000/svg">
<path d="M16.9419 12.0581L15.25 10.3662V8.125C15.248 6.57622 14.6718 5.08319 13.6328 3.93462C12.5938 2.78605 11.1658 2.06352 9.625 1.90675V0.625H8.375V1.90675C6.83417 2.06352 5.4062 2.78605 4.36721 3.93462C3.32822 5.08319 2.75201 6.57622 2.75 8.125V10.3662L1.05812 12.0581C1.00006 12.1161 0.954007 12.185 0.922586 12.2608C0.891164 12.3367 0.874994 12.4179 0.875 12.5V14.375C0.875 14.5408 0.940848 14.6997 1.05806 14.8169C1.17527 14.9342 1.33424 15 1.5 15H5.875V15.625C5.875 16.4538 6.20424 17.2487 6.79029 17.8347C7.37634 18.4208 8.1712 18.75 9 18.75C9.8288 18.75 10.6237 18.4208 11.2097 17.8347C11.7958 17.2487 12.125 16.4538 12.125 15.625V15H16.5C16.6658 15 16.8247 14.9342 16.9419 14.8169C17.0592 14.6997 17.125 14.5408 17.125 14.375V12.5C17.125 12.4179 17.1088 12.3367 17.0774 12.2608C17.046 12.185 16.9999 12.1161 16.9419 12.0581ZM10.875 15.625C10.875 16.1223 10.6775 16.5992 10.3258 16.9508C9.97419 17.3025 9.49728 17.5 9 17.5C8.50272 17.5 8.02581 17.3025 7.67417 16.9508C7.32254 16.5992 7.125 16.1223 7.125 15.625V15H10.875V15.625Z" fill="#080A1E"/>
</svg>
