<svg width="13" height="13" viewBox="0 0 13 13" fill="none" xmlns="http://www.w3.org/2000/svg">
<path d="M0.62207 9.92779V10.9082C0.62207 11.7187 2.59664 12.3776 5.0304 12.3776C7.46417 12.3776 9.43874 11.7187 9.43874 10.9082V9.92779C8.49049 10.5959 6.757 10.9082 5.0304 10.9082C3.30381 10.9082 1.57032 10.5959 0.62207 9.92779ZM7.96929 3.56096C10.4031 3.56096 12.3776 2.90201 12.3776 2.09151C12.3776 1.28102 10.4031 0.62207 7.96929 0.62207C5.53553 0.62207 3.56096 1.28102 3.56096 2.09151C3.56096 2.90201 5.53553 3.56096 7.96929 3.56096ZM0.62207 7.51928V8.70402C0.62207 9.51451 2.59664 10.1735 5.0304 10.1735C7.46417 10.1735 9.43874 9.51451 9.43874 8.70402V7.51928C8.49049 8.29992 6.75471 8.70402 5.0304 8.70402C3.3061 8.70402 1.57032 8.29992 0.62207 7.51928ZM10.1735 7.77184C11.4891 7.51698 12.3776 7.044 12.3776 6.49985V5.51945C11.845 5.896 11.062 6.15315 10.1735 6.31158V7.77184ZM5.0304 4.29568C2.59664 4.29568 0.62207 5.11765 0.62207 6.13249C0.62207 7.14732 2.59664 7.96929 5.0304 7.96929C7.46417 7.96929 9.43874 7.14732 9.43874 6.13249C9.43874 5.11765 7.46417 4.29568 5.0304 4.29568ZM10.0655 5.58833C11.4432 5.34037 12.3776 4.85361 12.3776 4.29568V3.31529C11.5625 3.89158 10.162 4.20155 8.68794 4.27502C9.36527 4.60335 9.8635 5.04418 10.0655 5.58833Z" fill="#080A1E"/>
</svg>
