<svg width="24" height="24" viewBox="0 0 24 24" fill="none" xmlns="http://www.w3.org/2000/svg">
<rect width="24" height="24" fill="none"/>
<path d="M2 4V6.28133V8.56265V21H22.6372M2.07907 11.1953H2.94884M2 6.05581H2.94884M2.07907 8.58605H2.94884M2 13.7256H2.94884M2.07907 16.2558H2.94884M12.5953 20.0512V21M2.07907 18.8651H2.94884M4.45116 20.0512V21M7.2186 20.0512V21M20.8186 20.0512V21M9.90698 20.0512V21M15.3628 20.0512V21M18.0512 20.0512V21" stroke="#080A1E"/>
<path d="M4.45129 15.5442L7.85129 12.1442H10.6187L11.5676 11.1954M13.5001 9.50005L15.5001 7.49997M15.5001 7.49997V8.99997M15.5001 7.49997H14.0001M4.84664 11.5117L9.98618 16.6512L12.9118 13.7256L16.0001 16.5H21.0001M21.0001 16.5L20.0001 15M21.0001 16.5L20.0001 18" stroke="#080A1E"/>
<circle cx="14.5721" cy="8.11157" r="3.13721" stroke="#080A1E"/>
<path d="M16 10.5664C18 13.5 19.6494 13.8506 20 13.5C20.3506 13.1494 19.5 11.5 16.7511 10" stroke="#080A1E"/>
</svg>
