<svg width="65" height="62" viewBox="0 0 65 62" fill="none" xmlns="http://www.w3.org/2000/svg">
<ellipse cx="32.5" cy="31" rx="32.5" ry="31" fill="#F1BC00"/>
<path d="M30.4444 31.4444L25.7071 26.7071C25.3166 26.3166 24.6834 26.3166 24.2929 26.7071L18.7071 32.2929C18.3166 32.6834 18.3166 33.3166 18.7071 33.7071L24.2929 39.2929C24.6834 39.6834 25.3166 39.6834 25.7071 39.2929L38.2929 26.7071C38.6834 26.3166 39.3166 26.3166 39.7071 26.7071L45.2929 32.2929C45.6834 32.6834 45.6834 33.3166 45.2929 33.7071L39.7071 39.2929C39.3166 39.6834 38.6834 39.6834 38.2929 39.2929L33.8148 34.8148" stroke="url(#paint0_linear_1_10)" stroke-width="3"/>
<path d="M26.1053 38.8947L37.8947 27.1053M26.1053 27.1053L30.5263 31.5263" stroke="black" stroke-width="3"/>
<defs>
<linearGradient id="paint0_linear_1_10" x1="32" y1="26" x2="32" y2="40" gradientUnits="userSpaceOnUse">
<stop/>
<stop offset="1" stop-color="#5B5D68"/>
</linearGradient>
</defs>
</svg>
