<svg width="24" height="24" viewBox="0 0 24 24" fill="none" xmlns="http://www.w3.org/2000/svg">
<rect width="24" height="24" fill="none"/>
<g clip-path="url(#clip0_1_81)">
<path d="M13.0582 11.4516C14.1593 11.4516 15.0553 10.5836 15.0553 9.51655C15.0553 8.44951 14.1593 7.58163 13.0582 7.58163C11.9571 7.58163 11.061 8.44988 11.061 9.5168C11.061 10.5837 11.957 11.4516 13.0582 11.4516ZM13.0582 8.33209C13.2999 8.33209 13.5362 8.40154 13.7372 8.53165C13.9381 8.66176 14.0948 8.84669 14.1873 9.06305C14.2798 9.27941 14.304 9.51749 14.2568 9.74718C14.2097 9.97687 14.0933 10.1879 13.9224 10.3535C13.7514 10.519 13.5337 10.6318 13.2966 10.6775C13.0595 10.7232 12.8138 10.6997 12.5905 10.6101C12.3672 10.5205 12.1763 10.3687 12.042 10.174C11.9077 9.9793 11.8361 9.75037 11.8361 9.51618C11.8366 9.20232 11.9655 8.90148 12.1946 8.67957C12.4237 8.45767 12.7342 8.3328 13.0582 8.33234V8.33209Z" fill="black"/>
<mask id="path-2-inside-1_1_81" fill="white">
<path d="M22.807 0H3.30905C2.99275 0.000362846 2.68951 0.122263 2.46585 0.33896C2.24219 0.555657 2.11638 0.849457 2.116 1.15591V5.36265C2.116 6.00193 2.65129 6.5218 3.30905 6.5218H7.54351V10.7016L4.69532 13.4336C4.62098 13.5051 4.56004 13.5886 4.51522 13.6804L2.416 17.9469L2.25906 17.7958C2.17641 17.7153 2.07819 17.6514 1.97002 17.6078C1.86185 17.5642 1.74587 17.5416 1.6287 17.5415H1.62419C1.5073 17.5411 1.39148 17.5631 1.28344 17.6063C1.17539 17.6495 1.07727 17.7131 0.994739 17.7933L0.261467 18.5037C0.0938647 18.6667 -0.000244141 18.8873 -0.000244141 19.1174C-0.000244141 19.3474 0.0938647 19.5681 0.261467 19.731L4.40484 23.7455C4.48785 23.8264 4.58657 23.8906 4.6953 23.9345C4.80404 23.9783 4.92064 24.0009 5.03842 24.0009C5.15619 24.0009 5.27279 23.9783 5.38153 23.9345C5.49026 23.8906 5.58898 23.8264 5.67199 23.7455L6.40462 23.035C6.48771 22.9545 6.55358 22.8589 6.59844 22.7537C6.6433 22.6485 6.66626 22.5358 6.66601 22.4219C6.66576 22.3081 6.6423 22.1954 6.59698 22.0904C6.55165 21.9854 6.48537 21.8901 6.40192 21.8099L6.3044 21.7153L8.83561 19.2875C8.93415 19.193 8.96258 19.061 8.93441 18.9385H17.2812C17.6234 18.938 17.9513 18.8061 18.1933 18.5717C18.4352 18.3373 18.5713 18.0196 18.5718 17.6881V6.52217H20.1638C20.2665 6.52217 20.365 6.48264 20.4377 6.41225C20.5103 6.34187 20.5511 6.24642 20.5511 6.14688C20.5511 6.04735 20.5103 5.95189 20.4377 5.88151C20.365 5.81113 20.2665 5.77159 20.1638 5.77159H18.5722V4.48069H19.4485C19.7824 4.48069 20.1025 4.3522 20.3386 4.12348C20.5747 3.89476 20.7073 3.58455 20.7073 3.26109C20.7073 2.93763 20.5747 2.62742 20.3386 2.3987C20.1025 2.16998 19.7824 2.04148 19.4485 2.04148H6.66718C6.33333 2.04148 6.01315 2.16998 5.77709 2.3987C5.54102 2.62742 5.4084 2.93763 5.4084 3.26109C5.4084 3.58455 5.54102 3.89476 5.77709 4.12348C6.01315 4.3522 6.33333 4.48069 6.66718 4.48069H7.54351V5.77159H3.30905C3.19763 5.77103 3.09099 5.72765 3.01255 5.65098C2.93411 5.5743 2.89029 5.4706 2.8907 5.36265V1.15629C2.8908 1.04882 2.93491 0.945778 3.01334 0.869786C3.09178 0.793793 3.19813 0.751056 3.30905 0.750957H22.807C22.9179 0.751056 23.0243 0.793793 23.1027 0.869786C23.1812 0.945778 23.2253 1.04882 23.2254 1.15629V5.36302C23.2258 5.47098 23.182 5.57468 23.1035 5.65135C23.0251 5.72802 22.9184 5.7714 22.807 5.77196C22.7043 5.77196 22.6058 5.8115 22.5331 5.88189C22.4605 5.95227 22.4197 6.04772 22.4197 6.14726C22.4197 6.24679 22.4605 6.34225 22.5331 6.41263C22.6058 6.48301 22.7043 6.52255 22.807 6.52255C23.4648 6.52255 24.0001 6.0023 24.0001 5.36339V1.15629C23.9998 0.849767 23.874 0.55587 23.6504 0.339092C23.4267 0.122314 23.1234 0.000363024 22.807 0V0ZM5.85762 22.5037L5.12435 23.2141C5.06543 23.2717 5.01436 23.2731 4.95299 23.2141L0.809749 19.1997C0.787014 19.1776 0.774244 19.1477 0.774244 19.1166C0.774244 19.0854 0.787014 19.0555 0.809749 19.0334L1.54302 18.323C1.56485 18.3023 1.5942 18.2909 1.62471 18.2911C1.65727 18.291 1.68855 18.3034 1.71167 18.3256L5.85544 22.3404C5.86706 22.3513 5.87631 22.3643 5.88261 22.3787C5.88891 22.3931 5.89214 22.4086 5.8921 22.4243C5.89213 22.4391 5.88909 22.4537 5.88317 22.4674C5.87725 22.481 5.86856 22.4933 5.85762 22.5037V22.5037ZM18.5722 2.79194H19.4485C19.5769 2.79207 19.7 2.84154 19.7907 2.9295C19.8815 3.01745 19.9326 3.1367 19.9327 3.26109C19.9323 3.38539 19.8812 3.50449 19.7905 3.59239C19.6997 3.68028 19.5768 3.72984 19.4485 3.73023H18.5718L18.5722 2.79194ZM8.3182 2.79194H17.7975V17.6882C17.7973 17.8207 17.7429 17.9477 17.6462 18.0414C17.5495 18.1351 17.4184 18.1878 17.2816 18.188L9.30465 18.1873L9.74795 16.9079C9.84159 16.6389 9.99871 16.3947 10.2068 16.1948L10.5969 15.8208C10.7314 15.9244 10.8401 16.056 10.9149 16.2059C10.9896 16.3557 11.0286 16.52 11.0287 16.6865C11.0287 16.7357 11.0387 16.7846 11.0582 16.8301C11.0776 16.8756 11.1062 16.917 11.1422 16.9519C11.1781 16.9867 11.2208 17.0144 11.2678 17.0332C11.3148 17.0521 11.3652 17.0618 11.4161 17.0618H14.6996C14.7505 17.0618 14.801 17.0522 14.848 17.0334C14.8951 17.0145 14.9378 16.9869 14.9739 16.952C15.0099 16.9172 15.0385 16.8758 15.058 16.8302C15.0775 16.7846 15.0875 16.7358 15.0875 16.6865C15.0878 16.3882 15.2103 16.1022 15.428 15.8912C15.6457 15.6803 15.9409 15.5617 16.2487 15.5613C16.2996 15.5614 16.35 15.5517 16.397 15.5328C16.444 15.514 16.4867 15.4863 16.5227 15.4515C16.5587 15.4166 16.5872 15.3752 16.6067 15.3297C16.6261 15.2842 16.6361 15.2353 16.6361 15.186V5.72348C16.6361 5.67419 16.6261 5.62538 16.6066 5.57984C16.5872 5.5343 16.5586 5.49292 16.5227 5.45807C16.4867 5.42322 16.444 5.39558 16.397 5.37672C16.35 5.35787 16.2996 5.34817 16.2487 5.34819C15.9409 5.34786 15.6457 5.22921 15.428 5.01828C15.2103 4.80735 15.0878 4.52136 15.0875 4.22306C15.0875 4.17377 15.0775 4.12496 15.058 4.07942C15.0386 4.03388 15.01 3.99251 14.9741 3.95765C14.9381 3.9228 14.8954 3.89516 14.8484 3.8763C14.8014 3.85745 14.751 3.84775 14.7001 3.84777H11.4161C11.3652 3.84775 11.3148 3.85745 11.2678 3.8763C11.2208 3.89516 11.1781 3.9228 11.1422 3.95765C11.1062 3.99251 11.0776 4.03388 11.0582 4.07942C11.0387 4.12496 11.0287 4.17377 11.0287 4.22306C11.0284 4.52136 10.9059 4.80735 10.6882 5.01828C10.4705 5.22921 10.1753 5.34786 9.86746 5.34819C9.81659 5.34817 9.76622 5.35787 9.71921 5.37672C9.67221 5.39558 9.6295 5.42322 9.59353 5.45807C9.55756 5.49292 9.52903 5.5343 9.50957 5.57984C9.49011 5.62538 9.4801 5.67419 9.48012 5.72348V13.5144L8.3182 14.6299V2.79194ZM11.2334 13.5213C11.1191 13.4089 10.983 13.3196 10.8328 13.2586C10.6826 13.1975 10.5215 13.1659 10.3586 13.1656H10.3534C10.3199 13.1656 10.2879 13.1724 10.2549 13.175V6.06101C10.6266 5.9868 10.9676 5.80872 11.2359 5.54877C11.5042 5.28883 11.688 4.95841 11.7646 4.59835H14.3514C14.428 4.9584 14.6118 5.28881 14.8801 5.54876C15.1484 5.8087 15.4894 5.98679 15.861 6.06101V14.849C15.4894 14.9233 15.1485 15.1015 14.8802 15.3614C14.6119 15.6213 14.4281 15.9517 14.3514 16.3117H11.7656C11.6815 15.9149 11.4654 15.5558 11.1503 15.2896L11.225 15.2178C11.4585 14.994 11.5906 14.6895 11.5923 14.3713C11.594 14.0531 11.4652 13.7473 11.2342 13.5211L11.2334 13.5213ZM6.66654 3.73023C6.53816 3.7301 6.41507 3.68063 6.32429 3.59268C6.23352 3.50472 6.18246 3.38547 6.18232 3.26109C6.18273 3.13678 6.23387 3.01768 6.32459 2.92979C6.41531 2.84189 6.53824 2.79234 6.66654 2.79194H7.54286V3.73023H6.66654ZM7.78124 15.8756C7.85179 15.904 7.92947 15.9117 8.0045 15.8976C8.07952 15.8834 8.14856 15.8481 8.20294 15.796L10.0261 14.0463C10.1142 13.9618 10.2152 13.9197 10.3548 13.9162C10.4465 13.9165 10.5362 13.9431 10.6123 13.9928C10.6884 14.0425 10.7475 14.113 10.7822 14.1953C10.8169 14.2776 10.8256 14.3681 10.8071 14.4552C10.7887 14.5423 10.7439 14.6221 10.6786 14.6845L9.66073 15.6615C9.36701 15.9441 9.14517 16.289 9.01275 16.669L8.44672 18.3053C8.43951 18.3262 8.42999 18.346 8.42099 18.3661L8.39976 18.4152C8.36413 18.5002 8.32502 18.7208 8.2908 18.7535L5.77014 21.1715L3.01381 18.4743L5.21363 14.0032C5.22012 13.99 5.22881 13.978 5.23936 13.9676L7.54209 11.7581V15.5297C7.54225 15.6038 7.56512 15.6763 7.60781 15.7379C7.65049 15.7994 7.71108 15.8474 7.78188 15.8756H7.78124Z"/>
</mask>
<path d="M22.807 0H3.30905C2.99275 0.000362846 2.68951 0.122263 2.46585 0.33896C2.24219 0.555657 2.11638 0.849457 2.116 1.15591V5.36265C2.116 6.00193 2.65129 6.5218 3.30905 6.5218H7.54351V10.7016L4.69532 13.4336C4.62098 13.5051 4.56004 13.5886 4.51522 13.6804L2.416 17.9469L2.25906 17.7958C2.17641 17.7153 2.07819 17.6514 1.97002 17.6078C1.86185 17.5642 1.74587 17.5416 1.6287 17.5415H1.62419C1.5073 17.5411 1.39148 17.5631 1.28344 17.6063C1.17539 17.6495 1.07727 17.7131 0.994739 17.7933L0.261467 18.5037C0.0938647 18.6667 -0.000244141 18.8873 -0.000244141 19.1174C-0.000244141 19.3474 0.0938647 19.5681 0.261467 19.731L4.40484 23.7455C4.48785 23.8264 4.58657 23.8906 4.6953 23.9345C4.80404 23.9783 4.92064 24.0009 5.03842 24.0009C5.15619 24.0009 5.27279 23.9783 5.38153 23.9345C5.49026 23.8906 5.58898 23.8264 5.67199 23.7455L6.40462 23.035C6.48771 22.9545 6.55358 22.8589 6.59844 22.7537C6.6433 22.6485 6.66626 22.5358 6.66601 22.4219C6.66576 22.3081 6.6423 22.1954 6.59698 22.0904C6.55165 21.9854 6.48537 21.8901 6.40192 21.8099L6.3044 21.7153L8.83561 19.2875C8.93415 19.193 8.96258 19.061 8.93441 18.9385H17.2812C17.6234 18.938 17.9513 18.8061 18.1933 18.5717C18.4352 18.3373 18.5713 18.0196 18.5718 17.6881V6.52217H20.1638C20.2665 6.52217 20.365 6.48264 20.4377 6.41225C20.5103 6.34187 20.5511 6.24642 20.5511 6.14688C20.5511 6.04735 20.5103 5.95189 20.4377 5.88151C20.365 5.81113 20.2665 5.77159 20.1638 5.77159H18.5722V4.48069H19.4485C19.7824 4.48069 20.1025 4.3522 20.3386 4.12348C20.5747 3.89476 20.7073 3.58455 20.7073 3.26109C20.7073 2.93763 20.5747 2.62742 20.3386 2.3987C20.1025 2.16998 19.7824 2.04148 19.4485 2.04148H6.66718C6.33333 2.04148 6.01315 2.16998 5.77709 2.3987C5.54102 2.62742 5.4084 2.93763 5.4084 3.26109C5.4084 3.58455 5.54102 3.89476 5.77709 4.12348C6.01315 4.3522 6.33333 4.48069 6.66718 4.48069H7.54351V5.77159H3.30905C3.19763 5.77103 3.09099 5.72765 3.01255 5.65098C2.93411 5.5743 2.89029 5.4706 2.8907 5.36265V1.15629C2.8908 1.04882 2.93491 0.945778 3.01334 0.869786C3.09178 0.793793 3.19813 0.751056 3.30905 0.750957H22.807C22.9179 0.751056 23.0243 0.793793 23.1027 0.869786C23.1812 0.945778 23.2253 1.04882 23.2254 1.15629V5.36302C23.2258 5.47098 23.182 5.57468 23.1035 5.65135C23.0251 5.72802 22.9184 5.7714 22.807 5.77196C22.7043 5.77196 22.6058 5.8115 22.5331 5.88189C22.4605 5.95227 22.4197 6.04772 22.4197 6.14726C22.4197 6.24679 22.4605 6.34225 22.5331 6.41263C22.6058 6.48301 22.7043 6.52255 22.807 6.52255C23.4648 6.52255 24.0001 6.0023 24.0001 5.36339V1.15629C23.9998 0.849767 23.874 0.55587 23.6504 0.339092C23.4267 0.122314 23.1234 0.000363024 22.807 0V0ZM5.85762 22.5037L5.12435 23.2141C5.06543 23.2717 5.01436 23.2731 4.95299 23.2141L0.809749 19.1997C0.787014 19.1776 0.774244 19.1477 0.774244 19.1166C0.774244 19.0854 0.787014 19.0555 0.809749 19.0334L1.54302 18.323C1.56485 18.3023 1.5942 18.2909 1.62471 18.2911C1.65727 18.291 1.68855 18.3034 1.71167 18.3256L5.85544 22.3404C5.86706 22.3513 5.87631 22.3643 5.88261 22.3787C5.88891 22.3931 5.89214 22.4086 5.8921 22.4243C5.89213 22.4391 5.88909 22.4537 5.88317 22.4674C5.87725 22.481 5.86856 22.4933 5.85762 22.5037V22.5037ZM18.5722 2.79194H19.4485C19.5769 2.79207 19.7 2.84154 19.7907 2.9295C19.8815 3.01745 19.9326 3.1367 19.9327 3.26109C19.9323 3.38539 19.8812 3.50449 19.7905 3.59239C19.6997 3.68028 19.5768 3.72984 19.4485 3.73023H18.5718L18.5722 2.79194ZM8.3182 2.79194H17.7975V17.6882C17.7973 17.8207 17.7429 17.9477 17.6462 18.0414C17.5495 18.1351 17.4184 18.1878 17.2816 18.188L9.30465 18.1873L9.74795 16.9079C9.84159 16.6389 9.99871 16.3947 10.2068 16.1948L10.5969 15.8208C10.7314 15.9244 10.8401 16.056 10.9149 16.2059C10.9896 16.3557 11.0286 16.52 11.0287 16.6865C11.0287 16.7357 11.0387 16.7846 11.0582 16.8301C11.0776 16.8756 11.1062 16.917 11.1422 16.9519C11.1781 16.9867 11.2208 17.0144 11.2678 17.0332C11.3148 17.0521 11.3652 17.0618 11.4161 17.0618H14.6996C14.7505 17.0618 14.801 17.0522 14.848 17.0334C14.8951 17.0145 14.9378 16.9869 14.9739 16.952C15.0099 16.9172 15.0385 16.8758 15.058 16.8302C15.0775 16.7846 15.0875 16.7358 15.0875 16.6865C15.0878 16.3882 15.2103 16.1022 15.428 15.8912C15.6457 15.6803 15.9409 15.5617 16.2487 15.5613C16.2996 15.5614 16.35 15.5517 16.397 15.5328C16.444 15.514 16.4867 15.4863 16.5227 15.4515C16.5587 15.4166 16.5872 15.3752 16.6067 15.3297C16.6261 15.2842 16.6361 15.2353 16.6361 15.186V5.72348C16.6361 5.67419 16.6261 5.62538 16.6066 5.57984C16.5872 5.5343 16.5586 5.49292 16.5227 5.45807C16.4867 5.42322 16.444 5.39558 16.397 5.37672C16.35 5.35787 16.2996 5.34817 16.2487 5.34819C15.9409 5.34786 15.6457 5.22921 15.428 5.01828C15.2103 4.80735 15.0878 4.52136 15.0875 4.22306C15.0875 4.17377 15.0775 4.12496 15.058 4.07942C15.0386 4.03388 15.01 3.99251 14.9741 3.95765C14.9381 3.9228 14.8954 3.89516 14.8484 3.8763C14.8014 3.85745 14.751 3.84775 14.7001 3.84777H11.4161C11.3652 3.84775 11.3148 3.85745 11.2678 3.8763C11.2208 3.89516 11.1781 3.9228 11.1422 3.95765C11.1062 3.99251 11.0776 4.03388 11.0582 4.07942C11.0387 4.12496 11.0287 4.17377 11.0287 4.22306C11.0284 4.52136 10.9059 4.80735 10.6882 5.01828C10.4705 5.22921 10.1753 5.34786 9.86746 5.34819C9.81659 5.34817 9.76622 5.35787 9.71921 5.37672C9.67221 5.39558 9.6295 5.42322 9.59353 5.45807C9.55756 5.49292 9.52903 5.5343 9.50957 5.57984C9.49011 5.62538 9.4801 5.67419 9.48012 5.72348V13.5144L8.3182 14.6299V2.79194ZM11.2334 13.5213C11.1191 13.4089 10.983 13.3196 10.8328 13.2586C10.6826 13.1975 10.5215 13.1659 10.3586 13.1656H10.3534C10.3199 13.1656 10.2879 13.1724 10.2549 13.175V6.06101C10.6266 5.9868 10.9676 5.80872 11.2359 5.54877C11.5042 5.28883 11.688 4.95841 11.7646 4.59835H14.3514C14.428 4.9584 14.6118 5.28881 14.8801 5.54876C15.1484 5.8087 15.4894 5.98679 15.861 6.06101V14.849C15.4894 14.9233 15.1485 15.1015 14.8802 15.3614C14.6119 15.6213 14.4281 15.9517 14.3514 16.3117H11.7656C11.6815 15.9149 11.4654 15.5558 11.1503 15.2896L11.225 15.2178C11.4585 14.994 11.5906 14.6895 11.5923 14.3713C11.594 14.0531 11.4652 13.7473 11.2342 13.5211L11.2334 13.5213ZM6.66654 3.73023C6.53816 3.7301 6.41507 3.68063 6.32429 3.59268C6.23352 3.50472 6.18246 3.38547 6.18232 3.26109C6.18273 3.13678 6.23387 3.01768 6.32459 2.92979C6.41531 2.84189 6.53824 2.79234 6.66654 2.79194H7.54286V3.73023H6.66654ZM7.78124 15.8756C7.85179 15.904 7.92947 15.9117 8.0045 15.8976C8.07952 15.8834 8.14856 15.8481 8.20294 15.796L10.0261 14.0463C10.1142 13.9618 10.2152 13.9197 10.3548 13.9162C10.4465 13.9165 10.5362 13.9431 10.6123 13.9928C10.6884 14.0425 10.7475 14.113 10.7822 14.1953C10.8169 14.2776 10.8256 14.3681 10.8071 14.4552C10.7887 14.5423 10.7439 14.6221 10.6786 14.6845L9.66073 15.6615C9.36701 15.9441 9.14517 16.289 9.01275 16.669L8.44672 18.3053C8.43951 18.3262 8.42999 18.346 8.42099 18.3661L8.39976 18.4152C8.36413 18.5002 8.32502 18.7208 8.2908 18.7535L5.77014 21.1715L3.01381 18.4743L5.21363 14.0032C5.22012 13.99 5.22881 13.978 5.23936 13.9676L7.54209 11.7581V15.5297C7.54225 15.6038 7.56512 15.6763 7.60781 15.7379C7.65049 15.7994 7.71108 15.8474 7.78188 15.8756H7.78124Z" fill="black" stroke="black" stroke-width="4" mask="url(#path-2-inside-1_1_81)"/>
</g>
<defs>
<clipPath id="clip0_1_81">
<rect width="24" height="24" fill="white"/>
</clipPath>
</defs>
</svg>
