<svg width="24" height="24" viewBox="0 0 24 24" fill="none" xmlns="http://www.w3.org/2000/svg">
<rect width="24" height="24" fill="none"/>
<path fill-rule="evenodd" clip-rule="evenodd" d="M18.25 4.5V19.5H5.75V4.5H18.25ZM18.25 3.25H5.75C5.41848 3.25 5.10054 3.3817 4.86612 3.61612C4.6317 3.85054 4.5 4.16848 4.5 4.5V19.5C4.5 19.8315 4.6317 20.1495 4.86612 20.3839C5.10054 20.6183 5.41848 20.75 5.75 20.75H18.25C18.5815 20.75 18.8995 20.6183 19.1339 20.3839C19.3683 20.1495 19.5 19.8315 19.5 19.5V4.5C19.5 4.16848 19.3683 3.85054 19.1339 3.61612C18.8995 3.3817 18.5815 3.25 18.25 3.25ZM8.875 16.375H7.625V17.625H8.875V16.375ZM15.125 16.375H16.375V17.625H15.125V16.375ZM8.875 13.25H7.625V14.5H8.875V13.25ZM15.125 13.25H16.375V14.5H15.125V13.25ZM8.875 10.125H7.625V11.375H8.875V10.125ZM11.375 16.375H12.625V17.625H11.375V16.375ZM12.625 13.25H11.375V14.5H12.625V13.25ZM11.375 10.125H12.625V11.375H11.375V10.125ZM16.375 10.125H15.125V11.375H16.375V10.125ZM7.625 6.375H16.375V8.25H7.625V6.375Z" fill="black"/>
</svg>
