<svg width="24" height="24" viewBox="0 0 24 24" fill="none" xmlns="http://www.w3.org/2000/svg">
<rect width="24" height="24" fill="none"/>
<g clip-path="url(#clip0_1_80)">
<path d="M19.2714 10.137L19.2714 10.1391C19.2714 10.1399 19.2712 10.1406 19.2711 10.141C18.9765 10.3928 18.4441 10.6321 17.7217 10.8071C17.0056 10.9806 16.1327 11.0837 15.1873 11.0837L15.187 11.0837C14.7406 11.0842 14.2945 11.0602 13.8507 11.012C13.7184 10.768 13.5664 10.5361 13.3965 10.3189C13.9795 10.4064 14.59 10.4491 15.1873 10.4491C16.0082 10.4491 16.8531 10.369 17.6174 10.2021C18.2288 10.0685 18.8017 9.87647 19.2714 9.61617L19.2714 10.137Z" stroke="black" stroke-width="0.6"/>
<path d="M19.2714 12.1675L19.2715 12.1695C19.2715 12.1704 19.2713 12.171 19.2711 12.1714C18.9769 12.4233 18.4447 12.6625 17.722 12.8374C17.0059 13.0107 16.1329 13.1136 15.1873 13.1136C14.9348 13.1136 14.6895 13.1065 14.4507 13.0924V12.971H14.4329C14.414 12.7385 14.3788 12.5077 14.3276 12.2804C14.6144 12.2983 14.9026 12.3071 15.1884 12.3071C16.6375 12.3071 18.1828 12.0803 19.2715 11.575L19.2714 12.1675Z" stroke="black" stroke-width="0.6"/>
<path d="M19.2714 14.1827L19.2715 14.1848C19.2715 14.1856 19.2713 14.1863 19.2711 14.1867C18.9769 14.4384 18.4446 14.6774 17.722 14.8522C17.0059 15.0255 16.1328 15.1284 15.1873 15.1284L15.1867 15.1284C14.8488 15.1291 14.5111 15.1156 14.1744 15.0879C14.2622 14.8356 14.3296 14.5764 14.3757 14.3128C14.6462 14.3285 14.9179 14.3364 15.1873 14.3364C16.6371 14.3364 18.1828 14.1099 19.2715 13.6042L19.2714 14.1827ZM19.4782 13.2713L19.5715 13.2715H19.4783H19.4769H19.4762H19.4741H19.4725H19.2715C19.2715 13.2713 19.2715 13.2711 19.2715 13.271L19.4728 13.2713L19.4742 13.2713L19.4762 13.2713L19.4768 13.2713L19.4782 13.2713Z" stroke="black" stroke-width="0.6"/>
<path d="M13.0361 13.3806L13.0416 13.625H13.0442C12.9953 15.7656 11.2677 17.4816 9.14867 17.4816C6.99891 17.4816 5.25208 15.7161 5.25208 13.5317V13.3779C5.3032 11.2396 7.02981 9.52438 9.14457 9.52438C11.2604 9.52438 12.9879 11.2392 13.0361 13.3806Z" stroke="black" stroke-width="0.5"/>
<path d="M19.2694 7.86908L19.2731 7.9261C19.2679 8.02912 19.2081 8.16127 19.0316 8.31548C18.8471 8.47665 18.5628 8.63549 18.1855 8.77491C17.4334 9.0529 16.3745 9.23093 15.1904 9.23093C14.0061 9.23093 12.9472 9.05339 12.1951 8.77567C11.8179 8.63637 11.5336 8.47762 11.3492 8.31641C11.1641 8.1547 11.1073 8.01696 11.1073 7.91118V7.86122C11.1167 7.75602 11.1844 7.61955 11.3723 7.46266C11.5633 7.30322 11.8508 7.14749 12.2268 7.01138C12.9769 6.73986 14.0222 6.56688 15.1883 6.56688C16.3544 6.56688 17.3996 6.73986 18.1495 7.01137C18.5255 7.14748 18.8129 7.3032 19.0038 7.46264C19.1964 7.62345 19.2627 7.76283 19.2694 7.86908ZM16.3473 7.9023V7.8901L16.3463 7.87794L16.3454 7.86712C16.3343 7.71285 16.2437 7.60388 16.1654 7.53846C16.0849 7.47123 15.9869 7.42306 15.8903 7.38807C15.6953 7.31739 15.4474 7.2794 15.1878 7.2794C14.9282 7.2794 14.6802 7.31739 14.4851 7.38805C14.3886 7.42303 14.2905 7.47121 14.2099 7.53852C14.131 7.60443 14.0397 7.7147 14.0299 7.87104L14.0293 7.88039V7.88976V7.9023C14.0293 8.06449 14.1193 8.18171 14.1993 8.25165C14.2801 8.32221 14.3796 8.37217 14.4767 8.40812C14.6733 8.48089 14.9249 8.51998 15.1883 8.51998C15.4517 8.51998 15.7033 8.48089 15.8999 8.40812C15.997 8.37217 16.0965 8.32221 16.1773 8.25165C16.2573 8.18171 16.3473 8.06449 16.3473 7.9023Z" stroke="black" stroke-width="0.6"/>
<path d="M7.30421 21.3269L7.4016 21.2518V21.2287C7.43641 21.1833 7.46376 21.1326 7.48265 21.0786L8.32224 23.272C8.32225 23.272 8.32226 23.272 8.32226 23.272C8.3254 23.2803 8.32519 23.2897 8.32178 23.2977C8.3185 23.3054 8.31313 23.3101 8.30823 23.3122L7.21478 23.7477C7.21474 23.7477 7.2147 23.7477 7.21465 23.7477C7.20975 23.7496 7.20453 23.7495 7.19959 23.7473C7.19455 23.7451 7.18909 23.7403 7.18583 23.7324L6.06045 20.7919C6.06043 20.7919 6.06041 20.7918 6.06039 20.7918C6.05731 20.7835 6.05754 20.7742 6.06094 20.7662C6.06421 20.7585 6.06955 20.7539 6.07444 20.7518L6.57871 20.5509C6.51252 20.6291 6.47021 20.7246 6.45626 20.8259C6.44192 20.93 6.45811 21.0363 6.50311 21.1315C6.54813 21.2267 6.62022 21.307 6.71099 21.3615C6.80182 21.416 6.90697 21.4421 7.01302 21.4359C7.11906 21.4297 7.22038 21.3915 7.30421 21.3269ZM7.15928 20.3938C7.1211 20.3801 7.0817 20.371 7.04186 20.3665L7.16833 20.3161L7.07585 20.0839L7.16863 20.316C7.17335 20.3141 7.17836 20.3142 7.18311 20.3163C7.18798 20.3184 7.19334 20.3232 7.19647 20.331L7.23315 20.4268C7.20952 20.414 7.18484 20.4029 7.15928 20.3938Z" stroke="black" stroke-width="0.5"/>
<path d="M9.87766 19.8824L9.81947 19.8863C9.79707 19.8879 9.77727 19.8898 9.75029 19.8932C9.73195 19.8955 9.71393 19.8983 9.69211 19.9017C9.68147 19.9034 9.66993 19.9052 9.65701 19.9071C9.63616 19.9102 9.61263 19.9148 9.58249 19.921L9.50748 19.5535M9.87766 19.8824L16.048 19.9978C15.3045 20.9909 14.6665 21.7096 14.3488 21.9869C14.2197 22.0965 14.07 22.1769 13.9095 22.2234C12.7081 22.5472 11.4384 22.2679 10.9498 22.1415L10.949 22.1413C10.8645 22.1197 10.7114 22.0939 10.5744 22.0754C10.5031 22.0657 10.4293 22.0572 10.3631 22.0517C10.3048 22.0469 10.2275 22.0421 10.1618 22.0481L10.1616 22.0481C9.75005 22.0861 9.3377 22.2617 8.97984 22.4669L8.20199 20.4261C8.41163 20.3963 8.61539 20.3338 8.80611 20.241C8.9277 20.1819 9.08068 20.1065 9.14111 20.0729C9.21445 20.0349 9.29069 20.0032 9.36903 19.978L9.36904 19.978L9.37102 19.9774C9.40467 19.9664 9.4379 19.9563 9.47104 19.9473C9.50319 19.9386 9.54429 19.9288 9.58329 19.9208L9.50748 19.5535M9.87766 19.8824C9.93086 19.8796 9.98417 19.8796 10.0374 19.8824L10.1285 19.8885L10.141 19.8893H10.1504L13.7343 20.1641L11.0955 20.153L10.937 20.1523L10.8261 20.2656C10.8259 20.2657 10.8257 20.266 10.8253 20.2663C10.8199 20.2717 10.7916 20.3 10.7672 20.3333C10.7426 20.3669 10.6831 20.4559 10.6831 20.5839C10.6831 20.7059 10.7357 20.7955 10.7785 20.8474C10.7981 20.8714 10.8169 20.889 10.8282 20.8991C10.8378 20.9077 10.8478 20.9159 10.8504 20.9181L10.851 20.9185L10.9554 21.0052L11.0911 21.0049L14.3301 20.9981L14.3412 20.9981L14.3523 20.9974C14.6184 20.981 14.8345 20.8376 14.9533 20.6172C15.0472 20.4431 15.0696 20.2436 15.0453 20.052C15.0495 20.0487 15.0536 20.0454 15.0578 20.0421C15.3476 19.8108 15.7122 19.5197 16.006 19.2245L16.0066 19.2238C16.4747 18.7512 16.9217 18.2266 17.2409 17.852C17.243 17.8495 17.2452 17.847 17.2473 17.8446C16.9346 18.5903 16.5317 19.3508 16.0481 19.9976L9.87766 19.8824ZM9.50748 19.5535C9.5382 19.5473 9.56994 19.541 9.60117 19.5363C9.60989 19.535 9.61914 19.5335 9.62867 19.5321C9.65321 19.5282 9.67958 19.5241 9.70355 19.5211C9.73683 19.517 9.76345 19.5143 9.79314 19.5123L9.37285 19.5854C9.41329 19.5744 9.46192 19.5629 9.50748 19.5535Z" stroke="black" stroke-width="0.75"/>
<path d="M17.3366 3.63403L17.2127 3.68337C17.2082 3.68488 17.2035 3.68467 17.199 3.68261C17.1941 3.68036 17.1887 3.67545 17.1856 3.66743L17.1854 3.66688L17.1509 3.57673C17.1728 3.58827 17.1956 3.5983 17.2191 3.60672C17.2573 3.62037 17.2967 3.62948 17.3366 3.63403ZM16.9768 2.77185C16.9433 2.81553 16.9167 2.86414 16.8979 2.91587L16.0593 0.724912C16.0592 0.724892 16.0592 0.724872 16.0592 0.724852C16.0561 0.716576 16.0563 0.707153 16.0597 0.699123C16.063 0.691475 16.0683 0.686855 16.0732 0.684709L17.1636 0.252862C17.1686 0.250908 17.1738 0.250989 17.1788 0.253196C17.1839 0.255429 17.1893 0.260261 17.1926 0.268127L18.318 3.20859C18.318 3.20864 18.318 3.20869 18.318 3.20874C18.3211 3.21698 18.3209 3.22635 18.3175 3.23434C18.3142 3.24201 18.3089 3.24663 18.304 3.24876L17.7997 3.44959C17.8659 3.37138 17.9082 3.27589 17.9222 3.17464C17.9365 3.07051 17.9203 2.96422 17.8753 2.86905C17.8303 2.77382 17.7582 2.69354 17.6674 2.63903C17.5766 2.58448 17.4714 2.5584 17.3654 2.56463C17.2594 2.57085 17.158 2.60904 17.0742 2.67365L16.9768 2.74871V2.77185Z" stroke="black" stroke-width="0.5"/>
<path d="M14.8709 4.44698L14.7959 4.07956C14.7658 4.08571 14.7422 4.09027 14.7214 4.09341C14.7084 4.09536 14.6969 4.09715 14.6862 4.09881C14.6644 4.1022 14.6464 4.105 14.6281 4.1073C14.6011 4.11069 14.5813 4.11261 14.5589 4.11419L14.5008 4.11811C14.4475 4.1209 14.3942 4.12089 14.341 4.11811L14.2499 4.11201L14.2374 4.11117H14.228L10.644 3.83638L13.2829 3.84752L13.4414 3.84819L13.5523 3.73496C13.5525 3.73482 13.5527 3.73456 13.5531 3.73418C13.5585 3.72882 13.5868 3.70055 13.6112 3.66727C13.6358 3.6336 13.6953 3.54462 13.6953 3.41661C13.6953 3.2946 13.6427 3.20506 13.6 3.15309C13.5803 3.12915 13.5615 3.11155 13.5502 3.10143C13.5406 3.09287 13.5307 3.08464 13.528 3.08244L13.5274 3.08198L13.423 2.99535L13.2873 2.99563L10.0483 3.00243L10.0372 3.00245L10.0261 3.00313C9.75998 3.01947 9.54391 3.16287 9.4251 3.38328C9.33122 3.55743 9.3088 3.75689 9.33306 3.94848C9.32894 3.95178 9.32479 3.95509 9.32064 3.9584C9.0308 4.18974 8.66617 4.48078 8.3724 4.77606L8.37179 4.77667C7.90368 5.24935 7.45669 5.77391 7.13749 6.1485C7.13537 6.15099 7.13325 6.15348 7.13114 6.15596C7.44381 5.41026 7.84674 4.64969 8.33026 4.00293C9.07386 3.00969 9.71185 2.29091 10.0296 2.01365C10.1587 1.90405 10.3084 1.82365 10.4689 1.77717C11.6702 1.45331 12.94 1.73261 13.4286 1.85896L13.4294 1.85917C13.5139 1.88082 13.667 1.90664 13.804 1.92514C13.8753 1.93476 13.9491 1.94335 14.0153 1.94883C14.0736 1.95366 14.1509 1.95843 14.2166 1.95242L14.2168 1.9524C14.6284 1.91446 15.0407 1.73878 15.3986 1.53359L16.1764 3.57443C15.9668 3.6042 15.763 3.66668 15.5723 3.75956C15.4507 3.81859 15.2977 3.89397 15.2373 3.92764C15.164 3.96565 15.0877 3.99736 15.0094 4.02246L15.0074 4.02311C14.9737 4.0341 14.9405 4.0442 14.9074 4.05319C14.8752 4.06192 14.8341 4.07168 14.7951 4.07973L14.8709 4.44698ZM14.8709 4.44698C14.9165 4.43758 14.9651 4.42608 15.0056 4.41511C15.046 4.40414 15.0854 4.39212 15.1238 4.37958C15.2245 4.34733 15.3222 4.30643 15.4161 4.25732L14.5853 4.48826C14.615 4.48617 14.6416 4.48356 14.6749 4.47938C14.6988 4.47637 14.7252 4.47227 14.7497 4.46846C14.7592 4.46698 14.7685 4.46554 14.7772 4.46423C14.8085 4.45952 14.8402 4.45325 14.8709 4.44698Z" stroke="black" stroke-width="0.75"/>
<path d="M11 13.6125C11 15.0041 10.3906 15.9941 8.89063 15.9941C8.78605 16.002 8.68115 16.002 8.57657 15.9941V13.7225L8 13.9645V13.5575L8.57657 13.3155V12.9195L8 13.167V12.76L8.57657 12.5125V11H9.12031V12.2815L10.2734 11.7975V12.21L9.12031 12.6885V13.0845L10.2687 12.6005V13.0075L9.12031 13.4915V15.4661C9.84218 15.4276 10.4562 14.9161 10.4844 13.6345L11 13.6125Z" stroke="black" stroke-width="0.35" stroke-miterlimit="10"/>
</g>
<path d="M3.10016 5C1.77918 6.98611 0.500061 14.5 3.10016 18" stroke="#16C784" stroke-width="1.5"/>
<path d="M3.50006 7.16675L3.10006 5.00008L1.00006 6" stroke="#16C784" stroke-width="1.5"/>
<path d="M21.3999 18C22.7209 16.0139 24 8.5 21.3999 5" stroke="#FF4747" stroke-width="1.5"/>
<path d="M21 15.8333L21.4 17.9999L23.5 17" stroke="#FF4747" stroke-width="1.5"/>
<defs>
<clipPath id="clip0_1_80">
<rect width="14.5714" height="24" fill="white" transform="translate(5)"/>
</clipPath>
</defs>
</svg>
