<svg width="24" height="24" viewBox="0 0 24 24" fill="none" xmlns="http://www.w3.org/2000/svg">
<rect width="24" height="24" fill="none"/>
<path fill-rule="evenodd" clip-rule="evenodd" d="M4.5 7H19.5C19.8315 7 20.1495 7.1317 20.3839 7.36612C20.6183 7.60054 20.75 7.91848 20.75 8.25V18.25C20.75 18.5815 20.6183 18.8995 20.3839 19.1339C20.1495 19.3683 19.8315 19.5 19.5 19.5H4.5C4.16848 19.5 3.85054 19.3683 3.61612 19.1339C3.3817 18.8995 3.25 18.5815 3.25 18.25V5.125C3.25 4.79348 3.3817 4.47554 3.61612 4.24112C3.85054 4.0067 4.16848 3.875 4.5 3.875H18.25V5.125H4.5V7ZM4.5 8.25V18.25H19.5V16.375H14.5C14.1685 16.375 13.8505 16.2433 13.6161 16.0089C13.3817 15.7745 13.25 15.4565 13.25 15.125V11.375C13.25 11.0435 13.3817 10.7255 13.6161 10.4911C13.8505 10.2567 14.1685 10.125 14.5 10.125H19.5V8.25H4.5ZM19.5 15.125V11.375H14.5V15.125H19.5ZM15.75 12.625H17V13.875H15.75V12.625Z" fill="#080A1E"/>
</svg>
