<svg width="16" height="18" viewBox="0 0 16 18" fill="none" xmlns="http://www.w3.org/2000/svg">
<path d="M7.36266 0.875C7.32607 0.875057 7.28956 0.87832 7.25354 0.88475C5.26339 1.23824 3.47442 2.31563 2.23122 3.90941C0.98802 5.50318 0.378521 7.5006 0.520121 9.51694C0.661721 11.5333 1.5444 13.4259 2.99815 14.8303C4.4519 16.2347 6.37389 17.0514 8.39391 17.1233C8.49648 17.1271 8.59904 17.1233 8.70073 17.1233C10.0125 17.124 11.3051 16.8088 12.4694 16.2045C13.6336 15.6001 14.6352 14.7243 15.3895 13.6511C15.4506 13.5586 15.4863 13.4516 15.493 13.3409C15.4996 13.2303 15.477 13.1198 15.4273 13.0207C15.3777 12.9215 15.3028 12.8372 15.2102 12.7762C15.1176 12.7153 15.0106 12.6798 14.8999 12.6733C13.6513 12.5638 12.4446 12.1686 11.373 11.5183C10.3015 10.868 9.39382 9.98 8.72021 8.92296C8.0466 7.86592 7.62507 6.66815 7.48821 5.42221C7.35135 4.17628 7.50282 2.91556 7.93092 1.7375C7.96733 1.64325 7.98071 1.54166 7.96993 1.44119C7.95914 1.34072 7.92451 1.24428 7.86892 1.1599C7.81333 1.07552 7.73838 1.00565 7.65032 0.95609C7.56226 0.906534 7.46364 0.878732 7.36266 0.875Z" fill="#080A1E"/>
</svg>
