<svg width="18" height="24" viewBox="0 0 18 24" fill="none" xmlns="http://www.w3.org/2000/svg">
<rect y="11" width="3.6" height="13" rx="1" fill="#535353"/>
<path d="M0 21H3.6V23C3.6 23.5523 3.15228 24 2.6 24H1C0.447716 24 0 23.5523 0 23V21Z" fill="#F1BC00"/>
<rect x="7.2002" width="3.6" height="24" rx="1" fill="#535353"/>
<path d="M7.2002 1C7.2002 0.447715 7.64791 0 8.2002 0H9.80019C10.3525 0 10.8002 0.447715 10.8002 1V16H7.2002V1Z" fill="#F1BC00"/>
<rect x="14.3999" y="7" width="3.6" height="17" rx="1" fill="#535353"/>
<path d="M14.3999 13H17.9999V23C17.9999 23.5523 17.5522 24 16.9999 24H15.3999C14.8476 24 14.3999 23.5523 14.3999 23V13Z" fill="#F1BC00"/>
</svg>
